<svg width="441" height="420" viewBox="0 0 441 420" fill="none" xmlns="http://www.w3.org/2000/svg">
<path fill-rule="evenodd" clip-rule="evenodd" d="M52.0388 420H0.283203L33.6417 386.727C51.9889 368.427 73.7502 343.125 82.0002 330.501C90.2502 317.878 101.5 302.476 107 296.275C112.5 290.074 144 244.5 177 195C210 145.5 238.751 100.5 240.891 94.9999C243.032 89.4999 264.466 65.3718 288.523 41.3818C331.097 -1.07394 333.619 -2.09054 383.151 3.23433C411.139 6.2432 436.58 11.2464 439.686 14.3525C442.792 17.4586 438.352 19.9999 429.819 19.9999C418.579 19.9999 412.549 34.4641 407.933 72.4999C404.429 101.375 405.796 139.451 410.972 157.113C416.148 174.776 420.293 228.077 420.183 275.56C420.041 337.087 415.245 370.223 403.492 390.883C390.058 414.499 380.264 419.885 350.667 419.937C324.314 419.983 313.064 415.149 309.715 402.34C307.175 392.627 308.584 375.752 312.846 364.84C317.107 353.928 320.911 333.244 321.297 318.875C321.919 295.762 318.83 293.304 294.5 297.554C279.375 300.196 251.25 302.952 232 303.679C210.586 304.487 186.326 314.434 169.5 329.303C154.375 342.67 141.85 358.42 141.667 364.303C141.484 370.186 132.888 385.125 122.565 397.5C107.534 415.517 93.483 420 52.0388 420ZM273.844 245.024L317 244.082L317.87 167.458C318.349 125.315 316.099 92.5241 312.87 94.5892C309.642 96.6543 298 115.592 287 136.672C276 157.752 259.281 183.556 249.846 194.014C240.411 204.472 242.002 204.999 232.002 219.999C231.065 221.404 227.002 224.999 227.002 229.999C227.002 234.999 224.441 235.859 225.754 237.983C228.467 242.374 250.108 245.543 273.844 245.024Z" fill="black"/>
</svg>
