<svg width="42" height="41" viewBox="0 0 42 41" fill="none" xmlns="http://www.w3.org/2000/svg">
<path fill-rule="evenodd" clip-rule="evenodd" d="M4.61079 40.9847C3.45006 40.9763 1.82537 40.5331 1.00037 40C-0.281531 39.1716 -0.24518 39.0284 1.25037 39.0153C2.21287 39.0069 3.0348 38.6625 3.07688 38.25C3.11896 37.8375 3.30112 36.825 3.48168 36C3.66224 35.175 4.05474 33.375 4.3539 32C4.65307 30.625 5.11997 28.6 5.39146 27.5C5.66296 26.4 6.59201 23.025 7.45603 20C8.32005 16.975 9.20377 13.825 9.41985 13C9.63592 12.175 10.1125 10.3272 10.4789 8.89375C10.923 7.15627 10.6368 5.77925 9.62031 4.76279C8.78172 3.9242 8.37418 2.95951 8.71465 2.61904C9.05513 2.27856 10.5337 1.99999 12.0004 1.99999C13.467 1.99999 14.9786 1.68839 15.3595 1.30755C15.7403 0.926712 17.0089 0.469064 18.1786 0.290556C19.3483 0.112049 21.0783 0.6655 22.023 1.52045C23.532 2.88607 23.5853 3.52589 22.4622 6.78745C21.759 8.82934 20.8544 12.2563 20.452 14.403L19.7204 18.306L23.1104 17.6511C25.027 17.2809 27.4761 15.8018 28.7454 14.2481C29.9802 12.7366 30.9927 10.99 30.9954 10.3666C30.9981 9.74327 32.0129 8.96679 33.2504 8.64111L35.5004 8.04897L33.2417 6.46168C31.9994 5.58866 30.0869 4.80688 28.9917 4.72438C27.8964 4.64188 27.0004 4.22014 27.0004 3.78718C27.0004 3.35423 27.1129 2.96541 27.2504 2.92314C27.3879 2.88087 30.5949 2.61865 34.3772 2.34043L41.254 1.83458L40.5354 5.66499C40.1402 7.77172 39.3171 9.80424 38.7063 10.1817C38.0956 10.5592 37.2677 10.6652 36.8665 10.4173C36.4654 10.1694 35.4161 10.9866 34.5348 12.2333C33.6534 13.48 32.2029 16.975 31.3113 20C30.4198 23.025 29.5099 24.9745 29.2895 24.3323C29.0472 23.6268 27.5255 23.3337 25.4445 23.5918C23.5113 23.8316 23.5 23.5 22.0004 23.0095C22 23 22 23 21 22.5C20 22 20.5 22.5 19.7519 21.25C19.5 20.5 19.5504 20 19.0004 20C18.4504 20 17.9318 20.5625 17.8481 21.25C17.7643 21.9375 17.5912 22.95 17.4634 23.5C17.3356 24.05 17.1457 24.725 17.0414 25C16.9371 25.275 16.5874 26.625 16.2644 28C15.9413 29.375 15.6771 32.5863 15.6772 35.1362L15.6774 39.7724L11.1993 40.3862C8.73637 40.7238 5.77153 40.9931 4.61079 40.9847Z" fill="black"/>
</svg>
