<svg version="1.1" xmlns="http://www.w3.org/2000/svg" xmlns:xlink="http://www.w3.org/1999/xlink" width="80" height="80" viewBox="0 0 80 80"><path stroke="none" fill="black" fill-rule="evenodd" d="M54.25,60.969591314099254C53.8375,60.95286653685385 52.7125,60.48050598574679 51.75,59.91990120052802C50.342301597759075,59.0999921507191 49.99700480732382,57.49223258515181 49.984687225482936,51.70030988642877C49.97626519949855,47.74013944889295 49.63876519949855,43.99817600642731 49.234687225482936,43.38483556983846C48.81292710195959,42.74465581510731 44.208571328122616,42.06766688426647 38.42462524161088,41.795407501232425L28.34925048322177,41.321143862787935L28.352082733638415,45.91057193139397C28.35364047136757,48.43475736912728 28.275059112642673,52.6375 28.17745749202753,55.25C28.02025658441423,59.45779254024019 27.743164887482198,59.99961675601987 25.75,59.9966425970856L23.5,59.993285194171186L23.5,38.7466425970856L23.5,17.5L25.96675996580676,17.5C28.406966648772325,17.5 28.434701472508138,17.60151470722123 28.543283300393405,26.93056333981712L28.653046669173296,36.36112667963424L39.076523334586646,36.409804250803106L49.5,36.45848182197197L49.5,27.21770077355278C49.5,19.103886827781736 49.72569915065624,17.905234484595898 51.350663101990904,17.38912296455778C52.36852780808591,17.065834746241087 53.58187338003748,17.18352780808603 54.04698659521663,17.650663101990986C54.51209981039578,18.117798395895942 54.94235670109426,27.5 55.00311301899103,38.5C55.0638693368878,49.5 55.088023764936224,59.0625 55.05678952576531,59.75C55.02555528659439,60.4375 54.6625,60.98631609134466 54.25,60.969591314099254z"/></svg>