<svg version="1.1" xmlns="http://www.w3.org/2000/svg" xmlns:xlink="http://www.w3.org/1999/xlink" width="80" height="80" viewBox="0 0 80 80"><path stroke="none" fill="black" fill-rule="evenodd" d="M52.54797180980938,61.0C51.81427499901699,61.0 50.94083264648571,60.288195639293896 50.606988804184326,59.41821253176421C50.27314496188295,58.54822942423453 49.993109251467324,54.83572942423453 49.984687225482936,51.16821253176421C49.97626519949855,47.500695639293895 49.63876519949855,43.99817600642731 49.234687225482936,43.38483556983846C48.81292710195959,42.74465581510731 44.208571328122616,42.06766688426647 38.42462524161088,41.795407501232425L28.349250483221766,41.321143862787935L28.35208273363841,45.91057193139397C28.353640471367566,48.43475736912728 28.27505911264267,52.6375 28.17745749202753,55.25C28.020235053654893,59.45836885350645 27.74343787797674,59.999418962765574 25.75,59.99490441625932L23.5,59.989808832518634L23.5,38.74490441625932L23.5,17.5L25.96675996580676,17.5C28.405355204592365,17.5 28.43476170175458,17.606689436548177 28.542278268536123,26.844213798125537L28.651036605458724,36.188427596251074L39.075518302729364,36.322687858345574L49.5,36.456948120440074L49.5,27.186231372308743C49.5,18.350863697436715 49.60784600117862,17.888378848940768 51.79657024846847,17.337660893890376C53.05968388512613,17.019841342232507 54.272755171829324,16.939421838495804 54.492284218920005,17.15895088558659C54.711813266010694,17.37847993267738 54.96661519561187,26.843365451908298 55.05851072914484,38.19202981721085C55.15040626267782,49.54069418251341 54.9232773285059,59.3151228958102 54.553779764318364,59.91298251342593C54.18428220013082,60.51084213104167 53.28166862060178,61.0 52.54797180980938,61.0z"/></svg>