<svg version="1.1" xmlns="http://www.w3.org/2000/svg" xmlns:xlink="http://www.w3.org/1999/xlink" width="80" height="80" viewBox="0 0 80 80"><path stroke="none" fill="black" fill-rule="evenodd" d="M26.25,60.000553901516106C25.0125,60.00024925568225 23.974580794591525,59.6625 23.94351287687006,59.25C23.91244495914859,58.8375 23.690692913681403,49.13292335789404 23.450730553609645,37.684274128653435L23.01443535347918,16.86854825730687L25.75721767673959,17.184274128653435L28.5,17.5L28.42154930776144,26.75L28.343098615522873,36.0L37.58976183952571,36.0C42.675426612727264,36.0 47.44083173901414,35.768067396814544 48.17955100905211,35.484594215143424C49.18519704239241,35.09869162363358 49.47747137486261,32.71167856917924 49.34276465519684,25.984594215143424L49.16285235581799,17.0L52.081426177908995,17.0L55.0,17.0L55.15,37.0C55.232499999999995,48.0 55.345,57.5625 55.4,58.25C55.455,58.9375 54.2625,59.642390055563745 52.75,59.81642234569721C50.352552622876004,60.092279044880925 49.98161606436805,59.7717766604482 49.856600632905675,57.31642234569721C49.7777309810038,55.767390055563745 49.665230981003795,51.685294038816146 49.606600632905675,48.24509786403588L49.5,41.990195728071754L38.82001710666441,41.673283640779076L28.14003421332882,41.35637155348639L28.32001710666441,50.678739678259305C28.494827435049512,59.733190370858054 28.435336792720086,60.00109188434397 26.25,60.000553901516106z"/></svg>