<svg version="1.1" xmlns="http://www.w3.org/2000/svg" xmlns:xlink="http://www.w3.org/1999/xlink" width="80" height="80" viewBox="0 0 80 80"><path stroke="none" fill="black" fill-rule="evenodd" d="M26.509642559776655,56.0C21.072824165470735,56.0 20.163253667406977,55.73228494132764 19.70989012430844,53.99862008926846C19.422035192320998,52.89786113836611 19.50353666667137,52.19316878583484 19.891004511753714,52.43263708364341C20.278472356836062,52.67210538145197 21.249005914679707,52.46432517213493 22.04774575140626,51.970903285161086C23.218205571547355,51.24785121422901 23.5,48.01049588352387 23.5,35.28688629078614C23.5,19.55700760327516 23.491662156894563,19.49881817519475 21.191034643561895,19.17272200997396C19.339476329896193,18.910277932316895 18.94327545880299,18.31597662567709 19.191034643561895,16.17272200997396C19.483954001622564,13.638806801933363 19.784357303632774,13.5 24.9752938150756,13.5L30.450587630151198,13.5L30.74120398286222,21.5C30.901042976853283,25.9 31.24734045188379,30.093257734499936 31.51075392737446,30.818350521110972C31.864356960847438,31.7917062251707 34.07697372190912,32.06554697715028 39.965966341569235,31.86479551167462C45.950849870701894,31.66077519499712 48.08591497499055,31.21849245504297 48.51769619319643,30.093288636999926C48.83419425927492,29.268507897729872 48.7953386068288,26.21010765197623 48.431350298871706,23.29684364643628C47.99066192117745,19.7696930200821 47.30689489375383,18.0 46.384776687656675,18.0C45.623149509445504,18.0 45.0,17.1 45.0,16.0C45.0,14.27430840239429 45.666666666666664,14.0 49.86070904753697,14.0L54.72141809507395,14.0L55.28692170549763,18.774793094165798C55.59794869123066,21.400929295956985 55.69618323494791,28.890147542794903 55.50522069153597,35.41750030936117C55.31425814812402,41.94485307592744 55.558056699707336,48.337601031053545 56.04699525061001,49.623606876308074C56.58771541058248,51.04580867464813 57.48616391115718,51.75067181016794 58.340408947186305,51.42286723255421C59.387655481541486,51.02100103096935 59.620477018920056,51.534516159107035 59.25584457753697,53.44196757144151C58.78770097354512,55.8909026558309 58.47327508047412,56.0 51.883422847385376,56.0C47.96114094912846,56.0 45.0,55.56981562592029 45.0,55.0C45.0,54.45 45.0,53.775 45.0,53.5C45.0,53.225 45.2614591358505,53.1125 45.58102030189001,53.25C45.90058146792951,53.3875 46.78463553085128,52.375 47.54558488616061,51.0C48.30653424146993,49.625 48.91344673744476,47.15 48.89427932166022,45.5C48.875111905875684,43.85 48.51396145542408,41.61640649923314 48.09172276510111,40.536458887184764C47.41981182731905,38.81793183270787 46.305546567818254,38.56314193687029 39.16200802771149,38.494574274522485L31.0,38.41623077467544L31.0,45.10112658315339C31.0,50.08699354915792 31.37695421739749,51.93067329717021 32.48314119506066,52.35515706901658C33.32707403264426,52.67900448479367 33.71194650573514,53.58708043685442 33.37615239087633,54.46214587320091C32.93187260845226,55.61992042749977 31.234819503288694,56.0 26.509642559776655,56.0z"/></svg>