<svg version="1.1" xmlns="http://www.w3.org/2000/svg" xmlns:xlink="http://www.w3.org/1999/xlink" width="80" height="80" viewBox="0 0 80 80"><path stroke="none" fill="black" fill-rule="evenodd" d="M26.509642559776655,56.0C21.072824165470735,56.0 20.163253667406977,55.73228494132764 19.70989012430844,53.99862008926846C19.422035192320998,52.89786113836611 19.50353666667137,52.19316878583484 19.891004511753714,52.43263708364341C20.278472356836062,52.67210538145197 21.249005914679707,52.46450139977059 22.04774575140626,51.971294902129216C23.197913289773275,51.26108855305864 23.551755193997206,47.84979728465501 23.748808364700402,35.571823922383885C23.977608164759054,21.315784091162964 23.847450949608856,19.98872574283389 22.13029127287898,19.06972977311756C21.10326227179198,18.520080532239646 19.9787985076768,18.354534825656387 19.631482908178583,18.701850425154763C19.284167308680363,19.04916602465314 19.0,18.181478295216525 19.0,16.773655470851182C19.0,15.36205470756056 19.709469732378267,13.941728527433973 20.581787468235675,13.606988804184368C21.451770575765295,13.273144961882966 23.58927057576529,13.006890748532676 25.331787468235675,13.01531277451706C27.07430436070605,13.023734800501444 28.95,13.361234800501443 29.5,13.76531277451706C30.05,14.169390748532678 30.649797161250618,18.090819250853027 30.832882580556934,22.47959833522895C31.015967999863246,26.86837741960487 31.400103967902997,30.838364824725808 31.686518065089714,31.301792568831033C31.972932162276436,31.765220312936254 35.755396501207414,31.99940106208323 40.09199437382523,31.822194233602083C45.84234020559077,31.587217282210965 48.12782529653124,31.106633717902135 48.53493250050748,30.04684364643628C48.841950597564896,29.24760765197623 48.7953386068288,26.21010765197623 48.431350298871706,23.29684364643628C47.99066192117745,19.7696930200821 47.30689489375383,18.0 46.384776687656675,18.0C45.623149509445504,18.0 45.0,17.1 45.0,16.0C45.0,14.273788026395234 45.66666666666667,14.0 49.869947568154664,13.999999999999996L54.73989513630933,13.999999999999993L55.262280428049706,18.63458859552664C55.54959233850691,21.183612323066296 55.68291240621883,29.5086123230663 55.55854724518731,37.134588595526644C55.40567505005577,46.50859433091604 55.68349811227026,51.038379928907965 56.41621438529228,51.118482618403064C57.012296473381525,51.183648058524746 58.123598848819405,51.14989077028517 58.88577521959868,51.04346642231512C59.792461933542604,50.91686378013935 60.05175101171296,51.42275573426648 59.635775219598685,52.50677127214789C59.286098848819414,53.41801328752596 59.00000000000001,54.57677057576553 59.0,55.08178746823583C59.0,55.586804360706125 55.85,56.0 52.0,56.0C48.0,56.0 45.0,55.57142857142857 45.0,55.0C45.0,54.45 45.0,53.775 45.0,53.5C45.0,53.225 45.2614591358505,53.1125 45.58102030189001,53.25C45.90058146792951,53.3875 46.78463553085128,52.375 47.54558488616061,51.0C48.30653424146993,49.625 48.938184357086755,46.925 48.94925180975354,45.0C48.96031926242033,43.075 48.548646555360236,40.834656147029776 48.034423571842225,40.021458104510614C47.33783230363517,38.91986079381382 45.04724717865287,38.537445605638354 39.04974463200635,38.521458104510614L31.000016571294125,38.5L31.000008285647063,45.143011195815674C31.000002113076917,50.091864590372644 31.378243412800938,51.931168007864294 32.48314119506066,52.35515706901658C33.32707403264426,52.67900448479367 33.71194650573514,53.58708043685442 33.37615239087633,54.46214587320091C32.93187260845226,55.61992042749977 31.234819503288694,56.0 26.509642559776655,56.0z"/></svg>