<svg version="1.1" xmlns="http://www.w3.org/2000/svg" xmlns:xlink="http://www.w3.org/1999/xlink" width="80" height="80" viewBox="0 0 80 80"><path stroke="none" fill="black" fill-rule="evenodd" d="M25.994186648518813,56.0C21.07294263092546,56.0 20.156978877780215,55.70829010893411 19.70989012430844,53.99862008926846C19.422035192320998,52.89786113836611 19.50353666667137,52.19316878583484 19.891004511753714,52.43263708364341C20.278472356836062,52.67210538145197 21.249005914679707,52.46414204105575 22.04774575140626,51.97049632720736C23.1946566422331,51.26167022465185 23.553991412961633,47.88216740130957 23.75679045201622,35.89712447059722C23.93347047722727,25.455666281123865 23.649512809278406,20.28261505780919 22.84657662824766,19.31513614629612C22.204724276566033,18.5417513752177 21.076668573158734,18.14033790487111 20.339786176231442,18.42310621219259C19.45314849664981,18.763341013441995 19.0,18.13847052193425 19.0,16.575604007845644C19.0,15.276709488133346 19.711804360706054,13.94083264648577 20.581787468235675,13.606988804184368C21.451770575765295,13.273144961882966 23.58927057576529,13.006890748532676 25.331787468235675,13.01531277451706C27.07430436070605,13.023734800501444 28.953714437772675,13.361234800501443 29.5082543061615,13.76531277451706C30.062794174550326,14.169390748532678 30.66344495263311,18.092200431900835 30.843033813012134,22.482667626446304C31.02262267339116,26.873134820991773 31.403044203658236,30.84312222611271 31.688414991383418,31.304861860048387C31.973785779108603,31.766601493984066 35.755396501207414,31.99940106208323 40.09199437382523,31.822194233602083C45.84234020559077,31.587217282210965 48.12782529653124,31.106633717902135 48.53493250050748,30.04684364643628C48.841950597564896,29.24760765197623 48.7953386068288,26.21010765197623 48.431350298871706,23.29684364643628C47.97352137706179,19.632504739261257 47.321324784021655,18.0 46.315225734580814,18.000000000000004C45.379019009946816,18.000000000000007 44.97474178897631,17.198411672465696 45.18044904692414,15.750000000000004C45.46671370284093,13.734373166116429 45.968746332232854,13.536598866339038 50.0,13.851351866032001C52.475,14.044595392349601 54.725,14.419683980747019 55.0,14.684882062470706C55.275,14.950080144194393 55.49797135944546,23.229471804479992 55.495491909878794,33.0835301964387C55.4926597119051,44.339514018639 55.86441185138277,51.044046166882254 56.495491909878794,51.118482618403064C57.047971359445455,51.183648058524746 58.123598848819405,51.14989077028517 58.88577521959868,51.04346642231512C59.792461933542604,50.91686378013935 60.05175101171296,51.42275573426648 59.635775219598685,52.50677127214789C59.286098848819414,53.41801328752596 59.00000000000001,54.57677057576553 59.0,55.08178746823583C59.0,55.586804360706125 55.8875,56.0 52.08333333333333,56.0C47.74781061850026,56.0 45.023191249847876,55.56957374954363 44.78219696969697,54.84659090909091C44.570738636363636,54.21221590909091 45.43323863636364,52.65767045454545 46.69886363636364,51.39204545454545C48.300601596151665,49.790307494757435 48.9953458950869,47.937333451969124 48.98468722548294,45.29545454545455C48.976265199498556,43.20795454545455 48.550354055151246,40.837418939727414 48.03821801582225,40.0275976438387C47.349583277184934,38.9386856485651 45.00950216270858,38.54030212550199 39.05353079033931,38.49801333654045L31.0,38.44083138540351L31.0,45.113426888517424C31.0,50.329246694775165 31.352071632162186,51.92112495331221 32.61262409484809,52.40484431972666C33.91861412646268,52.90599971732918 33.99040476345558,53.30663526548858 32.990179379405916,54.51183312391099C32.15824710354778,55.51425019230935 29.87469800819059,56.0 25.994186648518813,56.0z"/></svg>