<svg version="1.1" xmlns="http://www.w3.org/2000/svg" xmlns:xlink="http://www.w3.org/1999/xlink" width="80" height="80" viewBox="0 0 80 80"><path stroke="none" fill="black" fill-rule="evenodd" d="M25.984544088742155,56.0C21.64503285413333,56.0 20.063449143736502,55.60772910912602 19.60698880418433,54.41821253176421C19.27314496188295,53.54822942423453 19.0,52.64822942423453 19.0,52.41821253176421C19.0,52.188195639293895 19.842026198249727,52.0 20.87116932944384,52.0C22.365753074399663,52.0 22.878158968022518,50.976136395338585 23.417199320679075,46.912651324184715C23.78837268466434,44.11460955248631 24.019305338706573,36.9265193579334 23.930382996328476,30.939117558511583C23.815773817565674,23.22214581886789 23.37844229606861,19.729042353345058 22.428157881593158,18.94037633740198C21.690856410866825,18.328470465213513 20.583386659010458,18.139447216148287 19.967113988579,18.520324672812592C19.215935109568857,18.98457875167191 18.95429597274955,18.271351120696 19.17330911207909,16.35641456973748C19.47071891595659,13.756018512213782 19.89310199035994,13.471844158897703 23.885863518022944,13.185863518023023C26.298088452935563,13.013088452935685 28.74359282747537,13.34359282747545 29.32031768366696,13.92031768366694C29.89704253985855,14.497042539858432 30.53316174831204,18.238403956748073 30.73391592467472,22.234454165643918C30.934670101037398,26.230504374539763 31.29189185048954,30.07383404810883 31.527742034568377,30.77518677357518C31.83531722079973,31.689829668562584 34.220976550595296,31.994657736918654 39.96544242079456,31.8533155231318C46.72101267650711,31.68709515087952 48.06447404807901,31.372220764456795 48.55039711299066,29.84121275756487C48.867237165352954,28.842938149713262 48.81655252907859,25.959490678017204 48.43776458793652,23.433551709351406C48.05897664679445,20.907612740685607 47.13052091131425,18.60357997519894 46.37452962020274,18.313478897158806C45.61853832909124,18.02337781911867 45.0,16.93416735351425 45.0,15.893011195815646C45.0,14.797176758156755 45.73695249656103,13.955377488144551 46.75,13.894037409315473C47.7125,13.835757984438983 49.85,13.87871494433361 51.5,13.989497320192424C53.15,14.100279696051237 54.71498024585364,14.40044310771303 54.977733879674744,14.6565271238853C55.24048751349585,14.912611140057571 55.51238376122824,23.307154180162943 55.5819477635245,33.31106721300835L55.7084277676995,51.5L57.994439706577026,51.163385718071964C59.78140945613534,50.900255185442276 60.14068872873533,51.190987758861226 59.64022582272729,52.495173186307795C59.28810162022728,53.412794148897916 59.00000000000001,54.57677057576553 59.0,55.08178746823583C59.0,55.586804360706125 55.8875,56.0 52.08333333333333,56.0C47.74781061850026,56.0 45.023191249847876,55.56957374954363 44.78219696969697,54.84659090909091C44.570738636363636,54.21221590909091 45.43323863636364,52.65767045454545 46.69886363636364,51.39204545454545C48.300601596151665,49.790307494757435 48.9953458950869,47.937333451969124 48.98468722548294,45.29545454545455C48.976265199498556,43.20795454545455 48.54266133821744,40.825 48.02112308930269,40.0C47.3084060699458,38.872582131429574 45.07671679214682,38.49538023555105 39.03643586381975,38.48140102251593L31.000000000000004,38.462802045031864L31.0,45.1244122183316C31.0,50.330126307098496 31.352439281860544,51.92126603373878 32.61262409484809,52.40484431972666C33.91861412646268,52.90599971732918 33.99040476345558,53.30663526548858 32.990179379405916,54.51183312391099C32.157810069530335,55.5147767860854 29.87359253595441,56.0 25.984544088742155,56.0z"/></svg>