<svg version="1.1" xmlns="http://www.w3.org/2000/svg" xmlns:xlink="http://www.w3.org/1999/xlink" width="80" height="80" viewBox="0 0 80 80"><path stroke="none" fill="black" fill-rule="evenodd" d="M26.044221951224493,56.0C22.903233211384354,56.0 20.03333333333333,55.7 19.666666666666664,55.33333333333333C19.3,54.96666666666666 19.0,54.11915078044911 19.0,53.44996469729432C19.0,52.78077861413953 19.840244362559325,52.01353389115978 20.86720969457628,51.74497642400598C22.199182029611876,51.39665783382189 22.929735936667623,49.95422606300812 23.415793632804494,46.71296111674198C23.79054946681306,44.21391016490057 24.023263956545694,37.193064693327415 23.932936943321458,31.11108229102385C23.81622755142116,23.252697048515678 23.38080762859685,19.73100540498834 22.428157881593158,18.94037633740198C21.690856410866825,18.328470465213513 20.583386659010458,18.139447216148287 19.967113988579,18.520324672812592C19.215935109568857,18.98457875167191 18.95429597274955,18.271351120696 19.17330911207909,16.35641456973748C19.48039061766292,13.671454201761357 19.81003284596339,13.482033771297097 24.665124734240337,13.200683932484562L29.83024946848067,12.901367864969124L30.414617524597467,19.200683932484562C30.736019955461707,22.665307769618053 31.111713825053556,26.85 31.24949279035713,28.5L31.5,31.5L39.72438563248589,31.61838397670067C46.916478199572126,31.721908854659684 48.02268135534261,31.50389787927052 48.53762060021967,29.881467984708912C48.86148773460601,28.86105300192808 48.81655252907859,25.959490678017204 48.43776458793652,23.433551709351406C48.05897664679445,20.907612740685607 47.13052091131425,18.60357997519894 46.37452962020274,18.313478897158806C45.61853832909124,18.02337781911867 45.0,16.93416735351425 45.0,15.893011195815646C45.0,14.629352462550543 45.748037330084884,13.963199568613083 47.25,13.889309039414961C48.4875,13.82842901109319 50.625,13.872191094881847 52.0,13.986558114500866C53.375,14.100925134119885 54.71047500793429,14.398711074317568 54.967722239853984,14.648304648273491C55.224969471773676,14.897898222229415 55.511896766053184,23.291636138440758 55.605338449364005,33.30105557318758L55.77523241902004,51.5L58.0278420322373,51.163385718071964C59.78331342893178,50.90106030661306 60.139157423049156,51.19497827751284 59.64022582272729,52.495173186307795C59.28810162022728,53.412794148897916 59.00000000000001,54.57677057576553 59.0,55.08178746823583C59.0,55.586804360706125 55.85,56.0 52.0,56.0C46.55103646721866,56.0 45.0,55.678645211054466 45.0,54.549690113571245C45.0,53.75201967603544 45.72261620192455,52.69498386880976 46.605813782054554,52.200721653069735C47.56188747967564,51.66567591151846 48.41829248294172,49.46853734413938 48.72239391957873,46.770557381063476C49.003315415087016,44.278229247200045 48.762364663328505,41.397765054425726 48.18694780455981,40.369525841564986C47.30199793490583,38.78816766005229 45.89677340818286,38.49596504706757 39.070367667035626,38.473822708713016L31.0,38.44764541742604L31.0,44.601377993270845C30.999999999999996,48.873712114168434 31.46236938595267,51.13884307694029 32.512331183715226,52.01023397351825C33.66263506233468,52.96490140071734 33.753015611029944,53.59267169555571 32.88988646827305,54.632678688960425C32.172545133351775,55.49702212034255 29.654323705929222,56.0 26.044221951224493,56.0z"/></svg>