<svg version="1.1" xmlns="http://www.w3.org/2000/svg" xmlns:xlink="http://www.w3.org/1999/xlink" width="80" height="80" viewBox="0 0 80 80"><path stroke="none" fill="black" fill-rule="evenodd" d="M25.916666666666664,55.984687225482936C22.84583333333333,55.993109251467324 20.03333333333333,55.7 19.666666666666664,55.33333333333333C19.3,54.96666666666666 19.0,54.11915078044911 19.0,53.44996469729432C19.0,52.78077861413953 19.830571249906576,52.016063466942455 20.84571388868128,51.75059770352304C22.1831738395349,51.40084406956594 22.8715984390144,49.95344439358147 23.34571388868128,46.49439507407453C23.705571249906576,43.86894939129728 24.0,36.88876466044333 24.0,30.982873449954656C24.000000000000004,22.80151282217768 23.653292227999618,19.957147536905183 22.543804876499916,19.03635481851728C21.742897558574867,18.3716607817154 20.583386659010458,18.139447216148287 19.967113988579,18.520324672812592C19.215935109568857,18.98457875167191 18.95429597274955,18.271351120696 19.17330911207909,16.35641456973748C19.480454925255447,13.670891929745103 19.809418643184845,13.482078730420266 24.67185288889814,13.200450596981959L29.84370577779628,12.900901193963918L30.42573668446643,18.20045059698196C30.745853683135014,21.115202768641883 31.11851988313085,25.3 31.253883795568292,27.5L31.5,31.5L39.196095354769874,31.66741426767112C44.706886907411715,31.78729130785123 47.219246589163454,31.440750308581926 48.04400000647644,30.446983235557102C48.801762120092874,29.533935745373807 48.95580852364411,27.314123829768608 48.49428131105252,23.95842016475607C48.09507490927799,21.055842919074422 47.19098857472179,18.626783594800568 46.396376659345954,18.321862392685734C45.62836949670568,18.027150392105792 45.0,16.7077420346307 45.0,15.389843820518866C45.0,13.119202464134933 45.247884176001605,13.023421231264322 49.73146351014343,13.561629468179909C52.33376844072232,13.874009788505317 54.66724463540533,14.333911302071987 54.91696616499458,14.5836328316614C55.166687694583814,14.833354361250814 55.46589306076402,23.241695781686303 55.58186697872836,33.26883598818471C55.78898188846592,51.17605405279575 55.83010773398462,51.494440883639236 57.896364323877215,51.1871417500094C59.05336394574474,51.015069712514574 59.99999999999999,51.15715336685478 59.999999999999986,51.50288320409875C59.999999999999986,51.84861304134272 59.53416730868039,53.00189925383849 58.964816241512,54.06574145408935C58.10524206944987,55.6718704862756 56.832934725565636,56.0 51.464816241512004,56.0C46.48342213096827,56.0 45.0,55.667210682884416 45.0,54.549690113571245C45.0,53.75201967603544 45.72261620192455,52.69498386880976 46.605813782054554,52.200721653069735C47.56188747967564,51.66567591151846 48.41829248294172,49.46853734413938 48.72239391957873,46.770557381063476C49.003315415087016,44.278229247200045 48.76286284819969,41.39867680496486 48.188054882051325,40.37155195387416C47.310668276338355,38.80374907045117 45.847637107339494,38.48766600454434 39.07147474452715,38.40194483851391L31.0,38.29983745240949L31.0,44.32117805462068C31.000000000000004,48.59913081410511 31.49517309129873,50.889678763809556 32.710236682100565,52.232308918820834C34.1856095838855,53.86257762477041 34.21994164195292,54.2489407044928 32.96023668210056,55.045736815887835C32.157106506945254,55.55373751518076 28.9875,55.97626519949855 25.916666666666664,55.984687225482936z"/></svg>