<svg version="1.1" xmlns="http://www.w3.org/2000/svg" xmlns:xlink="http://www.w3.org/1999/xlink" width="80" height="80" viewBox="0 0 80 80"><path stroke="none" fill="black" fill-rule="evenodd" d="M26.590401790713653,56.0C22.752769375062428,56.0 19.82570327728502,55.5269989728944 19.399908026560396,54.83804778497367C18.991205735500785,54.17675358675927 19.694686823202982,52.855895055794186 21.032582188635725,51.77253311377277C23.261658065686262,49.967536973216234 23.405861903604652,49.12176524139004 23.817519519168048,35.438562374348265C24.143048552701398,24.61821158634507 23.92992735067368,20.620493910065257 22.965614538949215,19.458568054080484C22.25829133638173,18.606295733720664 21.047044391379075,18.151705770045456 20.273954661165526,18.44836813480225C19.237179266352104,18.846216183129123 18.95121300510887,18.267744859668195 19.184168484934084,16.243877126270938C19.48101543403659,13.664933877128492 19.83060384356188,13.48243622228919 25.0,13.20780503829388L30.5,12.915610076587761L30.837508834997326,21.694888810447985C31.023138694245855,26.523492114071104 31.391843694851204,30.824999422171636 31.656853280786986,31.253793939560275C31.92186286672277,31.682588456948917 35.493013562043934,31.946821696643866 39.592743714834015,31.84097891666017C44.26127909163653,31.720451285738722 47.44833242933211,31.16471875772453 48.12130392075092,30.35383771713998C48.79510494850072,29.541957146423968 48.934195610110464,27.156979177887308 48.49428131105252,23.95842016475607C48.09507490927799,21.055842919074422 47.19098857472179,18.626783594800568 46.396376659345954,18.321862392685734C45.62836949670568,18.027150392105792 45.0,16.67218057020892 45.0,15.310818344026018C45.0,12.936014272553575 45.191669254325134,12.86160788698572 49.72530504867242,13.476445530216054C52.32422282544225,13.828902708803476 54.66408651253252,14.330753179199199 54.925002131095255,14.591668797762107C55.18591774965799,14.852584416325016 55.50274330662314,23.26369714442246 55.629058924351156,33.28303041575643C55.85342410760282,51.07963851470708 55.906504217693836,51.49278071152043 57.92936184192831,51.1871417500094C59.450177961543474,50.957357580387324 59.99999999999999,51.41698078331109 60.0,52.9180897217945C60.0,54.21461384376589 59.162091602638554,55.17219756424303 57.70833210610304,55.537067971500775C56.44791476445972,55.85341258686259 52.73541476445972,55.9744859995593 49.45833210610304,55.806119999715676L43.5,55.5L45.932894369945956,53.067105630054044C47.707737440879185,51.29226255912082 48.4821612453889,49.230911832318824 48.796031813440884,45.44604540990913C49.100522444154805,41.774288700511015 48.827853915269316,40.00511104654546 47.86313744349493,39.39307010115327C47.11341184957272,38.917424898946976 43.08673952075709,38.477804584456074 38.91497671279354,38.41613606895126L31.329953425587078,38.30401149530614L31.109155880223256,43.7615837503721C30.949718874571985,47.70247438409433 31.354431819260938,49.73416140873196 32.56546029317157,51.07233280976679C33.487866370243246,52.091580052147606 33.977108903252294,53.61726995092404 33.65266592208056,54.46275480704777C33.20603795990166,55.62664861969828 31.490822928760505,56.0 26.590401790713653,56.0z"/></svg>