<svg version="1.1" xmlns="http://www.w3.org/2000/svg" xmlns:xlink="http://www.w3.org/1999/xlink" width="80" height="80" viewBox="0 0 80 80"><path stroke="none" fill="black" fill-rule="evenodd" d="M27.3456807672558,55.84228715461353C24.13055634526511,55.93985296549476 20.825,55.5561098648279 20.0,54.989524708687185C18.71949842780696,54.110114789633336 18.85729824668733,53.66009114658202 20.941691156450275,51.914170268469306C23.280156291886893,49.955434425733316 23.40173609046926,49.25890430061964 23.81751951916805,35.438562374348265C24.143048552701405,24.618211586345065 23.929927350673687,20.620493910065264 22.965614538949218,19.458568054080487C22.25829133638174,18.606295733720664 21.047044391379075,18.151705770045456 20.273954661165526,18.44836813480225C19.237179266352104,18.846216183129123 18.95121300510887,18.267744859668195 19.184168484934084,16.243877126270938C19.481423417203743,13.661389406020145 19.82648336784929,13.482709954455737 25.05073760565019,13.206041668712988L30.60147521130038,12.912083337425976L30.875764746928326,21.67292963619228C31.026623991523692,26.491395100513746 31.36851987336349,30.787260686256992 31.63553337323898,31.2192976045106C31.902546873114474,31.65133452276421 35.45436931290556,31.954712782130095 39.52847212833029,31.893471514212568C44.44156417572132,31.819618693110804 47.316424264951515,31.323658372490424 48.06587054807601,30.420630845067237C48.79987869737609,29.536205130915278 48.94999385380992,27.271846130120345 48.49428131105252,23.95842016475607C48.09507490927799,21.055842919074436 47.19098857472179,18.62678359480057 46.396376659345954,18.32186239268574C45.62836949670568,18.0271503921058 45.0,16.72559151092755 45.0,15.429509323400744C45.0,13.28837557955599 45.41308065420614,13.081287705497486 49.51960726799537,13.163714856440674C52.00539126539283,13.21361008713944 54.3533792224596,13.759685929726148 54.73735828369931,14.37721672885558C55.12133734493902,14.99474752798501 55.537023972165336,23.342846580739995 55.66110634420223,32.928547957199996C55.85026904705042,47.541882239104595 56.13943299416987,50.49852644494999 57.45127515593047,51.23267022903682C58.311785630344104,51.71423610208708 59.4571212537737,51.835517516937784 59.99646543021845,51.5021844842606C60.57961246126117,51.141779798637614 60.70730074766367,51.62650698987284 60.311487117916556,52.69806221242378C59.94540486970575,53.689127995590695 59.163059348451924,54.83060925146732 58.572941515130275,55.234687225482936C57.982823681808625,55.63876519949855 54.50462882679947,55.97626519949855 50.84361961510993,55.984687225482936C44.676093269990574,55.99887540806716 44.225649956694234,55.85311715632105 44.71025097907092,54.0C44.997907440939,52.9 45.8032945003571,52.0 46.500000000000014,52.0C47.19670549964293,52.0 48.03807677837888,50.9875 48.36971395274657,49.75C48.701351127114265,48.5125 48.9788352408967,45.83905764746873 48.98634531670755,43.80901699437494C48.9938553925184,41.778976341281165 48.4375,39.75397634128117 47.75,39.30901699437494C47.0625,38.86405764746873 43.8,38.47076554356725 40.5,38.435034541260556C37.2,38.39930353895386 33.8428882843746,38.174303538953865 33.03975174305468,37.935034541260556C31.903995008606376,37.596671932297134 31.496324770420213,38.79503873025472 31.205189933430535,43.32781958055156C30.91808537343214,47.79785162841595 31.228310144503077,49.59479852681177 32.53671931611772,51.040574387599335C33.47493293056902,52.077288762172245 34.00604209016499,53.54187127444249 33.71696189299766,54.295202192644325C33.36677498902959,55.20777463618608 31.240428585479215,55.72409756715501 27.3456807672558,55.84228715461353z"/></svg>