<svg version="1.1" xmlns="http://www.w3.org/2000/svg" xmlns:xlink="http://www.w3.org/1999/xlink" width="80" height="80" viewBox="0 0 80 80"><path stroke="none" fill="black" fill-rule="evenodd" d="M27.374100402884334,55.77174430355197C24.143345181297953,55.91197796796547 20.825,55.56156203977794 20.0,54.99304224091301C18.71902235796469,54.1103014513368 18.85652330300485,53.660740251819455 20.941691156450275,51.914170268469306C23.280156291886893,49.955434425733316 23.40173609046926,49.25890430061964 23.81751951916805,35.438562374348265C24.143048552701405,24.618211586345065 23.929927350673687,20.620493910065264 22.965614538949218,19.458568054080487C22.25829133638174,18.606295733720664 21.076668573158738,18.14033790487111 20.339786176231442,18.423106212192593C19.405491506910444,18.78162871630589 18.999999999999996,18.038767448288468 19.0,15.96861520366128C19.0,13.013197911143745 19.026180904886253,13.0 24.888888888888875,13.0C28.95809233891422,13.0 30.763432880934815,13.386253984664428 30.731354642313537,14.25C30.70582191780822,14.9375 30.755821917808227,19.241676092680947 30.842465753424662,23.814835761513216L31.0,32.12967152302643L37.75,31.881850309372876C41.4625,31.74554864186342 45.56909682064078,31.255992357506408 46.87577071253506,30.793947455246176C49.09523663834174,30.00913578714696 49.20740343083494,29.609979669101655 48.580661433427835,24.72693290738652C48.21167743802457,21.852119808323934 47.21554102922644,18.971478777870704 46.36702496943198,18.32550839526823C45.518508909637525,17.679538012665756 44.98247085460026,16.329538012665758 45.175829291571375,15.32550839526823C45.4279293080691,14.016458285663134 46.51370769821091,13.45311845084703 49.013695043032165,13.33428930479441C50.93116276936448,13.243148422431336 53.185974384096546,13.353749895448546 54.024387520214546,13.580070355943768C55.31014933367416,13.927147701435642 55.576272269189204,16.812215223101816 55.72443269664909,32.01044395153097C55.82104440757009,41.92082896860872 56.198356544109934,50.511930635885896 56.56290411118208,51.101780989924706C56.92745167825422,51.69163134396351 58.07493134885868,51.95216186559126 59.112858934747535,51.68073770465303C60.15078652063639,51.40931354371481 61.0,51.562967546277584 61.0,52.02219104368142C61.0,52.48141454108524 60.29285714285713,53.56428571428577 59.428571428571395,54.42857142857146C58.306547603029365,55.55059525411344 55.90245026804014,56.0 51.022191043681325,56.0C44.679568647269505,56.0 44.224912366249114,55.85593770651609 44.71025097907092,54.0C44.997907440939,52.9 45.8032945003571,52.0 46.500000000000014,52.0C47.19670549964293,52.0 48.03807677837888,50.9875 48.36971395274657,49.75C48.701351127114265,48.5125 48.9788352408967,45.83905764746873 48.98634531670755,43.80901699437494C48.9938553925184,41.778976341281165 48.4375,39.75397634128117 47.75,39.30901699437494C47.0625,38.86405764746873 43.8,38.47076554356725 40.5,38.435034541260556C37.2,38.39930353895386 33.86928909876918,38.174303538953865 33.098420219487075,37.935034541260556C32.03791570563171,37.605865912328866 31.59111793433417,38.91780987839104 31.262395202587825,43.32620275471179C30.924852553535374,47.85287665289987 31.208762940396056,49.573199109399454 32.53525610884261,51.03895756175955C33.47427448729522,52.076561190544346 34.01883092619783,53.50854410196317 33.7453815286262,54.221141809356936C33.43332519153626,55.034347588425156 31.06098963882893,55.6117117562427 27.374100402884334,55.77174430355197z"/></svg>