<svg version="1.1" xmlns="http://www.w3.org/2000/svg" xmlns:xlink="http://www.w3.org/1999/xlink" width="80" height="80" viewBox="0 0 80 80"><path stroke="none" fill="black" fill-rule="evenodd" d="M25.75,55.48295473219192C20.79470817659658,55.61939838711611 19.0,55.32437713093794 19.0,54.373362930487964C19.0,53.660863980881075 20.0125,52.134914952751515 21.25,50.98236509020005C23.38616806348054,48.99283764943129 23.5,48.143451304289464 23.5,34.193409942780505C23.5,19.91494880796554 23.43645894169167,19.472123027709774 21.25,18.512871530268733C19.87036006800228,17.907590705889596 19.0,16.650403940997414 19.0,15.262871530268733C19.0,13.16198266977445 19.432634730292133,13.0 25.04383676072724,13.0C29.298809838178528,13.0 31.03962999316051,13.369976836340939 30.92535414232417,14.25C30.836078483802503,14.9375 30.816351941475244,19.220559729865947 30.881517381596932,23.76791051081322L31.0,32.03582102162644L38.88376436433704,31.648765078731827C43.21983476472242,31.435884310139787 47.32530973253329,30.916981517173184 48.00704207058344,30.495647761028263C48.86302642764453,29.96662033452628 49.06325382209873,28.181891284312915 48.654149686035055,24.727647018377958C48.3283265364833,21.976580366065214 47.3182750620886,18.904183765994382 46.40959085404683,17.900099018220555C45.50090664600506,16.896014270446727 45.03184823506065,15.359388120795005 45.36723882972592,14.485374241216729C45.8357190049779,13.264534474120246 46.96463445474795,13.006305555554345 50.23851995546775,13.371113950610347C52.58233397996049,13.632284670355114 54.735992891948634,13.880626598636098 55.024428648774744,13.92298490234587C55.31286440560085,13.965343206055643 55.62788473499639,22.106598305171733 55.72447382520929,32.01466290038163C55.82106291542219,41.92272749559153 56.19835654410994,50.51193063588592 56.562904111182085,51.10178098992472C56.92745167825423,51.69163134396353 58.074931348858684,51.95216186559127 59.112858934747535,51.68073770465304C60.15078652063639,51.4093135437148 61.0,51.56296754627757 61.0,52.0221910436814C61.0,52.481414541085236 60.29285714285713,53.56428571428576 59.428571428571395,54.42857142857146C58.306547603029365,55.55059525411344 55.90245026804015,56.0 51.022191043681325,56.0C44.679568647269505,56.0 44.224912366249114,55.85593770651609 44.71025097907092,54.0C44.99790744093901,52.9 45.8032945003571,52.0 46.5,52.0C47.19670549964291,52.0 48.038076778378866,50.9875 48.369713952746565,49.75C48.701351127114265,48.5125 48.978835240896714,45.867600121948975 48.986345316707556,43.87244471544217C48.9938553925184,41.87728930893537 48.41743908218866,39.76140681126459 47.705420182641454,39.170483609507116C46.99340128309425,38.57956040774964 43.730901283094255,38.132628592877474 40.455420182641454,38.17730179868007C37.17993908218865,38.221975004482665 33.864586318954345,38.08785750215344 33.08796959767632,37.879262904615125C32.01587685685768,37.591305218838286 31.576867580736412,38.96047543879037 31.264416296636295,43.566511466510235C30.947924620126045,48.232109397010575 31.216267328922854,49.93459651046342 32.42644669895998,50.938956181952406C33.29190101453199,51.65721946886497 34.0,52.864789308935364 34.0,53.62244471544217C34.0,54.38010012194898 33.6625,55.06684612710557 33.25,55.1485469491235C32.8375,55.23024777114142 29.4625,55.38073127352221 25.75,55.48295473219192z"/></svg>