<svg version="1.1" xmlns="http://www.w3.org/2000/svg" xmlns:xlink="http://www.w3.org/1999/xlink" width="80" height="80" viewBox="0 0 80 80"><path stroke="none" fill="black" fill-rule="evenodd" d="M26.25,60.000553901516106C25.0125,60.00024925568225 23.965765854046968,59.6625 23.923924120104374,59.25C23.882082386161777,58.8375 23.659571396364107,49.132850123073645 23.429455253887333,37.684111384608094L23.01106226756592,16.86822276921619L25.75553113378296,17.184111384608094L28.5,17.5L28.50698259797228,26.5L28.513965195944557,35.5L37.00698259797228,35.795053914452176C41.67814216908752,35.95733356740087 46.4,35.86496568714743 47.5,35.589791958333414C49.33512262276198,35.13072147202762 49.48344932620264,34.34383974452244 49.29923657114626,26.04473804388124L49.09847314229252,17.0L52.04923657114626,17.0L55.0,17.0L55.15,37.0C55.232499999999995,48.0 55.345,57.5625 55.4,58.25C55.455,58.9375 54.2625,59.642390055563745 52.75,59.81642234569721C50.48559462769764,60.076970876429314 49.9714985121264,59.723811147194674 49.83859151814753,57.81642234569721C49.74981685312867,56.54239005556374 49.637316853128674,52.46051952278784 49.58859151814753,48.745598939528534L49.5,41.99119787905707L38.82001710666441,41.673784716271726L28.14003421332882,41.35637155348639L28.32001710666441,50.678739678259305C28.494827435049512,59.733190370858054 28.435336792720086,60.00109188434397 26.25,60.000553901516106z"/></svg>