<svg version="1.1" xmlns="http://www.w3.org/2000/svg" xmlns:xlink="http://www.w3.org/1999/xlink" width="80" height="80" viewBox="0 0 80 80"><path stroke="none" fill="black" fill-rule="evenodd" d="M26.036694167255604,55.56692057390477C20.956971610675502,55.61522989937541 19.0,55.27842680129804 19.0,54.35587572132431C19.0,53.65299473675743 20.00684916740091,52.13988760614267 21.237442594224248,50.993415431069295C23.31524666592825,49.05764647477631 23.501499189000196,47.87967539074482 23.84789852819245,34.48334858400101L24.220911867936397,20.05777660070251L21.610455933968197,18.86837328004315C19.879333995095152,18.079621339905266 19.0,16.89091272888674 19.0,15.339484979691896C19.0,13.146781115624023 19.3764446882066,13.0 25.0,13.0L31.0,13.0L31.118421052631575,21.75C31.183552631578944,26.5625 31.194901100647172,30.803454592795358 31.143639872783197,31.17434353954524C31.092378644919222,31.545232486295124 34.623828693707885,31.69372162756017 38.991306647869116,31.50431940902312C43.358784602030354,31.314917190486067 47.452911100773,30.838119534590057 48.089365533963885,30.444769062587532C48.852127811449016,29.973356049765446 49.04463421194758,28.02467781241451 48.654149686035055,24.727647018377958C48.3283265364833,21.976580366065214 47.37285156867243,18.964490126953038 46.530871979788664,18.034113153684235C45.6888923909049,17.10373618041543 45.0,15.590451959044694 45.0,14.671259328415932C45.0,13.742057810350818 45.77701954809418,13.004886637700208 46.75,13.011005663881093C47.7125,13.017058779015695 50.10051757580645,13.286822544380705 52.056705724014336,13.610480698025562L55.61341144802867,14.198950068288937L55.87656456775408,32.30800052054267C56.02129878360306,42.267978269282224 56.384067728432996,50.81241764421161 56.68271777848728,51.2956435759413C56.981367828541565,51.77886950767098 58.074931348858684,51.95216186559127 59.112858934747535,51.68073770465304C60.15078652063639,51.4093135437148 60.993109251467324,51.48261040342041 60.984687225482936,51.843619615109944C60.97626519949855,52.20462882679948 60.54878619484336,53.16511791154035 60.034733881804726,53.978039803423C59.38501524805661,55.005504299819975 56.79593782900844,55.57243417948459 51.54168195502484,55.83776206256069C44.124360987169574,56.21231977685886 43.99835089993557,56.17867857872436 44.791143692846106,54.035555587052094C45.2354738953381,52.83441667487929 46.00916846270926,51.918341462710714 46.510464953670905,51.99983289334415C47.01176144463254,52.08132432397759 47.7453542990935,51.32719932641611 48.140671296917475,50.323999565429745C48.53598829474145,49.32079980444338 48.87674632561221,46.7 48.89791136551916,44.5C48.919076405426104,42.3 48.343710177653506,39.71949459594725 47.6193197482467,38.765543546549445C46.8949293188399,37.811592497151636 46.05023031829804,37.28310301503523 45.742210858153676,37.591122475179645C45.43419139800931,37.89914193532406 42.778685993956586,38.17388562776012 39.84108773803651,38.20166401392645C36.90348948211643,38.22944240009278 33.88637715181841,38.08293188220919 33.13639367070757,37.87608508529625C32.12493111480275,37.59712188789835 31.655305048481274,39.08698800761986 31.31786065995405,43.64529364209331C30.924404802123977,48.96021993703371 31.133512524507466,49.98010787503395 32.865402674078126,51.19317095510424C34.266502300823156,52.17453933411258 34.598417321697895,53.03184717021071 33.97062985208725,54.04787731301093C33.33094773434263,55.08315811248581 31.053456475571124,55.51921001482171 26.036694167255604,55.56692057390477z"/></svg>