<svg version="1.1" xmlns="http://www.w3.org/2000/svg" xmlns:xlink="http://www.w3.org/1999/xlink" width="80" height="80" viewBox="0 0 80 80"><path stroke="none" fill="black" fill-rule="evenodd" d="M26.17168307795608,55.43271265929194C21.20816933364624,55.68896695879151 19.004714820598466,55.44842599251863 19.015312774517064,54.65148472034312C19.023734800501447,54.01816812415441 19.466844051968767,52.825 20.0,52.0C20.533155948031233,51.175 20.98994910815389,50.95 21.015095911383685,51.5C21.04024271461348,52.05 21.58440423285782,51.6 22.22434372970444,50.5C22.894681913797445,49.34774731652634 23.57069858623118,42.46949605867515 23.81919790206262,34.272874006761846L24.25052571651785,20.045748013523692L21.555923155567733,19.021261945850476C19.552040113972517,18.259386971369246 18.94317836806085,17.42043654742896 19.180660297308812,15.74838793908863C19.454652892436567,13.819277211254795 20.194323887751228,13.455909724580668 24.38951105813552,13.18951105813558C27.07874214011005,13.018742140110149 29.64167370672571,13.243742140110148 30.084914539503657,13.68951105813558C30.5281553722816,14.13527997616101 30.9756113567119,18.394627578950704 31.079261171570998,23.15472795322379L31.26771538040572,31.809455906447585L38.781869894364426,31.47100146334794C43.697135409931725,31.249606834096188 46.80744533567349,30.62112609289793 47.77469312874992,29.653878299821514C48.8729591970835,28.55561223148793 49.07953323439911,27.016037324301177 48.57767009473602,23.669374129084858C48.20603962979365,21.191164631414427 47.24903321372889,18.62164235410163 46.450989170147665,17.95932462394531C45.65294512656644,17.29700689378899 44.999999999999986,15.910210691064618 44.99999999999999,14.877555284557818C45.0,13.42315349002234 45.73246782871509,13.003077420376314 48.25,13.013654683292462C50.0375,13.021164759103316 52.46786069565791,13.28697543257002 53.650801545906475,13.60434506877403C55.74496406804686,14.16618516218539 55.80494943317931,14.656705392501692 55.92867654233034,32.23128457994419C55.998566940114905,42.15873167488376 56.318992765093384,50.707124141711446 56.6407339311714,51.227712284005705C56.96247509724942,51.74830042629997 58.074931348858684,51.95216186559127 59.112858934747535,51.68073770465304C60.15078652063639,51.4093135437148 61.0,51.56959361752834 61.0,52.0369156464609C60.99999999999999,52.50423767539345 59.999872190467556,53.58710884859398 58.777493756594566,54.443296031350954C57.33895979333423,55.45088444028723 54.340649034475476,56.00000000000001 50.27749375659457,56.0C46.82487219046756,56.0 44.0,55.63600833579721 44.0,55.191129635104915C44.0,54.746250934412615 44.66068848265829,53.50875093441261 45.46819662812953,52.441129635104915C46.27570477360078,51.37350833579721 46.98233314177545,50.95 47.03848189073991,51.5C47.09463063970437,52.05 47.52731378887141,51.6 48.0,50.5C48.47268621112859,49.4 48.87674632561221,46.7 48.89791136551916,44.5C48.919076405426104,42.3 48.343710177653506,39.71949459594725 47.6193197482467,38.765543546549445C46.8949293188399,37.811592497151636 46.0638221297993,37.26951120353397 45.772414883712024,37.5609184496213C45.48100763762475,37.85232569570862 42.825502233572024,38.13194919173179 39.871291763594854,38.18230399633945C36.917081293617684,38.23265880094711 33.89835497962534,38.09974009456477 33.163011065834084,37.8869290932676C32.213544837526925,37.612150374148065 31.692002164894767,38.944954489135135 31.363640934839303,42.4852257252023C31.109331276583422,45.22709987406357 31.1616688674347,48.50800406457877 31.479946692286585,49.77612392634719C31.798224517138472,51.04424378811561 32.464346840832995,51.831051858546466 32.96021852271886,51.52458630508242C33.456090204604735,51.218120751618386 34.08820528159684,51.333702149236004 34.36491869381244,51.781433855343806C34.64163210602805,52.2291655614516 34.524983726361405,53.15055848720667 34.10570007233103,53.82897369035508C33.655271767734895,54.55778199668661 30.40910316426064,55.21394483233745 26.17168307795608,55.43271265929194z"/></svg>