<svg version="1.1" xmlns="http://www.w3.org/2000/svg" xmlns:xlink="http://www.w3.org/1999/xlink" width="80" height="80" viewBox="0 0 80 80"><path stroke="none" fill="black" fill-rule="evenodd" d="M26.25,55.48168244003076C20.46731603475122,56.05699998328387 19.00309912821868,55.929456618134765 19.015312774517064,54.851491414081934C19.023734800501447,54.10817113633687 19.466844051968767,52.825 20.0,52.0C20.533155948031233,51.175 20.98994910815389,50.95 21.015095911383685,51.5C21.04024271461348,52.05 21.58440423285782,51.6 22.22434372970444,50.5C22.894681913797445,49.34774731652634 23.57069858623118,42.46949605867515 23.81919790206262,34.272874006761846L24.25052571651785,20.045748013523692L21.555923155567733,19.021261945850476C19.552040113972517,18.259386971369246 18.94317836806085,17.42043654742896 19.180660297308812,15.74838793908863C19.454652892436567,13.819277211254795 20.194323887751228,13.455909724580668 24.38951105813552,13.18951105813558C27.07874214011005,13.018742140110149 29.64167370672571,13.243742140110148 30.084914539503657,13.68951105813558C30.5281553722816,14.13527997616101 30.975747783068915,18.40081741285651 31.079564341253246,23.168483139681136L31.268321719770213,31.836966279362276L38.80213627148222,31.464793442369743C43.643584089633784,31.225624379040024 46.85724985043751,30.57132157813392 47.79465633618546,29.633915092385973C48.877169613458136,28.5514018151133 49.076404336455525,26.995172337889915 48.567199629803575,23.599552066341225C48.18981040914836,21.08294043416179 47.2328039930836,18.37566113594081 46.440518705215226,17.583375848072375C45.64823341734685,16.79109056020394 45.0,15.435714285714205 45.0,14.57142857142852C45.0,13.462400504526094 45.956328316179004,13.00401795700955 48.25,13.013654683292462C50.0375,13.021164759103316 52.475656320922894,13.289014034371634 53.66812515760643,13.608875294999837C55.69758857719444,14.153247363953549 55.846512181630395,14.839886830479625 55.99670561500788,24.345220611707376C56.084956029895146,29.93034927526832 56.23429970897225,38.325 56.32858045740145,43.0C56.49240042717878,51.123168000560796 56.599749646910375,51.49647990217077 58.75,51.420599016025804C59.9875,51.37692847483999 61.0,51.64468407188955 60.99999999999999,52.01561145391371C60.999999999999986,52.38653883593788 60.17706669778716,53.434769278726264 59.17125932841593,54.34501243788792C57.857896806729315,55.533589184558465 55.47993028347157,56.0 50.733408213439375,56.0C44.74074596517258,56.0 44.138349775869095,55.813455017765065 44.27495318466979,54.0C44.35781366271239,52.9 44.779846664451846,52.0 45.21280429964635,52.0C45.645761934840856,52.0 46.319930451787535,52.03329980444339 46.71095655952785,52.073999565429745C47.10198266726817,52.1146993264161 47.7453542990935,51.32719932641611 48.140671296917475,50.323999565429745C48.53598829474145,49.32079980444338 48.89105784295392,46.7829163456598 48.929714737389624,44.68425854591067C48.96837163182533,42.585600746161546 48.53199714698622,39.99404576194395 47.959993659969385,38.925247469871586C47.16550472821389,37.44073132162358 46.2987689554579,37.13789373234721 44.28851999490267,37.64243410417297C42.84121296613283,38.0056850451111 40.49671581914661,38.35941538089973 39.078526334933294,38.428501517036594C37.66033685071998,38.497587653173454 35.51708346209238,38.22682281549696 34.31574102687196,37.826801877755486C32.29795977638348,37.154924547600686 32.08061080667969,37.50665078932873 31.464029519479947,42.441600707280976C31.09693062563476,45.37976100126147 31.099745537745395,48.73890985887356 31.470284879725806,49.90637594641896C31.840824221706217,51.07384203396437 32.5305001647795,51.790166855878745 33.00289808655532,51.49820888400647C33.475296008331135,51.20625091213421 34.08820528159684,51.333702149236004 34.36491869381244,51.781433855343806C34.64163210602805,52.2291655614516 34.56022634128117,53.08259187635668 34.18401699437495,53.677936777355086C33.80780764746873,54.2732816783535 30.2375,55.08496722655755 26.25,55.48168244003076z"/></svg>