<svg version="1.1" xmlns="http://www.w3.org/2000/svg" xmlns:xlink="http://www.w3.org/1999/xlink" width="80" height="80" viewBox="0 0 80 80"><path stroke="none" fill="black" fill-rule="evenodd" d="M26.676685233638185,55.24713584976651C21.5056443340493,55.6520761749722 19.72859042488144,55.45629292118194 19.33807241473046,54.438619299660566C19.054658485830206,53.70005443986828 19.11874436594615,52.616884574301515 19.480485481654778,52.03157515395665C19.842226597363407,51.44626573361178 20.509949210155813,51.197131955662556 20.964313510082356,51.477944536291716C21.418677810008894,51.75875711692087 22.123520446343704,51.20359747014898 22.53063047971527,50.24425643235418C22.937740513086837,49.28491539455938 23.49126195501942,42.097793303042835 23.760678128454348,34.272874006761846L24.250525716517853,20.045748013523692L21.555923155567736,19.02126194585048C19.552040113972513,18.25938697136925 18.943178368060845,17.42043654742897 19.180660297308812,15.748387939088634C19.454652892436567,13.819277211254795 20.194323887751224,13.455909724580668 24.38951105813551,13.189511058135583C27.078742140110045,13.018742140110154 29.641673706725705,13.243742140110154 30.084914539503647,13.689511058135583C30.52815537228159,14.135279976161012 30.975462130135075,18.387856983113533 31.078929556955835,23.139682184696742L31.2670521511754,31.779364369393484L38.883526075587696,31.349339468519798C43.478536632326836,31.089905906639945 47.04613079804367,30.37501987292683 47.87668092458835,29.54726207352042C48.87083044955212,28.55645490034173 49.0627014067617,26.90379465571193 48.56719962980358,23.599552066341232C48.189810409148365,21.082940434161806 47.232803993083614,18.37566113594083 46.44051870521524,17.583375848072393C45.64823341734686,16.791090560203955 45.00000000000001,15.412197474342232 45.0,14.519168990601894C45.0,13.188718574443081 45.948148887067745,12.950068854568894 50.25,13.197740419173368L55.5,13.5L55.686042926934185,17.5C55.788366536747986,19.7 55.93715685932863,27.887518170733706 56.01668808822451,35.69448482385268C56.1255574555482,46.38134999671418 56.50120446094087,50.171073326540565 57.536840284790415,51.030574720777565C58.29339276400578,51.658457510967274 59.38210244142513,51.88188169276484 59.95619512350009,51.52707290254993C60.53028780557504,51.17226411233503 61.0,51.2887792557684 61.0,51.78599544351297C60.99999999999999,52.28321163125754 60.17706669778716,53.434769278726264 59.17125932841593,54.34501243788792C57.85427943693367,55.536862859231086 55.47561159274043,56.0 50.67125932841593,56.0C44.666666666666664,56.0 44.0,55.80013768500138 44.0,54.0C44.0,52.9 44.41785714285716,52.0 44.92857142857146,52.0C45.43928571428576,52.0 46.56428571428576,51.29285714285713 47.42857142857146,50.4285714285714C48.332587531411235,49.5245553257316 49.0,47.16069017084026 49.0,44.862829974482075C48.99999999999999,42.66595788901867 48.52259345094902,39.97647479517216 47.9390965576645,38.886200877045376C47.238561041068664,37.57723829085818 46.25490591151881,37.10170833597475 45.043269713839656,37.48626672631876C44.03406184302052,37.80657686154591 41.768783208369186,38.25083605343867 40.009317192392245,38.47350937496933C38.249851176415305,38.696182696499996 35.75755671822887,38.4781222120861 34.47088506308904,37.988930520716224C32.240374505226434,37.14089191812448 32.100414066563474,37.348150851416996 31.464029519479947,42.44160070728098C31.096930625634766,45.379761001261485 31.099745537745402,48.73890985887358 31.47028487972581,49.906375946418976C31.840824221706217,51.07384203396437 32.5305001647795,51.790166855878745 33.00289808655532,51.49820888400647C33.475296008331135,51.20625091213421 34.08820528159684,51.333702149236004 34.36491869381244,51.781433855343806C34.64163210602804,52.2291655614516 34.560226341281165,53.071887534735986 34.18401699437494,53.654149351531316C33.80780764746873,54.23641116832665 30.429508355137184,54.95325509253249 26.676685233638185,55.24713584976651z"/></svg>