<svg version="1.1" xmlns="http://www.w3.org/2000/svg" xmlns:xlink="http://www.w3.org/1999/xlink" width="80" height="80" viewBox="0 0 80 80"><path stroke="none" fill="black" fill-rule="evenodd" d="M50.27749375659457,56.0C44.666666666666664,56.0 44.0,55.787601010047574 44.0,54.0C44.0,52.9 44.417857142857144,52.0 44.92857142857143,52.0C45.43928571428572,52.0 46.56428571428572,51.292857142857144 47.42857142857143,50.42857142857143C48.362684597334166,49.494458259808695 49.0,47.138587542585284 49.0,44.61970106367632C49.0,42.28910807726972 48.4375,39.63309128069653 47.75,38.717441515735906C46.68495410590206,37.2989556646769 45.87700482174247,37.21320727945019 42.28952860211545,38.13791676817417C39.35695056153887,38.893819406833806 37.17984584815411,38.90974300817149 35.11628752258062,38.19038270173602C32.94721715216481,37.43424069837937 32.04307989209014,37.4713155024438 31.74126826241115,38.32877781419287C31.514530994225595,38.97295001638679 31.367489480016268,42.199728885127804 31.41450934194598,45.499397522506236C31.480455595410763,50.127245741959634 31.842921759536917,51.4989327801073 33.0,51.499397522506236C33.825,51.49972888512781 34.5,52.175 34.5,53.0C34.5,54.18066037405919 32.83268347581158,54.562491595750984 26.668291739822667,54.793535114379615C19.931083542246864,55.04604799064831 18.882940506678068,54.86397560302947 19.168291739822667,53.49071397184322C19.3507312829202,52.61271803053941 19.90954746955835,51.95844702018161 20.410105487907447,52.036778393270325C20.910663506256544,52.11510976635904 21.785434275968207,51.351379280500424 22.354040531711142,50.33959953580673C22.92264678745408,49.32781979111302 23.581967604112247,42.097793303042835 23.819197902062626,34.27287400676184L24.250525716517856,20.045748013523685L21.625262858258928,19.047624853825543C19.74834303108622,18.334021207431004 19.0,17.329810065654744 19.0,15.5247508470637C19.0,13.134432892659156 19.289710600634578,13.0 24.440983005625053,13.000000000000004C27.433523658718833,13.000000000000005 30.108562791711556,13.366641292527927 30.385514412275548,13.814758427839827C30.662466032839536,14.262875563151727 30.97330920380175,18.451880626027588 31.076277014413797,23.123658567563957L31.263491215526614,31.617800279448268L38.800759296569666,31.354172165203494C43.771726634343125,31.180304560769255 46.834336182129775,30.594235246441663 47.79569461339469,29.632876815176736C48.877086618174005,28.551484810397415 49.076239223887356,26.994071288398164 48.56719962980356,23.59955206634121C48.18981040914836,21.08294043416176 47.232803993083614,18.37566113594078 46.44051870521523,17.583375848072368C45.64823341734685,16.791090560203955 45.0,15.435714285714234 45.0,14.571428571428537C45.0,13.353182376839387 46.119480118647175,13.0 49.9809479717851,13.0C54.352072842321824,13.0 55.01463578166882,13.275470048187856 55.3926674067566,15.25C55.62959171150912,16.4875 55.83309599978187,18.5125 55.84489915847381,19.75C55.85670231716575,20.9875 55.93271889400922,28.303589299915853 56.013824884792626,36.007976222035225C56.14372922662114,48.34779603858583 56.37420116464861,50.12989886875123 57.949162253111666,50.972792463547236C58.93249181490372,51.499054474259474 60.02120149232307,51.645465174343606 60.36851709182134,51.298149574845326C60.715832691319605,50.95083397534704 61.0,51.166149880774555 61.0,51.776629364684254C61.0,52.38710884859396 59.999872190467556,53.58710884859397 58.77749375659457,54.44329603135095C57.33895979333424,55.450884440287226 54.34064903447547,56.0 50.27749375659457,56.0z"/></svg>