<svg version="1.1" xmlns="http://www.w3.org/2000/svg" xmlns:xlink="http://www.w3.org/1999/xlink" width="80" height="80" viewBox="0 0 80 80"><path stroke="none" fill="black" fill-rule="evenodd" d="M51.10901834796092,55.82399774256639C44.32355948495917,56.20741048970999 44.0,56.12526824977999 44.0,54.0192270034898C44.0,52.689412024280074 44.757887203974484,51.61456881378887 45.907545920851064,51.313926305741134C46.956696177319145,51.039567350519675 48.07555156983755,49.84419617731915 48.39389123755862,48.657545920851064C48.71223090527969,47.47089566438298 48.978835240896714,45.1235083357972 48.986345316707556,43.441129635104886C48.9938553925184,41.758750934412575 48.4375,39.63309128069653 47.75,38.717441515735906C46.678660760116806,37.29057384563824 45.88472124340215,37.2111652608407 42.1952022075553,38.161859355825484C38.962619735640516,38.994812658882594 37.24167481477917,38.97551396363337 35.285843840449104,38.084377735189015C33.40344652985337,37.22670012305657 32.492381518418746,37.20330996776619 31.99998851131388,38.000018589084625C31.625276396353325,38.60631552708716 31.35948766155111,41.89184191008961 31.40934687842007,45.301188329090074C31.47958869875574,50.104286204752256 31.83773742517399,51.5 33.0,51.5C33.825,51.5 34.5,52.175 34.5,53.0C34.5,54.17917726847766 32.842415887134564,54.56246723448759 26.75,54.792064253947245C19.556107969400255,55.06317118412713 19.0,54.93985046011571 19.0,53.07344905028595C19.0,51.78113513240089 19.489808920594548,51.250726911192594 20.37095765363686,51.588855406024095C21.124984363137134,51.87820260336477 22.085921234725067,51.30157944501235 22.50637292383227,50.30747060968538C22.926824612939473,49.31336177435843 23.491261955019404,42.097793303042835 23.760678128454337,34.27287400676184L24.250525716517856,20.045748013523685L21.625262858258928,19.047624853825543C19.74834303108622,18.334021207431004 19.0,17.329810065654744 19.0,15.5247508470637C19.0,13.105610922874734 19.250981413863215,13.0 25.0,13.0L31.0,13.0L31.0,20.92857142857145C30.999999999999996,26.666423475252202 31.417250890312253,29.274393747455143 32.51009915501849,30.36724201216135C33.66046663196181,31.517609489104647 35.50665037149802,31.754671073113606 40.26009915501849,31.362390673004256C43.69204461975832,31.07916790120771 47.119506416064745,30.246188293956077 47.87668092458833,29.51132487911174C48.87252587550153,28.54482374490091 49.06354643716157,26.909429722156784 48.56719962980356,23.59955206634121C48.18981040914836,21.08294043416176 47.232803993083614,18.37566113594078 46.44051870521523,17.583375848072368C45.64823341734685,16.791090560203955 45.0,15.435714285714234 45.0,14.571428571428537C45.0,13.357024443404132 46.11135684576902,13.0 49.8915919701254,13.0C54.14794216079272,13.0 54.848815915712215,13.292194036728707 55.28857394218747,15.25C55.56653844325264,16.4875 55.928858382842584,20.875 56.093729363498454,25.0C56.25860034415433,29.125 56.4174584567264,36.52567151712899 56.44674739143639,41.44593670473109C56.49722811711108,49.92622318976305 56.61941903711566,50.420713284333274 58.79424383836208,50.94593670473109C60.878485950104015,51.44928427104489 60.95711548949899,51.679512358411756 59.65326218632299,53.46115112396665C58.52046077424748,55.00905755217672 56.72005722436072,55.50694566497435 51.10901834796092,55.82399774256639z"/></svg>