<svg version="1.1" xmlns="http://www.w3.org/2000/svg" xmlns:xlink="http://www.w3.org/1999/xlink" width="80" height="80" viewBox="0 0 80 80"><path stroke="none" fill="black" fill-rule="evenodd" d="M49.434900338825486,56.0C44.585656522924936,56.0 44.0,55.774394762061505 44.0,53.90638038489007C44.0,52.687588891200434 44.797076413698704,51.60432060523189 45.907545920851064,51.313926305741134C46.956696177319145,51.039567350519675 48.07555156983755,49.84419617731915 48.39389123755862,48.657545920851064C48.71223090527969,47.47089566438298 48.978835240896714,45.1235083357972 48.986345316707556,43.441129635104886C48.9938553925184,41.758750934412575 48.42110444296526,39.59057242225971 47.713565428811684,38.622955163654076C46.578476917298154,37.07062912676493 45.88507795374287,37.000141551659596 41.81970601641319,38.02381400563789C38.28451950513732,38.91398423041829 36.69254497822432,38.905822582856075 34.97896662378005,37.98874327866091C33.297679665444576,37.08894580520208 32.56929528377818,37.07886088121189 32.03217291459862,37.947943130662296C31.639759377831453,38.58288157079711 31.35948766155111,41.89184191008961 31.40934687842007,45.301188329090074C31.47958869875574,50.104286204752256 31.83773742517399,51.5 33.0,51.5C33.825,51.5 34.5,52.175 34.5,53.0C34.5,54.17917726847766 32.842415887134564,54.56246723448759 26.75,54.792064253947245C19.556107969400255,55.06317118412713 19.0,54.93985046011571 19.0,53.07344905028595C19.0,51.78113513240089 19.489808920594548,51.250726911192594 20.37095765363686,51.588855406024095C21.124984363137134,51.87820260336477 22.075552594388814,51.30157944501235 22.483331500862818,50.30747060968538C22.89111040733682,49.31336177435843 23.460808692058635,42.099793509870196 23.74932768913352,34.27731891082264L24.273907683815125,20.054637821645294L21.636953841907562,19.052069757886347C19.748706757346202,18.334159495908573 19.0,17.332652582182117 19.0,15.5247508470637C19.0,13.105610922874734 19.250981413863215,13.0 25.0,13.0L31.0,13.0L31.0,20.92857142857145C30.999999999999996,26.738402670319726 31.412014202928127,29.269157060071016 32.541804916816936,30.398947773959797C33.73116607908313,31.58830893622596 35.50275149042514,31.819095952543 40.291804916816936,31.408551581377793C43.706312212567624,31.1158409712084 47.119506416064745,30.268593771147465 47.87668092458833,29.525780025686828C48.871842527118226,28.54949290958297 49.0632058441927,26.907158485512007 48.56719962980356,23.59955206634121C48.18981040914836,21.08294043416176 47.232803993083614,18.37566113594078 46.44051870521523,17.583375848072368C45.64823341734685,16.791090560203955 45.0,15.435714285714234 45.0,14.571428571428537C45.0,13.352380952380958 46.12121212121217,13.0 50.0,13.0C53.249853973629996,13.0 55.05478790112577,13.437536506592501 55.15652379944376,14.25C55.242611889137834,14.9375 55.462972261605834,16.85 55.64621351603931,18.5C55.82945477047279,20.15 56.040269060723105,27.969338532235902 56.11468971659555,35.876307849413124C56.238485378169145,49.0292219992122 56.409558574482666,50.29434120336842 58.125,50.742939213374115C59.15625,51.01261714637544 60.0,51.8669164953182 60.0,52.64138221102469C60.0,53.41584792673119 58.84570515247147,54.48836381294874 57.434900338825486,55.0247508470637C56.0240955251795,55.56113788117867 52.424095525179496,56.0 49.434900338825486,56.0z"/></svg>