<svg version="1.1" xmlns="http://www.w3.org/2000/svg" xmlns:xlink="http://www.w3.org/1999/xlink" width="80" height="80" viewBox="0 0 80 80"><path stroke="none" fill="black" fill-rule="evenodd" d="M50.065741454089334,56.0C44.576253493202266,56.0 44.0,55.801103356320844 44.0,53.90638038489007C44.0,52.66247036641097 44.80171241476154,51.60310826372012 45.97535822106424,51.296192990877074C47.261225216618335,50.959931217809775 48.17268630913998,49.59642409785278 48.58664912032214,47.389812605987004C48.936412093328656,45.525415672694145 48.933587825001176,42.45952968283251 48.5803729684833,40.57673262851671C47.99240960617376,37.44261845926742 47.67857542004991,37.186318112180004 44.864908913050236,37.54240823333265C43.17461853907992,37.75632687029722 40.99796839982827,38.18325713428892 40.0279086036021,38.491142153314215C39.05784880737594,38.79902717233951 37.01731698742096,38.576882890406125 35.49339344814659,37.99748819346227C33.96946990887223,37.41809349651841 32.48908133460453,37.17758533206212 32.20364106088505,37.46302560578163C31.91820078716556,37.74846587950114 31.566511606378793,40.86796036853624 31.422109548025567,44.39523558141518C31.188104847359003,50.111213523635996 31.379782107119418,50.86605252409145 33.18513629882833,51.33816325064208C34.299203070123085,51.629498255837944 35.01468763248452,52.46009402656905 34.77510199296486,53.183931630044555C34.47731762173451,54.08359959869237 31.91280530646226,54.5924083241628 26.66974586964638,54.792064253947245C19.451000566843405,55.06695438683185 19.0,54.960579585924656 19.0,52.983047259572295C19.0,51.82745257299509 19.358985588132818,51.10383130618756 19.79774575140626,51.375C20.236505914679707,51.64616869381244 21.171499368930107,51.51204154970193 21.875508983073814,51.07693967975442C22.76411732307312,50.52774952294823 23.32862926399506,46.15724495922381 23.721621088970615,36.78416604808993C24.032973133070147,29.358242420621977 24.001795834916415,22.143291186185106 23.652338204184545,20.750941082674665C23.251540860615172,19.1540372702245 22.36773309849588,18.27119477452982 21.258480346881484,18.359697719964203C20.039169612045878,18.456981762104874 19.40298139318147,17.656819445974683 19.183577654302802,15.75C18.869161643315387,13.017436886259537 18.905620587312605,13.0 24.933577654302802,13.0L31.0,13.0L31.0,20.92857142857145C30.999999999999996,27.02079534953789 31.389155037928884,29.246297895071773 32.6802067703578,30.537349627500657C34.05454050628307,31.91168336342589 35.465388301133544,32.095126873190786 40.4302067703578,31.5450325298428C43.76859304666101,31.175144402434206 47.119506416064745,30.265616368279886 47.87668092458833,29.52385912061097C48.87193322732202,28.54887171612032 49.06325105078489,26.907459944667487 48.56719962980356,23.59955206634121C48.18981040914836,21.08294043416176 47.232803993083614,18.37566113594078 46.44051870521523,17.583375848072368C45.64823341734685,16.791090560203955 45.0,15.435714285714234 45.0,14.571428571428537C45.0,13.352380952380958 46.12121212121217,13.0 50.0,13.0C53.26456092409395,13.0 55.04475637237684,13.433859768976513 55.12894826732384,14.25C55.199869814351956,14.9375 55.41812235377106,16.85 55.613953910477406,18.5C55.809785467183744,20.15 56.08925874688802,28.018880265947633 56.235005643153556,35.98640059099474C56.47057688449809,48.86433282489601 56.69430773070457,50.510210813268415 58.25,50.80972475420526C59.2125,50.995032718923945 60.0,51.77281976165671 60.0,52.538140404722526C60.0,53.303461047788346 59.1295836543402,54.395465174343606 58.065741454089334,54.964816241512004C57.00189925383847,55.5341673086804 53.401899253838465,56.0 50.065741454089334,56.0z"/></svg>