<svg version="1.1" xmlns="http://www.w3.org/2000/svg" xmlns:xlink="http://www.w3.org/1999/xlink" width="80" height="80" viewBox="0 0 80 80"><path stroke="none" fill="black" fill-rule="evenodd" d="M48.80544904692416,56.0C44.24975147986008,56.0 43.886028479051355,55.82305367528224 44.18044904692416,53.75C44.356202071115874,52.5125 44.8739591358505,51.725 45.33102030189001,52.0C45.78808146792951,52.275 46.784635530851276,51.375 47.545584886160604,50.0C48.30653424146993,48.625 48.93893049813783,46.15 48.95090990097816,44.5C48.962889303818486,42.85 48.7198904498641,40.558394479103264 48.41091244774621,39.407543286896136C47.92982147786102,37.61562246257418 47.250878395919585,37.374912160408044 43.683826390297924,37.73161736097021C41.392907060819255,37.96070929391808 39.367979003973524,38.29868766269315 39.18398626397408,38.48268040269259C38.999993523974624,38.66667314269203 37.539394919963236,38.44149265400221 35.938211588393216,37.98227931671522C34.00108891962618,37.42671984521701 32.790498279511255,37.52996391007742 32.32025515356912,38.29083327082779C31.93156244598589,38.91975128287668 31.541797896363672,41.92409843823316 31.454111709964195,44.96716028273107C31.327763066194247,49.35196423815405 31.68257081730244,50.77356578262426 33.16407100092721,51.818422019324146C34.192234797356335,52.54355412995243 34.77437363685454,53.55605412995243 34.45771286647877,54.068422019324146C34.141052096103,54.58078990869587 30.533523658718828,55.0 26.44098300562505,55.0C19.59557376920042,55.0 19.0,54.83519697447762 19.0,52.94098300562506C19.0,51.80852365871883 19.358985588132818,51.10383130618756 19.79774575140626,51.375C20.236505914679707,51.64616869381244 21.171499368930107,51.51204154970193 21.875508983073814,51.07693967975442C22.76411732307312,50.52774952294823 23.32862926399506,46.15724495922381 23.721621088970615,36.78416604808993C24.032973133070147,29.358242420621977 24.001795834916415,22.143291186185106 23.652338204184545,20.750941082674665C23.251540860615172,19.1540372702245 22.36773309849588,18.27119477452982 21.258480346881484,18.359697719964203C20.039169612045878,18.456981762104874 19.40298139318147,17.656819445974683 19.183577654302802,15.75C18.869161643315387,13.017436886259537 18.905620587312605,13.0 24.933577654302802,13.0L31.0,13.0L31.0,20.92857142857145C30.999999999999996,26.512656324157945 31.427746742751918,29.284889599894807 32.44655153933834,30.3036943964812C33.504627015314675,31.361769872457508 35.58591441447128,31.637943180692965 40.19655153933834,31.332069016772515C43.66344819270225,31.102071711296677 47.119506416064745,30.297688531101112 47.87668092458833,29.54455083856015C48.87095795591509,28.555574716556176 49.06276495819719,26.90421844704762 48.56719962980356,23.59955206634121C48.18981040914836,21.08294043416176 47.232803993083614,18.37566113594078 46.44051870521523,17.583375848072368C45.64823341734685,16.791090560203955 45.0,15.435714285714234 45.0,14.571428571428537C45.0,13.378755151539487 46.070392394450806,13.0 49.44098300562506,13.0C51.88352365871883,13.0 54.13006215738663,13.401427996926765 54.43329078044239,13.892062215392812C54.73651940349814,14.38269643385886 55.26254978657746,16.520196433858857 55.60224718728531,18.642062215392812C55.941944587993156,20.763927996926768 56.28290608932536,28.793798782433498 56.35993941246797,36.48621951651889C56.48471442657962,48.94604685476454 56.69098701466992,50.50922909595378 58.25,50.809543679729416C59.2125,50.994951235409815 60.0,51.95740245297631 60.0,52.94832416321053C60.0,54.16620110041474 58.98740299228583,54.95251940154284 56.875,55.375C55.15625,55.71875 51.52495207111587,56.0 48.80544904692416,56.0z"/></svg>