<svg version="1.1" xmlns="http://www.w3.org/2000/svg" xmlns:xlink="http://www.w3.org/1999/xlink" width="80" height="80" viewBox="0 0 80 80"><path stroke="none" fill="black" fill-rule="evenodd" d="M48.18044904692416,55.98899433611891C44.27030785559258,55.998956876240996 43.89118533457893,55.78674358192983 44.18044904692416,53.75C44.356202071115874,52.5125 44.8739591358505,51.725 45.33102030189001,52.0C45.78808146792951,52.275 46.784635530851276,51.375 47.545584886160604,50.0C48.30653424146993,48.625 48.93893049813783,46.15 48.95090990097816,44.5C48.962889303818486,42.85 48.731143148666696,40.6 48.4359184450853,39.5C47.95406025452206,37.70460820795297 47.12851726208648,37.51703243276105 40.366418196832065,37.666488264879035C36.22341776387418,37.7580568105625 32.5441061906785,38.12256047598818 32.19017025639721,38.47649641026944C31.836234322115914,38.8304323445507 31.501563668211148,41.79301262535513 31.446457692164387,45.06000814539041C31.386194010348447,48.632781783343084 31.775420538505617,51.04719341034241 32.423132504221506,51.118421052631575C33.015409626899675,51.18355263157895 33.79563406035031,51.19750794479551 34.15696457855624,51.149432859779495C34.51829509676218,51.10135777476348 34.701672666959276,51.83556830107927 34.56447029010535,52.78101180714792C34.35786202504792,54.20472214641285 32.99964936317269,54.55016910899893 26.657505711549106,54.792064253947245C19.45119685474059,55.06691944821799 19.0,54.960328241005016 19.0,52.983047259572295C19.0,51.82745257299509 19.358985588132818,51.10383130618756 19.79774575140626,51.375C20.236505914679707,51.64616869381244 21.171499368930107,51.51204154970193 21.875508983073814,51.07693967975442C22.76411732307312,50.52774952294823 23.32862926399506,46.15724495922381 23.721621088970615,36.78416604808993C24.032973133070147,29.358242420621977 23.98519223616951,22.077137179516313 23.615441318080315,20.603932178966232C23.16544812637197,18.811016494904827 22.373941545974255,18.020374372548403 21.221583460777254,18.21268881625577C19.99665960250279,18.417113598286665 19.40871531934559,17.706652516128358 19.183577654302802,15.75C18.869161643315387,13.017436886259537 18.905620587312605,13.0 24.933577654302802,13.0L31.0,13.0L31.0,20.92857142857145C30.999999999999996,26.512656324157945 31.427746742751918,29.284889599894807 32.44655153933834,30.3036943964812C33.504627015314675,31.361769872457508 35.58591441447128,31.637943180692965 40.19655153933834,31.332069016772515C43.66344819270225,31.102071711296677 47.119506416064745,30.297688531101112 47.87668092458833,29.54455083856015C48.87095795591509,28.555574716556176 49.06276495819719,26.90421844704762 48.56719962980356,23.59955206634121C48.18981040914836,21.08294043416176 47.232803993083614,18.37566113594078 46.44051870521523,17.583375848072368C45.64823341734685,16.791090560203955 45.0,15.411058249812971 45.0,14.516637380536842C45.0,13.200474689924397 45.905640876304865,12.948529483734328 49.75,13.195208809108305L54.5,13.5L55.79623644979071,22.0C56.5580806660281,26.995752001159445 56.88194083617437,34.56200877930818 56.58180055574274,40.35291983773507C56.106036127964074,49.53232582105554 56.20541072029142,50.240955340246046 58.03556410595203,50.71955120169606C59.116003847678414,51.00209254112032 60.0,52.02189954450062 60.0,52.985788986985625C60.0,54.23407058179797 58.92103329056383,54.91665742703996 56.25,55.35815195914354C54.1875,55.699062151345395 50.55620207111587,55.98294122098431 48.18044904692416,55.98899433611891z"/></svg>