<svg version="1.1" xmlns="http://www.w3.org/2000/svg" xmlns:xlink="http://www.w3.org/1999/xlink" width="80" height="80" viewBox="0 0 80 80"><path stroke="none" fill="black" fill-rule="evenodd" d="M26.0,60.00080827098432L23.5,59.999804028449034L23.30100366949096,38.49990201422452L23.10200733898192,17.000000000000007L26.15132828064012,17.0L29.200649222298317,16.999999999999993L28.85032461114916,26.249999999999996L28.5,35.5L37.0,35.7950539144522C41.675,35.9573335674009 46.4,35.864965687147446 47.5,35.58979195833341C49.33632263880586,35.130421278491724 49.48349440689597,34.344212293973996 49.29831550333403,25.98297793369621L49.09663100666806,16.876479779629996L51.79831550333403,17.188239889814998L54.5,17.5L55.0,37.76337925830698C55.275,48.90823785037582 55.35,58.47073785037582 55.166666666666664,59.01337925830698C54.98333333333333,59.55602066623814 53.74583333333333,60.0 52.416666666666664,60.0C50.63123242046951,60.0 49.95233296200266,59.412300849907695 49.81750724758207,57.75C49.717136233752214,56.5125 49.60463623375222,52.460556170336666 49.56750724758207,48.745680378525925L49.5,41.99136075705185L38.80544222109782,41.67343499783536L28.110884442195648,41.355509238618865L28.305442221097824,50.678660876069245L28.5,60.00181251351962L26.0,60.00080827098432z"/></svg>