<svg version="1.1" xmlns="http://www.w3.org/2000/svg" xmlns:xlink="http://www.w3.org/1999/xlink" width="80" height="80" viewBox="0 0 80 80"><path stroke="none" fill="black" fill-rule="evenodd" d="M51.46663419180747,55.7239766500433C45.473738653161476,56.17721830450116 44.00302238292559,56.01346716188779 44.015312774517064,54.89433845214326C44.02373480050145,54.127452303464466 44.46684405196877,52.825 45.0,52.0C45.53315594803123,51.175 45.99221113657678,50.95 46.02012264121234,51.5C46.04803414584789,52.05 46.71397895730234,51.375 47.5,50.0C48.28602104269766,48.625 48.93893049813783,46.15 48.95090990097816,44.5C48.962889303818486,42.85 48.731143148666696,40.6 48.4359184450853,39.5C47.95153748032726,37.69520841321824 47.14763553033127,37.520451644983794 40.19957312837774,37.70953651173762C35.96480790776998,37.82478159319331 32.23733810519206,37.937281593193305 31.916306900426804,37.95953651173762C31.595275695661545,37.98179143028193 31.370275695661547,40.924155752674025 31.416306900426804,44.49812389483116C31.46233810519206,48.072092036988295 31.95,51.05038151067251 32.5,51.11654494746274C33.05,51.18270838425297 33.79563406035031,51.19750794479551 34.15696457855624,51.149432859779495C34.51829509676218,51.10135777476348 34.701672666959276,51.83556830107927 34.56447029010535,52.78101180714792C34.35786202504792,54.20472214641285 32.99964936317269,54.55016910899893 26.657505711549106,54.792064253947245C19.45119685474059,55.06691944821799 19.0,54.960328241005016 19.0,52.983047259572295C19.0,51.82745257299509 19.358985588132818,51.10383130618756 19.79774575140626,51.375C20.236505914679707,51.64616869381244 21.152881832117938,51.523547820238655 21.83413667904678,51.102509169836026C22.66712624848426,50.58769330364952 23.272831084934708,45.9112171582667 23.683620234359665,36.823168462596854C24.019581342852916,29.390569724017933 23.994632012717965,22.11474824506045 23.628177278504218,20.65467628713577C23.187632737865258,18.89940702752628 22.290748754882298,17.999999999999993 20.980947971785067,17.999999999999996C19.53460346854766,18.0 19.0,17.325318640163577 19.0,15.5C19.0,13.11111111111111 19.266666666666666,13.0 25.0,13.0L31.0,13.0L31.062621980704833,16.75C31.09706407009249,18.8125 31.20956407009249,22.97285826702076 31.312621980704833,25.99524059337947L31.5,31.490481186758945L39.0,31.165826725242194C43.48489027874178,30.97168810678798 47.0534458718396,30.30529426332297 47.87668092458833,29.5081909215601C48.872674277161956,28.54381309646722 49.06362040318439,26.90992296293636 48.56719962980356,23.59955206634121C48.18981040914836,21.08294043416176 47.232803993083614,18.37566113594078 46.44051870521523,17.583375848072368C45.64823341734685,16.791090560203955 45.0,15.411058249812971 45.0,14.516637380536842C45.0,13.202048940763579 45.90257782868336,12.948824534747207 49.710020449936444,13.195208809108305C54.30548087766486,13.49258668068037 54.44288084599765,13.597290466931684 55.35908238441216,17.5C55.87555520090877,19.7 56.34354599843737,28.1375 56.399061934475725,36.25C56.48784703936697,49.22409743632266 56.69781883354574,51.0 58.14301119581566,51.0C59.04666735351428,51.0 60.03951407772273,51.66058874496073 60.349337249612226,52.467974988801615C60.659160421501724,53.275361232642496 60.46729076969804,54.21119842169752 59.92296024560404,54.54761318670165C59.37862972151004,54.88402795170578 55.57328299730159,55.41339151020953 51.46663419180747,55.7239766500433z"/></svg>