<svg version="1.1" xmlns="http://www.w3.org/2000/svg" xmlns:xlink="http://www.w3.org/1999/xlink" width="80" height="80" viewBox="0 0 80 80"><path stroke="none" fill="black" fill-rule="evenodd" d="M51.335391949165306,55.792257576246065C45.52960482424926,56.164850351157035 44.003193080061195,55.974937097570525 44.015312774517064,54.881507211633405C44.02373480050145,54.12167824523503 44.46684405196877,52.825 45.0,52.0C45.53315594803123,51.175 45.99221113657678,50.95 46.02012264121234,51.5C46.04803414584789,52.05 46.71397895730234,51.375 47.5,50.0C48.28602104269766,48.625 48.93893049813783,46.15 48.95090990097816,44.5C48.962889303818486,42.85 48.73043810782804,40.59872878511879 48.434351687666066,39.49717507804174C47.941151501187086,37.662283449274014 47.20862454718359,37.52348378675544 39.69800637095851,37.841806937692155C35.18910286693133,38.03290816757693 31.438733469618303,38.25917938245814 31.363852154707338,38.34463185965042C31.288970839796374,38.43008433684269 31.524444677702633,41.425 31.88712735005458,45.0C32.293933436798106,49.00992898468781 32.98085301738616,51.416108284351296 33.68023977390349,51.28101180714792C34.30376893466844,51.16056830107927 34.70157490011125,51.83556830107927 34.564253030443055,52.78101180714792C34.35590739516408,54.21544485388849 32.978053689309945,54.547855730466914 26.240684526387298,54.78909487934793C18.5559655976716,55.064254961706986 18.192353099065787,54.980444535492126 18.6970861877952,53.05034223917394C18.988747909132027,51.93502610343688 19.535205263739623,51.21274105519905 19.911435864700977,51.44526435420096C20.28766646566233,51.67778765320287 21.152881832117938,51.523547820238655 21.83413667904678,51.102509169836026C22.66712624848426,50.58769330364952 23.272831084934708,45.9112171582667 23.683620234359665,36.823168462596854C24.019581342852916,29.390569724017933 23.994632012717965,22.11474824506045 23.628177278504218,20.65467628713577C23.205181268907474,18.969325944340078 22.281161171807156,17.999999999999993 21.09757933574607,17.999999999999996C20.072205201442834,18.0 19.00472152327147,17.126057090868116 18.72539338425415,16.057904646373593C18.44606524523683,14.98975220187907 18.468581131454325,13.864752201879067 18.7754286869597,13.557904646373586C19.082276242465074,13.251057090868105 22.070833333333155,13.000493106687637 25.41666666666655,13.001095792639212L31.5,13.002191585278439L31.55307576347726,22.243814711954343L31.60615152695452,31.48543783863025L39.05307576347726,31.163305051177847C43.49648423153889,30.97109582356327 47.05524707030877,30.303550239773244 47.87668092458833,29.5081909215601C48.86594302325155,28.55033068214135 49.06396356071493,26.91221130130367 48.5803408356719,23.687183905670686C48.21017927824428,21.218769785122447 47.03751345225802,18.196263061271026 45.974416777924645,16.970502297111977C44.911320103591265,15.74474153295293 44.28373079107239,14.349930930764941 44.579773861216026,13.870923181138672C44.87581693135966,13.391915431512402 47.003976341281174,13.00689074853268 49.30901699437495,13.015312774517067C51.61405764746873,13.023734800501455 53.95,13.361234800501453 54.5,13.765312774517067C55.05,14.169390748532681 55.61290822971302,15.85 55.75090717714004,17.5C55.888906124567065,19.15 56.113906124567066,27.362417143008294 56.25090717714004,35.749815873351764C56.46941748948304,49.127327081423516 56.70172161766284,50.99965435295566 58.14301119581566,50.999815873351764C59.04666735351428,50.9999171430083 60.03951407772273,51.66058874496073 60.349337249612226,52.467974988801615C60.659160421501724,53.275361232642496 60.40823176050906,54.24769889671819 59.79171800296187,54.62872535341427C59.175204245414676,55.00975181011035 55.36985752120623,55.53334131038466 51.335391949165306,55.792257576246065z"/></svg>