<svg version="1.1" xmlns="http://www.w3.org/2000/svg" xmlns:xlink="http://www.w3.org/1999/xlink" width="80" height="80" viewBox="0 0 80 80"><path stroke="none" fill="black" fill-rule="evenodd" d="M48.25,55.942370315166244C45.177114728788304,55.98403841156865 44.0,55.59831032267704 44.0,54.54969011357123C44.0,53.75201967603541 44.60930697258361,52.739519676035414 45.35401549463025,52.29969011357123C46.09872401667689,51.859860551107055 47.22372401667689,50.517083654340205 47.85401549463025,49.315741454089334C48.48430697258361,48.11439925383847 48.96837163182533,45.63939925383848 48.92971473738962,43.815741454089334C48.89105784295391,41.9920836543402 48.553557842953914,39.825 48.17971473738962,39.0C47.805871631825326,38.175 46.825,37.56059261361637 46.0,37.634650252480824C45.175,37.70870789134527 41.51996487350607,37.821207891345274 37.87769971890237,37.884650252480824L31.25539943780474,38.0L31.683033667619796,43.75C31.918232494018078,46.9125 32.307589351908916,50.091021925490814 32.54827112959944,50.813382056646255C32.78895290728997,51.535742187801695 33.399549473335675,51.87109883404133 33.90515238747879,51.558619048289884C34.41075530162192,51.24613926253844 34.709713373574075,51.78011733704763 34.56950365848359,52.74523699164363C34.354678648295476,54.22396362265872 33.04449770089334,54.54547662722721 26.240684526387298,54.78909487934793C18.54171544224471,55.06476520469405 18.1915537288504,54.9835013318916 18.70002743846148,53.03909487934793C18.993306847664755,51.91759269570657 20.015706453427864,51.0 20.972026562379497,51.0C22.38901936954646,51.0 22.82876367240747,49.75086288823757 23.348286154990447,44.25C23.69890882197484,40.5375 23.98898098268651,33.82430436070608 23.99289095657194,29.33178746823573C23.996800930457376,24.839270575765383 23.72685503811704,20.451770575765384 23.393011195815646,19.58178746823573C23.059167353514248,18.71180436070608 21.9866514672967,18.0 21.009642559776648,18.0C20.032633652256596,18.0 19.00472152327147,17.126057090868116 18.72539338425415,16.057904646373593C18.44606524523683,14.98975220187907 18.468581131454325,13.864752201879067 18.7754286869597,13.557904646373586C19.082276242465074,13.251057090868105 22.070833333333155,13.00002872141752 25.41666666666655,13.000063825372283L31.5,13.00012765074458L31.60147126206136,22.25006382537229C31.670607532147574,28.552400789138638 32.06893449830364,31.468133842707516 32.85147126206136,31.4C33.48316206792761,31.345 37.11967554824932,31.2325 40.93261232944293,31.150000000000002C46.96365971383818,31.019507039385836 47.94951593609689,30.734421702446486 48.51338511684015,28.957827231232223C48.869873368715005,27.834632208409943 48.86552178290688,25.16350476051788 48.50371492615544,23.02198845813875C48.14190806940399,20.880472155759623 46.989900905153725,18.141365333217525 45.94369900559929,16.935084408045203C44.89749710604486,15.72880348287288 44.28373079107239,14.349930930764941 44.579773861216026,13.870923181138672C44.87581693135966,13.391915431512402 47.003976341281174,13.00689074853268 49.30901699437495,13.015312774517067C51.61405764746873,13.023734800501455 53.95,13.361234800501453 54.5,13.765312774517067C55.05,14.169390748532681 55.69167596572057,16.975 55.925946590490156,20.0C56.16021721525975,23.025 56.38521721525975,31.125 56.425946590490156,38.0C56.49477955165,49.61880351212747 56.6409914380596,50.53842615702465 58.5,51.045084971874736C59.6,51.34488170640584 60.5,52.23724814928502 60.5,53.028121511606244C60.5,53.92084271153336 58.98331368005027,54.735032287833064 56.5,55.17540685489776C54.3,55.56554043138686 50.5875,55.910673988507675 48.25,55.942370315166244z"/></svg>