<svg version="1.1" xmlns="http://www.w3.org/2000/svg" xmlns:xlink="http://www.w3.org/1999/xlink" width="80" height="80" viewBox="0 0 80 80"><path stroke="none" fill="black" fill-rule="evenodd" d="M48.25,55.942370315166244C45.177114728788304,55.98403841156865 44.0,55.59831032267704 44.0,54.54969011357123C44.0,53.75201967603541 44.60930697258361,52.739519676035414 45.35401549463025,52.29969011357123C46.09872401667689,51.859860551107055 47.22372401667689,50.517083654340205 47.85401549463025,49.315741454089334C48.48430697258361,48.11439925383847 48.9938553925184,45.86439925383847 48.986345316707556,44.315741454089334C48.978835240896714,42.767083654340205 48.73191251882336,40.6 48.43762815654455,39.5C47.947770700572995,37.66897100003502 47.199841127296786,37.5270088131968 39.58487149272436,37.8196857826633L31.267177305774744,38.1393715653266L31.688922601604798,43.8196857826633C31.920882514311327,46.94385860219849 32.307589351908916,50.091021925490814 32.54827112959944,50.813382056646255C32.78895290728997,51.535742187801695 33.39708618821077,51.8726212279725 33.89967842053456,51.56200214591472C34.402270652858356,51.25138306385693 34.577964807679,51.89786113836611 34.290109875691556,52.99862008926846C33.82220270376101,54.78789986341674 32.927553249386904,55.0 25.848184877551013,55.0C18.239509977365344,55.0 17.971519280971332,54.92173380211375 19.0,53.0C19.588702134336796,51.9 20.664462664944722,51.0 21.390578956906502,51.0C22.290840412805558,51.0 22.913573318844374,48.85287242143461 23.348286154990447,44.25C23.69890882197484,40.5375 23.98898098268651,33.82430436070608 23.99289095657194,29.33178746823573C23.996800930457376,24.839270575765383 23.72685503811704,20.451770575765384 23.393011195815646,19.58178746823573C23.059167353514248,18.71180436070608 21.9866514672967,18.0 21.009642559776648,18.0C20.032633652256596,18.0 19.00472152327147,17.126057090868116 18.72539338425415,16.057904646373593C18.44606524523683,14.98975220187907 18.468581131454325,13.864752201879067 18.7754286869597,13.557904646373586C19.082276242465074,13.251057090868105 22.070833333333155,13.000018923725552 25.41666666666655,13.000042052723465L31.5,13.000084105446945L31.65267537182563,22.22886703756307L31.80535074365126,31.4576499696792L39.65267537182563,31.130843579089415C44.08981896016414,30.946056157981943 47.84314595235022,30.30340899305781 48.28962895268042,29.652018594249817C48.72392487665465,29.018408367412416 48.80677459234639,26.25582428857824 48.47373943199541,23.512942863507195C48.09568597166504,20.399290200133223 47.110347002831894,17.819818732346413 45.85073846936659,16.64631487345552C44.5857474821097,15.467796496063904 44.18530232949891,14.414697670500978 44.77711693191608,13.822883068083904C45.29624045541318,13.303759544586894 47.890356247740016,13.018742140110149 50.54181869264239,13.18951105813558L55.36265950155579,13.5L55.83391039732241,19.5C56.09309838999406,22.8 56.34900000214401,31.125 56.40258064654452,38.0C56.493051437128194,49.608421142034764 56.642652617274436,50.53887889893745 58.5,51.045084971874736C59.6,51.34488170640584 60.5,52.23724814928502 60.5,53.028121511606244C60.5,53.92084271153336 58.98331368005027,54.735032287833064 56.5,55.17540685489776C54.3,55.56554043138686 50.5875,55.910673988507675 48.25,55.942370315166244z"/></svg>