<svg version="1.1" xmlns="http://www.w3.org/2000/svg" xmlns:xlink="http://www.w3.org/1999/xlink" width="80" height="80" viewBox="0 0 80 80"><path stroke="none" fill="black" fill-rule="evenodd" d="M49.25,55.88168521157401C46.01090241754472,55.95468200112817 44.0,55.576506214151024 44.0,54.894355908914875C44.0,54.28625165881805 45.125,52.45172528194348 46.5,50.817630626971386C48.02935261198663,49.00009831510596 48.99469844693122,46.61449710950086 48.986345316707556,44.67327471805652C48.978835240896714,42.92797362312543 48.73191251882336,40.6 48.43762815654455,39.5C47.94826406695349,37.67081514497817 47.19892190405904,37.52711218186828 39.66390773508871,37.817444707514085L31.425249790503457,38.13488941502817L31.619723341082846,44.271770807408046C31.74802056890378,48.320366967464196 32.27116539157778,50.59433653591846 33.15709844583112,50.95432609989396C33.895694300624,51.25444674495228 34.5625,52.2875 34.638888888888886,53.25C34.76100248782368,54.78863134657837 33.764550264550266,55.0 26.38888888888889,55.0C21.775,55.0 18.0,54.753512995241906 18.0,54.452251100537566C18.000000000000004,54.15098920583323 19.13732265592575,52.85046713691071 20.527383679834998,51.562202058487514C22.90406722408079,49.35956608794267 23.091718947260187,48.447387131499895 23.674480401428895,36.26409898386997C24.015322574396293,29.138407371253503 23.994426505773827,22.113929440176022 23.628044693378968,20.654148025920012C23.205166152895615,18.969265717351664 22.28106798800543,17.999999999999993 21.09757933574607,17.999999999999996C20.072205201442834,18.0 19.00472152327147,17.126057090868116 18.72539338425415,16.057904646373593C18.44606524523683,14.98975220187907 18.468581131454325,13.864752201879067 18.7754286869597,13.557904646373586C19.082276242465074,13.251057090868105 22.103813901155863,12.999999999999991 25.48995681738368,12.999999999999996L31.646580301434255,13.000000000000007L31.743578977789163,22.250000000000004C31.830991037129504,30.585799819986377 32.02141249562123,31.480918218635495 33.670288827072035,31.306927977613114C34.67662997218242,31.200738365300328 38.30460311185216,31.01757536959078 41.73245135967146,30.899899098258558C46.84961764378661,30.72422940562129 48.07197117767795,30.34859940076055 48.56322414706868,28.800798351877667C48.892300932317845,27.763969212700392 48.848964298748704,25.022132208409943 48.46692051691504,22.707827231232223C48.08487673508137,20.3935222540545 46.88601157627584,17.660017404476747 45.80277571956941,16.633372009948324C44.56785807695882,15.462968997013663 44.18530232949891,14.414697670500978 44.77711693191608,13.822883068083904C45.29624045541318,13.303759544586894 47.92125785988996,13.018742140110149 50.61048894186449,13.18951105813558C55.00496743556989,13.46856492698537 55.52258800441515,13.753109441079207 55.723105115309366,16.0C55.84581292872952,17.375 56.070812928729524,25.811481404679608 56.223105115309366,34.747736454843576L56.5,50.995472909687145L58.82332416321053,50.997736454843576C60.493222887313486,50.99936338716258 61.05228040285606,51.490013219364734 60.81111306267316,52.7422945063136C60.61942027613833,53.737675096565155 59.19472596866491,54.7586929679741 57.487788899462636,55.123979717887615C55.84450500475818,55.47564460578084 52.1375,55.816612077939716 49.25,55.88168521157401z"/></svg>