<svg version="1.1" xmlns="http://www.w3.org/2000/svg" xmlns:xlink="http://www.w3.org/1999/xlink" width="80" height="80" viewBox="0 0 80 80"><path stroke="none" fill="black" fill-rule="evenodd" d="M51.72961495898445,55.575423803189594C45.858388686487544,56.107460445075226 44.0,55.97687718592469 44.0,55.03228752569177C44.0,54.34832088636765 45.125,52.45172528194348 46.5,50.817630626971386C48.02935261198663,49.00009831510596 48.99469844693122,46.61449710950086 48.986345316707556,44.67327471805652C48.978835240896714,42.92797362312543 48.73100623890652,40.6 48.435614201173784,39.5C47.9548500559272,37.709699341152415 47.14369679800663,37.52112121681125 40.69926888446623,37.70144285332684C36.7396709980098,37.8122364226566 33.03221942848559,37.92473642265661 32.46048761885686,37.95144285332684C31.835799754182926,37.98062293893251 31.499434131240815,40.47587871110829 31.617586064687977,44.20432609989396C31.74762406790904,48.30785483113797 32.268906074566424,50.59341848625105 33.15709844583112,50.95432609989396C33.895694300624,51.25444674495228 34.5625,52.2875 34.638888888888886,53.25C34.76100248782368,54.78863134657837 33.764550264550266,55.0 26.38888888888889,55.0C21.775,55.0 18.0,54.753512995241906 18.0,54.452251100537566C18.000000000000004,54.15098920583323 19.12555189088895,52.861375913779064 20.501226424197664,51.58644378486165C22.81408294701084,49.44296070138946 23.05087842849598,48.36777189255035 23.64546077941096,37.30979640168558C23.999115141469556,30.732572469856155 23.97817237418538,23.69718576191032 23.59892129655723,21.675603717361497C23.101611580277844,19.02471502563362 22.396945636085157,18.000000000000007 21.071318305304935,18.000000000000004C20.060387737744325,18.0 19.00472152327147,17.126057090868116 18.72539338425415,16.057904646373593C18.44606524523683,14.98975220187907 18.468581131454325,13.864752201879067 18.7754286869597,13.557904646373586C19.082276242465074,13.251057090868105 22.112795378415672,12.99999999999999 25.509915655738812,12.999999999999993L31.68649797814452,13.0L31.717266033121966,22.25C31.734924638109042,27.55882099145221 32.153786585209396,31.418147947217875 32.70034064157673,31.307892134157683C33.224109245989254,31.20223280794441 36.87204448265444,31.021780079344776 40.806863389721585,30.906886070602944C46.839448383407,30.730738733363232 48.05518354168637,30.401492558084886 48.56131257959178,28.80682116767748C48.891440726953235,27.76667947981031 48.848964298748704,25.022132208409943 48.46692051691504,22.707827231232223C48.08487673508137,20.3935222540545 46.92352898075263,17.69497018366121 45.88614772951782,16.711044852580464C44.84876647828302,15.72711952149972 44.0,14.48961952149972 44.0,13.961044852580464C44.0,13.43247018366121 46.44844235253127,13.0 49.44098300562506,13.0C52.43352365871883,13.0 55.13958697329223,13.416839472798603 55.454457038010375,13.92630993955245C55.769327102728525,14.435780406306296 56.13338475019725,22.985451159959467 56.263474032385325,32.925578281003936C56.499115007405734,50.930914364290395 56.5084186669108,50.99853942049836 58.75,50.99926834145149C59.9875,50.99967075365317 60.993109251467324,51.3375 60.984687225482936,51.75C60.97626519949855,52.1625 60.62959193104155,53.034371483885714 60.214302184467385,53.6874921864127C59.79901243789322,54.34061288893968 55.9809031864259,55.19018211648928 51.72961495898445,55.575423803189594z"/></svg>