<svg version="1.1" xmlns="http://www.w3.org/2000/svg" xmlns:xlink="http://www.w3.org/1999/xlink" width="80" height="80" viewBox="0 0 80 80"><path stroke="none" fill="black" fill-rule="evenodd" d="M51.69319372380771,55.643158996241596C45.8513332629344,56.13697705370987 44.0,55.99209225807195 44.0,55.04109192231556C44.0,54.35228286484836 45.125,52.45172528194348 46.5,50.817630626971386C48.02935261198663,49.00009831510596 48.99469844693122,46.61449710950086 48.986345316707556,44.67327471805652C48.978835240896714,42.92797362312543 48.73116780382863,40.6 48.43597323433406,39.5C47.95399997668003,37.703996149633916 47.130502161283815,37.51740580783669 40.3623128552139,37.67064839574595C36.2169942161924,37.76450501340622 32.566816044892605,38.09985062177408 32.25080580788102,38.415860858785635C31.934795570869447,38.73187109579718 31.636587348955114,41.47303042593428 31.588120870293622,44.507326036868065C31.518731218399164,48.8515392333358 31.85802900485517,50.137828335375254 33.18434464997772,50.55866304578227C34.110734207465455,50.852602789751295 34.8024722726246,51.97215168152852 34.72154035033137,53.04654947195388C34.58828936488482,54.81549997107889 33.79168007813317,55.0 26.28719570035365,55.0C21.729238065159144,55.0 18.0,54.753512995241906 18.0,54.452251100537566C18.000000000000004,54.15098920583323 19.171901433182843,52.81842060770898 20.60422540707298,51.49098754915035C23.11255667900077,49.166344582287074 23.222745483634093,48.58814816924654 23.596655383803373,35.78873644861278C23.810167897114948,28.479931401875753 23.710782350149646,21.4875 23.375798612769366,20.250000000000004C23.0346317958243,18.989658410670145 21.9853998315714,18.000000000000007 20.990357440223328,18.000000000000004C20.013348532703283,18.0 18.93937269692999,17.284391071737435 18.603744471838226,16.4097579371943C18.268116246746466,15.535124802651165 18.246528932332232,14.410124802651167 18.555772662028822,13.909757937194303C18.865016391725412,13.40939107173744 22.011842986995426,13.000000000000004 25.548720651517748,13.0L31.9794073142856,12.999999999999993L31.826871163973664,22.249999999999996C31.73381171860626,27.89325156946845 32.06002551935568,31.42509354123032 32.66349110435789,31.307892134157683C33.20752695424078,31.20223280794441 36.87204448265444,31.021780079344776 40.806863389721585,30.906886070602944C46.839448383407,30.730738733363232 48.05518354168637,30.401492558084886 48.56131257959178,28.80682116767748C48.891440726953235,27.76667947981031 48.848964298748704,25.022132208409943 48.46692051691504,22.707827231232223C48.08487673508137,20.3935222540545 46.92352898075263,17.69497018366121 45.88614772951782,16.711044852580464C44.84876647828302,15.72711952149972 44.0,14.48961952149972 44.0,13.961044852580464C44.0,13.43247018366121 46.44844235253127,13.0 49.44098300562506,13.0C52.43352365871883,13.0 55.17066232584508,13.467120449441493 55.52351337701671,14.03804544320332C55.876364428188346,14.608970436965146 56.13360428100106,20.571470436965146 56.0951574943783,27.28804544320332C56.05671070775554,34.00462044944149 56.3036153011716,41.92006898627652 56.643834368636206,44.87793108061449C57.11519153073011,48.97590681443291 57.70718985976875,50.37217353288356 59.13120724564956,50.74456244457548C60.159043260542305,51.013347600416054 60.993109251467324,51.51827861413953 60.984687225482936,51.86663136396099C60.97626519949855,52.21498411378245 60.61320237521202,53.060890342278405 60.17788094929065,53.74642298284091C59.72622964671766,54.457671480226544 56.08317413293282,55.272069749506336 51.69319372380771,55.643158996241596z"/></svg>