<svg version="1.1" xmlns="http://www.w3.org/2000/svg" xmlns:xlink="http://www.w3.org/1999/xlink" width="80" height="80" viewBox="0 0 80 80"><path stroke="none" fill="black" fill-rule="evenodd" d="M51.71701478092558,55.5118319238114C45.90633049475859,56.056337589537236 44.0,55.932825710201605 44.0,55.01184359488647C44.0,54.33912111750527 45.125,52.45172528194348 46.5,50.817630626971386C48.02935261198663,49.00009831510596 48.99469844693122,46.61449710950086 48.986345316707556,44.67327471805652C48.978835240896714,42.92797362312543 48.731081386493884,40.6 48.43578119581238,39.5C47.95280560765225,37.700904829251705 47.13963333048014,37.51929564062514 40.34068183756516,37.692087374873026C36.183677381210686,37.797735431053184 32.515466216461114,38.151200450205565 32.189101471455004,38.47756519521165C31.862736726448894,38.803929940217735 31.574176045141744,41.41749062152487 31.547855512994673,44.28547782033863C31.516960864474555,47.65187846803262 32.00364944518884,49.89399471084313 32.92105979357082,50.61166615551183C33.70264268003477,51.223082541043325 34.45032494546613,52.46058254104332 34.58257593897383,53.36166615551183C34.78907788521534,54.76865384746617 33.63525734264026,55.0 26.411516145403013,55.0C21.785182265431356,55.0 18.0,54.7981848618231 18.0,54.55152191516245C17.999999999999996,54.304858968501804 19.067183594661888,52.95153367520174 20.371519099248644,51.544132374495646C22.284309338312973,49.48019755023434 22.860526342285542,47.487548447048354 23.350423957520945,41.24261045933319C23.684486124983952,36.98417470669994 23.81333521751443,30.575000000000003 23.63675527425534,27.0C23.460175330996247,23.424999999999997 23.244668144773716,19.9375 23.15785041598304,19.25C23.071032687192368,18.5625 22.14814496188296,18.0 21.106988804184354,18.0C20.065832646485745,18.0 18.982466721354594,17.396692299240776 18.69950897055957,16.659316220535054C18.41655121976455,15.921940141829333 18.522647766489218,14.77237213842613 18.93527907439217,14.104720657416824C19.424122410492213,13.31375552443305 21.743696893126653,12.99693493248087 25.592758908016947,13.19540443688177L31.5,13.5L31.5,22.296257140786373L31.5,31.09251428157275L39.72559283444395,30.910837560921845C46.84836867951889,30.753518497905983 48.032323010253464,30.47351971463064 48.55636562184117,28.82240765136769C48.88921459596546,27.773693397470904 48.848964298748704,25.022132208409943 48.46692051691504,22.707827231232223C48.08487673508137,20.3935222540545 46.92352898075263,17.69497018366121 45.88614772951782,16.711044852580464C44.84876647828302,15.72711952149972 44.0,14.48961952149972 44.0,13.961044852580464C44.0,13.43247018366121 46.44844235253127,13.0 49.44098300562506,13.0C52.43352365871883,13.0 55.16735750929118,13.461773143930708 55.51616934023028,14.026162542068242C55.86498117116937,14.590551940205776 56.25026794151442,22.689281063082102 56.372362163219286,32.0233383706823C56.49445638492415,41.3573956782825 57.0231225343518,49.401943435139046 57.547175828614066,49.900111163696835C58.07122912287633,50.39827889225462 59.25730034563492,50.9620497693783 60.18288965696649,51.15293533508277C61.56190544948404,51.43733167204071 61.64623277638106,51.79691384456983 60.64990443789206,53.1443442378398C59.80433145439698,54.28789370208284 57.08376701881238,55.00892609445273 51.71701478092558,55.5118319238114z"/></svg>