<svg version="1.1" xmlns="http://www.w3.org/2000/svg" xmlns:xlink="http://www.w3.org/1999/xlink" width="80" height="80" viewBox="0 0 80 80"><path stroke="none" fill="black" fill-rule="evenodd" d="M50.146691174400246,55.64245640723199C45.5578292028741,56.12208743014536 44.0,55.96859182985069 44.0,55.036812316146865C44.0,54.350357042072446 45.13314308741713,52.44204777239926 46.51809574981585,50.79612505020645C48.62056944972027,48.297477024582285 48.96452541461799,47.035744672526945 48.60199397782691,43.15176914129158C48.36318534083427,40.59329611358121 48.13004225341714,38.26501342121457 48.08389822801105,37.97780760269904C48.03775420260497,37.69060178418351 44.57696161567431,37.55114016850921 40.393248034831785,37.667892901200595C36.20953445398927,37.784645633891984 32.49703445398927,38.169924056435846 32.143248034831785,38.5240671735203C31.789461615674306,38.878210290604756 31.5,41.49267190627905 31.5,44.33398187501874C31.5,47.61026776534267 32.019824443956246,49.90664808318997 32.92105979357082,50.61166615551183C33.70264268003477,51.223082541043325 34.45032494546613,52.46058254104332 34.58257593897383,53.36166615551183C34.78805022934634,54.76165198048347 33.672049412088185,55.0 26.911516145403013,55.0C21.157302381446662,55.0 19.0,54.651582227148204 19.0,53.72224086017378C19.0,53.01947333326935 19.9,51.67387769761212 21.0,50.73202833649103C22.407768918501315,49.52665901240322 23.05837637453768,47.610127910232876 23.19714052963905,44.25978747631726C23.30556782094053,41.641904364342764 23.465248722508434,35.47382026504728 23.55198697756773,30.55293392232728C23.638725232627024,25.632047579607285 23.49752788050699,20.794547579607286 23.238215083967653,19.802933922327284C22.978902287428312,18.811320265047282 21.91922138586041,18.000000000000007 20.883368636038973,18.000000000000004C19.847515886217536,18.0 18.965569927249305,17.6625 18.92348872722068,17.25C18.881407527192057,16.8375 18.696225261760677,15.712499999999999 18.511972581817624,14.749999999999996C18.22138490290199,13.232026741522919 19.018114827948924,12.999999999999995 24.521096184039877,13.0C29.694153657984728,13.000000000000005 30.963251011055636,13.323034796615904 31.39626997689559,14.750000000000004C31.688344901800935,15.712500000000002 31.821744050861714,19.78997938952706 31.692712530363984,23.81106531006013L31.458109765822662,31.12213062012026L39.724427849042854,30.863324053827846C46.74679311497907,30.643463866567778 48.07883953688482,30.326959117145197 48.57614575352874,28.760085974999935C48.89811565522487,27.745648643105415 48.848964298748704,25.022132208409943 48.46692051691504,22.707827231232223C48.08487673508137,20.3935222540545 46.92352898075263,17.69497018366121 45.88614772951782,16.711044852580464C44.84876647828302,15.72711952149972 44.0,14.48961952149972 44.0,13.961044852580464C44.0,13.43247018366121 46.44844235253127,13.0 49.44098300562506,13.0C52.43352365871883,13.0 55.1933631911486,13.503851221076621 55.573959744357865,14.119669380170269C55.95455629756712,14.735487539263916 56.33646407194367,22.72531200383553 56.42264368741684,31.87483485699608C56.508823302890015,41.024357710156636 56.925541417928976,49.07050648908001 57.34868394305898,49.75516547682581C57.77182646818898,50.439824464571615 59.046576463230146,51.0 60.18146170981713,51.0C61.794272251106825,51.0 62.001661456889344,51.29307177966266 61.13112065640463,52.34200927429577C60.51854783044079,53.080114375158445 60.3134477084918,53.98011437515844 60.675342607629105,54.34200927429577C61.03723750676641,54.703904173433095 60.19934436181342,55.0 58.8133578410669,55.0C57.427371320320376,55.0 53.527371320320384,55.289105383254395 50.146691174400246,55.64245640723199z"/></svg>