<svg version="1.1" xmlns="http://www.w3.org/2000/svg" xmlns:xlink="http://www.w3.org/1999/xlink" width="80" height="80" viewBox="0 0 80 80"><path stroke="none" fill="black" fill-rule="evenodd" d="M49.75,55.65402218333317C44.30786358025097,56.2048049925442 44.0,56.117550547572954 44.0,54.0243618702306C44.0,52.67543790804816 44.757857567671095,51.6145765638563 45.942880547421396,51.30468609332236C47.05293364133842,51.014400688338824 48.09776289719451,49.661399217544336 48.38033434176718,48.14830570843229C48.65234962757559,46.69173756879453 48.74848909098566,44.15 48.593977593789546,42.5C48.43946609659344,40.85 48.24261188913784,39.006001741089875 48.15652379944377,38.40222609131083C48.0539160928386,37.68259071610351 45.36964656700092,37.413744263819055 40.36382142071227,37.62173800393191C36.163923202104016,37.79624520565254 32.47353917445219,38.19312749221447 32.16296802593044,38.503698640736204C31.852396877408694,38.81426978925793 31.576177238088174,41.41548942857844 31.549146605218176,44.284186728115124C31.517403648152943,47.652991877824164 32.003221423775074,49.89365987840211 32.92105979357082,50.61166615551183C33.70264268003477,51.223082541043325 34.45032494546613,52.46058254104332 34.58257593897383,53.36166615551183C34.78805022934634,54.76165198048347 33.672049412088185,55.0 26.911516145403013,55.0C21.157302381446662,55.0 19.0,54.651582227148204 19.0,53.72224086017378C19.0,53.01947333326935 19.9,51.67387769761212 21.0,50.73202833649103C22.4182546030209,49.517680889434416 23.049274927652394,47.63508272516134 23.169403756035788,44.25978747631726C23.26257582185547,41.641904364342764 23.41289945695531,35.45 23.503456278479874,30.5C23.59401310000444,25.549999999999997 23.465297296005872,20.712500000000002 23.21742115848306,19.750000000000004C22.969545020960247,18.787500000000005 21.91922138586041,18.000000000000007 20.883368636038973,18.000000000000004C19.847515886217536,18.0 18.965569927249305,17.6625 18.92348872722068,17.25C18.881407527192057,16.8375 18.696225261760677,15.712499999999999 18.511972581817624,14.749999999999996C18.22108572845635,13.230463912672793 19.02132376464212,12.999999999999993 24.58848385459694,12.999999999999996C28.964779191439725,12.999999999999998 31.051335260022757,13.396790081005156 31.161720461524368,14.25C31.25066671536277,14.9375 31.38498027490016,18.875 31.460195038274122,23.0L31.596949153499512,30.5L39.78375115459063,30.5840696464185C46.86729138330803,30.656809981697176 48.04843941670364,30.42274141432085 48.54851154557464,28.847153654426776C48.86638866001574,27.845611553301154 48.826460353850294,25.025560787351033 48.45978197631811,22.580374174537617C48.09310359878593,20.1351875617242 47.22709142905447,17.917384760945662 46.53531048802598,17.651923506140864C45.84352954699749,17.386462251336066 45.03221221993401,16.231181676397863 44.73238309455158,15.084633339611525C44.225302609486725,13.14555458591686 44.59963825255845,13.0 50.093619615109944,13.0L56.0,13.0L56.153178765306954,17.25C56.23742708622578,19.5875 56.349927086225776,27.575 56.403178765306954,35.0C56.45643044438813,42.425 56.86405764746873,49.0625 57.30901699437494,49.75C57.75397634128117,50.4375 59.046576463230146,51.0 60.18146170981713,51.0C61.794272251106825,51.0 62.001661456889344,51.29307177966266 61.13112065640463,52.34200927429577C60.51854783044079,53.080114375158445 60.3134477084918,53.98011437515844 60.675342607629105,54.34200927429577C61.03723750676641,54.703904173433095 60.02083333333331,55.01621831409668 58.41666666666665,55.03604069799263C56.81249999999999,55.05586308188858 52.9125,55.33395475029182 49.75,55.65402218333317z"/></svg>