<svg version="1.1" xmlns="http://www.w3.org/2000/svg" xmlns:xlink="http://www.w3.org/1999/xlink" width="80" height="80" viewBox="0 0 80 80"><path stroke="none" fill="black" fill-rule="evenodd" d="M25.72580766790268,60.0L23.45161533580536,60.0L23.248027247203467,38.5L23.044439158601577,17.000000000000007L26.137841021750873,17.000000000000004L29.23124288490017,17.0L28.865621442450085,26.25L28.5,35.5L37.0,35.7950539144522C41.675,35.9573335674009 46.4,35.864965687147446 47.5,35.58979195833341C49.33632263880586,35.130421278491724 49.48349440689597,34.344212293973996 49.29831550333403,25.98297793369621L49.09663100666806,16.876479779629996L51.79831550333403,17.188239889814998L54.5,17.5L55.0,37.76337925830698C55.275,48.90823785037582 55.35,58.47073785037582 55.166666666666664,59.01337925830698C54.98333333333333,59.55602066623814 53.74583333333333,60.0 52.416666666666664,60.0C50.633983495868335,60.0 49.94968943993339,59.40973950384672 49.80822236811103,57.75C49.7027446705721,56.5125 49.5902446705721,52.46208976071124 49.55822236811103,48.749088357136074L49.5,41.99817671427215L38.83484257839377,41.67771270420738L28.169685156787537,41.357248694142605L28.137435359183687,48.928624347071306C28.11969797050157,53.092880956182086 28.081518810224374,57.2875 28.05259278078992,58.25C28.01838503115804,59.388246750916466 27.20500311531349,60.0 25.72580766790268,60.0z"/></svg>