<svg version="1.1" xmlns="http://www.w3.org/2000/svg" xmlns:xlink="http://www.w3.org/1999/xlink" width="80" height="80" viewBox="0 0 80 80"><path stroke="none" fill="black" fill-rule="evenodd" d="M52.25,55.440437816733976C44.24531016216029,56.116722254971585 44.0,56.073151195733374 44.0,53.975104152813614C44.0,52.67495519285879 44.774687677192475,51.61017539134924 45.942880547421396,51.30468609332236C47.05293364133842,51.014400688338824 48.09776289719451,49.661399217544336 48.38033434176718,48.14830570843229C48.65234962757559,46.69173756879453 48.74848909098566,44.15 48.593977593789546,42.5C48.43946609659344,40.85 48.24261188913784,39.006001741089875 48.15652379944377,38.40222609131083C48.0539160928386,37.68259071610351 45.36964656700092,37.413744263819055 40.36382142071227,37.62173800393191C36.163923202104016,37.79624520565254 32.470953309168664,38.195713357498 32.157221658633716,38.50944500803293C31.84349000809876,38.82317665856786 31.56194361286659,41.42439629788837 31.531563002562216,44.289933095411854C31.495581956813904,47.68370990147979 31.975850148351746,49.887539789429205 32.90922255821159,50.61166615551183C33.69731592412312,51.223082541043325 34.45032494546613,52.46058254104332 34.58257593897383,53.36166615551183C34.78792029583495,54.760766686883954 33.67639212679949,55.0 26.97053313977796,55.0C22.651658606712523,55.0 18.881824855184103,54.61780559343738 18.593124803048138,54.150679096527526C18.304424750912172,53.68355259961766 19.177867103443447,52.336528641576734 20.53410780867319,51.15729252310325C22.43158013004976,49.50746157012949 23.04536762656264,47.91676627192753 23.196811691487223,44.256613426575726C23.3050581218052,41.640476041959076 23.467992834318572,37.025 23.558888830405834,34.0C23.6497848264931,30.975 23.50936907476935,26.137500000000003 23.246853826575286,23.25C22.855238089756707,18.942477111928714 22.431199301177497,18.0 20.884776687656675,18.0C19.848149509445506,18.0 18.965569927249305,17.6625 18.92348872722068,17.25C18.881407527192057,16.8375 18.696225261760677,15.712499999999999 18.511972581817624,14.749999999999996C18.22108572845635,13.230463912672793 19.02132376464212,12.999999999999993 24.58848385459694,12.999999999999996C28.959842323409706,12.999999999999998 31.05440526279561,13.397752581121754 31.17097708908065,14.25C31.265014488075007,14.9375 31.377514488075008,18.875 31.42097708908065,23.0L31.5,30.5L39.73527657784088,30.5840696464185C46.86568696405244,30.65686028973467 48.04809356117091,30.423831108612124 48.54851154557464,28.847153654426776C48.86638866001574,27.845611553301154 48.826460353850294,25.025560787351033 48.45978197631811,22.580374174537617C48.09310359878593,20.1351875617242 47.16464786330573,17.8934229164729 46.39654700858434,17.598674962868056C45.62844615386295,17.303927009263212 45.0,16.12618969913046 45.0,14.981480940350828C45.0,13.080694883957637 45.4961268728908,12.92620185881381 50.72060044523018,13.200096144012111L56.441200890460365,13.5L56.44830648221193,31.75C56.45284651950301,43.41063059334867 56.82452289941648,50.05499484319907 57.47770603698175,50.152314406196425C58.03996771664179,50.23608732960446 59.175,50.359263750950824 60.0,50.42603978696613C60.91806920855872,50.50034890519069 61.366129018169204,51.314154130388744 61.15493066237508,52.523725380769704C60.96514252668137,53.61067642134637 60.74014252668137,54.554771321964694 60.65493066237508,54.62171404881043C60.569718798068784,54.68865677565617 56.7875,55.05708247122177 52.25,55.440437816733976z"/></svg>