<svg version="1.1" xmlns="http://www.w3.org/2000/svg" xmlns:xlink="http://www.w3.org/1999/xlink" width="80" height="80" viewBox="0 0 80 80"><path stroke="none" fill="black" fill-rule="evenodd" d="M52.25,55.492236950893286C44.20210854402909,56.190623056356124 44.0,56.15432250802075 44.0,54.01046127829363C44.0,52.67530168519373 44.76253063573509,51.613354529105976 45.942880547421396,51.30468609332236C47.05293364133842,51.014400688338824 48.09776289719451,49.661399217544336 48.38033434176718,48.14830570843229C48.65234962757559,46.69173756879453 48.74848909098566,44.15 48.593977593789546,42.5C48.43946609659344,40.85 48.24261188913784,39.032835549590175 48.15652379944377,38.46185677686706C48.06279206851069,37.84018159643767 44.7913490165051,37.43901532821629 40.0016929695487,37.46185677686706C32.73304234346526,37.49652033274839 31.98995293622898,37.68245271195264 31.856136794651718,39.5C31.7751497652066,40.6 31.641016425429353,43.3 31.558062706257843,45.5C31.4640221521738,47.99403186561343 31.959717575608053,49.91853345156921 32.874678674725644,50.61166615551183C33.68177117655444,51.223082541043325 34.45032494546613,52.46058254104332 34.58257593897383,53.36166615551183C34.78792029583495,54.760766686883954 33.67639212679949,55.0 26.97053313977796,55.0C22.651658606712523,55.0 18.856748504239878,54.57723120529581 18.537399578727637,54.06051378954625C18.2180506532154,53.54379637379669 19.089061497088135,52.07110316184369 20.47297923177816,50.787862207428475C22.810187964766314,48.620679946512475 23.016625702508836,47.67376014765243 23.374800862514526,37.477348417882226C23.586885024729497,31.439806788047 23.53140033617534,24.611208377613515 23.2515015546164,22.30268528358559C22.849433613131232,18.986546774096134 22.297253581306006,18.04182539886657 20.621297339527345,17.80268528358559C19.221684584901727,17.60297627737986 18.461398449353055,16.734529603289516 18.38653579638237,15.25C18.28015681613569,13.140500281819008 18.670435376744045,13.0 24.63653579638237,13.0C28.999408742794444,13.0 31.036094639086592,13.392983914341071 31.11480953090381,14.25C31.177954772900904,14.9375 31.290454772900905,18.875 31.36480953090381,23.0L31.5,30.5L37.57157525745548,30.793086119142018C40.910941649056,30.954283484670132 44.90503846969677,30.606403292994067 46.447345969990536,30.02001902652854C49.16567943333445,28.986510485846477 49.23031924131322,28.793885163142058 48.55843904024371,23.72900429996615C48.177232728589196,20.855330466822355 47.22063590794842,18.143350107391353 46.432668327708654,17.70238127900836C45.644700747468896,17.261412450625368 45.0,16.000523588769987 45.0,14.900406030440845C45.0,13.097258418688678 45.566504582631055,12.929739576505241 50.75,13.200096144012111L56.5,13.5L56.5,31.75000150566921C56.5,43.14846057576388 56.87542695179758,50.0571853793028 57.5,50.152315911865635C58.05,50.2360880071556 59.175,50.359263750950824 60.0,50.42603978696613C60.91806920855872,50.50034890519069 61.366129018169204,51.314154130388744 61.15493066237508,52.523725380769704C60.96514252668137,53.61067642134637 60.74014252668137,54.562170225870375 60.65493066237508,54.63815605748972C60.569718798068784,54.71414188910906 56.7875,55.098478291140665 52.25,55.492236950893286z"/></svg>