<svg version="1.1" xmlns="http://www.w3.org/2000/svg" xmlns:xlink="http://www.w3.org/1999/xlink" width="80" height="80" viewBox="0 0 80 80"><path stroke="none" fill="black" fill-rule="evenodd" d="M52.25,55.385996013483094C44.30656860801729,56.02224190500321 44.0,55.96812912525736 44.0,53.92977896702645C44.0,52.6745110156458 44.79086603582614,51.60594465552797 45.942880547421396,51.30468609332236C47.05293364133842,51.014400688338824 48.09776289719451,49.661399217544336 48.38033434176718,48.14830570843229C48.65234962757559,46.69173756879453 48.74848909098566,44.15 48.593977593789546,42.5C48.43946609659344,40.85 48.24261188913784,38.98652355822344 48.15652379944377,38.358941240496534C48.05266000942226,37.60177403767865 45.39263246565156,37.26533951711756 40.25,37.358941240496534C33.45137899278606,37.48268382702709 32.42016764355218,37.74551715942866 31.84968002535062,39.5C31.49200403929346,40.6 31.15450403929346,43.11775559704956 31.09968002535062,45.09501243788791C31.03263939892552,47.51286782059149 31.65488343949982,49.28268624315634 33.0,50.5C34.1,51.4954863183233 35.0,52.91523072127374 35.0,53.65498756211209C35.0,54.668753437292175 33.04431301076654,55.0 27.059016994374947,55.0C22.691476341281167,55.0 18.856748504239878,54.57723120529581 18.537399578727637,54.06051378954625C18.2180506532154,53.54379637379669 19.077558130584283,52.08129637379669 20.44741619510294,50.81051378954625C22.77042244402454,48.65551980827433 22.963766252498832,47.72593935459438 23.3198704538894,37.0C23.529862231703298,30.675 23.4877589797905,23.836454486824486 23.22630767186096,21.803232192943305C22.870929540290323,19.03957135839132 22.23422500846712,18.029925071466273 20.70382216354563,17.803232192943305C19.40030532607612,17.61014709442189 18.598136074201754,16.682702337625514 18.495470298848474,15.25C18.343425993729795,13.128219585674085 18.709373163149095,12.999989055875137 24.91711896402465,12.999807952265527L31.5,12.999615904531055L31.5,21.749807952265527L31.5,30.5L36.66944477943825,30.799465888672763C39.51263940812928,30.964172127442787 43.337639408129284,30.70020548932615 45.16944477943825,30.21287335952469C48.46237176107806,29.336825530220356 48.49733433482004,29.266192859308465 48.26405632217326,23.96102587508979C48.107532860071416,20.401397198658803 47.518471187392784,18.31002710974687 46.51405632217326,17.747928290666596C45.681325344977964,17.281908605871575 45.0,16.000523588769987 45.0,14.900406030440845C45.0,13.097258418688678 45.566504582631055,12.929739576505241 50.75,13.200096144012111L56.5,13.5L56.557294292996616,31.978995668655493L56.61458858599323,50.457991337310986L59.057294292996616,50.47899566865549C60.94338877708456,50.495213812894995 61.42137019803272,50.9557333462804 61.15493066237508,52.5C60.96514252668137,53.6 60.74014252668137,54.55066884410602 60.65493066237508,54.612597431346714C60.569718798068784,54.67452601858741 56.7875,55.02255538054878 52.25,55.385996013483094z"/></svg>