<svg version="1.1" xmlns="http://www.w3.org/2000/svg" xmlns:xlink="http://www.w3.org/1999/xlink" width="80" height="80" viewBox="0 0 80 80"><path stroke="none" fill="black" fill-rule="evenodd" d="M52.71486092490602,55.35066014035627C46.43713679229498,55.85849183368089 44.82255425991426,55.70115875016873 44.37624810599829,54.538103556408664C44.07183754690073,53.74482235540492 44.11420777816175,52.624224927529625 44.47040417546722,52.04788705001911C44.82660057277269,51.4715491725086 45.73072147166258,51.0 46.47956172855586,51.0C47.22840198544914,51.0 48.07370598335059,49.7625 48.35801505722576,48.25C48.64232413110093,46.7375 48.750255119824104,44.034676119104574 48.597861698832816,42.24372470912128C48.445468277841535,40.45277329913799 47.98600816336266,38.65277329913799 47.57683922221311,38.24372470912128C47.16767028106355,37.83467611910458 43.53654058173517,37.5 39.507662112594474,37.5L32.182428532338676,37.5L31.60221993005043,41.0C31.283105198791898,42.925 31.017058779015695,45.49497018366121 31.011005663881093,46.71104485258046C31.004952548746488,47.92711952149971 31.94785841803532,49.80515415073639 33.1063520400785,50.88445513977308C34.26484566212167,51.96375612880978 34.91328801465294,53.331285945148565 34.54733504570355,53.923410287192624C34.169426001183105,54.534879965882695 30.692728512359235,55.0 26.499999999999993,55.0C22.439918693812437,55.0 18.856748504239874,54.57723120529581 18.537399578727637,54.06051378954625C18.2180506532154,53.54379637379669 19.097412034182142,52.06336010680379 20.491535980875952,50.77065541845093C22.893248123450626,48.543662220218344 23.03148776933534,47.84494845565583 23.125004514249692,37.46014162890468C23.179288260911434,31.432063733007105 23.173369232475967,24.618797928884142 23.11185111772643,22.319550953075872C23.017322039186016,18.78651521482419 22.651549408170684,18.089614031165564 20.75,17.819550953075872C19.273183651025292,17.609809587816805 18.5,16.812725643533074 18.5,15.5C18.5,13.701157664342912 19.25434124128592,13.473545381021 26.0,13.236976276142236C30.125,13.092313228020467 32.974795216025115,13.320821164367901 32.332878257833585,13.744771690247646C31.580001198129004,14.24200520513061 31.22507277250229,17.352251419168976 31.332878257833585,22.50779541410541L31.5,30.5L39.2703428987694,30.57795145014188C44.50380477915988,30.630453115532127 47.39249085849567,30.23200373434704 48.11824755047596,29.35752041802786C48.787513825515084,28.551103890059156 48.937608424060954,26.18179329928521 48.51437292406112,23.10450364059365C48.124894023216,20.272653774857673 47.22605889961642,17.916988542223823 46.416468272354564,17.606319469046383C45.63741072255955,17.307367037043463 45.0,16.12618969913046 45.0,14.981480940350828C45.0,13.079633438273465 45.49574412121055,12.926048909508461 50.75,13.200096144012111L56.5,13.5L56.54731033551483,31.97936223112193L56.59462067102966,50.45872446224386L59.04731033551483,50.479362231121925C60.9434720479555,50.495317183655644 61.42170198514615,50.953810329209595 61.15493066237508,52.5C60.96514252668137,53.6 60.74014252668137,54.54969963528502 60.65493066237508,54.610443633966725C60.569718798068784,54.67118763264842 56.996687416207706,55.00428506052371 52.71486092490602,55.35066014035627z"/></svg>