<svg version="1.1" xmlns="http://www.w3.org/2000/svg" xmlns:xlink="http://www.w3.org/1999/xlink" width="80" height="80" viewBox="0 0 80 80"><path stroke="none" fill="black" fill-rule="evenodd" d="M52.73513417707149,55.40835321161413C46.33219076477266,55.9672225700018 44.869635721245665,55.8238510716858 44.39652135816375,54.59093480468648C44.08096051037519,53.76859641712994 44.11420777816175,52.624224927529625 44.47040417546722,52.04788705001911C44.82660057277269,51.4715491725086 45.73072147166258,51.0 46.47956172855586,51.0C47.22840198544914,51.0 48.07370598335059,49.7625 48.35801505722576,48.25C48.64232413110093,46.7375 48.749306322626566,44.01872732190705 48.59575326061607,42.20828293757121C48.442200198605576,40.39783855323539 47.90783855323539,38.52749478197181 47.40828293757122,38.05196344587439C46.90872732190705,37.576432109776974 43.282297987267484,37.427464851532484 39.34955108281664,37.72092509421998C32.36246513676721,38.24229908222961 32.18540450170058,38.32297749149709 31.599551082816635,41.252244585916806C31.26979798726748,42.90101006366256 30.999999999999993,45.30122018366121 30.999999999999993,46.58604485258046C30.999999999999996,47.87086952149971 31.94785841803532,49.80515415073639 33.1063520400785,50.88445513977308C34.26484566212167,51.96375612880978 34.91328801465294,53.331285945148565 34.54733504570355,53.923410287192624C34.169426001183105,54.534879965882695 30.692728512359235,55.0 26.499999999999993,55.0C22.166556610145406,55.0 18.834530181124308,54.541281203321795 18.4315324495243,53.88921717620387C18.053956602950226,53.278286623116 18.944361740887963,51.815786623116004 20.41021053383038,50.63921717620387C22.984723725387763,48.57277377737395 23.07719811952033,48.1428017356412 23.12853599975879,38.0C23.157766213077,32.224999999999994 23.140803427670537,25.39379792888414 23.090840921077763,22.819550953075872C23.012051305388546,18.76002824805591 22.701506360762004,18.09670904974926 20.75,17.819550953075872C19.273183651025292,17.609809587816805 18.5,16.812725643533074 18.5,15.5C18.5,13.706621844740042 19.26568982049417,13.469309479926277 25.911508898853505,13.202930538517492C32.30330454379124,12.946733411041652 33.15692705307544,13.105988181311524 32.115832319704225,14.360430593074515C31.346955703267625,15.286870239875597 31.016002063546154,18.480939064461115 31.20432342085072,23.157500054557023L31.5,30.5L39.319273678745134,30.518993467093154C44.34027031207832,30.531189757726807 47.50666267843907,30.09443510723334 48.1671783304517,29.298562434979132C48.783656715174736,28.555751423701086 48.92277089133698,26.07391155020696 48.51437292406112,23.10450364059365C48.124894023216,20.272653774857673 47.22605889961642,17.916988542223823 46.416468272354564,17.606319469046383C45.63741072255955,17.307367037043463 45.0,16.12618969913046 45.0,14.981480940350828C45.0,13.079633438273465 45.49574412121055,12.926048909508461 50.75,13.200096144012111L56.5,13.5L56.584904173912804,32.0L56.66980834782561,50.5L59.2901391129495,50.184300666960866C61.518213788401624,49.915860629403866 61.84701698487129,50.198085710618365 61.48659483171603,52.06960744094818C61.25346355621949,53.280160799812734 60.93610783365297,54.37411295530638 60.78135989267933,54.500612230934074C60.626611951705705,54.62711150656177 57.00581037968217,55.03559494786779 52.73513417707149,55.40835321161413z"/></svg>