<svg version="1.1" xmlns="http://www.w3.org/2000/svg" xmlns:xlink="http://www.w3.org/1999/xlink" width="80" height="80" viewBox="0 0 80 80"><path stroke="none" fill="black" fill-rule="evenodd" d="M52.35009298794071,55.306276281911394C48.417644131308094,55.61459328026157 44.9301441313081,55.59681079797477 44.60009298794071,55.26675965460738C44.27004184457332,54.936708511239985 44.0,53.84166666666667 44.0,52.83333333333333C44.0,51.825 44.5625,50.94671052631579 45.25,50.881578947368425C45.9375,50.81644736842105 46.80418425227532,50.80534211917949 47.17596500505627,50.856900615720505C47.54774575783722,50.908459112261525 48.0821074032074,49.72424858594574 48.36343532810112,48.22532166835209C48.644763252994835,46.72639475075844 48.749306322626566,44.01872732190705 48.59575326061607,42.20828293757121C48.442200198605576,40.39783855323539 47.90783855323539,38.55374518027115 47.40828293757122,38.11029766431737C46.90872732190705,37.66685014836359 43.28412066500275,37.50876950144278 39.35360147778389,37.75900733782669C32.33615991736047,38.205775133475946 32.19631094996991,38.26844525015042 31.603601477783887,41.231992611080535C31.271620665002747,42.89189667498624 30.999999999999993,45.30122018366121 30.999999999999993,46.58604485258046C30.999999999999996,47.87086952149971 31.94785841803532,49.80515415073639 33.1063520400785,50.88445513977308C34.26484566212167,51.96375612880978 34.91328801465294,53.331285945148565 34.54733504570355,53.923410287192624C34.169426001183105,54.534879965882695 30.692728512359235,55.0 26.499999999999993,55.0C22.166556610145406,55.0 18.834530181124308,54.541281203321795 18.4315324495243,53.88921717620387C18.053956602950226,53.278286623116 18.89922682621969,51.815786623116004 20.30991072345644,50.63921717620387C22.433567799725484,48.867998240089825 22.90690468113834,47.55386402885673 23.061473846698576,43.0C23.164149667245,39.975 23.19232179650681,33.14379792888414 23.12407857839149,27.819550953075872C23.00571995780872,18.585365562906265 22.896276172434714,18.124370773727225 20.75,17.819550953075872C19.273183651025292,17.609809587816805 18.5,16.812725643533074 18.5,15.5C18.5,13.706621844740042 19.26568982049417,13.469309479926277 25.911508898853505,13.202930538517492C31.892754365417243,12.963189158726173 33.11574775093431,13.15616786951353 32.24896125578569,14.202930538517492C31.658230157728966,14.916318742332871 31.153085148130028,18.426812952214 31.12641679001028,22.004028782697773C31.09974843189053,25.581244613181553 31.45103817403785,29.111761107067036 31.907060661448778,29.849620991332184C32.51674247455076,30.83610688725385 34.62793958023487,31.082366691637777 39.88364206272668,30.780046374278434C43.814739346018605,30.553920450633722 47.5220991394386,29.877900860561425 48.12221938143779,29.27778061856222C48.816747874362434,28.583252125637546 48.96247373601596,26.362585712349045 48.52314181943635,23.168261125625857C48.12692737943591,20.287438040515845 47.22959619800124,17.918345930975324 46.416468272354564,17.606319469046383C45.63741072255955,17.307367037043463 45.0,16.148646434325013 45.0,15.031384796338717C45.0,13.263624859188553 45.64122068426358,13.0 49.94098300562506,13.0C52.80096767804072,13.0 55.205605231111484,13.523659257828212 55.650393289527955,14.243341454136132C56.073028292580766,14.927179253911005 56.48782113528697,23.364679253911003 56.572155162208404,32.99334145413613L56.72548975661101,50.5L59.283235394447495,50.18885370379026C61.14387416485591,49.962509514816674 61.7781279710262,50.305952686624615 61.6103676919652,51.44897652796704C61.48353035478988,52.31317454417963 60.95680962252598,53.40847285976082 60.43987717582321,53.88297278481413C59.922944729120445,54.357472709867444 56.282541844573316,54.997959283561215 52.35009298794071,55.306276281911394z"/></svg>