<svg version="1.1" xmlns="http://www.w3.org/2000/svg" xmlns:xlink="http://www.w3.org/1999/xlink" width="80" height="80" viewBox="0 0 80 80"><path stroke="none" fill="black" fill-rule="evenodd" d="M52.35009298794071,55.306276281911394C48.417644131308094,55.61459328026157 44.9301441313081,55.59681079797477 44.60009298794071,55.26675965460738C44.27004184457332,54.936708511239985 44.0,53.84166666666667 44.0,52.83333333333333C44.0,51.825 44.5625,50.94671052631579 45.25,50.881578947368425C45.9375,50.81644736842105 46.80418425227532,50.80534211917949 47.17596500505627,50.856900615720505C47.54774575783722,50.908459112261525 48.0821074032074,49.72424858594574 48.36343532810112,48.22532166835209C48.644763252994835,46.72639475075844 48.75529980529939,44.119474710183205 48.60907211100012,42.432166022629346C48.46284441670085,40.74485733507549 48.077733692662626,38.934792751174115 47.7532705020263,38.40980028062629C47.42880731138996,37.88480781007847 43.86408650681009,37.5128686140283 39.83166871407103,37.583268733848136L32.5,37.71126895170238L31.62329604015413,41.782737684512156C31.141108862238898,44.02204548755754 31.036520386228656,47.009372798761255 31.39087720457581,48.42124282052042C31.745234022922958,49.83311284227958 32.5897508048536,50.87841639838214 33.26758116442168,50.74413961185945C33.945411523989755,50.609862825336755 34.5,51.4 34.5,52.5C34.5,54.31491375007428 33.736519219056426,54.52687844202709 26.25,54.79044234283073C20.152013326822733,55.005122771425654 17.999999999999996,54.75407138808352 18.0,53.8280068937759C18.0,53.13892410823885 19.104752035932762,51.65822505396502 20.455004524295028,50.53756455094518C22.47673537990161,48.85960140172494 22.93299617197656,47.52932758200485 23.040258117464262,43.0C23.111895105345074,39.975 23.132143069412308,33.14379792888414 23.08525359316923,27.819550953075872C23.00381026014151,18.571752634224136 22.89944018780077,18.124820135560903 20.75,17.819550953075872C19.273183651025292,17.609809587816805 18.5,16.812725643533074 18.5,15.5C18.5,13.706621844740042 19.26568982049417,13.469309479926277 25.911508898853505,13.202930538517492C31.88128972061543,12.963648686725646 33.119571543437964,13.158174268056944 32.27715918684105,14.202930538517492C31.701936950864763,14.916318742332871 31.200650333294156,18.2 31.16318892557303,21.5C31.125727517851907,24.8 31.334978138694698,28.306306019389552 31.628190305223676,29.291791154199007C32.0875567493443,30.83572027375147 33.193242153238984,31.050637848040623 39.621174502463134,30.845427268912395C44.17682799096528,30.699988854210368 47.49269714417065,30.111262546588943 48.13842748653151,29.33320508259937C48.78592308365349,28.55302061674442 48.93165554449658,26.138510694865456 48.51437292406112,23.10450364059365C48.13958291541752,20.379454778245574 47.25796938789831,17.92923374552207 46.5552317517962,17.65956801231919C45.852494115694086,17.389902279116313 45.03221221993401,16.231181676397867 44.73238309455158,15.084633339611528C44.23005301641505,13.16372016991668 44.60720336792503,13.000000000000007 49.534602620735,13.000000000000004C52.72419256909913,13.000000000000002 55.2009751627678,13.504401254545915 55.67252994384003,14.25C56.10734010676449,14.9375 56.51517992482902,23.375 56.57884065065011,33.0L56.69458742487026,50.5L59.26778422857711,50.18885370379026C61.14251954352917,49.96216410555174 61.77838397916556,50.30420839167884 61.6103676919652,51.44897652796704C61.48353035478988,52.31317454417963 60.95680962252598,53.40847285976082 60.43987717582321,53.88297278481413C59.922944729120445,54.357472709867444 56.282541844573316,54.997959283561215 52.35009298794071,55.306276281911394z"/></svg>