<svg version="1.1" xmlns="http://www.w3.org/2000/svg" xmlns:xlink="http://www.w3.org/1999/xlink" width="80" height="80" viewBox="0 0 80 80"><path stroke="none" fill="black" fill-rule="evenodd" d="M52.40888206866592,55.35596728680534C48.50876720643217,55.70162222126158 45.02126720643217,55.68793387309884 44.65888206866592,55.32554873533259C44.296496930899664,54.96316359756633 44.0,54.02629833200899 44.0,53.24362592298294C44.0,52.4609535139569 44.959154005708164,51.04390938448809 46.131453346018134,50.094638968607796C47.577750733265994,48.92349839463433 48.33722567124275,47.051530783237524 48.494105786015695,44.27113035297731C48.62126528770437,42.01747103026082 48.36992589412613,39.598552670014776 47.93557380028628,38.89575621909721C47.41381078186257,38.05152592121491 44.596377682253184,37.597934288469496 39.63229141248545,37.55897224507808L32.11874010439345,37.5L31.473528767743574,42.19185781109992C31.11866253258614,44.77237960720488 31.119369199959344,47.80073854358431 31.47509913968403,48.92154433638754C31.830829079408716,50.042350129190766 32.65695765741263,50.8560141141958 33.310940424137186,50.72968652528761C33.96492319086173,50.60335893637942 34.5,51.4 34.5,52.5C34.5,54.31491375007428 33.736519219056426,54.52687844202709 26.25,54.79044234283073C20.152013326822733,55.005122771425654 17.999999999999996,54.75407138808352 18.0,53.8280068937759C18.0,53.13892410823885 19.104752035932762,51.65822505396502 20.455004524295028,50.53756455094518C22.47673537990161,48.85960140172494 22.93299617197656,47.52932758200485 23.040258117464262,43.0C23.111895105345074,39.975 23.132143069412308,33.14379792888414 23.08525359316923,27.819550953075872C23.00381026014151,18.571752634224136 22.89944018780077,18.124820135560903 20.75,17.819550953075872C19.273183651025292,17.609809587816805 18.5,16.812725643533074 18.5,15.5C18.5,13.710925016342124 19.2646031842402,13.469014107645467 25.75,13.206190447279397C30.307177757092653,13.021508742661512 33.0,13.300076560893306 33.0,13.956190447279397C33.0,14.530285701275728 32.65764896456869,15.000000000000002 32.239219921263754,15.000000000000004C31.820790877958824,15.000000000000005 31.40442925702263,18.031923352562025 31.313971874738883,21.737607450137823C31.223514492455134,25.44329154771362 31.642329731212456,29.069033690967885 32.24467240531071,29.79481221292508C32.99636543048199,30.70054689890112 35.40353789624508,31.027983201025236 39.91992045183558,30.838839956671627C43.6080479470581,30.68438351029008 47.089427400471514,29.99133221961427 47.84112845302012,29.26193531229284C48.80517986273408,28.326488814831997 48.992566749523995,26.58138805588404 48.50759672537468,23.055234791116142C48.13653362600862,20.3572837959807 47.25796938789831,17.92923374552207 46.5552317517962,17.65956801231919C45.852494115694086,17.389902279116313 45.03221221993401,16.231181676397867 44.73238309455158,15.084633339611528C44.23005301641505,13.16372016991668 44.60720336792503,13.000000000000007 49.534602620735,13.000000000000004C52.731423365248695,13.000000000000002 55.19445364774705,13.502710983186578 55.6589722010596,14.25C56.08632560545482,14.9375 56.52156005593751,23.15 56.62615986879892,32.5C56.81578585469442,49.45034550847722 56.82318148463741,49.50146042622126 59.158170673364374,50.0C60.44617680301397,50.275 61.598113268293886,51.01933980488163 61.71802948509752,51.654088455292516C61.83794570190115,52.2888371057034 61.38794570190115,53.24002545386614 60.71802948509752,53.7678403400986C60.04811326829388,54.29565522633107 56.30899693089967,55.0103123523491 52.40888206866592,55.35596728680534z"/></svg>