<svg version="1.1" xmlns="http://www.w3.org/2000/svg" xmlns:xlink="http://www.w3.org/1999/xlink" width="80" height="80" viewBox="0 0 80 80"><path stroke="none" fill="black" fill-rule="evenodd" d="M51.75,55.296191088004136C44.50351603816466,55.77490955859901 44.0,55.6786365100297 44.0,53.814379050532885C44.0,52.717792421354375 44.959154005708164,51.04390938448808 46.131453346018134,50.094638968607796C47.577750733265994,48.92349839463433 48.33722567124275,47.05153078323752 48.494105786015695,44.2711303529773C48.62126528770437,42.017471030260815 48.36992589412613,39.598552670014776 47.93557380028628,38.89575621909721C47.41420314094268,38.052160771542326 44.600981422199574,37.597904989513914 39.65682456304904,37.55897224507809L32.16780640552063,37.5L31.516010715866873,42.71747416339174C31.15752308655731,45.587084953257204 31.232266645315164,48.59262008279094 31.68210751310656,49.396441117911145C32.13194838089795,50.20026215303135 32.95,50.88989877950507 33.5,50.928966954519396C34.05,50.96803512953373 34.5,51.7875 34.5,52.75C34.5,54.251782436942975 33.329831488445436,54.541195937454866 26.25,54.79044234283073C19.3140902323913,55.03462196496003 18.0,54.832102535077205 18.0,53.51900355168092C17.999999999999996,52.65996892799162 19.124999999999996,51.444538114579146 20.499999999999996,50.818046188542084L22.999999999999996,49.678969959383785L23.0,33.83948497969189C23.0,18.666666666666668 22.915822178874954,18.0 21.0,18.0C19.9,18.0 19.0,17.58680436070614 19.0,17.081787468235863C19.0,16.576770575765586 18.71885508940317,15.430923043595417 18.375233532007048,14.535459618968815C17.826951916352947,13.106660631693847 18.65329708648627,12.943621203246323 25.125233532007048,13.203672150732952C31.088873151906697,13.443299060959651 32.42785322378462,13.787017938985127 32.12294982430114,15.0C31.915572227666765,15.825 31.601952899478295,19.277219075344753 31.42601798388232,22.671597945210557C31.220636929352974,26.634092310832237 31.534574211044987,29.17048178795314 32.30306815958119,29.75753824691711C32.96138067181153,30.260426542989908 36.3824229821206,30.7079273426674 39.90538440471245,30.751984468422656C44.22825704322594,30.80604505002244 46.77755638764599,30.36530075521113 47.74651285773257,29.39634428512458C48.81231247952607,28.330544663331114 49.0084189758587,26.696647508758485 48.50759672537468,23.055234791116145C48.13653362600863,20.3572837959807 47.257969387898314,17.92923374552207 46.5552317517962,17.65956801231919C45.852494115694086,17.389902279116313 45.03221221993401,16.231181676397863 44.73238309455158,15.084633339611525C44.23005301641505,13.163720169916672 44.607203367925024,13.0 49.534602620735,13.0C52.72267177810431,13.0 55.19270988227566,13.502794145115054 55.65150467543121,14.24513971430222C56.07475094073082,14.92996655716844 56.51498723610384,23.014168551225865 56.629807554037924,32.210033034429834C56.744627871972,41.405897517633804 57.100341288476635,49.3533386208552 57.42028181293711,49.871013263810724C57.74022233739759,50.38868790676624 58.868147199454384,50.58573517725674 59.92678150639665,50.308896087122946C61.288550598892,49.95278546982429 61.782565547538354,50.27571754526966 61.6156627535145,51.41289896761663C61.48591313248705,52.296939642021954 60.95680962252597,53.417137459678415 60.4398771758232,53.90222745129765C59.92294472912044,54.38731744291689 56.0125,55.014601079434804 51.75,55.296191088004136z"/></svg>