<svg version="1.1" xmlns="http://www.w3.org/2000/svg" xmlns:xlink="http://www.w3.org/1999/xlink" width="80" height="80" viewBox="0 0 80 80"><path stroke="none" fill="black" fill-rule="evenodd" d="M51.75,55.29143013276015C44.494761895701615,55.78232369415233 44.0,55.68827183521839 44.0,53.8181923732022C44.0,52.71950841655557 44.959154005708164,51.04390938448808 46.131453346018134,50.094638968607796C47.577750733265994,48.92349839463433 48.33722567124275,47.05153078323752 48.494105786015695,44.2711303529773C48.62126528770437,42.017471030260815 48.3558202622686,39.575729278236494 47.90422795171399,38.84503757070103C47.34106434245117,37.93381970968672 44.74060722241407,37.51391460740659 39.625573121579606,37.50825359668191L32.16799521972634,37.5L31.51610512296973,42.71747416339174C31.157565569753594,45.587084953257204 31.232266645315164,48.59262008279094 31.68210751310656,49.396441117911145C32.13194838089795,50.20026215303135 32.95,50.88989877950507 33.5,50.928966954519396C34.05,50.96803512953373 34.5,51.7875 34.5,52.75C34.5,54.251782436942975 33.329831488445436,54.541195937454866 26.25,54.79044234283073C19.658825094123728,55.02248552848767 18.0,54.79576831624084 18.0,53.6628870582729C17.999999999999996,52.8829883632092 18.744162621948977,51.627289308935374 19.65369471544217,50.87244471544217C20.56322680893537,50.11760012194898 21.57572680893537,49.613466536214766 21.903694715442175,49.752147858255036C22.231662621948978,49.890829180295306 22.623647085324553,42.80332918029531 22.77477130072123,34.00214785825503C23.03580886182123,18.79982637010791 22.95368715588299,17.999999999999993 21.13176010490558,17.999999999999996C20.0769797318103,18.0 18.940832646485745,17.288195639293924 18.606988804184354,16.418212531764276C18.273144961882963,15.548229424234627 18.000000000000004,14.403515125510355 18.0,13.87440297904367C18.0,13.319818363570885 21.070534136354475,13.036815689209224 25.25,13.206190447279393C30.500363509050388,13.418963820274524 32.42806528897939,13.85371009795485 32.239189269019725,14.782432192940657C32.09574336698057,15.48776989905802 31.764195489265855,18.95239086546679 31.502416207431462,22.481589896071263C31.172181514300902,26.93367621360359 31.40512253350216,29.143513079290706 32.263226938411734,29.699157703130606C32.94345212228528,30.139620966408774 36.406329441496716,30.550813415646136 39.9585098699927,30.61291870143586C44.28867483997152,30.68862604186818 46.87822642034314,30.264630722513996 47.8165616550094,29.32629548784776C48.832038826600055,28.310818316257137 49.029459980674716,26.682124944490702 48.53596947560216,23.391294476997366C48.161895723664976,20.896791974292825 46.98827242040746,17.98827242040747 45.92791769058546,16.927917690585467C44.86756296076346,15.867562960763465 44.0,14.550000000000006 44.0,14.000000000000004C44.0,13.450000000000001 46.44844235253127,13.0 49.44098300562506,13.0C52.71091318703003,13.0 55.19334225209688,13.498773112775664 55.66232142955336,14.25C56.09151690962015,14.9375 56.546734684984756,23.0459425378856 56.67391648591916,32.26876119530134C56.80109828685356,41.49157985271707 57.202282516722214,49.51828299301146 57.56543699673839,50.105879284844434C57.92859147675457,50.6934755766774 59.02709438922594,50.96467151154989 60.0065545800081,50.708536917894406C61.13293054840626,50.41398298534655 61.71248763092268,50.75318891031307 61.58357282108376,51.6315416525281C61.47147266289322,52.39532885023212 60.95680962252597,53.413279034617425 60.4398771758232,53.89365317338435C59.92294472912044,54.37402731215128 56.0125,55.00302694387038 51.75,55.29143013276015z"/></svg>