<svg version="1.1" xmlns="http://www.w3.org/2000/svg" xmlns:xlink="http://www.w3.org/1999/xlink" width="80" height="80" viewBox="0 0 80 80"><path stroke="none" fill="black" fill-rule="evenodd" d="M25.72107597811823,60.0L23.442151956236458,60.0L23.227292895790686,38.5L23.012433835344915,17.0L26.121838360122542,17.0L29.23124288490017,17.0L28.865621442450085,26.25L28.5,35.5L37.0,35.7950539144522C41.675,35.9573335674009 46.4,35.864965687147446 47.5,35.58979195833341C49.33632263880586,35.130421278491724 49.48349440689597,34.344212293973996 49.29831550333403,25.98297793369621L49.09663100666806,16.876479779629996L51.79831550333403,17.188239889814998L54.5,17.5L55.0,37.76337925830698C55.275,48.90823785037582 55.35,58.47073785037582 55.166666666666664,59.01337925830698C54.98333333333333,59.55602066623814 53.76622420972857,60.0 52.46197972532275,60.0C50.56685102117795,60.0 49.97943134885727,59.34732174386163 49.53693370595991,56.75C49.23240287971616,54.9625 49.09951200332092,50.87508350220193 49.24162064730382,47.666852227115406L49.5,41.83370445423081L38.83484673251615,41.59702265195402L28.169693465032296,41.36034084967722L28.137439513306067,48.93017042483861C28.11969983985664,53.093576691177375 28.081518810224374,57.2875 28.05259278078992,58.25C28.018352058521085,59.38934389987503 27.204777796752328,60.0 25.72107597811823,60.0z"/></svg>