<svg version="1.1" xmlns="http://www.w3.org/2000/svg" xmlns:xlink="http://www.w3.org/1999/xlink" width="80" height="80" viewBox="0 0 80 80"><path stroke="none" fill="black" fill-rule="evenodd" d="M51.25,55.336935761046156C44.519410367446284,55.77154611219232 44.0,55.662355283083286 44.0,53.81283543372192C44.0,52.71709779378944 44.959154005708164,51.04390938448808 46.131453346018134,50.094638968607796C47.577750733265994,48.92349839463433 48.33722567124275,47.05153078323752 48.494105786015695,44.2711303529773C48.62126528770437,42.017471030260815 48.3558202622686,39.575729278236494 47.90422795171399,38.84503757070103C47.34106434245117,37.93381970968672 44.74060722241407,37.51391460740659 39.625573121579606,37.50825359668191L32.16799521972634,37.5L31.490184568000874,42.92493527723413C30.88058801102687,47.80391122485345 31.038801725257386,48.52066537067024 33.06227815284157,50.04697649867214C34.490021444130726,51.12392528034211 35.083901916553316,52.33897181927778 34.68747599104258,53.37204122143801C34.18211235906923,54.68899773603432 32.52846854812195,55.0 26.031384796338713,55.0C19.876319999688988,55.0 18.0,54.67817075178973 18.0,53.62244471544217C17.999999999999996,52.86478930893537 18.744162621948977,51.627289308935374 19.65369471544217,50.87244471544217C20.56322680893537,50.11760012194898 21.57572680893537,49.613466536214766 21.903694715442175,49.752147858255036C22.231662621948978,49.890829180295306 22.623647085324553,42.80332918029531 22.77477130072123,34.00214785825503C23.03580886182123,18.79982637010791 22.95368715588299,17.999999999999993 21.13176010490558,17.999999999999996C20.0769797318103,18.0 18.940832646485745,17.288195639293924 18.606988804184354,16.418212531764276C18.273144961882963,15.548229424234627 18.000000000000004,14.403515125510355 18.0,13.87440297904367C18.0,13.319818363570885 21.070534136354475,13.036815689209224 25.25,13.206190447279393C30.600884901112742,13.423037495480136 32.42879343499724,13.844593150103908 32.22816413466856,14.81550759599413C32.07865440873627,15.539036773790903 31.80131817202418,18.759826140213125 31.61186138641948,21.972817299154624C31.42240460081478,25.185808458096123 31.640631988103124,28.418830039898765 32.09681113594914,29.157309703160493C32.627749085064515,30.01681167673151 35.18866309545929,30.561503718304934 39.21311388419822,30.67090737050303C43.82818525446699,30.79636689021566 45.986505405600624,30.403616438923585 47.32951136655869,29.19396301060879C48.79956268006835,27.86987908032075 49.03099844115995,26.692384134051224 48.50742905714415,23.20097333069122C48.14905253535888,20.811147458455057 46.98827242040746,17.98827242040747 45.92791769058546,16.927917690585467C44.86756296076346,15.867562960763465 44.0,14.528527167458934 44.0,13.952282594353179C44.0,13.301992720157408 46.370793935637266,13.017497447880935 50.25,13.202282594353175L56.5,13.5L56.696145327062425,31.258352811546523C56.804025256946765,41.02544685789711 57.19231177758316,49.502149998191506 57.55900426180997,50.09547090108962C57.92569674603678,50.68879180398773 59.01788441329004,50.967079974360445 59.986087966817216,50.71388905747342C61.32961761493893,50.36254816202473 61.62522265528398,50.717146851512 61.23446555262802,52.21140430754185C60.952869671296796,53.28822861196651 60.222416606865444,54.3266584890361 59.61123652055835,54.51902625658538C59.000056434251256,54.71139402413465 55.2375,55.079453301142 51.25,55.336935761046156z"/></svg>