<svg version="1.1" xmlns="http://www.w3.org/2000/svg" xmlns:xlink="http://www.w3.org/1999/xlink" width="80" height="80" viewBox="0 0 80 80"><path stroke="none" fill="black" fill-rule="evenodd" d="M25.10918970629735,60.0C23.47294919451455,60.0 23.321945689328775,58.34411169364526 23.148565098324177,38.5L22.960716795303764,17.0L26.09597984010197,17.0L29.23124288490017,17.0L28.865621442450085,26.25L28.5,35.5L37.0,35.7950539144522C41.675,35.9573335674009 46.4,35.864763575259516 47.5,35.589342820804674C49.330658137018546,35.13097805239873 49.487812925367194,34.31803199883319 49.35606542389178,25.98810141182646L49.212130847783556,16.88762501094795L51.85606542389178,17.193812505473975L54.5,17.5L55.0,37.76337925830698C55.275,48.90823785037582 55.35,58.47073785037582 55.166666666666664,59.01337925830698C54.98333333333333,59.55602066623814 53.76622420972857,60.0 52.46197972532275,60.0C50.56895961466779,60.0 49.976865518808324,59.344431863238675 49.52665431269696,56.75C49.216469820158586,54.9625 49.08357894376335,50.85883623703908 49.23134125404087,47.63074719342018L49.5,41.761494386840354L38.84090909090909,41.52616192467966L28.18181818181818,41.29082946251897L28.18181818181818,49.593812235094745C28.18181818181818,54.160452760011424 27.889351443440365,58.370016130944656 27.531892096534143,58.94839750383527C27.174432749627922,59.52677887672587 26.084216674021366,60.0 25.10918970629735,60.0z"/></svg>