<svg version="1.1" xmlns="http://www.w3.org/2000/svg" xmlns:xlink="http://www.w3.org/1999/xlink" width="80" height="80" viewBox="0 0 80 80"><path stroke="none" fill="black" fill-rule="evenodd" d="M25.039760737293356,60.0C23.310776556806736,60.0 23.190617806581074,58.67861983459668 23.08467377784651,38.5L22.971792092356417,17.0L26.101517488628293,17.0L29.23124288490017,17.0L28.865621442450085,26.25L28.5,35.5L37.91035224867858,35.78964775132142C43.39601759028109,35.95849484532049 47.74723371620333,35.652766283796666 48.343407782671335,35.05659221732867C48.905894589594126,34.49410541040588 49.250565699101934,31.539496811720365 49.109343581577576,28.49079533136086C48.96812146405321,25.442093851001356 49.15218289775312,21.583600893654584 49.51836898979959,19.91636653725692C50.041088908972306,17.53643833422847 50.6478795102609,16.951106992979344 52.342080942214764,17.192515671903312C54.47437291177343,17.49634836720312 54.5,17.749392511186365 54.5,38.5C54.5,59.250607488813664 54.47437291177343,59.50365163279688 52.342080942214764,59.80748432809665C50.63879442261282,60.05018755143878 50.04058641965323,59.461273846887394 49.50267913594614,57.012198026063466C49.12786362428027,55.30567417949205 48.97392720028363,51.171507704747796 49.160598193731374,47.82516141552068L49.5,41.74089543510773L38.84090909090909,41.49017934729832L28.18181818181818,41.23946325948892L28.18181818181818,49.568129133579724C28.18181818181818,54.14889536432967 27.889351443440365,58.370016130944656 27.531892096534143,58.94839750383527C27.174432749627922,59.52677887672587 26.05297363796957,60.0 25.039760737293356,60.0z"/></svg>