<svg version="1.1" xmlns="http://www.w3.org/2000/svg" xmlns:xlink="http://www.w3.org/1999/xlink" width="80" height="80" viewBox="0 0 80 80"><path stroke="none" fill="black" fill-rule="evenodd" d="M25.952380952380953,59.57142857142857C24.826190476190476,59.57142857142857 23.701190476190476,59.36785714285714 23.452380952380953,59.11904761904762C23.20357142857143,58.87023809523809 23.0,49.291666666666664 23.0,37.83333333333333L23.0,17.0L25.90626549262707,16.999999999999996L28.812530985254142,16.999999999999993L28.65626549262707,26.249999999999996L28.5,35.5L38.0,35.636587674489135C43.225,35.71171089545816 48.01731852962178,35.356608063472954 48.64959673249285,34.847470270077565C49.34100137810298,34.290721304178064 49.59085887699752,32.36851485422627 49.276485263615655,30.02468454919087C48.98899575286214,27.881290196098576 49.06582159211231,24.046741893560085 49.44720935083825,21.50346609910534C50.04904263474837,17.49015421835972 50.42856656984695,16.920322135476077 52.32032081971545,17.1896641455029C54.480844963752574,17.497272766288024 54.5,17.68454815040411 54.5,38.5C54.5,59.250607488813664 54.47437291177343,59.50365163279688 52.342080942214764,59.80748432809665C50.63879442261282,60.05018755143878 50.04058641965323,59.461273846887394 49.50267913594614,57.01219802606346C49.12786362428027,55.30567417949204 48.97392720028363,51.15895007261385 49.160598193731374,47.79725556633414L49.5,41.68508373673467L38.83443798935174,41.37058660665656L28.168875978703483,41.05608947657845L28.13703077014166,48.778044738289225C28.119515905432657,53.02512013223015 28.081518810224374,57.191071428571426 28.05259278078992,58.035714285714285C28.023009688708026,58.899543435711806 27.10415315237765,59.57142857142857 25.952380952380953,59.57142857142857z"/></svg>