<svg version="1.1" xmlns="http://www.w3.org/2000/svg" xmlns:xlink="http://www.w3.org/1999/xlink" width="80" height="80" viewBox="0 0 80 80"><path stroke="none" fill="black" fill-rule="evenodd" d="M27.25,59.883998649524784C26.8375,59.82019790676341 25.7125,59.56220203331868 24.75,59.310674486314255C23.153652602064803,58.893505296527735 23.0,57.01595841935647 23.0,37.92667583678947L23.0,17.0L25.87680482587785,16.999999999999996L28.753609651755703,16.999999999999993L28.62680482587785,26.249999999999996L28.5,35.5L38.32063547021807,35.5402179055633C43.72198497883801,35.56233775362312 48.4073549988642,35.1499027607255 48.73256884805404,34.62369569912415C49.05778269724389,34.097488637522794 49.4064534148553,30.02939058001931 49.50739266496829,25.583477793560846C49.68491959780401,17.76422750438659 49.76951664900212,17.5 52.09545928713233,17.5L54.5,17.5L54.77036014683828,38.273571874925075C55.007397023891855,56.48669485205417 54.84504324236869,59.1222320798343 53.45314270401388,59.656354432100656C52.579975029699405,59.99142030733843 51.337398501354485,59.737398501354456 50.69186152991405,59.091861529914055C50.00762347593874,58.40762347593877 49.471513007032726,54.531781986282745 49.40630669540803,49.79786886647331L49.29445544533915,41.677579787469675L38.584316454941,41.36249978593206L27.87417746454285,41.047419784394435L28.00772601851037,48.77370989219722C28.081177723192507,53.02316945148875 28.109487793670365,57.2875 28.070637286238945,58.25C28.031786778807525,59.2125 27.6625,59.94779939228615 27.25,59.883998649524784z"/></svg>