<svg version="1.1" xmlns="http://www.w3.org/2000/svg" xmlns:xlink="http://www.w3.org/1999/xlink" width="80" height="80" viewBox="0 0 80 80"><path stroke="none" fill="black" fill-rule="evenodd" d="M26.190983005625053,59.921052631578945C25.810942352531274,59.87763157894737 24.9375,59.61513157894737 24.25,59.33771929824562C23.30591668414063,58.95677339886377 23.0,53.71432748538011 23.0,37.91666666666667L23.0,17.0L25.876804825877855,17.0L28.753609651755706,17.0L28.626804825877855,26.25L28.5,35.5L37.84295705578511,35.5C42.981583436466906,35.5 47.70658343646691,35.17901782953559 48.34295705578511,34.78670628785686C49.0505051278909,34.3505171270349 49.549153579356165,30.8541440069111 49.62652603112045,25.78670628785686C49.74896682731931,17.767558711929524 49.82968608495778,17.5 52.12652603112045,17.5L54.5,17.5L54.77036014683828,38.27357187492508C55.01257957334503,56.884904665223495 54.8674203755241,59.11364516814874 53.37575256126676,59.686051816322646C52.37938409124541,60.06839427274619 51.224182507935986,59.65949155612771 50.49903182758244,58.66778890883395C49.778067484199816,57.68181141848894 49.33035738242939,53.970683982356654 49.39363941315396,49.50504699022165C49.45213773591928,45.37698297066354 49.275,41.97159015958152 49.0,41.93750741003937C48.725,41.90342466049723 43.86438631345409,41.67899272325742 38.1986362521202,41.43876977172869L27.89727250424041,41.00200076894917L28.081944396928566,49.38079477800999C28.183513937907055,53.98913148299344 27.955069976984234,58.26368130997988 27.574291150433417,58.879794393535406C27.193512323882597,59.49590747709093 26.571023658718833,59.964473684210525 26.190983005625053,59.921052631578945z"/></svg>