<svg version="1.1" xmlns="http://www.w3.org/2000/svg" xmlns:xlink="http://www.w3.org/1999/xlink" width="80" height="80" viewBox="0 0 80 80"><path stroke="none" fill="black" fill-rule="evenodd" d="M51.856988804184326,60.984687225482936C51.50333264648571,60.993109251467324 50.94083264648571,60.288195639293896 50.606988804184326,59.41821253176421C50.27314496188295,58.54822942423453 49.96837163182533,54.83572942423453 49.929714737389624,51.16821253176421C49.89105784295392,47.500695639293895 49.553557842953914,43.825 49.179714737389624,43.0C48.643195351506584,41.81600466408124 46.377754361079965,41.489581030525244 38.42619786915036,41.45054359638147L28.35239573830071,41.401087192762944L28.353655361177886,45.95054359638147C28.35434815376033,48.45274461837166 28.27505911264267,52.6375 28.17745749202753,55.25C28.020235053654893,59.45836885350645 27.74343787797674,59.999418962765574 25.75,59.99490441625932L23.5,59.989808832518634L23.5,38.74490441625932L23.5,17.5L25.96675996580676,17.5C28.40474550909918,17.5 28.4347842030922,17.6086226888893 28.541902793787933,26.811954052140273L28.650285655962342,36.123908104280545L39.07514282798117,36.20155143221718L49.5,36.279194760153814L49.5,27.097354692165613C49.5,18.354689428310927 49.60984680429867,17.88787541494076 51.79657024846847,17.337660893890376C53.05968388512613,17.019841342232507 54.272755171829324,16.939421838495804 54.492284218920005,17.15895088558659C54.711813266010694,17.37847993267738 54.96737039033643,26.936628433578022 55.06018893964385,38.39928088758802C55.19506066870675,55.05530242266769 54.954946699812275,59.41406001669757 53.864474969192315,60.10492080928604C53.11401373613654,60.58037031220995 52.21064496188295,60.97626519949855 51.856988804184326,60.984687225482936z"/></svg>