<svg version="1.1" xmlns="http://www.w3.org/2000/svg" xmlns:xlink="http://www.w3.org/1999/xlink" width="80" height="80" viewBox="0 0 80 80"><path stroke="none" fill="black" fill-rule="evenodd" d="M26.057904646373522,59.27460661574587C24.989752201878964,59.55393475476318 23.86475220187896,59.53141886854563 23.557904646373522,59.22457131304019C23.251057090868088,58.91772375753475 23.0,49.291666666666664 23.0,37.83333333333333L23.0,17.0L25.91369954241732,17.0L28.82739908483464,17.0L28.32032908819476,25.995555191228817C27.89186954213758,33.596540300398104 28.05930479585109,35.08552697812836 29.400355890084086,35.60013656783917C30.273259129275147,35.935100969799024 35.1527758336753,35.82460113374606 40.243726344306644,35.354581376610355L49.5,34.5L49.64649912154309,26.0C49.7881277136825,17.78259213772129 49.87124304830641,17.5 52.14649912154309,17.5L54.5,17.5L54.769887673746396,38.75C55.02765012975859,59.04530328015626 54.95452910898063,60.0 53.14233238918858,60.0C52.09873876212126,60.0 50.798927525838536,59.4375 50.25386297522698,58.75C49.70879842461542,58.0625 49.344298286655764,54.0125 49.44386266864996,49.75C49.54342705064416,45.4875 49.371788833741,41.971040805618095 49.06244440886516,41.93564623470688C48.75309998398932,41.90025166379566 43.85992379052496,41.71368333781127 38.18871953449991,41.52104995474156L27.87743906899982,41.17080744006937L28.009356820738855,48.835403720034684C28.081911584195325,53.05093167401561 28.109487793670365,57.01001588621756 28.070637286238945,57.63336863603901C28.031786778807525,58.256721385860466 27.126057090868088,58.99527847672856 26.057904646373522,59.27460661574587z"/></svg>