<svg version="1.1" xmlns="http://www.w3.org/2000/svg" xmlns:xlink="http://www.w3.org/1999/xlink" width="80" height="80" viewBox="0 0 80 80"><path stroke="none" fill="black" fill-rule="evenodd" d="M53.08596027087498,59.71857162520533C52.012047851570685,59.799466985604816 50.712517199629765,59.33338192646068 50.19811437767294,58.682827049329475C49.6837115557161,58.03227217219826 49.34429828665576,54.0125 49.443862668649956,49.75C49.54342705064416,45.4875 49.371788833741,41.979049756628164 49.06244440886516,41.95344390361814C48.75309998398932,41.92783805060811 43.8594461694597,41.72320114999404 38.187658154354885,41.49869523558686L27.875316308709774,41.09050266393744L28.008295440593834,48.79525133196872C28.081433963130063,53.03286309938592 28.109487793670365,57.0625 28.070637286238945,57.75C28.031786778807525,58.4375 26.875,59.0 25.5,59.0L23.0,59.0L23.0,38.0L23.0,17.0L25.5,17.0C26.875,17.0 28.05827349693888,17.5625 28.12949665986418,18.25C28.20071982278948,18.9375 28.31321982278948,23.0871392332404 28.37949665986418,27.471420518312005L28.5,35.44284103662401L31.66783397432023,35.70262004845863C33.41014266019636,35.84549850496767 38.13514266019636,35.63335927172727 42.16783397432023,35.231199530146625L49.5,34.5L49.64649912154309,26.0C49.788127713682506,17.782592137721295 49.87124304830642,17.5 52.14649912154309,17.5L54.5,17.5L54.76926415298684,38.53574457587585C55.02844468405379,58.783725564382955 54.96540695795756,59.576997215253286 53.08596027087498,59.71857162520533z"/></svg>