<svg version="1.1" xmlns="http://www.w3.org/2000/svg" xmlns:xlink="http://www.w3.org/1999/xlink" width="80" height="80" viewBox="0 0 80 80"><path stroke="none" fill="black" fill-rule="evenodd" d="M53.03895434549955,59.72211247379391C51.93918866723877,59.80495530091712 50.71642792179305,59.35018773357566 50.32170824450906,58.71151787970177C49.926988567225074,58.072848025827895 49.56718093577129,54.300535426941686 49.522135730167314,50.328600993287985C49.47709052456334,46.356666559634284 49.15114442528883,42.81781109195546 48.79781106511284,42.464477731779496C48.444477704936844,42.11114437160353 43.647613820594486,41.70432771527573 38.13811354435204,41.56044071771773L28.120840314820306,41.298827994885L28.123761733505685,48.8994139974425C28.125368513782643,53.07973629884913 28.098179442948073,57.0625 28.06334157609553,57.75C28.02850370924299,58.4375 26.875,59.0 25.5,59.0L23.0,59.0L23.0,38.0L23.0,17.0L25.416666666666668,17.0C26.745833333333337,17.0 28.04199500588755,17.5625 28.297025939009366,18.25C28.552056872131182,18.9375 28.531752117566434,21.596328340402728 28.251904262198813,24.15850742311717C27.972056406831193,26.72068650583162 28.0330541315752,30.362656658605808 28.38745476162994,32.25177442928204L29.03181954354765,35.68653401232973L38.26590977177382,35.31838945616195C43.34465939729822,35.11590995026968 48.05295955820937,34.754223966868786 48.72879901824306,34.514642826382186C49.596302432391674,34.20711793381763 49.89032578261458,31.555584521914852 49.72879901824306,25.496537938139195L49.5,16.914035123508206L52.0,17.207017561754103L54.5,17.5L54.76926415298684,38.53574457587585C55.03057617108688,58.95024389330862 54.97947521006971,59.575937486075794 53.03895434549955,59.72211247379391z"/></svg>