<svg version="1.1" xmlns="http://www.w3.org/2000/svg" xmlns:xlink="http://www.w3.org/1999/xlink" width="80" height="80" viewBox="0 0 80 80"><path stroke="none" fill="black" fill-rule="evenodd" d="M52.25,59.64407636535601C51.0125,59.83293238238046 49.97199325074247,59.652774479867176 49.937762779427715,59.243725470882055C49.90353230811295,58.834676461896926 49.76935034497709,55.028318036864135 49.6395806391258,50.78515119303141C49.509810933274515,46.54198434919868 49.12181415950461,42.78848082617125 48.7773655863038,42.44403225297046C48.43291701310299,42.09958367976967 43.66628281222296,41.702633835611486 38.18484513990374,41.561921488174505L28.218594826596068,41.3060808564709L28.173173487112166,48.90304042823545C28.148191750396023,53.08136819270595 28.099007914411906,57.0625 28.063876073814136,57.75C28.02874423321636,58.4375 26.875,59.0 25.5,59.0L23.0,59.0L23.0,38.0L23.0,17.0L25.416666666666664,17.0C26.745833333333334,17.0 28.041995005887546,17.5625 28.297025939009366,18.25C28.552056872131185,18.9375 28.531752117566437,21.596328340402728 28.251904262198817,24.15850742311717C27.972056406831197,26.720686505831615 28.024590678732075,30.320686505831613 28.36864708864521,32.15850742311717L28.99420419757819,35.5L38.18713955917974,35.28406458828988C43.24325400806059,35.16530011184932 48.025601285242324,34.820417468210586 48.81457795291693,34.517658713537145C49.95602360238017,34.079644919824496 50.15758550122761,32.22397177212365 49.80121460551713,25.434220061505766L49.35334822598169,16.901251872517015L51.926674112990845,17.200625936258508L54.5,17.5L54.5,38.40035089447396L54.5,59.30070178894791L52.25,59.64407636535601z"/></svg>