<svg version="1.1" xmlns="http://www.w3.org/2000/svg" xmlns:xlink="http://www.w3.org/1999/xlink" width="80" height="80" viewBox="0 0 80 80"><path stroke="none" fill="black" fill-rule="evenodd" d="M52.25,59.61346420361763C51.0125,59.67586951560733 49.97582238713412,59.45086951560733 49.94627197140917,59.11346420361763C49.91672155568421,58.77605889162793 49.79683046396019,55.04260890827597 49.67984732313357,50.81690868505772C49.56286418230696,46.591208461839464 49.1710382721454,42.83770493881204 48.80912307833012,42.475789744996774C48.447207884514825,42.11387455118151 43.64952649643301,41.70220368923929 38.147608882592756,41.5609656073474L28.144122311974098,41.30416909481668L28.382060631895946,48.902084547408336C28.512926707852966,53.080938046333756 28.43235422577585,57.0625 28.203010671724577,57.75C27.97366711767331,58.4375 26.709167353514303,59.0 25.39301119581568,59.0L23.0,59.0L23.0,38.0L23.0,17.0L25.5,17.0C26.875,17.0 28.034144019593302,17.5625 28.075875599096225,18.25C28.117607178599147,18.9375 28.1091088515183,22.424999999999997 28.056990427805452,26.0C28.004872004092608,29.575000000000003 28.316863122372823,33.03350077031126 28.75030402398371,33.68555726735834C29.234863577734135,34.414515249992036 33.29486930026565,35.024133350782584 39.29208420387696,35.26842696051012C48.91301779695996,35.66033097498655 49.05403528854887,35.632887608578415 49.6515037040825,33.25238383056597C49.98464623186514,31.925038274910293 50.03269169549343,27.70098720613471 49.75827140103425,23.865603677731336L49.25932541110848,16.8921790806343L51.87966270555424,17.19608954031715L54.5,17.5L54.5,38.5L54.5,59.5L52.25,59.61346420361763z"/></svg>