<svg version="1.1" xmlns="http://www.w3.org/2000/svg" xmlns:xlink="http://www.w3.org/1999/xlink" width="80" height="80" viewBox="0 0 80 80"><path stroke="none" fill="black" fill-rule="evenodd" d="M53.679255784885704,59.29283950067048C52.9309129457871,59.58000559228896 51.72897811587199,59.450533252663746 51.008289496185455,59.005123190392226C50.123823675976595,58.4584932516156 49.71085080385025,55.93035950117389 49.73765048303933,51.2265362889751C49.759487645495504,47.393723555467204 49.40887703603469,43.66157694152344 48.958515795348646,42.93287714687786C48.39847796857183,42.026716908167344 45.51012262119575,41.55982756483023 39.81983858795974,41.455652052602716C35.24392736458188,41.37187804539698 30.825,41.122585148795395 30.0,40.90166783793251C28.76604844420377,40.571242068912426 28.475853688896954,41.91892503575344 28.36386138523394,48.5C28.28898514711261,52.9 28.176485147112608,57.0625 28.11386138523394,57.75C28.051237623355274,58.4375 26.892375554870558,59.0 25.538612344156796,59.0L23.077224688313596,59.0L22.788612344156796,37.999036378794955L22.5,16.998072757589902L25.25,16.99903637879495C26.7625,16.99956637045773 28.0341440195933,17.5625 28.07587559909622,18.25C28.117607178599147,18.9375 28.1091088515183,22.424999999999997 28.056990427805452,26.0C28.004872004092608,29.575000000000003 28.382469754464353,33.139654530922755 28.896096539742665,33.92145451316168C29.583736948793987,34.96812356351463 32.36424891239491,35.38136103334403 39.44178646576232,35.48874653696223C48.83607128058728,35.6312834007183 49.067393989852214,35.57966230311426 49.66267021105749,33.207892923013276C49.997653596937326,31.873212804489963 50.009460690000125,27.652844615148226 49.68890819564149,23.829296946698307L49.10608547862579,16.877392094971178L51.8030427393129,17.18869604748559L54.5,17.5L54.76993956435068,38.135359667045705C54.98797124340093,54.80265379576777 54.7782387847312,58.87112015449363 53.679255784885704,59.29283950067048z"/></svg>