<svg version="1.1" xmlns="http://www.w3.org/2000/svg" xmlns:xlink="http://www.w3.org/1999/xlink" width="80" height="80" viewBox="0 0 80 80"><path stroke="none" fill="black" fill-rule="evenodd" d="M53.00099592870535,59.28948857972212C51.9015436894933,59.577001798926375 50.706835448457355,59.33466678568233 50.346088726403266,58.7509663280687C49.98534200434917,58.16726587045506 49.76839216351261,54.722011895797664 49.86397796898868,51.09484638438559C49.959563774464755,47.46768087297352 49.595793757833945,43.825 49.05560015425355,43.0C48.32518057455127,41.884481139242716 45.94937288777275,41.469099657351514 39.78671498296278,41.37944658595211C35.229021742333245,41.31314220822577 30.825,41.08814220822577 30.0,40.87944658595211C28.745789528367176,40.562175998267804 28.505193073414784,42.01570209159758 28.531692196872356,49.75L28.563384393744712,59.0L25.820304541029152,59.0L23.077224688313596,59.0L22.788612344156796,37.999036378794955L22.5,16.998072757589902L25.25,16.99903637879495L28.0,17.0L28.0,24.928571428571452C27.999999999999996,30.747991541330258 28.41129994095886,33.26844279810175 29.546129448376302,34.40327230551915C30.737563629309705,35.594706486452516 33.137533588591694,35.9123702376545 40.00768495774514,35.78798004057269L48.92311101873768,35.62655832724998L49.56591140848979,32.69990732280791C49.91945162285345,31.090249270364772 49.9009343603333,26.899273646733523 49.52476193622279,23.386628159182916L48.84081207420368,16.999999999999993L51.92040603710184,16.999999999999996L55.0,17.0L55.0,37.88336863603901C55.0,57.922265237747 54.919165194842705,58.7878760484847 53.00099592870535,59.28948857972212z"/></svg>