<svg version="1.1" xmlns="http://www.w3.org/2000/svg" xmlns:xlink="http://www.w3.org/1999/xlink" width="80" height="80" viewBox="0 0 80 80"><path stroke="none" fill="black" fill-rule="evenodd" d="M26.313800000608666,59.0C25.006686724301318,59.0 23.734280147425785,58.4375 23.486229829774146,57.75C23.23817951212251,57.0625 22.91480267047493,47.612018856540494 22.76761462611286,36.74893079231221L22.5,16.997861584624417L25.25,16.99893079231221L28.0,17.0L28.0,24.92857142857145C27.999999999999996,30.90320288277483 28.399154620930165,33.25629747807305 29.619663840550025,34.47680669769288C30.898578588458488,35.755721445601296 33.09164826025919,36.05899218258624 40.04386077585595,35.918326740442204C48.36725045621485,35.74991800913571 48.8804197069917,35.61258184689462 49.4344406247738,33.40518668827318C49.75676633956289,32.12093874837058 49.72625796263444,27.904397586276232 49.36664423159948,24.03509521695241L48.71280108426319,17.000000000000007L51.856400542131595,17.000000000000004L55.0,17.0L55.0,38.0L55.0,59.0L52.230567044900276,59.0L49.46113408980055,59.0L49.77126068803486,51.75C49.941830317063726,47.7625 49.62950815235237,43.825 49.07721143312074,43.0C48.465587157271706,42.08637873446462 46.39735366200421,41.46364005148804 43.78651778998615,41.40698857314848C41.42893300549377,41.35583228838015 37.025,41.152350329805635 34.0,40.9548064429829L28.5,40.595635739668836L28.595184796947375,49.79781786983442C28.688777339293125,58.846065576524396 28.650614254887394,59.0 26.313800000608666,59.0z"/></svg>