<svg version="1.1" xmlns="http://www.w3.org/2000/svg" xmlns:xlink="http://www.w3.org/1999/xlink" width="80" height="80" viewBox="0 0 80 80"><path stroke="none" fill="black" fill-rule="evenodd" d="M26.366290162495524,59.0C25.0303072971504,59.0 23.734280147425785,58.4375 23.486229829774146,57.75C23.23817951212251,57.0625 22.91480267047493,47.612018856540494 22.76761462611286,36.74893079231221L22.5,16.997861584624417L25.25,16.99893079231221L28.0,17.0L28.0,24.565741454089334C27.999999999999996,28.726899253838468 28.465832691319594,33.00189925383847 29.035183758487996,34.065741454089334C29.945305845962256,35.7663201301791 31.199731856539678,36.0 39.41855239452702,36.0C48.251739178296745,36.0 48.79891704107052,35.87694437433514 49.350860657175915,33.76630874399632C49.67212851897974,32.53777855319429 49.65858142673187,28.262778553194295 49.3207560077362,24.26630874399632L48.70652797319862,17.0L51.85326398659931,17.0L55.0,17.0L55.0,38.0L55.0,59.0L52.09185783470322,59.0L49.18371566940643,59.0L49.65496173121109,51.63453246793648C50.01649586203549,45.98383717698306 49.78141044114425,43.924267584001456 48.64519845576004,42.788055598617206C47.61206962588448,41.7549267687416 44.71996974852972,41.26059614900866 39.08187330081403,41.153449377868014C34.63659960108436,41.068971091946636 30.437157049420886,40.88738568314031 29.74977874156186,40.7499262471873C28.813823878741147,40.56275736791099 28.537081706411794,42.82270783765121 28.647674958834234,49.75C28.79404864626803,58.918491526599574 28.773945706593594,59.0 26.366290162495524,59.0z"/></svg>