<svg version="1.1" xmlns="http://www.w3.org/2000/svg" xmlns:xlink="http://www.w3.org/1999/xlink" width="80" height="80" viewBox="0 0 80 80"><path stroke="none" fill="black" fill-rule="evenodd" d="M26.41541837065879,59.0C25.052414990823873,59.0 23.734280147425785,58.4375 23.486229829774146,57.75C23.23817951212251,57.0625 22.91480267047493,47.612018856540494 22.76761462611286,36.74893079231221L22.5,16.997861584624417L25.25,16.99893079231221C27.990561615452382,16.9999963303297 28.000241228849653,17.024883013807354 28.070285262610376,24.25C28.108942157046087,28.2375 28.47799657204044,32.36066759778283 28.89040618482005,33.41259466173962C29.54607733117551,35.0850053004205 30.84420577132363,35.356052975049636 39.22745314265403,35.57095777420131C48.01447197248667,35.79621326686697 48.85738582163921,35.65335941396992 49.32651492734135,33.85940695790089C49.6080326948903,32.78288136103851 49.58478089222587,28.549117960430753 49.27484425475373,24.451043845439195L48.71132309571349,17.0L51.85566154785674,17.0L55.0,17.0L55.0,38.0L55.0,59.0L52.06968816137719,59.0L49.13937632275437,59.0L49.56682958565658,51.75C49.801928880252795,47.7625 49.59914056497244,43.885122629529846 49.116188885033566,43.133605843399664C48.620490369060846,42.362253819817376 46.11770500852607,41.646276653054564 43.36904746075417,41.48950879104135C40.691071357339375,41.33677219837447 36.25,41.067652597673096 33.5,40.8914652339272L28.5,40.57112457257102L28.696803166997505,49.78556228628551C28.893156633818894,58.978944778552744 28.887943612299217,59.0 26.41541837065879,59.0z"/></svg>