<svg version="1.1" xmlns="http://www.w3.org/2000/svg" xmlns:xlink="http://www.w3.org/1999/xlink" width="80" height="80" viewBox="0 0 80 80"><path stroke="none" fill="black" fill-rule="evenodd" d="M53.19786338919896,60.122509007993074C51.78828391918272,60.64394639129114 50.98715780988221,60.4089170799851 50.5828608544601,59.355336102668794C50.26228738450705,58.51993503114159 49.96837163182533,54.83572942423453 49.929714737389624,51.16821253176421C49.89105784295392,47.500695639293895 49.553557842953914,43.825 49.179714737389624,43.0C48.643195351506584,41.81600466408124 46.377754361079965,41.489581030525244 38.42619786915036,41.45054359638147L28.35239573830071,41.401087192762944L28.353655361177886,45.95054359638147C28.35434815376033,48.45274461837166 28.27505911264267,52.6375 28.17745749202753,55.25C28.020235053654893,59.45836885350645 27.74343787797674,59.999418962765574 25.75,59.99490441625932L23.5,59.989808832518634L23.5,38.74490441625932L23.5,17.5L25.96675996580676,17.5C28.40474550909918,17.5 28.4347842030922,17.6086226888893 28.541902793787933,26.811954052140273L28.650285655962342,36.123908104280545L39.07514282798117,36.20155143221718L49.5,36.279194760153814L49.5,27.097354692165613C49.5,18.354689428310927 49.60984680429867,17.88787541494076 51.79657024846847,17.337660893890376C53.05968388512613,17.019841342232507 54.272755171829324,16.939421838495804 54.492284218920005,17.15895088558659C54.711813266010694,17.37847993267738 54.96760779483237,26.965946767556446 55.06071650519039,38.464432740873406C55.22413862506347,58.64629269645348 55.15958420992703,59.39682124559256 53.19786338919896,60.122509007993074z"/></svg>