<svg version="1.1" xmlns="http://www.w3.org/2000/svg" xmlns:xlink="http://www.w3.org/1999/xlink" width="80" height="80" viewBox="0 0 80 80"><path stroke="none" fill="black" fill-rule="evenodd" d="M26.245529226650092,58.82013681964152C25.005570301307646,58.99621207044436 23.775996883058433,58.54621207044436 23.51314385276295,57.82013681964152C23.250290822467473,57.09406156883868 22.91480267047493,47.612018856540494 22.76761462611286,36.74893079231221L22.5,16.997861584624417L25.5,16.9966780156822L28.5,16.995494446739983L28.183362623123806,23.74774722336999C28.009212065841897,27.461486250516497 28.247953248042347,31.522795685051932 28.713898583569247,32.772879300115406C29.504895987947286,34.89504432544515 30.205568077793032,35.063496948634 39.28053596044545,35.31326560951161C48.44670994715132,35.56554451910502 49.00788181975848,35.464621620716464 49.138457330498525,33.540386309396204C49.21460886227271,32.418173839228295 49.1681779025079,28.237499999999997 49.035277419910045,24.249999999999996L48.79364017882304,16.999999999999993L51.89682008941152,16.999999999999996L55.0,17.0L55.0,38.0L55.0,59.0L52.17511935136765,59.0L49.3502387027353,59.0L49.42511935136765,51.08503509080022C49.46630370811544,46.731804390740336 49.23952083084144,42.9088252215818 48.92115740186988,42.58952582600346C48.60279397289831,42.27022643042512 46.35279397289831,41.81450621750391 43.92115740186988,41.576814241734105C41.48952083084144,41.3391222659643 37.025,41.02036591486505 34.0,40.86846679484689L28.5,40.59228657663205L28.5,49.546143288316024C28.5,58.0755514807834 28.39312909373267,58.515175762067564 26.245529226650092,58.82013681964152z"/></svg>