<svg version="1.1" xmlns="http://www.w3.org/2000/svg" xmlns:xlink="http://www.w3.org/1999/xlink" width="80" height="80" viewBox="0 0 80 80"><path stroke="none" fill="black" fill-rule="evenodd" d="M24.788612344156803,58.984687225482936C23.23634214296013,58.998576284165416 23.05039075537912,57.04742083704931 22.788612344156803,37.999036378794955L22.5,16.998072757589902L25.576807149917336,16.999036378794948C28.429185827792228,16.999929711540517 28.621371047417313,17.219687320751653 28.211574710688616,20.011808230406086C27.968452936658284,21.66830275712944 28.071266909796254,25.83080275712944 28.44005020655077,29.26180823040609L29.110565291558977,35.5L39.055282645779485,35.50378316441145C48.971851787893016,35.507555620694106 49.00031394911615,35.50047944871647 49.11091770986394,33.00378316441145C49.17192245028911,31.626702423985154 49.131530036847444,27.4625 49.02115679110468,23.75L48.82047816248148,17.0L51.91023908124074,17.0L55.0,17.0L55.0,38.0L55.0,59.0L52.11282335725448,59.0L49.225646714508954,59.0L49.512139534971745,52.75C49.66971058622628,49.3125 49.578849834048,45.522137153065465 49.310226752353344,44.32697145125658C48.87776196046211,42.40283640207328 47.9443587506116,42.0796490231477 41.16091057463608,41.50530112945207C36.94740975858623,41.14854815426847 32.39575863294861,40.77641100120301 31.046130295441365,40.67832967819549C28.60562536054624,40.500971255755275 28.593409629013237,40.545949110790716 28.803232416721904,48.936593653281456C28.950318928256774,54.818464963644736 28.633535573599396,57.61486156094038 27.75710212128054,58.17128087876439C27.065695954576242,58.610232343475204 25.72987555487056,58.97626519949855 24.788612344156803,58.984687225482936z"/></svg>