<svg version="1.1" xmlns="http://www.w3.org/2000/svg" xmlns:xlink="http://www.w3.org/1999/xlink" width="80" height="80" viewBox="0 0 80 80"><path stroke="none" fill="black" fill-rule="evenodd" d="M24.788612344156803,58.984687225482936C23.23634214296013,58.998576284165416 23.05039075537912,57.04742083704931 22.788612344156803,37.999036378794955L22.5,16.998072757589902L25.5,16.99874296968751C28.47012669847524,16.99940650796909 28.49860382423603,17.05169438115302 28.359790278338345,22.249706590892558C28.28267493142443,25.137367965901653 28.441448539454942,29.3 28.712620518406148,31.5L29.205660480135606,35.5L38.936641304827376,35.5C46.84242439408817,35.5 48.70024911764976,35.21865152624703 48.84157182806591,34.0C48.93724416226663,33.175 48.99066918299194,29.0125 48.96029409634437,24.749999999999996L48.905066666076074,16.999999999999993L51.95253333303803,16.999999999999996L55.0,17.0L55.0,38.0L55.0,59.0L52.1753575435456,59.0L49.35071508709121,59.0L49.4253575435456,51.083428920612235C49.46641089459552,46.72931482694896 49.24392115320785,42.910735980156815 48.93093589601744,42.59769814996302C48.617950638827026,42.28466031976924 44.27448987257255,41.66993756091189 39.27880085989638,41.23164757472448C34.283111847220205,40.79335758853706 29.814190694012357,40.56076214971576 29.34786496387894,40.71476882178823C28.881539233745524,40.86877549386071 28.6487611048475,44.65948699570845 28.83058023299445,49.13857215922765C29.07332369684678,55.11851859590555 28.807618853134613,57.50648687401163 27.83058023299445,58.12586890829603C27.098761104847505,58.589796956764445 25.72987555487056,58.97626519949855 24.788612344156803,58.984687225482936z"/></svg>