<svg version="1.1" xmlns="http://www.w3.org/2000/svg" xmlns:xlink="http://www.w3.org/1999/xlink" width="80" height="80" viewBox="0 0 80 80"><path stroke="none" fill="black" fill-rule="evenodd" d="M25.78877826824779,58.69495307621107L23.077556536495575,59.05803469491496L22.78877826824779,38.02805372625243L22.5,16.998072757589902L25.647448221226746,16.99903637879495C28.437679916688182,16.99989063476352 28.783877347056862,17.312108532629566 28.69780677917054,19.75C28.644407464364917,21.2625 28.692157088471358,25.424999999999997 28.80391705496264,29.0L29.007116994037688,35.5L38.8374988864479,35.5C46.844085149817445,35.5 48.694957376156175,35.22171035942427 48.81382547109704,34.0C48.89409505182845,33.175 48.95130065967504,29.012500000000003 48.940949044089464,24.750000000000004L48.92212792484295,17.000000000000007L51.98135237957722,17.000000000000004L55.04057683431149,17.0L54.77028841715574,37.75L54.5,58.5L51.85194777138054,58.80658483004859L49.203895542761074,59.11316966009719L49.33522192254001,51.12319231454133C49.40745143141842,46.72870477448561 49.21799608750503,42.8846627541716 48.91421004717691,42.58087671384353C48.61042400684879,42.27709067351546 44.21909537084941,41.66507759958654 39.15570196717828,41.22084766066814C34.09230856350715,40.776617721749744 29.62338741029931,40.65769656854189 29.224766071160843,40.95657843131735C28.826144732022378,41.255460294092806 28.5,45.287171077939114 28.5,49.915935728753595C28.5,58.31183002308869 28.49354358513632,58.33273608821307 25.78877826824779,58.69495307621107z"/></svg>