<svg version="1.1" xmlns="http://www.w3.org/2000/svg" xmlns:xlink="http://www.w3.org/1999/xlink" width="80" height="80" viewBox="0 0 80 80"><path stroke="none" fill="black" fill-rule="evenodd" d="M25.787362288105026,58.44756069508052L23.074724576210052,58.56277222216437L22.787362288105026,37.78042248987714L22.5,16.998072757589902L25.688263690438475,16.99903637879495C28.36366954334504,16.99984499378489 28.85699138063826,17.361930582438152 28.7550786758768,19.25C28.688281888126713,20.4875 28.71681882232022,24.65 28.818494085195702,28.5L29.003358199514764,35.5L38.83589179217029,35.5C46.84281633760105,35.5 48.696180666876245,35.221494613261974 48.81791234291763,34.0C48.900130169868135,33.175 48.956627745309504,29.390231546719804 48.943462510565126,25.589403437155124C48.93029727582075,21.788575327590443 48.686074785624896,18.301075327590446 48.40074586568546,17.83940343715513C48.11541694574602,17.377731546719815 49.49265344643892,17.00000000000001 51.4612714227808,17.000000000000007L55.04057683431149,17.0L54.77028841715574,37.75L54.5,58.5L51.77775704936843,58.81374391139872L49.055514098736865,59.12748782279743L49.38745185521683,52.31374391139872C49.57001762128081,48.56618476012942 49.41993558735674,44.65775715211073 49.053936224274445,43.628349226912746C48.58335642509425,42.304798905309454 47.23343803186685,41.67514814522932 44.444241418426046,41.47822085411494C42.27490863829172,41.32505817427413 38.025,41.065986841563266 35.0,40.90250678142412L29.5,40.60527030844386L29.0,49.468809738220266C28.502757249734714,58.283471184513886 28.485041160776998,58.33298450190164 25.787362288105026,58.44756069508052z"/></svg>