<svg version="1.1" xmlns="http://www.w3.org/2000/svg" xmlns:xlink="http://www.w3.org/1999/xlink" width="80" height="80" viewBox="0 0 80 80"><path stroke="none" fill="black" fill-rule="evenodd" d="M27.712417205040076,58.222872879390906C27.045587742268033,58.44727658889502 25.7125,58.455935835111745 24.75,58.2421156487614C23.15313630379775,57.88737103255561 23.0,56.06588559556709 23.0,37.42667583678947L23.0,17.0L25.938263690438475,17.0C28.354670096819167,17.0 28.854957195889828,17.39961658068708 28.7550786758768,19.25C28.688281888126713,20.4875 28.71541090561211,24.65 28.8153653813999,28.5L28.99710079192316,35.5L38.24855039596158,35.5C46.75858301282909,35.5 47.58143939347337,35.32632284020545 48.516206072344296,33.33284505343896C49.079777468119744,32.13097609070237 49.29800885148834,28.010875973013498 49.00615540330664,24.08284505343896L48.47989866192469,17.0L51.760237748118094,16.999999999999996L55.040576834311494,16.999999999999993L54.77028841715575,37.75L54.5,58.5L51.77775704936843,58.81374391139872L49.055514098736865,59.12748782279743L49.38745185521683,52.31374391139872C49.57001762128081,48.56618476012942 49.41190233504147,44.6348561085653 49.036084552462725,43.577458019034005C48.6556610629364,42.507101347037825 47.277258793877905,41.555753360065154 45.926389746614326,41.43120364899155C44.591875385976444,41.308161834999495 40.35,41.08411700253327 36.5,40.93332624351105L29.5,40.659161227107006L29.212417205040076,49.23701368097249C29.024485161192654,54.8425414515098 28.504717882730887,57.95624517164485 27.712417205040076,58.222872879390906z"/></svg>