<svg version="1.1" xmlns="http://www.w3.org/2000/svg" xmlns:xlink="http://www.w3.org/1999/xlink" width="80" height="80" viewBox="0 0 80 80"><path stroke="none" fill="black" fill-rule="evenodd" d="M25.779553132941054,58.531098998038594C25.01834114099926,58.82320344695982 24.081536780293156,58.74820344695982 23.697765664705262,58.36443233137193C23.313994549117368,57.98066121578403 23.0,48.543224314135394 23.0,37.392350327708286C23.000000000000004,26.24147634128117 23.37190635451109,16.88818322102998 23.826458565580197,16.607254504927855C24.281010776649303,16.32632578882573 25.638250122780875,16.35414538667986 26.842546001428133,16.669075833492588C28.046841880075387,16.984006280305316 28.971618347282924,17.74979940055651 28.897604817444872,18.370838322939683C28.823591287606824,18.991877245322858 28.815333046926263,23.1 28.879253171488067,27.5L28.995471579782258,35.5L38.74773578989113,35.0L48.5,34.5L48.5,25.74847885242939L48.5,16.99695770485878L51.77028841715574,16.99847885242939L55.04057683431149,17.0L54.77028841715574,37.75L54.5,58.5L51.88225926981543,58.8036599025475L49.264518539630856,59.107319805095L49.188232858092206,51.048735568039106C49.14627573324596,46.616514237658365 48.88727613861261,42.62662595530703 48.61267820335145,42.182317162813916C48.33808026809028,41.738008370320806 43.81289215336573,41.259829697034064 38.556704615074665,41.119697888843376L29.0,40.86491278304213L29.0,49.432456391521065C29.0,54.14460537618448 28.586804360706104,58.0 28.081787468235788,58.0C27.576770575765476,58.0 26.540765124882842,58.238994549117365 25.779553132941054,58.531098998038594z"/></svg>