<svg version="1.1" xmlns="http://www.w3.org/2000/svg" xmlns:xlink="http://www.w3.org/1999/xlink" width="80" height="80" viewBox="0 0 80 80"><path stroke="none" fill="black" fill-rule="evenodd" d="M26.476132842293225,58.249313472188426C25.0880059055545,58.51467074976816 23.75533531326114,58.41314121538463 23.51464263719687,58.023692284669465C23.2739499611326,57.63424335395431 23.0234848375625,48.415797917331055 22.958053473707757,37.53825798106222C22.89262210985301,26.66071804479339 23.220553731462143,17.379446268537766 23.686790410616936,16.913209589383047C24.153027089771733,16.44697291022833 25.546471780441454,16.33014481101307 26.78333416766076,16.65359159112692C28.020196554880073,16.977038371240766 28.971618347282924,17.74979940055651 28.897604817444872,18.370838322939683C28.823591287606824,18.991877245322858 28.816351941475254,23.00379538964001 28.881517381596936,27.286211976977803L29.0,35.07242395395561L38.75,34.7862119769778L48.5,34.5L48.5,25.74847885242939L48.5,16.99695770485878L51.77028841715574,16.99847885242939L55.04057683431149,17.0L54.77028841715574,37.75L54.5,58.5L51.89206502388554,58.802713690013334L49.284130047771086,59.10542738002666L49.086700870309606,50.802713690013334C48.97811482270579,46.236221160506 48.5766855619573,42.191042530582074 48.19463584642406,41.81342784573795C47.81258613089083,41.43581316089382 43.9,41.066526382086295 39.5,40.992790559499C35.1,40.919054736911704 30.9375,40.89051220632963 30.25,40.92936271376105C29.355019736391707,40.97993789540802 29.0,43.38102445547118 29.0,49.38342284738537C29.0,57.55277341731539 28.935552577952866,57.77916560011141 26.476132842293225,58.249313472188426z"/></svg>