<svg version="1.1" xmlns="http://www.w3.org/2000/svg" xmlns:xlink="http://www.w3.org/1999/xlink" width="80" height="80" viewBox="0 0 80 80"><path stroke="none" fill="black" fill-rule="evenodd" d="M52.140794513405595,59.0L49.2815890268112,59.0L49.08543035982966,50.75C48.977543092989805,46.2125 48.576685561957284,42.191042530582074 48.194635846424056,41.81342784573794C47.81258613089083,41.43581316089381 43.9,41.06652638208628 39.5,40.99279055949899C35.1,40.919054736911704 30.9375,40.89051220632963 30.25,40.92936271376105C29.353579394999134,40.9800192888538 29.0,43.404339885994105 29.0,49.5L29.0,58.0L26.040151385961217,58.0L23.08030277192243,58.0L22.790151385961217,37.91322548221997C22.57740801923861,23.18529983970192 22.820678755588446,17.560774817301855 23.7020122242825,16.830607083312707C24.36311894763788,16.28289294869273 25.825618947637878,16.127265933444427 26.952012224282505,16.484769271649807C28.81544984450405,17.07620139716033 29.000000000000004,17.94298227476438 29.0,26.10359964753487L29.0,35.07242395395561L38.75,34.7862119769778L48.5,34.5L48.78893288343782,25.750000000000004L49.07786576687565,17.000000000000007L52.03893288343782,17.000000000000004L55.0,17.0L55.0,38.0L55.0,59.0L52.140794513405595,59.0z"/></svg>