<svg version="1.1" xmlns="http://www.w3.org/2000/svg" xmlns:xlink="http://www.w3.org/1999/xlink" width="80" height="80" viewBox="0 0 80 80"><path stroke="none" fill="black" fill-rule="evenodd" d="M52.14091856322453,58.79243927290344L49.28183712644906,59.010293695022L49.08555440964859,50.755146847511C48.97759891540833,46.21481608137995 48.576685561957284,42.191042530582074 48.194635846424056,41.81342784573794C47.81258613089083,41.43581316089381 43.9,41.06652638208628 39.5,40.99279055949899C35.1,40.919054736911704 30.9375,40.89051220632963 30.25,40.92936271376105C29.353579394999134,40.9800192888538 29.0,43.404339885994105 29.0,49.5L29.0,58.0L26.03619016948433,58.0L23.072380338968653,58.0L23.092876827408652,38.99622943641767C23.10414989605065,28.544155626447388 22.833954218959565,19.540349276963003 22.492441989428457,18.98777088200792C22.150929759897352,18.435192487052834 22.912920763831405,17.596019794998554 24.185755331504133,17.122942677442847C25.45858989917686,16.64986555988714 27.0625,16.47681687125451 27.75,16.738390036037003C28.62116553224999,17.069842436502537 28.999999999999996,19.92013561483779 29.0,26.143200781162207L29.0,35.07242395395561L38.75,34.7862119769778L48.5,34.5L48.78893288343782,25.750000000000004L49.07786576687565,17.000000000000007L52.03893288343782,17.000000000000004L55.0,17.0L55.0,37.78729242539244L55.0,58.574584850784866L52.14091856322453,58.79243927290344z"/></svg>