<svg version="1.1" xmlns="http://www.w3.org/2000/svg" xmlns:xlink="http://www.w3.org/1999/xlink" width="80" height="80" viewBox="0 0 80 80"><path stroke="none" fill="black" fill-rule="evenodd" d="M26.0,60.0C24.095238095238095,60.0 23.989795918367346,59.261904761904766 23.785714285714285,44.5C23.667857142857144,35.974999999999994 23.555357142857144,26.4125 23.535714285714285,23.25C23.50170068027211,17.773809523809522 23.61904761904762,17.5 26.0,17.5C28.482454922610824,17.5 28.50054771070276,17.565478228816406 28.578043358061525,26.83L28.65608671612305,36.16L39.07804335806152,36.1607058276589L49.5,36.161411655317806L49.5,27.03846313974764C49.5,18.35722443783151 49.61119405253281,17.887536425781555 51.7965702484685,17.33766089389037C53.05968388512617,17.01984134223246 54.27275517182937,16.939421838495754 54.49228421892004,17.158950885586577C54.711813266010715,17.3784799326774 54.96784324151524,26.995023320866665 55.0612397200412,38.52904730378495L55.231051499179316,59.5L52.86552574958966,59.5C50.66849560910201,59.5 50.482369804250794,59.072622003887545 50.25248801890263,53.5C50.11635642929908,50.2 49.778010783563346,46.15 49.50060880615656,44.5L48.996241574507856,41.5L38.67557501202306,41.5L28.354908449538257,41.5L28.35491171679666,46.0C28.354913513788784,48.475 28.275059112642676,52.6375 28.177457492027532,55.25C28.02711622073907,59.27418083599082 27.694391930943503,60.0 26.0,60.0z"/></svg>