<svg version="1.1" xmlns="http://www.w3.org/2000/svg" xmlns:xlink="http://www.w3.org/1999/xlink" width="80" height="80" viewBox="0 0 80 80"><path stroke="none" fill="black" fill-rule="evenodd" d="M52.14091856322453,58.79243927290344L49.28183712644906,59.010293695022L49.08555440964859,50.755146847511C48.97759891540833,46.21481608137995 48.576685561957284,42.19035283846677 48.194635846424056,41.81189519659283C47.81258613089083,41.43343755471889 43.45,41.02799622555578 38.5,40.91091446511926L29.5,40.69803853705285L29.211067116562177,49.349019268526426L28.922134233124353,58.0L26.01628135108372,58.0L23.110428469043082,58.0L23.16273682975764,39.25C23.19150642815065,28.9375 23.113370548931744,20.05 22.98910154260452,19.5C22.864832536277294,18.95 22.81644736842105,18.029090437400523 22.881578947368418,17.453534305334497C22.94671052631579,16.87797817326847 24.2375,16.42797817326847 25.75,16.453534305334497L28.5,16.5L28.787998940914985,25.785753643746194L29.07599788182997,35.07150728749239L38.78799894091499,34.78575364374619L48.5,34.5L48.62723261977057,26.0L48.754465239541126,17.5L51.87723261977057,17.18664151591186L55.0,16.873283031823718L55.0,37.723933941304296L55.0,58.574584850784866L52.14091856322453,58.79243927290344z"/></svg>