<svg version="1.1" xmlns="http://www.w3.org/2000/svg" xmlns:xlink="http://www.w3.org/1999/xlink" width="80" height="80" viewBox="0 0 80 80"><path stroke="none" fill="black" fill-rule="evenodd" d="M53.0,58.66952007406715C52.175,58.77710143133613 50.9375,58.63296996991742 50.25,58.349227937581134C49.39811970895988,57.99764358109102 49.0,55.30191258513344 49.0,49.88528187032796C49.0,44.41404246788425 48.61046866768382,41.808372409578325 47.75,41.523727092396484C47.0625,41.29630026918713 42.56243482363572,40.97292342753955 37.749855163634926,40.80511188873519L28.999710327269852,40.5L28.999855163634926,49.25L29.0,58.0L26.133300935896145,58.0L23.266601871792286,58.0L23.18437724695629,39.25C23.139153703296493,28.9375 22.96666828214323,19.61085526315789 22.80107631106015,18.524122807017537C22.558558363748404,16.932547304797204 23.083490247461256,16.5435538064897 25.5,16.524122807017537L28.5,16.5L29.0,25.5L29.5,34.5L39.0,34.5L48.5,34.5L48.62723261977056,26.0L48.75446523954112,17.5L51.89771848745914,17.185113622428894L55.040971735377155,16.870227244857787L54.77048586768858,37.67207242558159C54.54163969027878,55.271597285637995 54.269083923119844,58.504029442627804 53.0,58.66952007406715z"/></svg>