<svg version="1.1" xmlns="http://www.w3.org/2000/svg" xmlns:xlink="http://www.w3.org/1999/xlink" width="80" height="80" viewBox="0 0 80 80"><path stroke="none" fill="black" fill-rule="evenodd" d="M53.0,58.510265422741455C52.175,58.620064356787886 50.9375,58.51267238241732 50.25,58.27161659080687C49.39160982435605,57.97064215691526 49.0,55.34330530341304 49.0,49.88528187032796C49.0,44.41404246788425 48.61046866768382,41.808372409578325 47.75,41.523727092396484C47.0625,41.29630026918713 42.56243482363572,40.97292342753955 37.749855163634926,40.80511188873519L28.999710327269852,40.5L28.999855163634926,49.25L29.0,58.0L26.121510779558932,58.0L23.243021559117867,58.0L23.213382402519702,39.25C23.19708086639071,28.9375 23.029901015589193,19.6 22.841871622960767,18.5C22.562901551109213,16.867983458612077 23.051975187918117,16.50055164404805 25.5,16.502998200245898L28.5,16.505996400491796L29.0,25.502998200245898L29.5,34.5L39.0,34.5L48.5,34.5L48.5,25.748887417269525L48.5,16.99777483453905L51.77028841715574,16.998887417269525L55.04057683431148,17.0L54.77028841715574,37.655315498601254C54.54171838274073,55.122531534158654 54.26847852094588,58.341444102183104 53.0,58.510265422741455z"/></svg>