<svg version="1.1" xmlns="http://www.w3.org/2000/svg" xmlns:xlink="http://www.w3.org/1999/xlink" width="80" height="80" viewBox="0 0 80 80"><path stroke="none" fill="black" fill-rule="evenodd" d="M53.75,58.208451007787595C53.0625,58.44078674667353 51.7125,58.455935835111745 50.75,58.2421156487614C49.262502947119145,57.91166692456132 49.0,56.65962917669382 49.0,49.89529104045077C49.0,44.411263957957374 48.61139502689642,41.81146534981152 47.75,41.53269023730543C47.0625,41.31019314379599 42.5625,40.95749200808486 37.75,40.74890993572514L29.000000000000004,40.369669804162L29.0,49.184834902081L29.0,58.0L26.12246386139286,58.0L23.244927722785718,58.0L23.37246386139286,40.25C23.442608737626788,30.4875 23.165701830131642,21.30941630437884 22.757115178070315,19.854258454175195C22.230694535418476,17.979441626950276 22.421127485956287,17.052375829215173 23.41066325711872,16.672655325356615C24.17870135265667,16.37793145471004 25.733681058973527,16.379101137096136 26.866173715600628,16.67525461954794C28.714624340955346,17.158635316663812 28.954647339479273,18.097838841167295 29.21262563655222,25.85685774836652L29.5,34.5L39.0,34.5L48.5,34.5L48.5,25.748887417269525L48.5,16.99777483453905L51.75,16.998887417269525L55.0,17.0L55.0,37.393011195815674C55.0,52.815458223851536 54.69532673963325,57.88898455463657 53.75,58.208451007787595z"/></svg>