<svg version="1.1" xmlns="http://www.w3.org/2000/svg" xmlns:xlink="http://www.w3.org/1999/xlink" width="80" height="80" viewBox="0 0 80 80"><path stroke="none" fill="black" fill-rule="evenodd" d="M51.818176610311184,58.47802121642387C50.89317374598234,58.65677048539972 49.88067374598234,58.547340412649014 49.568176610311184,58.234843276977855C49.25567947464003,57.9223461413067 49.0,54.12754350831425 49.0,49.80194853699463C49.0,44.38499026659718 48.610958743384636,41.815762253848675 47.75,41.546949969809745C47.0625,41.33229572917768 42.5625,40.946216303121986 37.75,40.68899568968598L29.0,40.22132184707506L29.0,49.11066092353753L29.0,58.0L26.20859469850018,58.0L23.41718939700036,58.0L23.45859469850018,38.46425229325167C23.491065313736147,23.14404632553172 23.209763233822493,18.748971566558563 22.15497898247044,18.09650908039785C21.16435689024064,17.483735660323106 21.472781079933966,17.098155562197686 23.325515877019875,16.633148728836026C24.709072728663326,16.28589806383504 26.534919928819665,16.268037629280748 27.382954099589522,16.593458874270937C28.574672903218882,17.05076428733374 28.990144553899633,19.151239656780653 29.212417205040083,25.842566932581093L29.5,34.5L39.0,34.5L48.5,34.5L48.5,25.748887417269525L48.5,16.99777483453905L51.75,16.998887417269525L55.0,17.0L55.0,37.5C55.0,48.775000000000006 54.6625,58.0344300727507 54.25,58.07651127277934C53.8375,58.11859247280798 52.74317947464004,58.29927194744801 51.818176610311184,58.47802121642387z"/></svg>