<svg version="1.1" xmlns="http://www.w3.org/2000/svg" xmlns:xlink="http://www.w3.org/1999/xlink" width="80" height="80" viewBox="0 0 80 80"><path stroke="none" fill="black" fill-rule="evenodd" d="M51.77955313294105,58.531098998038594C51.01834114099926,58.82320344695982 50.081536780293156,58.74820344695982 49.69776566470526,58.36443233137193C49.31399454911737,57.98066121578403 49.0,54.12754350831425 49.0,49.80194853699463C49.0,44.38499026659718 48.610958743384636,41.815762253848675 47.75,41.546949969809745C47.0625,41.33229572917768 42.5625,40.946216303121986 37.75,40.68899568968598L29.0,40.22132184707506L29.0,49.11066092353753L29.0,58.0L26.17866147721542,58.0L23.357322954430845,58.0L23.42866147721542,38.46661861562832C23.48829259920757,22.138870257733032 23.25383424686717,18.7771179520321 22.0,17.981931390145384C21.175,17.458713177534193 20.725,16.9679649563427 21.0,16.891379787497627C21.275,16.814794618652552 23.1875,16.64230064743726 25.249999999999996,16.508059851463646L28.999999999999993,16.263985676966165L28.999999999999996,25.06003651658897L29.0,33.85608735621177L34.25,34.50484759553423C37.1375,34.86166572716158 41.525,35.00654607201393 44.0,34.82680391742834L48.5,34.5L48.5,25.74847885242939L48.5,16.99695770485878L51.75,16.99847885242939L55.0,17.0L55.0,37.5C55.0,49.28267609379989 54.609543607116066,58.0 54.08178746823579,58.0C53.57677057576547,58.0 52.54076512488284,58.238994549117365 51.77955313294105,58.531098998038594z"/></svg>