<svg version="1.1" xmlns="http://www.w3.org/2000/svg" xmlns:xlink="http://www.w3.org/1999/xlink" width="80" height="80" viewBox="0 0 80 80"><path stroke="none" fill="black" fill-rule="evenodd" d="M26.340449782648072,57.8045978909425L23.23492259644402,58.10919578188501L23.30661292558953,39.8045978909425C23.346042606619562,29.737069050924127 23.218185022419657,20.7125 23.022484960700854,19.75C22.82678489898205,18.7875 22.265109019197943,18.0 21.774316338958386,18.000000000000004C21.283523658718835,18.000000000000007 21.16008130618756,17.550000000000004 21.5,17.000000000000004C21.839918693812443,16.450000000000003 23.666476341281168,16.0 25.55901699437495,16.0L29.0,16.0L29.0,24.88645622493717L29.0,33.77291244987434L33.4480859988084,34.43994413924307C35.89453329815302,34.806811568395865 40.43484313070448,35.00426855723275 43.53766340447831,34.87873744776948L49.179154811339814,34.65049906692717L48.83957740566991,25.824953086822312L48.5,16.999407106717456L51.75,16.999703553358728L55.0,17.0L55.0,37.5L55.0,58.0L52.0,58.0L49.0,58.0L48.881578947368425,49.75C48.81644736842106,45.2125 48.777180684935445,41.275 48.79431965073373,41.0C48.81145861653202,40.725 44.33021306404843,40.5 38.8359962007702,40.5L28.846510994809776,40.5L29.14624398183095,49.0L29.445976968852126,57.5L26.340449782648072,57.8045978909425z"/></svg>