<svg version="1.1" xmlns="http://www.w3.org/2000/svg" xmlns:xlink="http://www.w3.org/1999/xlink" width="80" height="80" viewBox="0 0 80 80"><path stroke="none" fill="black" fill-rule="evenodd" d="M26.523809195952964,58.0L23.298715946037483,58.0L23.336435921102705,39.75C23.35718190738858,29.7125 23.214970819530148,20.7125 23.0204112814173,19.75C22.82585174330445,18.7875 22.265109019197943,18.0 21.774316338958386,18.000000000000004C21.283523658718835,18.000000000000007 21.16008130618756,17.550000000000004 21.5,17.000000000000004C21.839918693812443,16.450000000000003 23.666476341281168,16.0 25.55901699437495,16.0L29.0,16.0L29.11842105263158,24.75C29.183552631578948,29.5625 29.22134809159487,33.725 29.202410963778075,34.0C29.18347383596128,34.275 33.67270521150236,34.59269470686651 39.17848068720269,34.70598823748114L49.188981552112395,34.91197647496227L48.8444907760562,25.955691790839865L48.5,16.999407106717456L51.75,16.999703553358728L55.0,17.0L55.0,37.563358484088134L55.00000000000001,58.12671696817627L51.89274296107459,57.813358484088134L48.78548592214918,57.5L48.80889019363684,49.0L48.8322944651245,40.5L38.79136013916065,40.494109336176074L28.750425813196806,40.48821867235215L29.249664129532626,49.244109336176074L29.748902445868445,58.0L26.523809195952964,58.0z"/></svg>