<svg version="1.1" xmlns="http://www.w3.org/2000/svg" xmlns:xlink="http://www.w3.org/1999/xlink" width="80" height="80" viewBox="0 0 80 80"><path stroke="none" fill="black" fill-rule="evenodd" d="M26.523809195952964,58.0L23.298715946037483,58.0L23.39935797301874,39.75C23.454711087858435,29.7125 23.275,20.825 23.0,20.0C22.725,19.175 22.073469693645624,18.19341859717545 21.552154874768057,17.818707993723226C21.030840055890486,17.443997390271 21.81733386177028,16.83296631547586 23.299918887834266,16.46086116084514C24.782503913898253,16.08875600621442 26.67153422025263,16.04371425068656 27.497764013066213,16.36076837078323C28.652552258834163,16.80390219910131 29.027389256815304,18.852607529319236 29.11842105263158,25.218615203661315C29.183552631578948,29.77337684164759 29.208673509823008,33.76213736526783 29.17424522650727,34.08252747837296C29.139816943191533,34.40291759147809 33.62737821353552,34.67617286637135 39.146603605049464,34.68976142258022L49.18155886234754,34.71446788841452L48.84077943117377,25.856937497565987L48.5,16.999407106717456L51.75,16.999703553358728L55.0,17.0L55.0,37.5L55.0,58.0L51.748205260799466,58.0L48.49641052159894,58.0L48.70879621879135,49.25L48.921181915983766,40.5L38.83580386459029,40.494109336176074L28.750425813196806,40.48821867235215L29.249664129532626,49.244109336176074L29.748902445868445,58.0L26.523809195952964,58.0z"/></svg>