<svg version="1.1" xmlns="http://www.w3.org/2000/svg" xmlns:xlink="http://www.w3.org/1999/xlink" width="80" height="80" viewBox="0 0 80 80"><path stroke="none" fill="black" fill-rule="evenodd" d="M26.460294116187598,58.0L23.17168578650675,58.0L23.735446846722347,40.55279714793514C24.216501929440934,25.665167966880517 24.066775905632817,22.75085822405563 22.714847072939616,20.6875540284644C21.533173761381075,18.88409260165258 21.41890061209815,17.981099387901722 22.265243119470746,17.134756880529263C22.889359403761947,16.510640596238165 24.40844235253143,15.999999999999996 25.640983005625156,16.0C26.87352365871888,16.000000000000004 28.108562791711563,16.36664129252793 28.38551441227556,16.814758427839838C28.662466032839554,17.262875563151745 28.974121382106425,21.48873016828496 29.07808185509083,26.205546439246987L29.26710089688065,34.781576022814306L39.179826305708836,34.658943686623374L49.092551714537024,34.53631135043244L48.910318333941774,26.26815567521622C48.794593939445,21.017595618688198 48.32149733832151,17.974348269572722 47.61404247667326,17.929714737389624C47.00131911450297,17.891057842953916 47.36907506653657,17.51905424716361 48.43127792563682,17.103040080077825C49.49348078473707,16.68702591299204 51.38786647603376,16.542651230325966 52.64102390629612,16.782207451930987C54.90687635556059,17.215352592638997 54.92109906319111,17.325189702427657 55.2097459806593,36.6195700574213C55.369385691296685,47.29056326883595 55.35,56.466566319676694 55.166666666666664,57.010687948178514C54.98333333333333,57.554809576680334 53.40752570069309,58.0 51.66487192746614,58.0L48.49641052159894,58.0L48.70633449692099,49.25L48.916258472243044,40.5L38.827172345859786,40.38590036070751L28.738086219476532,40.27180072141501L29.24349433267249,49.13590036070751L29.748902445868445,58.0L26.460294116187598,58.0z"/></svg>