<svg version="1.1" xmlns="http://www.w3.org/2000/svg" xmlns:xlink="http://www.w3.org/1999/xlink" width="80" height="80" viewBox="0 0 80 80"><path stroke="none" fill="black" fill-rule="evenodd" d="M26.0,60.0C24.095238095238095,60.0 23.989795918367346,59.261904761904766 23.785714285714285,44.5C23.667857142857144,35.974999999999994 23.555357142857144,26.4125 23.535714285714285,23.25C23.50170068027211,17.773809523809522 23.61904761904762,17.5 26.0,17.5C28.482621307923544,17.5 28.500526329647414,17.56485727882933 28.575714795609986,26.830000000000002L28.651429591219973,36.160000000000004L39.07571479560998,36.16017439218696L49.5,36.16034878437391L49.607111408317316,26.830174392186954C49.71397854262429,17.521278023991773 49.720250083060485,17.499278379805105 52.357111408317316,17.183577654302802L55.0,16.867155308605604L55.15,36.9335776543028C55.232499999999995,47.97010994443626 55.345,57.5625 55.4,58.25C55.455466666666666,58.943333333333335 54.38666666666667,59.5 53.0,59.5C50.638612442344154,59.5 50.48627670391626,59.16733013837404 50.25248801890263,53.5C50.11635642929908,50.2 49.778010783563346,46.15 49.50060880615656,44.5L48.996241574507856,41.5L38.60819966349361,41.5L28.220157752479356,41.5L28.232017482838685,45.5C28.238540334536317,47.7 28.189004840228463,51.8625 28.12193860659901,54.75C28.016428332506496,59.29268713113366 27.73054747852711,60.0 26.0,60.0z"/></svg>