<svg version="1.1" xmlns="http://www.w3.org/2000/svg" xmlns:xlink="http://www.w3.org/1999/xlink" width="80" height="80" viewBox="0 0 80 80"><path stroke="none" fill="black" fill-rule="evenodd" d="M26.458220517696432,58.0L23.23901713768457,58.0L23.763153833509456,40.5437030393492C24.20832873112283,25.717217364775074 24.049502424287653,22.724495559342763 22.708888384137815,20.67845991987846C21.531659277067213,18.88178120643459 21.41890061209815,17.981099387901722 22.265243119470746,17.134756880529263C22.889359403761947,16.510640596238165 24.660000000000156,15.999999999999995 26.200000000000102,15.999999999999996L29.0,16.0L29.15753424657534,24.25C29.24417808219178,28.7875 29.301817243722592,33.01666503081514 29.285621272199364,33.64814451292253C29.265164589187997,34.445748755133685 32.270170118405474,34.75460948967908 39.128087025624026,34.65977366727296L49.0,34.52325830870086L48.99999999999999,27.69588770026109C48.999999999999986,23.940833865619215 48.55824121745778,20.043083256179017 48.01831381657286,19.034219679282874C47.280642966305834,17.655869087420573 47.42467869291336,17.051013103243733 48.59777692202334,16.600853075062087C49.45640903090604,16.2713650196368 51.24816781344825,16.27516612306287 52.579463105450486,16.609299971564468L55.0,17.216816059749192L55.15,36.108408029874596C55.232499999999995,46.498783613443564 55.345,55.5625 55.4,56.25C55.458494895836644,56.98118619795807 54.04611171256079,57.622703575337894 51.99708555912295,57.795634905179284L48.4941711182459,58.09126981035857L48.706615245615794,49.295634905179284L48.919059372985686,40.5L38.86026795160189,40.44460619599937L28.801476530218096,40.38921239199873L29.239450213963195,49.19460619599937L29.677423897708294,58.0L26.458220517696432,58.0z"/></svg>