<svg version="1.1" xmlns="http://www.w3.org/2000/svg" xmlns:xlink="http://www.w3.org/1999/xlink" width="80" height="80" viewBox="0 0 80 80"><path stroke="none" fill="black" fill-rule="evenodd" d="M26.119508568842285,58.0L23.23901713768457,58.0L23.758634530222366,40.69421778266543C24.16032823589909,27.315866926155667 23.9739133868223,22.833736710822542 22.937218575667615,20.94421778266543C22.199650234766708,19.599898002199442 21.50186128671431,17.9375 21.3865764688845,17.25C21.248623897855843,16.42732105261062 22.51414626643958,16.0 25.088483854596973,16.0L29.0,16.0L29.15753424657534,24.25C29.24417808219178,28.7875 29.29342182342586,33.06703755259553 29.266964782651076,33.760083450212285C29.23079126121477,34.70765392293423 31.63544243819917,34.95566366977893 38.96275782134225,34.760083450212285L48.70665457053303,34.5L48.90523570030954,27.7812503066279C49.01445532168662,24.085937975273247 48.6307969407029,20.178654865171957 48.05266152034572,19.098398950847262C47.192173285037306,17.490561975862324 47.36414582527203,17.019199945887966 49.00075310530269,16.499760973662298C50.100338897386216,16.150766000535263 51.9,16.150873562387233 53.0,16.50000000000001C54.90001296037596,17.10304068752198 55.007499027971804,18.081283270699466 55.15,36.067387670557075C55.232499999999995,46.48032445175069 55.345,55.5625 55.4,56.25C55.46236948600771,57.02961857509636 54.19090324921724,57.5 52.02118291275287,57.5L48.54236582550574,57.5L48.71310734787664,49.0L48.88384887024753,40.5L39.03451538299616,40.41065602037709L29.185181895744787,40.32131204075419L29.15119470276816,46.91065602037709C29.13250174663101,50.534795209169694 29.090835820088433,54.5125 29.058603754895763,55.75C29.011746133227724,57.54902548805294 28.422654125629318,58.0 26.119508568842285,58.0z"/></svg>