<svg version="1.1" xmlns="http://www.w3.org/2000/svg" xmlns:xlink="http://www.w3.org/1999/xlink" width="80" height="80" viewBox="0 0 80 80"><path stroke="none" fill="black" fill-rule="evenodd" d="M26.119508568842285,58.0L23.23901713768457,58.0L23.763153833509456,40.5437030393492C24.216478842166698,25.445779093466562 24.06523148400644,22.748501138723615 22.64364526466717,20.578886333694147C21.73964036910023,19.199200473941815 21.0,17.604534106234677 21.0,17.035183294344954C21.0,16.46583248245523 22.8,16.0 25.0,16.0L29.0,16.0L29.013654683292447,23.25C29.021164759103293,27.2375 29.276615228230792,31.428243213404492 29.581322392464664,32.56276269645443C30.092122216906763,34.46462921221265 30.859654815745778,34.62062988157977 39.4214416939115,34.56276269645443L48.707547969478554,34.5L48.9056823997823,27.7812503066279C49.01465633644936,24.085937975273247 48.643349571148505,20.202109669706882 48.08055625466928,19.15052073870265C47.19363376297527,17.493290903851623 47.47817757449548,17.154364485100906 50.216147839626196,16.606770432074768C51.95351652783172,16.259296694433665 53.70489386141006,16.31812500000003 54.10809746980029,16.73750000000002C54.51130107819052,17.156875000000007 54.989426078190554,26.61280532626452 55.170597469800356,37.75067850281005L55.5,58.0013570056201L52.25,58.00067850281005C50.36189399515272,58.00028432273929 48.96477581798375,57.47619461724896 48.9159416283791,56.75C48.8697095239876,56.0625 48.838027368539024,52.125 48.84553683849336,48.0L48.85919042022853,40.5L39.022419664987474,40.47315893329616L29.185648909746416,40.446317866592324L29.151428209768973,46.97315893329616C29.132606824781377,50.56292151998328 29.090835820088433,54.5125 29.058603754895763,55.75C29.011746133227724,57.54902548805294 28.422654125629318,58.0 26.119508568842285,58.0z"/></svg>