<svg version="1.1" xmlns="http://www.w3.org/2000/svg" xmlns:xlink="http://www.w3.org/1999/xlink" width="80" height="80" viewBox="0 0 80 80"><path stroke="none" fill="black" fill-rule="evenodd" d="M25.568293506840703,58.0L23.254621002431296,58.0L23.769513062593447,40.04150119582165C24.208886965420437,24.716938401008335 24.05118043522032,21.727056527726518 22.694250594583583,19.656119829282662C21.819665604088975,18.321334419984314 21.3806744514689,16.95265888186457 21.7187146998723,16.61461863346101C22.056754948275703,16.27657838505745 23.8333333333331,15.999999999999995 25.666666666666515,15.999999999999996L29.0,16.0L29.118314788425984,22.75C29.183387922060277,26.4625 29.52088792206028,30.625 29.868314788425984,32.0C30.48486929233314,34.44011769078321 30.720741134350387,34.5 39.715623831040304,34.5L48.93124766208061,34.5L48.715623831040304,25.5L48.5,16.5L51.5,16.59023771300378C54.07157642928475,16.667588771601476 54.53146881842293,17.096012342316726 54.72035775275195,19.59023771300378C54.84155451676553,21.1906069708517 55.06655451676553,30.4876904264022 55.22035775275195,40.250423169782664L55.5,58.00084633956533L52.25,58.000423169782664C49.8427165891959,58.00010972682951 48.98562532344863,57.546229528894514 48.94456297717299,56.25C48.914072614618135,55.2875 48.87416750186014,51.33113096310014 48.85588494882189,47.45806880688919L48.82264394329779,40.41613761377837L39.453882235151035,40.37605065212644C30.17117416384135,40.336331895894546 30.079890438805048,40.3597761260698 29.515714609344563,42.92845185230766C29.202541354631716,44.35432034131589 29.027332327181888,47.810147422493195 29.126361215011606,50.60806758825723C29.225390102841327,53.40598775402126 28.985912999743512,56.21377625083958 28.59418987479424,56.847597581186825C28.202466749844966,57.48141891153407 26.840813384265875,58.0 25.568293506840703,58.0z"/></svg>