<svg version="1.1" xmlns="http://www.w3.org/2000/svg" xmlns:xlink="http://www.w3.org/1999/xlink" width="80" height="80" viewBox="0 0 80 80"><path stroke="none" fill="black" fill-rule="evenodd" d="M25.584879198430876,58.0C24.896528972627227,58.0 24.12301036016991,57.78967702683658 23.865948948525727,57.5326156151924C23.608887536881547,57.27555420354822 23.549861789624895,49.12094668964707 23.734780621288724,39.41126558430095C24.007868374315674,25.072028353516203 23.792462383432323,21.33220287210475 22.587546372635444,19.49326860256956C21.77164870421231,18.248051367963413 21.380674451468895,16.95265888186457 21.718714699872297,16.614618633461014C22.0567549482757,16.27657838505746 23.833333333333098,16.000000000000007 25.666666666666515,16.000000000000004L29.0,16.0L29.17105024042786,23.25C29.26512787266318,27.2375 29.389115888005534,31.31876181202502 29.446579163410867,32.319470693388936C29.538831846556963,33.92602859846407 30.686089294600855,34.171542511410685 39.25059949032301,34.4175380427641L48.95014113468001,34.69613469875033L48.67702763470652,25.37859478842029L48.40391413473303,16.061054878090253L51.451957067366514,16.388807791213505C54.007921067769054,16.663647964231117 54.53557476389918,17.18340265770347 54.72035775275195,19.60828035216838C54.84155451676553,21.198726158475772 55.06655451676552,30.4876904264022 55.22035775275195,40.250423169782664L55.5,58.00084633956533L52.25,58.000423169782664C49.85342730104988,58.000111121429384 48.97806248203033,57.54046222251161 48.91645810567143,56.25C48.87051006379072,55.2875 48.81158144169872,51.21675349504078 48.785505612133655,47.20389665564616L48.73809501292445,39.90779331129232L40.563499327368326,40.13309148451539C36.06747170031246,40.25700547978808 31.902857468828003,40.05799660273241 31.308801035180643,39.69084953550279C30.672397655359855,39.29753061621823 30.022176466793702,40.10365927499133 29.72595942036554,41.65321866532902C29.44945296586459,43.099668753963066 29.290742805084573,47.13743601737309 29.373270174187724,50.626034806240185C29.479665515851785,55.123581063972175 29.13246680648068,57.11892611371722 28.179872499860934,57.48447084754472C27.440976409878054,57.768011881395125 26.273229424234525,58.0 25.584879198430876,58.0z"/></svg>