<svg version="1.1" xmlns="http://www.w3.org/2000/svg" xmlns:xlink="http://www.w3.org/1999/xlink" width="80" height="80" viewBox="0 0 80 80"><path stroke="none" fill="black" fill-rule="evenodd" d="M26.927153119250587,57.59271695387113C25.51208733483841,57.82825772708433 24.145965847675747,57.81263251434242 23.89132759222245,57.55799425888912C23.63668933676915,57.303356003435816 23.554079098794524,49.22790676404083 23.707749285612167,39.61255150467804C23.861419472429812,29.997196245315237 23.7178878038764,21.42840233791852 23.388790022160148,20.570787266018662C23.059692240443894,19.713172194118805 22.480997159081802,19.2027274071953 22.10280095246661,19.43646551729977C21.72460474585142,19.670203627404238 21.349724899828043,18.99261902196362 21.269734627970216,17.93072194965395C21.14880460186791,16.325336223491938 21.78784521179509,16.000000000000007 25.062148885023447,16.000000000000004L29.0,16.0L29.18753084037333,22.25C29.290672802578662,25.6875 29.403172802578663,29.759381543334403 29.43753084037333,31.29862565185423L29.5,34.09725130370846L39.200422524885404,34.5010365678406L48.90084504977081,34.90482183197274L48.720000735228055,25.70241091598637C48.55316045789932,17.212606892021835 48.69251429932213,16.48019721431817 50.51957821034265,16.244272230362007C51.60881019465419,16.10362195706111 53.02015757774439,16.329010548409872 53.65590572832087,16.745135766692588C54.447821081594675,17.26347931034849 54.92016545120319,23.878317796015033 55.15590572832087,37.75154203914063L55.5,58.0013570056201L51.98860999794791,58.00067850281005L48.47721999589582,58.0L48.62749370210439,48.97523950763453L48.77776740831296,39.950479015269046L40.48197487999602,40.091790012730996C35.919288989421695,40.16951106133507 31.69429132255128,39.929095635430805 31.093091175839536,39.55753351072153C30.384079889946864,39.11934043763259 29.94294720712215,40.220341857969075 29.837627779834012,42.69098300562506C29.74832305874272,44.78594235253127 29.63582305874272,48.075 29.587627779834012,50.0C29.539432500925304,51.925 29.853332691319597,54.2875 30.285183758487996,55.25C30.717034825656395,56.2125 30.717034825656395,57.03700372557925 30.285183758487996,57.08223050128721C29.853332691319597,57.12745727699517 28.342218903662765,57.35717618065794 26.927153119250587,57.59271695387113z"/></svg>