<svg version="1.1" xmlns="http://www.w3.org/2000/svg" xmlns:xlink="http://www.w3.org/1999/xlink" width="80" height="80" viewBox="0 0 80 80"><path stroke="none" fill="black" fill-rule="evenodd" d="M27.213217017654802,57.49832728953262C25.56229702689774,57.70726331590942 24.035325350907588,57.70199201757425 23.81994662656557,57.48661329323224C23.604567902223554,57.27123456889022 23.554079098794524,49.22790676404083 23.707749285612167,39.61255150467804C23.861419472429812,29.997196245315237 23.7178878038764,21.42840233791852 23.388790022160148,20.570787266018662C23.059692240443894,19.713172194118805 22.480997159081802,19.2027274071953 22.10280095246661,19.43646551729977C21.72460474585142,19.670203627404238 21.349724899828043,18.99261902196362 21.269734627970216,17.93072194965395C21.147440448209124,16.307226636628457 21.790690677107158,16.000074707942233 25.312148885023447,16.000469491400395L29.5,16.000938982800783L29.56016798446352,25.088105938573875L29.62033596892704,34.17527289434697L38.72579428684688,34.610029920466395L47.83125260476672,35.04478694658582L48.49201386259081,32.036360645455154C48.855432554394056,30.381726179833283 49.04420868273862,26.884149116851475 48.91151637002317,24.26396717216224C48.77882405730772,21.643785227473007 48.3284570924462,18.805627132056916 47.91070089255312,17.956949182348705C47.33043761921611,16.77813568961617 47.78244318630324,16.369107093414506 49.8255720827374,16.22414513775357C51.29650743723183,16.11978086293446 53.02015757774439,16.364542322226303 53.65590572832087,16.768059491735446C54.448839265729305,17.27134415930985 54.919862354402426,23.8604806663747 55.15590572832087,37.75154203914063L55.5,58.0013570056201L52.0,58.00106751201196L48.5,58.000778018403814L48.625794613285926,49.126639256874256L48.75158922657185,40.25250049534469L42.125794613285926,40.43345339226943C38.481607575978664,40.53297748557803 34.2625,40.28257742129784 32.75,39.8770088049801C31.198368880799265,39.46094739271578 29.97579052766062,39.54496257519971 29.944444444444443,40.06980566038302C29.913888888888888,40.581412547172356 29.86388888888889,43.88706947682814 29.833333333333336,47.41570994850698C29.802777777777777,50.94435042018582 30.097838757418447,54.34928944054515 30.489024399201483,54.982241104861046C30.880210040984522,55.61519276917694 30.978560229812015,56.35477310352131 30.70758037437369,56.625752958959644C30.436600518935364,56.89673281439798 28.864137008411866,57.289391263155814 27.213217017654802,57.49832728953262z"/></svg>