<svg version="1.1" xmlns="http://www.w3.org/2000/svg" xmlns:xlink="http://www.w3.org/1999/xlink" width="80" height="80" viewBox="0 0 80 80"><path stroke="none" fill="black" fill-rule="evenodd" d="M25.9734452374078,57.4222821674701L23.446890474815607,57.586667800292496L23.6185313018305,39.601720034789906C23.712933756688688,29.709998763763487 23.56523024413911,21.0305831141383 23.29030127394254,20.314129702289488C23.015372303745966,19.597676290440678 22.434736730471826,19.231317924410412 22.000000000000004,19.500000000000004C21.56526326952818,19.768682075589595 20.968421876126893,19.360092019266382 20.673685792441592,18.59202209705953C20.37894970875629,17.82395217485268 20.40679655304015,16.926536780293297 20.735567668627944,16.597765664705356C21.064338784215742,16.268994549117416 23.180080358191702,16.000000000000007 25.43721561079675,16.000000000000004L29.541097888260463,16.0L29.500127096537025,24.881539259833325L29.459156304813586,33.76307851966665L35.376269326807076,34.38153925983332C38.6306814889035,34.72169266692499 42.766616450701854,34.99999999999999 44.567235908581196,35.0C47.36323905755828,35.0 47.9336357553646,34.578639515264605 48.475143524397936,32.113170792126844C48.82387325521779,30.52541472779661 49.00420797719101,26.925414727796607 48.875887351005076,24.11317079212684C48.74756672481915,21.300926856457075 48.27299726922149,18.999999999999993 47.82128856078806,18.999999999999996C47.369579852354626,19.0 47.0,18.325 47.0,17.5C47.0,16.44984169789996 48.059042755148745,16.000000000000004 50.531384796338735,16.000000000000007C52.47364643432504,16.00000000000001 54.25580518774597,16.56250000000001 54.49173758171859,17.250000000000007C54.72766997569121,17.937500000000004 55.05104681733877,27.38791482008587 55.210352785379854,38.25092182241305L55.5,58.0018436448261L51.87550873961674,58.00092182241305L48.25101747923348,58.0L48.53396721328207,49.25L48.816916947330654,40.5L43.54478593988655,40.83464578519547C40.6451138857923,41.01870096705298 36.54911052101221,40.69339801868366 34.442556240375254,40.111750344374755C32.3360019597383,39.53010267006585 30.43760300485908,39.22906366180757 30.223891896199227,39.44277477046745C30.01018078753937,39.65648587912734 29.759877839170056,43.01969652402056 29.667663122045198,46.916576203563494C29.575448404920337,50.81345588310643 29.8375,54.00140428802675 30.25,54.00090599227532C30.6625,54.000407696523894 31.0,54.675 31.0,55.5C31.0,56.325 30.4375,57.05802672029573 29.75,57.12894826732385C29.0625,57.19986981435197 27.36305035683351,57.331870069417775 25.9734452374078,57.4222821674701z"/></svg>