<svg version="1.1" xmlns="http://www.w3.org/2000/svg" xmlns:xlink="http://www.w3.org/1999/xlink" width="80" height="80" viewBox="0 0 80 80"><path stroke="none" fill="black" fill-rule="evenodd" d="M26.31861530633209,57.319256924879696C24.568853724814744,57.585809119827836 22.934171535428394,57.60083820209506 22.68598821880687,57.35265488547354C22.437804902185345,57.10447156885201 22.624093215796407,55.16855426717974 23.09996224905367,53.05061643731294C23.575831282310936,50.93267860744613 23.79572819722489,42.51736079683248 23.588622059973567,34.349910191504826C23.381515922722244,26.18245958617717 23.16435072126174,19.360942352531275 23.106032723394673,19.190983005625053C23.047714725527605,19.021023658718832 22.597153155716075,19.13093905327821 22.104784790480164,19.43523943797923C21.612416425244252,19.73953982268025 20.968421876126893,19.360092019266382 20.673685792441592,18.59202209705953C20.37894970875629,17.82395217485268 20.40679655304015,16.926536780293297 20.735567668627944,16.597765664705356C21.064338784215742,16.268994549117416 23.210442647443205,16.000000000000007 25.504687364688973,16.000000000000004L29.676041396044916,16.0L29.568290634604285,24.5832976530199C29.50902771581194,29.304111362180848 29.800950564777473,33.376980683591 30.21700807674992,33.63411836726469C30.633065588722367,33.89125605093838 34.78602900205525,34.24270425748709 39.44581566193411,34.415114381817375L47.91815504353204,34.72858733514518L48.57259885001293,30.364443353665703C48.932542943577424,27.96416416385199 48.982748465702834,24.762732013444328 48.6841666769583,23.250149686093113C48.385584888213764,21.7375673587419 47.99700029050265,19.6 47.82064534871139,18.5C47.55456834171248,16.84036571515401 48.13818571591377,16.44718115286683 51.25,16.18963473827396L54.99999999999999,15.879269476547918L55.0,35.357847270038135C55.0,46.071065056457755 55.27314496188294,55.54822942423447 55.606988804184326,56.41821253176417C56.097848986642774,57.69737366277072 55.45224396659482,58.0 52.23249754380106,58.0L48.25101747923348,58.0L48.53333375101319,49.25L48.815650022792894,40.5L44.15782501139645,40.820636970976985C41.5960212551284,40.99698730501433 37.58486116730754,40.706728202267 35.24413592735007,40.175616742649595C32.34849242667859,39.518594115678965 30.780945850956158,39.545420064154676 30.339589347732367,40.259549887526575C29.98281396890009,40.83682457682632 29.647952801592556,44.16476314215211 29.59545342038229,47.65496892158389C29.54295403917203,51.14517470101566 29.95,54.169368148881375 30.5,54.375398805729915C31.166666666666668,54.62513293524331 31.166666666666668,55.09743609507142 30.5,55.792308285214276C29.95,56.365577842082125 28.068376887849443,57.05270472993156 26.31861530633209,57.319256924879696z"/></svg>