<svg version="1.1" xmlns="http://www.w3.org/2000/svg" xmlns:xlink="http://www.w3.org/1999/xlink" width="80" height="80" viewBox="0 0 80 80"><path stroke="none" fill="black" fill-rule="evenodd" d="M26.96225756946412,57.17172310361662C25.56649923266939,57.43010317209766 23.931338756733183,57.47711291891106 23.328567622939218,57.27618920764641C22.59511180768339,57.03170393589446 22.50457562591139,55.68527631609126 23.05484300160455,53.2054366844917C23.50706559366445,51.167446508021264 23.700135260680085,42.975 23.48388670608374,35.0C23.267638151487397,27.025 23.070298324829142,20.135942352531274 23.045353757954288,19.69098300562505C23.02040919107943,19.246023658718826 22.59715315571607,19.130939053278208 22.10478479048016,19.435239437979227C21.612416425244245,19.739539822680246 20.937416425244244,19.279293109442875 20.604784790480156,18.4124689641184C20.27215315571607,17.545644818793924 20.0,16.648229424234543 20.0,16.418212531764222C20.0,16.1881956392939 22.176506055592185,16.0 24.83668012353819,16.0L29.67336024707638,16.0L29.547147374108047,24.031526170565826C29.477730293975462,28.44886556437703 29.712238356504958,32.5343918801665 30.068276401951373,33.11047353898688C30.434529567320237,33.70308360904094 34.289209063826576,34.15789473684211 38.945528449627126,34.15789473684211C43.47197903040238,34.15789473684211 47.4734649122807,33.86046257484708 47.83771929824561,33.496934376853154C48.20197368421052,33.13340617885923 48.462343742911266,30.060379863069755 48.4163194286917,26.6679870084321C48.370295114472135,23.275594153794444 48.145295114472134,19.6 47.9163194286917,18.5C47.56655397935063,16.81972555092986 48.09948540799349,16.450384147852574 51.25,16.18963473827396L55.0,15.879269476547918L55.0,36.93963473827396L55.0,58.0L50.94098300562506,58.0C48.08099912245401,58.0 47.0970047227862,57.652060055837616 47.609924043782755,56.82213916097867C48.01030096167571,56.17431569951694 48.429558311756715,52.23681569951694 48.54160704396276,48.07213916097867L48.745332011610124,40.5L39.1006119616827,40.23535236310998L29.455891911755277,39.970704726219964L29.522671569889766,46.248702932374364C29.559400381863732,49.701601945759286 29.877132349187523,52.99217897049261 30.228742608387073,53.56109632067064C30.580352867586623,54.13001367084868 30.56022634128117,55.06944267588757 30.184016994374947,55.64871633186817C29.807807647468724,56.22798998784878 28.358015906258856,56.91334303513558 26.96225756946412,57.17172310361662z"/></svg>