<svg version="1.1" xmlns="http://www.w3.org/2000/svg" xmlns:xlink="http://www.w3.org/1999/xlink" width="80" height="80" viewBox="0 0 80 80"><path stroke="none" fill="black" fill-rule="evenodd" d="M26.0,60.0C24.755553314315637,60.0 24.006298500175625,59.338890849973815 24.016672549921452,58.25C24.025842452378253,57.2875 23.913342452378252,47.725 23.766672549921452,37.0L23.5,17.5L26.0,17.5C28.486487983863412,17.5 28.5,17.54999487518489 28.5,26.75007687222668L28.5,36.00015374445336L38.25,36.00007687222668C43.6125,36.000034592502004 48.3375,36.00092137599306 48.75,36.00204750220679C49.1625,36.00317362842053 49.549518302268226,31.84067362842053 49.610040671707175,26.752047502206793C49.719710288447196,17.531197721067617 49.728983234021186,17.49893303011271 52.360040671707175,17.183577654302802L55.0,16.867155308605604L55.15,36.9335776543028C55.232499999999995,47.97010994443626 55.345,57.5625 55.4,58.25C55.455466666666666,58.943333333333335 54.38666666666667,59.5 53.0,59.5C50.638612442344154,59.5 50.48627670391626,59.16733013837404 50.25248801890263,53.5C50.11635642929908,50.2 49.778010783563346,46.15 49.50060880615656,44.5L48.996241574507856,41.5L38.60819966349361,41.5L28.220157752479356,41.5L28.232017482838685,45.5C28.238540334536317,47.7 28.189004840228463,51.8625 28.12193860659901,54.75C28.016428332506496,59.29268713113366 27.73054747852711,60.0 26.0,60.0z"/></svg>