<svg version="1.1" xmlns="http://www.w3.org/2000/svg" xmlns:xlink="http://www.w3.org/1999/xlink" width="80" height="80" viewBox="0 0 80 80"><path stroke="none" fill="black" fill-rule="evenodd" d="M50.64999036991401,57.81632747786891C47.665507309070065,58.06154089032424 46.98562976683541,57.836729356743035 47.625779238908734,56.81632747786891C48.07996841340314,56.09234736504101 48.49056800424982,52.11484597273456 48.5382227741236,47.977435494965675L48.624867810257726,40.45487098993135L38.972452630588116,40.15262923530796L29.3200374509185,39.850387480684574L29.11009773120781,46.33532387476777C28.99463088536693,49.90203889151351 29.35296918311872,53.100112963398765 29.906405059545122,53.442155145623865C30.459840935971524,53.784197327848965 30.65916042150172,54.724638767357504 30.349337249612226,55.532025011198385C29.991269554819468,56.465134466428566 28.405950974498964,57.0 25.998322126888556,57.0L22.210621862145782,57.0L23.00449338154366,53.48007693062598C23.441122717212497,51.544119242470266 23.623433674751045,43.33161924247027 23.40962884274044,35.23007693062598C23.10203227150606,23.5745562700363 22.705622711763887,20.26826303359372 21.51044639226967,19.389757401384582C20.679700876521355,18.779123972146103 20.000000000000007,17.766623972146103 20.000000000000004,17.139757401384582C20.0,16.438710953561518 21.924634018591888,15.999999999999998 25.00013927128685,15.999999999999996L30.000278542573703,15.999999999999993L29.55232562983506,23.554208002183778C29.305951527828807,27.709022403384864 29.35403381763269,31.759022403384865 29.659175162732573,32.554208002183785C30.084772127886403,33.66329591510514 32.25786977573287,34.0 38.99035744022337,34.0C47.24646195305972,34.0 47.802482521361405,33.866617045955294 48.369713952746565,31.75C48.70135112711427,30.5125 48.978835240896714,27.389057647468725 48.986345316707556,24.809016994374947C48.993855392518405,22.228976341281168 48.55,19.839918693812443 48.0,19.5C47.45,19.160081306187557 47.0,18.233523658718834 47.0,17.440983005625053C47.0,16.425290843714958 48.186545466695485,16.0 51.02028841715574,16.0L55.04057683431148,16.0L54.77028841715574,36.75L54.5,57.5L50.64999036991401,57.81632747786891z"/></svg>