<svg version="1.1" xmlns="http://www.w3.org/2000/svg" xmlns:xlink="http://www.w3.org/1999/xlink" width="80" height="80" viewBox="0 0 80 80"><path stroke="none" fill="black" fill-rule="evenodd" d="M50.75,57.810365261726034C48.06199359290806,58.032835611608256 47.0,57.72603746254593 47.0,56.7270319283927C47.0,55.96049770111004 47.30409322399538,55.02924010933795 47.67576271998974,54.657570613343594C48.0474322159841,54.28590111734923 48.442789218224924,50.932329688777806 48.55433383608046,47.205189660962645C48.72354914000443,41.55104744685082 48.487386439662885,40.41729008617267 47.12857111609071,40.3604636477901C46.23285700224082,40.323004368360365 42.575,40.19112462493388 39.0,40.067397551286795C35.425,39.943670477639714 31.79292014764538,39.87789040756274 30.928711439211956,39.92121961778241C29.747977604557704,39.980418586776786 29.29943199436048,41.27091424721684 29.124112648994913,45.11317079212673C28.995792022808963,47.925414727796436 29.176989231571582,51.52934160442685 29.52677311291184,53.12189718463876C29.876556994252102,54.71445276485068 30.57612644984977,55.761968260924924 31.081371903128883,55.44970939813708C31.586617356408,55.13745053534924 32.0,55.35852365871883 32.0,55.94098300562505C32.0,56.547014483111965 29.832468000596958,57.0 26.932612329442932,57.0C22.106671794426198,57.0 21.903423107540142,56.892793666029895 22.66691711761763,54.75C23.107847969920094,53.5125 23.381923381979473,45.30767391818631 23.275973588860694,36.51705315152515C23.135238976799613,24.840346978204476 22.735326888386837,20.259109993802337 21.791668800685997,19.513436134846238C21.0812509603087,18.95206754233401 20.387499999999932,17.931893624147698 20.249999999999847,17.246382983321094C20.076318063274904,16.380486141544736 21.568517811819234,15.999999999999998 25.138094916547537,15.999999999999996L30.276189833095383,15.999999999999993L29.61279551238689,22.47510847158579C29.247928635997212,26.036418130957983 29.234569536994332,30.086418130957984 29.583108625713816,31.47510847158579C30.200754489498184,33.93600560687495 30.440163215134252,33.99999999999999 39.02895276405553,34.0L47.84108946836182,34.0L48.49796192697622,31.00927928569624C48.85924177921414,29.364382892829173 49.03718968635626,26.326882892829175 48.89340172062536,24.25927928569624C48.74961375489447,22.191675678563307 47.97852229841322,19.721882099359746 47.17986515066701,18.770849109688324C45.90521086978221,17.253003467201726 45.917375171132164,16.968936529085234 47.279407934037465,16.446275517654943C48.13281361263741,16.118793031708005 50.10656733236078,15.996910932348259 51.665527311200506,16.17542640796662L54.5,16.5L54.5,37.0L54.5,57.5L50.75,57.810365261726034z"/></svg>