<svg version="1.1" xmlns="http://www.w3.org/2000/svg" xmlns:xlink="http://www.w3.org/1999/xlink" width="80" height="80" viewBox="0 0 80 80"><path stroke="none" fill="black" fill-rule="evenodd" d="M50.93044904692416,58.0C48.32174150782069,58.0 47.0,57.55162323963805 47.0,56.666666666666664C47.0,55.93333333333333 47.30409322399538,55.02924010933795 47.67576271998974,54.657570613343594C48.0474322159841,54.28590111734923 48.44375154407128,50.900174635035825 48.55647233796125,47.133733985980456L48.76141923594303,40.28566007860705L41.19216176966461,40.08531805491915C37.02907016321148,39.975129941890806 33.29835976338688,39.684396474648466 32.901694214498825,39.43924368326952C32.50502866561077,39.19409089189057 31.548124291908845,39.236170571760994 30.77524005071676,39.532754082981576C29.905304111729752,39.86657982501482 29.279546136659093,41.819345780861724 29.132554973093008,44.658984388554906C29.001962421592022,47.181827545399656 29.180330683440058,50.54455513513261 29.52892888831086,52.13171236573926C29.877527093181655,53.718869596345904 30.576126449849767,54.76196826092493 31.081371903128883,54.44970939813709C31.586617356408,54.137450535349245 32.0,54.60817969462009 32.0,55.49577419651675C32.0,56.797130093451216 31.080344006724335,57.0505712143305 27.25,56.80479119089169C23.11981652861295,56.53977149850322 22.547944772156242,56.23902461953139 22.867427548684113,54.5C23.069512700460375,53.4 23.195945091433405,45.3041504942632 23.14838841751307,36.509223320584894C23.079248354289476,23.722756759580385 22.769577693873124,20.304679457199494 21.603009165226123,19.4516637225577C20.75238074309634,18.829669034211545 20.469203066281437,17.858847479880872 20.923834025232463,17.12323913596015C21.398050238288935,16.355941185218512 23.230992263688783,15.986668749618062 25.601785728835296,16.18079873398734L29.5,16.5L29.22222424367333,22.611844563357344C29.069447577693662,25.97335907320388 29.395809696514995,29.91085907320388 29.947473396609624,31.361844563357344C30.92714307852085,33.93857109684613 31.156674827606587,34.0 39.8050550990846,34.0L48.65961189229661,34.0L48.73650527200123,26.978127897281528C48.78893514614146,22.19025315450689 48.365859514817615,19.5087166576748 47.40669932585293,18.54955646871007C46.633014696633815,17.775871839490925 46.0,16.85984026202434 46.0,16.513930741006543C46.0,16.16802121998875 47.9125,16.023378362845904 50.25,16.192502169578002L54.5,16.5L55.0,35.0C55.275,45.175 55.356202071115874,54.5125 55.18044904692416,55.75C54.910961555600494,57.6474966265688 54.24512185023045,58.0 50.93044904692416,58.0z"/></svg>