<svg version="1.1" xmlns="http://www.w3.org/2000/svg" xmlns:xlink="http://www.w3.org/1999/xlink" width="80" height="80" viewBox="0 0 80 80"><path stroke="none" fill="black" fill-rule="evenodd" d="M52.0,57.75688820733883C50.625,57.898176721375194 48.879848117278144,57.61098825086894 48.12188470506255,57.11869160621383C47.33452370233639,56.607301249466474 47.073670581831266,55.689815489000985 47.51336491969686,54.978375105673564C47.93664244996133,54.29349767503153 48.36209895071261,50.708994526568866 48.458823810255254,47.012812553534296L48.63468719124187,40.292481693471444L41.56734359562094,40.109056370297516C37.680304618029425,40.00817244255185 33.71284930410014,39.68715047458476 32.750776231333646,39.395674219259526C31.520477161505408,39.02293437656497 30.704662199825112,39.646597959535015 30.00077623133365,41.49795835687225C29.450349304100143,42.94569088788449 29.0,45.87434682735178 29.0,48.00608266679957C29.0,50.13781850624736 29.45734035322811,52.16461789397196 30.01631189606246,52.51008130618756C30.575283438896818,52.85554471840315 30.73075461516245,53.62663118960625 30.361803398874983,54.223606797749994C29.96142356573881,54.87143497617433 30.15642193350682,55.02135991725672 30.845491502812518,54.595491502812536C31.53599873484114,54.168734563941236 32.0,54.53056153177822 32.0,55.49577419651674C32.0,56.79713009345121 31.08034400672433,57.050571214330496 27.25,56.80479119089169C23.11981652861295,56.53977149850322 22.547944772156242,56.23902461953139 22.867427548684113,54.5C23.069512700460372,53.4 23.19746166808832,45.39452577844747 23.151758587857326,36.710057285438836C23.106055507626333,28.025588792430202 22.797118875465355,20.48074843920209 22.46523273861071,19.943745389376375C22.13334660175606,19.406742339550657 21.484864076284463,19.200337520932372 21.02416045978494,19.485068014669075C20.56345684328542,19.769798508405778 20.418137807335956,19.117042484711572 20.701229268786136,18.034499073126394C20.984320730236313,16.951955661541216 22.002135930055598,15.816709752692253 22.963040823940098,15.511730386795364C23.923945717824598,15.206751020898475 25.78785898902719,15.356052993172867 27.105070315501415,15.843512547405123C29.334446489957337,16.66853636429345 29.50049630492806,17.240309913049927 29.507179644843927,24.114901323004613C29.511128449508085,28.176705595352075 29.87518609697681,32.0625 30.316196639218873,32.75C30.857622926045632,33.59404007736642 33.966505032187776,34.0 39.888822940523255,34.0L48.65961189229661,34.0L48.73650527200123,26.978127897281528C48.78893514614146,22.19025315450689 48.365859514817615,19.5087166576748 47.40669932585293,18.549556468710072C46.633014696633815,17.775871839490932 46.0,16.859840262024345 46.0,16.51393074100655C46.0,16.168021219988756 47.9125,16.02337836284591 50.25,16.192502169578006L54.5,16.5L55.0,35.0C55.275,45.175 55.79026778295462,53.95 56.14503951767694,54.5C56.49981125239926,55.05 56.27481125239926,55.95 55.64503951767694,56.5C55.01526778295462,57.05 53.375,57.61559969330248 52.0,57.75688820733883z"/></svg>