<svg version="1.1" xmlns="http://www.w3.org/2000/svg" xmlns:xlink="http://www.w3.org/1999/xlink" width="80" height="80" viewBox="0 0 80 80"><path stroke="none" fill="black" fill-rule="evenodd" d="M52.3838589661201,57.562462689661714C50.797736534754044,57.79906203170776 48.879848117278144,57.59461009595555 48.12188470506255,57.1081250546568C47.31293224127753,56.58891361725666 47.06953984557459,55.696499160662846 47.532558127797245,54.947319842614C47.96639192251693,54.24536201728921 48.36154380523878,50.655653412968796 48.410673422734696,46.970189610790854L48.5,40.26934633410369L40.692615344898115,40.0812678124028C36.398553784592075,39.97782462546731 32.23605378459207,39.64407673841104 31.442615344898112,39.33960584116663C30.44943894888463,38.95848829847129 29.971108256016663,39.52032940869712 29.907262881166254,41.143011195815674C29.85625746580769,42.43935503811706 29.896935357212556,45.52128938714939 29.99765819539929,47.9917541936653C30.09838103358602,50.46221900018122 30.464958606879318,52.93721900018122 30.812275024939957,53.4917541936653C31.159591443000593,54.046289387149386 31.532496263496185,55.08566872269852 31.640952403819046,55.801486050441156C31.784330016910157,56.74778728848514 30.56392219496557,57.02069441052212 27.169072693112128,56.801486050441156C23.12813198566995,56.54055902402093 22.546312421905444,56.23093929910469 22.844252592454705,54.5C23.033591518304792,53.4 23.15327677573398,45.38115481447271 23.110219831186228,36.68034403216157C23.067162886638478,27.97953324985043 22.76865498478073,20.43469289662232 22.446868938169015,19.914032136099102C22.125082891557298,19.393371375575885 21.448960291815208,19.22252728005912 20.94437427207548,19.534378590506286C20.398778565994657,19.871575280980224 20.368113086119976,19.179116209150425 20.868712960163442,17.825865890423195C21.479063013423197,16.17593258653021 22.578581329035163,15.506691740934935 24.868142923756228,15.391543648829447C26.604857105544156,15.304199711445754 28.345295699538333,15.742870779711255 28.73578424374329,16.366368244975003C29.126272787948245,16.989865710238753 29.507296664266192,20.70325999770897 29.582503968894283,24.61835555046438C29.657711273522374,28.53345110321979 30.033972152610467,32.24595110321979 30.418639255756716,32.86835555046438C30.85255099358792,33.5704394903928 34.425198144939586,34.0 39.83050610234686,34.0L48.54297821594382,34.0L48.52148910797191,26.46376957249016C48.50569606804063,20.925150276212577 48.10982702309512,18.686334285795617 47.028025092286725,18.01756454049878C45.75773841432082,17.23227356080678 45.78041876722353,17.021491632411866 47.19355240348723,16.479221375975232C48.09417862388982,16.13361866795213 50.1065673323608,15.996910932348253 51.66552731120051,16.175426407966615L54.5,16.5L54.77379179400303,34.42620421438713C54.94946870253421,45.92844864632696 55.45389694620849,52.841986074935704 56.181410149945606,53.718585858444555C56.954837075776865,54.650508292650414 56.9898231751593,55.410176824840704 56.291477322062676,56.10852267793733C55.728409657660315,56.671590342339684 53.96998139748616,57.32586334761566 52.3838589661201,57.562462689661714z"/></svg>