<svg version="1.1" xmlns="http://www.w3.org/2000/svg" xmlns:xlink="http://www.w3.org/1999/xlink" width="80" height="80" viewBox="0 0 80 80"><path stroke="none" fill="black" fill-rule="evenodd" d="M53.23634341588793,57.316343623884684C51.05223417484149,57.65997955214045 49.45659563283762,57.31373848998047 48.41245471204874,56.26959756919159C47.55432704619883,55.41146990334168 47.22297250904926,54.43725822333497 47.67611129616081,54.10468272473224C48.12925008327237,53.772107226129506 48.5,50.52284159471269 48.5,46.88409243269486L48.5,40.26818486538972L40.692615344898115,40.08068707804581C36.398553784592075,39.97756329500667 32.23605378459207,39.64407673841104 31.442615344898112,39.33960584116663C30.26988828753835,38.88958824494979 30.0,40.10457556597206 30.0,45.833994201440724C30.000000000000004,49.71037869683588 30.430346724208455,53.1479349137581 30.956326053796566,53.47300801682344C31.482305383384674,53.79808111988878 31.65030048919631,54.74772738084345 31.329648511155767,55.583333041167165C30.909847066842065,56.677318068872935 29.592389429755645,57.01826989253218 26.6233224573592,56.80130802996878C23.12717553762335,56.54583028071177 22.552362338134788,56.195791176116245 22.844252592454705,54.5C23.033591518304792,53.4 23.15327677573398,45.3811548144727 23.110219831186228,36.68034403216156C23.067162886638478,27.97953324985042 22.76865498478073,20.43469289662231 22.446868938169015,19.914032136099095C22.125082891557298,19.39337137557588 21.482400791159538,19.20185991486356 21.01868649284066,19.488451112293937C20.554972194521785,19.775042309724313 20.291365289659158,19.2205594638043 20.432893370923715,18.256267010249456C20.607485676938282,17.06669359390476 21.945668299290272,16.29529298722996 24.59510857752054,15.85694177477697C26.742798859884246,15.501605348821945 28.67436381071636,15.375292358686478 28.887475134925246,15.576246241142599C29.10058645913413,15.77720012359872 29.431740285159886,19.58745597687774 29.623372526093586,24.04348147065154C29.815004767027286,28.499506964425336 30.243284944900743,32.5846263154256 30.57510625470126,33.121524472874356C30.906927564501782,33.6584226303231 35.07577373847603,34.01881912035683 39.839208863532924,33.92240556183819L48.5,33.74710818271339L48.39906543103261,26.623554091356695C48.34355141810055,22.705599341110513 47.94611126125349,18.68176221463887 47.51586508248359,17.6816938103086C46.825088553429666,16.07604612475595 47.187755804197074,15.90061485909972 50.616799651450975,16.1816938103086L54.5,16.5L54.763126632262654,34.5C54.96955634554212,48.62146998226052 55.33111112613883,52.72787648036093 56.44107833586551,53.55755959802716C57.21923212510262,54.1392173769421 57.55082514058442,55.1073603276835 57.17795170360286,55.70898837745249C56.80507826662129,56.31061642722148 55.03135453714957,57.03392628811597 53.23634341588793,57.316343623884684z"/></svg>