<svg version="1.1" xmlns="http://www.w3.org/2000/svg" xmlns:xlink="http://www.w3.org/1999/xlink" width="80" height="80" viewBox="0 0 80 80"><path stroke="none" fill="black" fill-rule="evenodd" d="M52.31193415749349,57.268806584250655C48.94679101010846,57.60532089898915 48.06160137483256,57.343565977374254 47.684194889254485,55.90036135947739C47.42752592248697,54.9188577227757 47.462556535410044,53.87077679792329 47.76204069575019,53.57129263758314C48.06152485609034,53.27180847724299 48.350081946958426,50.09558986903171 48.403278675457045,46.5130290637803L48.5,39.999282145141365L42.374999999999986,39.99964107257068C39.00624999999998,39.999838482656806 34.777368276700926,39.705473655340185 32.97748505933541,39.34549701186708L29.70497011867084,38.69099402373416L30.22693628226964,47.84549701186708L30.74890244586844,57.0L26.26604319305961,57.0C21.855243820884066,57.0 21.795588350298804,56.95579502710968 22.55486471283514,54.25C22.979289137756545,52.7375 23.256660697512938,44.60033424281831 23.17124595673824,36.167409428485136C23.08583121596354,27.73448461415196 22.756264246491025,20.41464426092385 22.438874913465977,19.90109753242267C22.12148558044093,19.387550803921492 21.504903007650984,19.18795278024964 21.06869141837721,19.45754636870744C20.632479829103435,19.727139957165242 20.326074064356565,18.946980310393354 20.387789718939718,17.723858264769905C20.484411531501603,15.808942675998118 21.078356933488905,15.492382912507894 24.663179600781692,15.445170012792605L28.826359201563385,15.39034002558521L29.663179600781692,24.445170012792605L30.5,33.5L39.5,33.654559817104996L48.5,33.80911963421L48.31123971372848,26.645935421178354C48.20742155627915,22.70618410401095 47.8217765943962,18.6991321863137 47.45425090954414,17.741375604073355C46.885949801811115,16.26040665670607 47.40018467869059,16.0 50.89301119581566,16.0L55.0,16.0L55.0,34.45030988642876C55.0,49.555154385494944 55.2637604817915,53.048227559708266 56.45464443997237,53.71467972975731C57.254698881957175,54.16241270605218 57.586124461796636,55.05163069917529 57.191145728504516,55.69071971447533C56.796166995212396,56.329808729775365 54.60052178825743,57.03994782117426 52.31193415749349,57.268806584250655z"/></svg>