<svg version="1.1" xmlns="http://www.w3.org/2000/svg" xmlns:xlink="http://www.w3.org/1999/xlink" width="80" height="80" viewBox="0 0 80 80"><path stroke="none" fill="black" fill-rule="evenodd" d="M50.671982246482756,57.5723778202872C49.820109429623606,57.899272091993105 48.725864518197184,57.36316739881572 48.120603464147706,56.3223778202872C47.386452620945946,55.05995305074327 47.05147384476244,54.93529218423065 47.030408685900746,55.916666666666664C47.01368390865534,56.69583333333333 46.71087468833559,57.04420802166892 46.357499307412425,56.69083264074576C46.004123926489264,56.3374572598226 46.2982725939457,55.34552979804295 47.011163012871165,54.48654939234655C47.75019846695851,53.596066146502366 48.34873553640186,50.14689327083289 48.40366370545874,46.46202449083813L48.5,39.999282145141365L42.375000000000014,39.99964107257068C39.00625000000002,39.999838482656806 34.78545960487598,39.707091920975195 32.99546578861326,39.34909315772265L29.74093157722649,38.6981863154453L30.178441875701562,47.84909315772265L30.615952174176634,57.0L26.365393683521063,57.0C22.46058112788235,57.0 22.15971831590935,56.81698208470766 22.66662285085166,54.75C22.97010606274405,53.5125 23.17919774393578,45.3 23.131271031277727,36.5C23.05791175728936,23.030233865536893 22.803432655331196,20.44886964079365 21.522065776858817,20.1766758367895C20.684929599586468,19.998847547023725 20.000000000000004,19.016671998774406 20.0,17.994063507346567C20.0,16.97145501591873 20.932477271290075,15.838818552131968 22.072171713977944,15.47709358782043C23.21186615666581,15.115368623508893 25.201003076196294,15.084616524233068 26.492475979601238,15.40875558942971C28.579471459079517,15.932558111344173 28.911025785899106,16.74887612723643 29.473797248861047,22.749049672166347C29.822051043548996,26.462072352474856 30.195414124018512,30.4 30.30349298323775,31.5C30.483262975479168,33.32965468819789 31.268603195731423,33.50828727935258 39.524060452269055,33.59729976440099L48.54812090453811,33.69459952880197L48.153921662353426,26.597299764400987C47.93711207915185,22.693784893980443 47.47628487563078,19.275 47.12986121008437,19.0C46.78343754453797,18.725 46.38749999999997,17.9375 46.24999999999992,17.249999999999996C46.079629629629494,16.398148148148127 47.433333333333145,15.999999999999995 50.49999999999992,15.999999999999996L55.0,16.0L55.0,34.45030988642876C55.0,50.967069234391204 55.18339602224269,53.007438149646454 56.75,53.91990120052802C57.829889119416926,54.54887887102237 57.998750553829254,54.950826737504975 57.19098300562506,54.969591314099254C56.471023658718835,54.98631609134466 56.16008130618756,55.45 56.5,56.0C56.848492554262755,56.5638727976234 56.03764680587011,57.0 54.64080446261074,57.0C53.2783282232342,57.0 51.4923582259766,57.25757001912924 50.671982246482756,57.5723778202872z"/></svg>