<svg version="1.1" xmlns="http://www.w3.org/2000/svg" xmlns:xlink="http://www.w3.org/1999/xlink" width="80" height="80" viewBox="0 0 80 80"><path stroke="none" fill="black" fill-rule="evenodd" d="M26.529039170612734,57.0C22.335369555174314,57.0 22.19296820996107,56.89938784056545 22.636828710790667,54.25C22.890222720239084,52.7375 23.081402463137895,44.54613709181065 23.061672583899135,36.046971315134776C23.03212408151621,23.31817469322617 22.75908920184658,20.444683720732378 21.51290003809615,19.747281201563506C20.680805017143268,19.28161741577518 20.0,18.256553736661246 20.0,17.469361914643653C19.999999999999996,16.68217009262606 21.089407270151977,15.764680236824749 22.420905044782174,15.430495568418518C23.752402819412374,15.096310900012288 25.661435347253494,14.980732482557382 26.66319955109578,15.17365464074095C27.742088095290356,15.381429589763098 28.74524067182443,16.742413215909394 29.123979717887615,18.512211100537353C29.475644605780843,20.15549499524181 29.816612077939723,24.285957369124638 29.881685211574016,27.691016375832533L30.0,33.882032751665065L39.38788805967822,33.75040350994723L48.775776119356436,33.6187742682294L48.30706963994982,27.5593871341147C48.04928107627619,24.226724210351612 47.5817630493458,20.825 47.26814069121564,20.0C46.95451833308548,19.175 46.58070435653188,17.9375 46.437442965540974,17.250000000000004C46.26022322959538,16.399536608433976 47.58701746822271,16.000000000000007 50.58848385459694,16.000000000000004L55.0,16.0L55.00000000000001,34.4182125317642C55.000000000000014,44.548229424234506 55.2876235545566,53.585960031934334 55.63916345457021,54.5020583266527C56.15449070475151,55.84497961409323 56.459861855740975,55.90926254584777 57.21529444756757,54.833845794888504C57.96058234921941,53.77287079540418 58.069381653622784,53.80686170371027 57.74712671803933,55.0C57.46064244894777,56.06069858051621 55.68114046881898,56.587832126429426 51.67099572504197,56.79990385598789C48.551948076268886,56.964850976781236 46.0,56.71735097678122 46.0,56.24990385598787C46.0,55.782456735194515 46.541254045063695,54.858745954936275 47.20278676680822,54.19721323319179C47.87601539921047,53.52398460078956 48.43600165405378,50.1338594784901 48.47468500263757,46.497213233191815L48.543796471658716,40.0L41.521898235829354,39.986345316707556C37.659854206123214,39.978835240896714 33.4875,39.701351127114265 32.25,39.369713952746565C30.061952664671498,38.78333994412343 30.0,38.974832538191556 30.0,46.324351641664066C30.0,50.48103954493639 30.45734035322811,54.16461789397196 31.01631189606246,54.51008130618756C31.575283438896815,54.85554471840316 31.773725791428088,55.557102365871884 31.457294901687515,56.0690983005625C31.14086401194694,56.581094235253126 28.92314893296329,57.0 26.529039170612734,57.0z"/></svg>