<svg version="1.1" xmlns="http://www.w3.org/2000/svg" xmlns:xlink="http://www.w3.org/1999/xlink" width="80" height="80" viewBox="0 0 80 80"><path stroke="none" fill="black" fill-rule="evenodd" d="M26.515068547954037,57.0C22.450576243532897,57.0 22.29307160268185,56.88614223193382 22.71086818730237,54.25C22.95058110058284,52.7375 23.119917203795374,44.57915520322585 23.08717063888578,36.12034489605745C23.036103778640324,22.929193854977857 22.789096831507784,20.56626903522072 21.351335773582107,19.514952481628974C20.324454765490714,18.76407875582851 19.928147327246155,17.629628354708558 20.32837080186037,16.586662698217825C20.82871194477223,15.28279458031343 21.95979104211142,14.956221253145763 25.158561628255576,15.192055112646305C29.009695037896705,15.475985338646643 29.351559574055777,15.733950901666773 29.542360114050734,18.5C29.656176203281177,20.15 29.873509387607136,24.216261778462567 30.0253227458862,27.53613728547237L30.30134703366632,33.57227457094474L39.54123410458996,33.624997531793056L48.781121175513604,33.67772049264136L48.30974216802841,27.58886024632068C48.05048371391155,24.239987110844307 47.5817630493458,20.825 47.26814069121564,20.0C46.95451833308548,19.175 46.58096661074048,17.939286852135687 46.4380257526712,17.25397078252375C46.29508489460192,16.568654712911815 46.58039874868774,15.759327835032966 47.072056539528575,15.455466609459645C47.56371433036941,15.151605383886324 49.54863434159219,15.19989943641668 51.48298989780142,15.562786726193774L55.00000000000001,16.222581798515762L55.000000000000014,34.52950343102208C55.000000000000014,44.59831032890055 55.272153155716076,53.54564481879389 55.60478479048015,54.412468964118375C55.93741642524423,55.27929310944287 56.68194524897859,55.69656864641461 57.25929328766763,55.3397479351667C57.87227532557523,54.96090420124663 58.01215191271115,55.17132079783012 57.59549150281254,55.84549150281252C57.19760516289794,56.48928512445363 54.4750621510038,57.0 51.44098300562506,57.0C48.27818394145467,57.0 46.0,56.556580950938766 46.0,55.94098300562506C46.0,55.35852365871883 46.45,55.16008130618756 47.0,55.5C47.55,55.83991869381244 48.04501946936058,55.528976341281165 48.10004326524574,54.80901699437494C48.15506706113089,54.08905764746873 48.277421267254105,50.4625 48.3719415010751,46.75L48.543796471658716,40.0L41.521898235829354,39.986345316707556C37.659854206123214,39.978835240896714 33.4875,39.701351127114265 32.25,39.369713952746565C30.060826925152636,38.78303825759971 30.0,38.97264672358508 30.0,46.38336863603901C30.0,50.572515886217545 30.3375,53.94671052631578 30.75,53.88157894736842C31.1625,53.81644736842105 31.892600121948977,53.81644736842105 32.37244471544217,53.881578947368425C32.85228930893537,53.94671052631579 32.68468918698639,54.675 32.0,55.5C31.251612956222633,56.40175122208933 29.06404393081576,57.0 26.515068547954037,57.0z"/></svg>