<svg version="1.1" xmlns="http://www.w3.org/2000/svg" xmlns:xlink="http://www.w3.org/1999/xlink" width="80" height="80" viewBox="0 0 80 80"><path stroke="none" fill="black" fill-rule="evenodd" d="M26.25,60.00011044898142C24.772697183023684,60.00003793049636 24.0010405668515,59.39901330209269 24.003030003819504,58.25C24.00469650592023,57.2875 23.794294179971377,47.58401855636535 23.53546927948872,36.68670790303411L23.064878551338435,16.873415806068223L25.78243927566922,17.18670790303411L28.5,17.5L28.5,26.75007687222668L28.5,36.00015374445336L38.25,36.00007687222668C43.6125,36.000034592502004 48.3375,36.00092137599306 48.75,36.00204750220679C49.1625,36.00317362842053 49.549518302268226,31.84067362842053 49.610040671707175,26.752047502206793C49.719710288447196,17.531197721067617 49.728983234021186,17.49893303011271 52.360040671707175,17.183577654302802L55.0,16.867155308605604L55.15,36.9335776543028C55.232499999999995,47.97010994443626 55.345,57.5625 55.4,58.25C55.455,58.9375 54.48548815199254,59.64406156883869 53.245529226650085,59.82013681964153C52.00557030130763,59.99621207044437 50.75477484723863,59.524528432054794 50.465983773163416,58.77195095655359C50.1771926990882,58.019373481052384 49.84170454709566,53.92332940940848 49.72045454651333,49.66963079734492L49.5,41.93563332086572L38.86558099886604,41.71781666043286L28.23116199773208,41.5L28.36558099886604,50.75011044898142C28.495869944740484,59.71600909019293 28.430868223573192,60.00021750439203 26.25,60.00011044898142z"/></svg>