<svg version="1.1" xmlns="http://www.w3.org/2000/svg" xmlns:xlink="http://www.w3.org/1999/xlink" width="80" height="80" viewBox="0 0 80 80"><path stroke="none" fill="black" fill-rule="evenodd" d="M26.515068547954037,57.0C22.449801549759883,57.0 22.293123693983446,56.8866446816419 22.714063799116044,54.25C22.955534298894037,52.7375 23.07896798833514,44.54559053879034 22.988360886762944,36.04575675286743C22.85216727885761,23.269462071615624 22.55082388094756,20.392039599935757 21.2493304096456,19.44036433843895C20.333821367125374,18.77092778216368 19.939129688535534,17.601008779949638 20.306135262263737,16.64460758557152C20.759092049788052,15.464221118441863 22.175787182895057,14.999999999999998 25.325095989794328,14.999999999999996C29.452024856690954,14.999999999999993 29.711285385790607,15.163536451685815 29.684775117440765,17.749999999999996C29.669272567286807,19.2625 29.80173984840034,23.44375 29.979146853248622,27.041666666666668L30.30170504388186,33.583333333333336L39.44622803540611,33.58333333333333L48.59075102693036,33.58333333333333L48.36100410155558,27.223207421280406C48.23464329259945,23.7251381696513 47.60138026564839,20.224618890716872 46.95375293055322,19.44427569031501C46.30612559545806,18.663932489913147 46.000724067895575,17.44049640029143 46.27508286930326,16.72552882448897C46.60900703812014,15.85533638941525 48.13365091832555,15.55525925551626 50.88695852684043,15.81782936287711L55.0,16.210070948178817L55.013654683292444,34.355035474089405C55.02116475910329,44.33476596334023 55.298648872885735,53.5125 55.630286047253435,54.75C56.19808533113084,56.86873598048223 55.93476068382231,57.0 51.116631363960984,57.0C48.30248411378244,57.0 46.0,56.742857142857154 46.0,56.42857142857145C46.0,56.11428571428575 46.57309625921211,55.284046597930775 47.27354724269358,54.583595614449294C48.07003252371503,53.78711033342782 48.52020152219783,50.78182376897709 48.47530201005003,46.56079202674526L48.40350953471291,39.81153568173485L39.201754767356455,39.62818977186657L30.0,39.4448438619983L30.0,45.599977215556976C30.0,49.87356154846851 30.462301154851232,52.1387864501556 31.512331183715226,53.010233973518254C32.66263506233468,53.96490140071734 32.753015611029944,54.592671695555715 31.88988646827305,55.632678688960425C31.256635446465452,56.39569949156827 28.881184134653967,57.0 26.515068547954037,57.0z"/></svg>