<svg version="1.1" xmlns="http://www.w3.org/2000/svg" xmlns:xlink="http://www.w3.org/1999/xlink" width="80" height="80" viewBox="0 0 80 80"><path stroke="none" fill="black" fill-rule="evenodd" d="M26.515068547954037,57.0C22.449801549759883,57.0 22.293123693983446,56.8866446816419 22.714063799116044,54.25C22.955534298894037,52.7375 23.080132085572494,44.525000000000006 22.99094776951262,36.0C22.863414866187362,23.809313914366825 22.52681482589316,20.329262863224322 21.414397233792787,19.70030988642873C20.636478755206753,19.260480323964533 20.0,18.022980323964532 20.0,16.95030988642873C20.0,15.28364717521357 20.70801042204962,15.0 24.86815962393513,15.0L29.736319247870263,15.0L29.973643297962276,23.25C30.104171525512886,27.7875 30.238499694742078,31.97085262123129 30.272150340693813,32.54633915829176C30.310176742832653,33.19665899212601 33.75053987369696,33.57513983298839 39.36207712014534,33.54633915829176L48.39082090695734,33.5L48.29725947868879,27.151849025210126C48.24580069314109,23.660365989075693 47.707865989075685,20.307865989075694 47.10184902521012,19.701849025210123C46.49583206134456,19.095832061344552 46.0,18.06314496188298 46.0,17.406988804184405C46.0,16.75083264648583 46.565392178989036,15.997016272214992 47.25642706442007,15.731841305804764C47.94746194985111,15.466666339394536 49.63496194985111,15.36109094279374 51.00642706442007,15.497229313358552C52.377892178989036,15.633367683923364 53.78385807859048,15.802184058194202 54.130795730201065,15.872376811738192C54.47773338181165,15.942569565282183 54.839490730864895,24.425934218723143 54.93470095031938,34.72429826382921C55.053474029011106,47.57132676700452 55.4682595702728,53.671366341236116 56.256159468712056,54.15831525820417C56.887751434373534,54.548660560004315 57.87599408532029,54.639355480568405 58.45225424859373,54.35985952612436C59.02851441186718,54.080363571680316 58.6,54.57984476195465 57.5,55.46981772673398C56.167171041969645,56.54816476248127 54.02494128310022,56.989884521393584 51.0781692426426,56.79397519498456C48.40245611077502,56.616086593446674 46.475519880284345,55.95142650867544 46.1984373350858,55.11080427732959C45.94405594926773,54.33905357752998 46.19608646179645,54.003154109374016 46.76548330196305,54.35506070968377C47.329204216355215,54.7034593949473 47.965478974667946,54.428597470148986 48.179427209324686,53.744256432354184C48.39337544398142,53.05991539455938 48.54355437220726,49.625984454450844 48.513158160937664,46.11329878766854L48.457892322265664,39.72659757533708L39.22894616113283,39.539973399681934L30.0,39.353349224026786L30.0,45.554229896571215C30.0,49.868644296405776 30.46008977142202,52.136951164916496 31.512331183715226,53.010233973518254C32.66263506233468,53.96490140071734 32.753015611029944,54.592671695555715 31.88988646827305,55.632678688960425C31.256635446465452,56.39569949156827 28.881184134653967,57.0 26.515068547954037,57.0z"/></svg>