<svg version="1.1" xmlns="http://www.w3.org/2000/svg" xmlns:xlink="http://www.w3.org/1999/xlink" width="80" height="80" viewBox="0 0 80 80"><path stroke="none" fill="black" fill-rule="evenodd" d="M26.230442779858876,56.984687225482936C22.087359515991025,56.99954640093227 21.979163751798236,56.91853877069248 22.577927907944293,54.25C22.917301199468895,52.7375 23.112580703739155,44.525000000000006 23.011882361878207,36.0C22.868078794496252,23.825763669236952 22.525313762165105,20.32841417249269 21.414397233792787,19.70030988642873C20.636478755206753,19.260480323964533 20.0,17.998324288063273 20.0,16.895518695537042C20.0,15.131995428125512 20.561376788697945,14.927139352201992 24.659439557902502,15.195208809108312C28.43006669429298,15.441859489094021 29.374530553828155,15.881510441531358 29.610621788953168,17.5C29.771080259184654,18.6 29.987101834869208,22.65 30.090669734918844,26.5L30.278975007736364,33.5L39.334417963978744,33.5L48.389860920221125,33.5L48.296779485320684,27.151849025210126C48.24558469612544,23.660365989075693 47.707865989075685,20.307865989075694 47.10184902521012,19.701849025210123C46.49583206134456,19.095832061344552 46.0,17.775903505325992 46.0,16.768674456279985C46.0,15.287325914837595 46.68896540870643,14.983748275074158 49.605151034189184,15.180142973974164C52.34913439207775,15.364940464452824 53.42405594365828,15.985152333299052 54.10515103418919,17.776568178868704C54.59731796538514,19.0710653077829 55.00000000000001,27.525904474820518 55.0,36.56509966117453C55.0,52.333333333333336 55.08112816663594,53.0 57.0,53.0C58.1,53.0 59.0,53.4341673086804 59.0,53.964816241512004C59.0,54.49546517434361 58.129583654340195,55.395465174343606 57.06574145408933,55.964816241512004C56.00189925383846,56.5341673086804 53.350044215721404,57.0 51.17273025827365,57.0C48.66648298524355,57.0 47.013076896378536,56.47646113668824 46.66642973789548,55.57311312201623C46.36527840913523,54.78832533912516 46.67365335778406,53.68580680076092 47.351707401559544,53.12307192565126C48.10615492660619,52.49693609225965 48.552917333922004,49.67827668224374 48.50305652916389,45.859119096152114L48.421580122631,39.618320585034155L39.35478639369201,39.49868367293318L30.28799266475302,39.37904676083222L30.109643914295816,45.3228237141244C29.97658891389448,49.75710902802969 30.374353959884196,51.75617512633131 31.675884264019867,53.19434992411319C33.17805992900665,54.85423535003104 33.21757115056916,55.250440101873046 31.96023668210056,56.045736815887835C31.15710650694525,56.55373751518076 28.578699250936495,56.97626519949855 26.230442779858876,56.984687225482936z"/></svg>