<svg version="1.1" xmlns="http://www.w3.org/2000/svg" xmlns:xlink="http://www.w3.org/1999/xlink" width="80" height="80" viewBox="0 0 80 80"><path stroke="none" fill="black" fill-rule="evenodd" d="M26.921425785483926,57.0C22.02700800022954,57.0 21.969110540084188,56.963343365211934 22.577927907944293,54.25C22.917301199468895,52.7375 23.111416606501802,44.54559053879034 23.009295479128532,36.04575675286743C22.855996330241286,23.28622972275263 22.54911579663765,20.39079061819429 21.2493304096456,19.44036433843895C20.30445934671141,18.74945774864321 19.936249182726936,17.608515257760782 20.32837080186037,16.586662698217825C20.830872744918782,15.277163625393648 21.964974027904177,14.95520276836715 25.24085074325788,15.192055112646305L29.5,15.5L29.75433245669118,22.5C29.89421530787133,26.35 30.23484213646477,30.490799080423322 30.511280964676608,31.70177573427405C30.986452651716565,33.78332782049296 31.48835296124447,33.89253390009832 39.70308258124599,33.70177573427405L48.392268146521126,33.5L48.30135711402194,27.380869596026702C48.251356046147386,24.01534787384139 47.69228579847384,20.293547846873526 47.0589787858585,19.110202869431454C46.42567177324315,17.926857891989382 46.19794666861715,16.488732556592584 46.552922997800714,15.914368790771903C46.90789932698428,15.340005024951223 48.61620924169057,15.011397719922051 50.349167252703594,15.184130335151522C52.44426856874203,15.392959589634426 53.717898978675194,16.16862144241237 54.15031997464938,17.49909481778437C54.50799596070654,18.599592668002966 54.84549596070654,27.037499999999998 54.90031997464938,36.25C54.99583490232527,52.30010665821646 55.08356935424281,53.0 57.0,53.0C58.1,53.0 59.0,53.4341673086804 59.0,53.964816241512004C59.0,54.49546517434361 58.129583654340195,55.395465174343606 57.06574145408933,55.964816241512004C56.00189925383846,56.5341673086804 53.30189925383846,57.0 51.06574145408933,57.0C48.8295836543402,57.0 47.0,56.523442352531276 47.0,55.94098300562506C47.0,55.35852365871883 46.4375,55.20608632505875 45.75,55.602233375269314C45.0625,55.99838042547988 45.422693578428344,55.237438072948606 46.55043017428521,53.911250369644264C48.1382711328799,52.0439923930675 48.587075467978295,50.15814144708999 48.53975876177095,45.55220188196067L48.478657174971474,39.60440376392133L39.37882995961077,39.503283650519066L30.279002744250057,39.40216353711679L30.108529604050183,45.59868142905498C29.984380485957068,50.11137023522335 30.371405010404327,52.22854786754718 31.532786026880597,53.38992888402345C32.40988728654725,54.267030143690114 32.84726693471221,55.438110296466654 32.50474080058049,55.99232922352687C32.16221466644878,56.54654815058709 29.649722909655328,57.0 26.921425785483926,57.0z"/></svg>