<svg version="1.1" xmlns="http://www.w3.org/2000/svg" xmlns:xlink="http://www.w3.org/1999/xlink" width="80" height="80" viewBox="0 0 80 80"><path stroke="none" fill="black" fill-rule="evenodd" d="M27.02429287485858,56.837791751201806L21.739115286403678,57.175583502403605L22.51850034335275,54.337791751201806C22.947162124674733,52.77700628804081 23.203269707672554,44.525000000000006 23.08762830557012,36.0C22.91523651182974,23.291402430982185 22.595689757975386,20.283539222552257 21.313260471764178,19.29804430446832C20.43180267062831,18.620679717691583 20.01812208064795,17.39515790581809 20.365425609602845,16.490099417114624C20.826330195323802,15.289001319884294 22.055489288683486,14.961747200154871 25.24085074325788,15.192055112646305L29.5,15.5L29.74751198109737,21.5C29.883643570700926,24.8 30.23601389835515,28.93307294528815 30.53055715366231,30.684606545084776L31.06609034512988,33.86921309016955L39.710350757075204,33.684606545084776L48.35461116902052,33.5L48.350499922230796,27.5C48.34823873649644,24.2 47.797641308760525,20.47819997303214 47.12695008281765,19.22933327340475C46.456258856874776,17.980466573777363 46.17987905236926,16.517966573777365 46.51277273947207,15.979333273404748C46.84566642657488,15.440699973032133 48.452614222459836,14.999999999999995 50.08376784143865,14.999999999999996C52.34715569762933,15.0 53.28046049629097,15.607467684941167 54.0247508470637,17.56509966117453C54.561137881178674,18.97590447482052 55.00000000000001,27.343033301619986 55.0,36.15871927628446C55.0,51.34623531393618 55.1049384370735,52.21468124796761 57.0,52.71025097907092C58.1,52.997907440939 59.0,53.614945922819935 59.0,54.081447605472995C59.0,54.547949288126055 58.129583654340195,55.395465174343606 57.06574145408933,55.964816241512004C56.00189925383846,56.5341673086804 53.30189925383846,57.0 51.06574145408933,57.0C48.487981770560296,57.0 46.99439582432986,56.542524473284054 46.984687225482936,55.75C46.974478709138225,54.916666666666664 46.64624963397725,55.0 46.0,56.0C45.46684405196877,56.825 45.02373480050145,57.00724440295044 45.015312774517064,56.40498756211208C45.006890748532676,55.80273072127373 45.80642149232719,54.580173703848196 46.792047760727094,53.688194190055334C48.166648642805306,52.44419748890625 48.56532934063469,50.62899157393708 48.503534630871336,45.895739960411575L48.422973740288484,39.72506666493666L39.27979395766915,39.53219367735744L30.136614175049818,39.33932068977822L30.318307087524907,46.41966034488911C30.439898959530286,51.15793957312735 30.882704938847674,53.427562291441625 31.656964578556245,53.28101180714792C32.29329509676218,53.16056830107927 32.700425951007716,53.83556830107928 32.561699810212986,54.78101180714792C32.36728186430024,56.10600494379399 31.098098651871837,56.577422451506116 27.02429287485858,56.837791751201806z"/></svg>