<svg version="1.1" xmlns="http://www.w3.org/2000/svg" xmlns:xlink="http://www.w3.org/1999/xlink" width="80" height="80" viewBox="0 0 80 80"><path stroke="none" fill="black" fill-rule="evenodd" d="M27.90628928474137,56.758029737926655C25.482830178133618,56.91207716466827 22.825,56.57953987548361 22.0,56.01905798418298C20.69280071028563,55.13098340211515 20.687027166520892,54.87972264684778 21.95508151586017,54.06423565835912C23.14893310468474,53.296468537509575 23.36390376267337,50.199586203257525 23.15249344504135,36.81423565835912C22.949801750700807,23.9809008822861 22.58599557079643,20.263112135805653 21.447411929181186,19.389757401384607C20.651335368131534,18.77912397214614 20.0,17.54162397214614 20.0,16.639757401384607C20.0,15.338715186389745 21.03282103225677,15.0 25.0,15.0L30.0,15.0L30.013654683292444,22.25C30.021164759103286,26.2375 30.290305449488702,30.48059469991694 30.611745106371146,31.679099333148752C31.159465044555866,33.721301872793404 31.73350303932585,33.846947171675936 39.74918200015661,33.679099333148756L48.30218315415581,33.5L48.50468020944614,27.5C48.654255844299065,23.068064889482944 48.2304741395806,20.817139533190513 46.883133648863954,18.88712165017105C45.87990966013407,17.450038557765126 45.345794775568315,15.987538557765125 45.696211683162275,15.637121650171046C46.046628590756235,15.286704742576967 47.84447121451183,14.999999999999995 49.69141751373026,14.999999999999996C52.37596770840689,15.0 53.245108300085114,15.51448436243695 54.0247508470637,17.56509966117453C54.56113788117867,18.97590447482052 55.00689074853268,27.18840447482052 55.01531277451707,35.81509966117453C55.02373480050145,44.44179484752854 55.42342327100771,52.120151882721856 55.90350937564208,52.87811529493745C56.383595480276455,53.63607870715305 57.27670473174377,53.947021059684324 57.88819660112501,53.5690983005625C58.49968847050625,53.19117554144068 58.99999999999999,53.19641448934192 59.0,53.5807404070097C59.00000000000001,53.96506632467748 58.212500000000006,54.877312454804496 57.25,55.607954029514175C56.2875,56.33859560422386 53.1375,56.95070477360077 50.25,56.96819662812953C45.87519333058475,56.99469826686645 45.01316080196368,56.70826888980508 45.078947368421055,55.25C45.13117670738841,54.092249652890345 45.336582345934175,53.9470027290972 45.68588713731889,54.820819306693515C46.04672000005573,55.723474366050304 46.580802725316794,55.40687977569446 47.37284813264343,53.820819306693515C48.0102808598097,52.544368688012085 48.52465796380567,48.873324097793116 48.515908363745595,45.66294243954026L48.5,39.82588487908052L39.31812833577773,39.571392861576385L30.136256671555465,39.31690084407225L30.318128335777732,46.408450422036125C30.439862923553306,51.15513192547499 30.88255803950704,53.427590096286934 31.656964578556245,53.28101180714792C32.29329509676218,53.16056830107927 32.701125274895794,53.83060559026393 32.56325386329762,54.7699835608916C32.37796858831951,56.032412831604994 31.16317395547121,56.55100552969794 27.90628928474137,56.758029737926655z"/></svg>