<svg version="1.1" xmlns="http://www.w3.org/2000/svg" xmlns:xlink="http://www.w3.org/1999/xlink" width="80" height="80" viewBox="0 0 80 80"><path stroke="none" fill="black" fill-rule="evenodd" d="M28.0,56.590076413623464C25.525,56.84596231799396 22.825,56.59287572217116 22.0,56.02766175623945C20.692776725472054,55.13207284550713 20.68700389994829,54.8797376096033 21.95508151586017,54.06423565835912C23.14893310468474,53.296468537509575 23.36390376267337,50.199586203257525 23.15249344504135,36.81423565835912C22.949801750700807,23.9809008822861 22.58599557079643,20.263112135805653 21.447411929181186,19.389757401384607C20.651335368131534,18.77912397214614 20.0,17.54162397214614 20.0,16.639757401384607C20.0,15.338715186389745 21.03282103225677,15.0 25.0,15.0L30.0,15.0L30.125,23.0C30.19375,27.4 30.30625,31.5625 30.375,32.25C30.460968267741713,33.109682677417126 32.6857770064641,33.527389123502324 37.5,33.587714283730364C41.35,33.63595713978206 45.4,33.27733230821555 46.5,32.79077021358256C48.07353861905749,32.094748171333016 48.546287734565745,30.81971858548893 48.71707820043843,26.811192025160594C48.87460393473904,23.113994487506822 48.40262039636511,20.969798706511625 46.99662321693415,18.99525774547944C45.93097996576566,17.498699800653903 45.345794775568315,15.987538557765125 45.696211683162275,15.637121650171046C46.046628590756235,15.286704742576967 48.00208333333316,14.999999999999996 50.04166666666656,15.0C53.39500000000001,15.000000000000007 53.809831460674154,15.299157303370773 54.375,18.12500000000002C54.71875000000001,19.84375000000003 55.00000000000001,27.906945639293905 55.0,36.04321253176419C55.0,44.17947942423447 55.27314496188294,51.54822942423447 55.60698880418431,52.41821253176417C55.94083264648568,53.288195639293875 56.9268409822829,54.0 57.79811843928924,54.0C59.08154100291274,53.99999999999999 59.01377363492161,54.27870851975072 57.44112963510493,55.468196628129526C56.323874232899065,56.313246121276585 53.27174092626416,56.9498915709154 50.25,56.96819662812953C46.14807130474189,56.99304523073552 45.0,56.65907377621965 45.0,55.44098300562506C45.0,54.58352365871883 45.427422019500185,54.14612734684134 45.949826710000416,54.46899120145285C46.47223140050065,54.791855056064364 47.313940302530455,54.255912703533085 47.82029093673332,53.278008195827795C48.32664157093619,52.30010368812251 48.62650185535967,49.025 48.486647124341054,46.0C48.34679239332244,42.975 48.17877237018695,40.275 48.113269295151085,40.0C48.04776622011522,39.725 44.036217590971134,39.44149038865264 39.19871678594202,39.36997864145031L30.40326077679816,39.23995728290062L30.45163038839908,46.36997864145031C30.482485446085352,50.918231419196644 30.89227315345741,53.429591998097386 31.583333333333332,53.30555555555556C32.17916666666667,53.19861111111111 32.666666666666664,53.76111111111111 32.666666666666664,54.55555555555556C32.666666666666664,55.35 32.62916666666666,56.028086595822806 32.58333333333333,56.06241465738401C32.5375,56.09674271894521 30.475,56.33419050925297 28.0,56.590076413623464z"/></svg>