<svg version="1.1" xmlns="http://www.w3.org/2000/svg" xmlns:xlink="http://www.w3.org/1999/xlink" width="80" height="80" viewBox="0 0 80 80"><path stroke="none" fill="black" fill-rule="evenodd" d="M27.5,56.565168339100325C25.3,56.7665821863856 22.825,56.496815883977455 22.0,55.96568766708223C20.769826486707842,55.17371207364393 20.740626497335292,54.84472345374221 21.837673519033544,54.13679779094901C22.57339395450199,53.662036575970966 23.225732603427282,51.974536575970966 23.28731496108975,50.38679779094901C23.34889731875221,48.799059005927056 23.30944423518712,41.087500000000006 23.199641442056205,33.25C23.03276542708135,21.33872952980276 22.753817944231287,19.0 21.5,19.0C20.666666666666668,19.0 20.0,18.11111111111111 20.0,17.0C20.0,15.266666666666666 20.666666666666664,15.0 25.0,15.0L30.0,15.0L30.15753424657534,22.75C30.24417808219178,27.012500000000003 30.29417808219178,31.0625 30.268645357686456,31.75C30.24311263318113,32.4375 31.184722222222227,33.045864786963115 32.361111111111114,33.10192174880693C33.5375,33.15797871065074 36.525,33.30644593039334 39.0,33.431848903790495C41.475,33.557251877187646 44.661136249472634,33.268986322838785 46.080302776605855,32.79125878301525C48.38202274334441,32.01644131371237 48.6732243332809,31.368679048634974 48.7774838102205,26.79152472923112C48.859465324748086,23.19240784944333 48.32180689764747,20.85630661295929 46.97672605011037,18.967314751370488C45.922026240694954,17.486125453304872 45.345794775568315,15.987538557765125 45.696211683162275,15.637121650171046C46.046628590756235,15.286704742576967 48.21155513656601,14.999999999999996 50.50715956273955,15.0L54.68098579214599,15.000000000000007L54.908641094124334,33.09580388916214C55.03385151021242,43.04849602820131 55.37877466886252,51.823496028201305 55.67513700223565,52.595803889162134C55.97149933560878,53.368111750122964 56.9268409822829,54.0 57.79811843928924,54.0C59.08154100291274,53.99999999999999 59.01377363492161,54.27870851975072 57.44112963510493,55.468196628129526C56.323874232899065,56.313246121276585 53.27174092626416,56.9498915709154 50.25,56.96819662812953C46.14807130474189,56.99304523073552 45.0,56.65907377621965 45.0,55.44098300562506C45.0,54.58352365871883 45.45084267347744,54.16060210703804 46.00187260772765,54.50115733522328C46.55290254197786,54.84171256340853 47.43598066166483,53.983483281480915 47.964268429254254,52.59398115316192C48.49255619684368,51.20447902484292 48.88344782605782,48.58990057652372 48.832916494174555,46.78380682356369C48.7823851622913,44.977713070603656 48.59142656840345,42.6 48.40856406331267,41.5C48.10748803230099,39.688892611153804 47.2427905203018,39.486968705353064 39.253123766125704,39.36202430505527L30.43016075092199,39.22404861011054L30.367884061427503,46.11202430505527C30.32572686179882,50.77472826004034 30.686996531653485,53.0 31.486137019299843,53.0C32.1354283253516,53.0 32.666666666666664,53.675 32.666666666666664,54.5C32.666666666666664,55.325 32.40416666666666,56.04476630240814 32.08333333333333,56.099480672018096C31.7625,56.15419504162805 29.7,56.36375449181505 27.5,56.565168339100325z"/></svg>