<svg version="1.1" xmlns="http://www.w3.org/2000/svg" xmlns:xlink="http://www.w3.org/1999/xlink" width="80" height="80" viewBox="0 0 80 80"><path stroke="none" fill="black" fill-rule="evenodd" d="M26.666506606830513,56.44266221659258C24.14322933166955,56.57249935606248 21.617159673614562,56.21715967361456 21.053018477819435,55.65301847781943C20.352070124376695,54.9520701243767 20.55510265893176,54.04409980935319 21.69426398464189,52.78534071320438C23.11979175950648,51.21015025253368 23.33417690204901,48.66636786656487 23.174495313681007,35.22168710683569C23.016927426314492,21.954973234065225 22.754496717223542,19.521687780860557 21.493884935407813,19.638888888888893C20.546843453117408,19.726936861051552 20.000000000000004,18.90331401008661 20.0,17.388888888888893C20.0,15.188888888888888 20.395348837209298,15.0 25.0,15.0L30.0,15.0L30.15753424657534,22.75C30.24417808219178,27.012500000000003 30.29417808219178,31.0625 30.268645357686456,31.75C30.24311263318113,32.4375 31.40972222222223,33.034634535640116 32.861111111111114,33.07696563475581C34.3125,33.11929673387151 37.075,33.25463863863796 39.0,33.377725423125696C40.925,33.50081220761343 43.90382019359817,33.23622816673884 45.61960043021816,32.78976088784882C48.57705544884097,32.02019444430166 48.74518023739551,31.712600581233744 48.85424122297739,26.871801581335653C48.936008566867756,23.242462689733784 48.39526574747846,20.95947005458178 46.98464079275923,18.9784299824569C45.89308835674165,17.445485942765806 44.99999999999999,15.923225725930289 45.0,15.595629500600186C45.0,15.268033275270083 47.178221803232844,15.000000000000002 49.840492896072995,15.000000000000004L54.68098579214599,15.000000000000007L54.908641094124334,33.095803889162156C55.03385151021243,43.04849602820133 55.378774668862526,51.82349602820133 55.67513700223566,52.59580388916215C55.9714993356088,53.368111750122964 56.92684098228291,54.0 57.79811843928924,54.0C59.08154100291272,54.0 59.01377363492159,54.27870851975074 57.44112963510492,55.46819662812953C56.37350833579721,56.27570477360077 53.3625,56.95070477360077 50.75,56.96819662812953C48.1375,56.98568848265829 46.0,56.55 46.0,56.0C46.0,55.45 46.0,54.775 46.0,54.5C46.0,54.225 46.319930451787535,54.03329980444339 46.71095655952785,54.073999565429745C47.10198266726817,54.1146993264161 47.7453542990935,53.32719932641611 48.140671296917475,52.323999565429745C48.53598829474145,51.32079980444338 48.88416709442124,48.475 48.91440196287256,46.0C48.94463683132388,43.525 48.63876519949855,41.0233681771454 48.234687225482936,40.44081817143423C47.83060925146732,39.85826816572306 44.8,39.43754263891423 41.5,39.50587255630351C38.2,39.574202473692786 34.53258858853627,39.29161482853321 33.350196863413935,38.87790001150446C31.694561752970994,38.29859895397007 31.083844816496583,38.57137497103508 30.693365348340045,40.06457075110825C30.414499740171745,41.13095447491908 30.310162491378268,44.30199860963767 30.46150479546565,47.11133549492734C30.612847099553033,49.920672380217006 31.222167399311264,52.51927301521663 31.815549906039497,52.8860035727043C32.435144859500426,53.26893431320106 32.54531935346959,54.11765475136309 32.074355330879726,54.87969054739185C31.623315807813626,55.60948782598235 29.189783881991477,56.312825077122675 26.666506606830513,56.44266221659258z"/></svg>