<svg version="1.1" xmlns="http://www.w3.org/2000/svg" xmlns:xlink="http://www.w3.org/1999/xlink" width="80" height="80" viewBox="0 0 80 80"><path stroke="none" fill="black" fill-rule="evenodd" d="M26.99518394262848,56.34923545713066C24.01392575339788,56.684999605988246 22.107004978244284,56.41883340200667 21.3331099412476,55.558928506130584C20.434452401129477,54.560395137235446 20.533588052413954,53.89498337615747 21.76437907498572,52.664192353585705C23.11080885694852,51.317762571622914 23.333022988892264,48.58001707531402 23.17515406914593,35.283016580547596C23.0170019867032,21.962165827477587 22.754722378318018,19.521666800785095 21.493884935407813,19.638888888888893C20.546843453117408,19.726936861051552 20.000000000000004,18.90331401008661 20.0,17.388888888888893C20.0,15.188888888888888 20.395348837209298,15.0 25.0,15.0L30.0,15.0L30.17828131188898,22.25C30.27633603342792,26.2375 30.353105590639533,30.2875 30.348880327914785,31.25C30.34336761578227,32.505776450649314 31.210862308722312,33.044264930995 33.420599016025804,33.156738037560174C35.114269557211614,33.24294395821827 38.16446154947666,33.29750985466333 40.19880344328147,33.27799558521586C42.23314533708628,33.25848131576839 45.04564533708628,32.95437578616959 46.44880344328147,32.60220551944075C48.780960354903314,32.01687139494464 48.99809088338828,31.5127792401779 48.97776415441119,26.730947971785064C48.96226276438318,23.08427016036824 48.36326756294356,20.74283792874946 47.0,19.0C45.92445943014769,17.625 45.03446556066266,16.1625 45.02223584558881,15.75C45.01000613051497,15.3375 47.19526765798094,14.999999999999998 49.87837257329098,14.999999999999996L54.75674514658196,14.999999999999993L54.90500439184581,33.25C55.042996743591644,50.23619478926797 55.19080136063717,51.595594651323225 57.03937940325949,52.88043613986874C58.92238180976106,54.18920404640098 58.93397843671498,54.33032491724243 57.262747584704655,55.59863276799827C56.2932364131171,56.334401036541706 53.3625,56.95070477360077 50.75,56.96819662812953C46.61098678512424,56.995909170539946 46.0,56.73515112128225 46.0,54.94098300562506C46.0,53.80852365871883 46.39883944901739,53.128462346797136 46.8863098867053,53.429735645799056C47.37378032439321,53.73100894480097 48.04263571691161,52.970066592269696 48.37265520341285,51.738752640174C48.70267468991408,50.5074386880783 48.9788352408967,48.007916345659794 48.98634531670754,46.18425854591066C48.99385539251839,44.36060074616152 48.55521053981809,42.03742038320945 48.011578977373546,41.021635517128274C47.193745999948334,39.493500620554144 45.830656983694645,39.180738239559055 40.11357042825777,39.20942814880094C36.313297288688645,39.228498962302076 32.70808674887055,38.93762167778543 32.10199145088423,38.56303418320838C31.495896152897902,38.18844668863133 30.966560453826407,38.471023658718835 30.925689897392015,39.19098300562506C30.884819340957623,39.91094235253128 30.64372846507567,41.625 30.38993239543212,43.0C30.136136325788566,44.375 30.445286212798578,47.66178965916359 31.076932144343257,50.30397702036352C31.708578075887935,52.94616438156346 32.0600017259527,55.27333160738064 31.857873588931632,55.475459744401704C31.655745451910562,55.677587881422774 29.46753511107414,56.0707869521508 26.99518394262848,56.34923545713066z"/></svg>