<svg version="1.1" xmlns="http://www.w3.org/2000/svg" xmlns:xlink="http://www.w3.org/1999/xlink" width="80" height="80" viewBox="0 0 80 80"><path stroke="none" fill="black" fill-rule="evenodd" d="M26.25,60.00011044898142C24.86650957244431,60.000042535599846 24.0,59.39179268292813 24.0,58.42071396908929C24.0,57.5521066520884 23.774039735701695,47.847123935204706 23.4978660793371,36.85408570934776L22.995732158674205,16.866743480516938L25.7478660793371,17.18337174025847L28.5,17.5L28.5,26.75007687222668L28.5,36.00015374445336L39.0970347703706,36.00007687222668L49.6940695407412,36.0L49.76476155525616,27.75C49.80364216323939,23.2125 49.87247651657262,18.9375 49.91772678488556,18.25C49.9629770531985,17.5625 51.125,17.0 52.5,17.0L55.0,17.0L55.15,37.0C55.232499999999995,48.0 55.345,57.55633723063553 55.4,58.23630495696784C55.455,58.91627268330015 54.66470110041474,59.633473783714884 53.64378022314387,59.830085180111695C52.622859345873,60.0266965765085 51.32897561286749,59.728975612867465 50.76848303868718,59.16848303868718C50.207990464506864,58.60799046450689 49.693289364092124,54.50649618396918 49.6247028155433,50.05405130415894L49.5,41.95869697723123L38.86623006069821,41.711535262855996L28.23246012139641,41.464373548480765L28.366230060698207,50.73229722322179C28.4959045340385,59.71647653699661 28.431114580290085,60.0002175164853 26.25,60.00011044898142z"/></svg>