<svg version="1.1" xmlns="http://www.w3.org/2000/svg" xmlns:xlink="http://www.w3.org/1999/xlink" width="80" height="80" viewBox="0 0 80 80"><path stroke="none" fill="black" fill-rule="evenodd" d="M24.59021687070546,56.60375413895414C23.649077654682557,56.96490314207645 22.770452357387192,56.56538336861238 22.40364461198952,55.60949770659996C22.06637680586712,54.73059189238039 21.387583574755766,54.26046017731975 20.895215209519847,54.564760562020766C20.402846844283932,54.86906094672179 20.0,54.80358551065808 20.0,54.419259592990315C20.0,54.034933675322556 20.774379542108505,53.15424505121093 21.720843426907784,52.46217376163115C23.241270354014766,51.350410448678225 23.414837592517475,49.357681256273395 23.211150072322628,35.35193116301578C23.025001057382113,22.552145585240066 22.716715859677333,19.55128295073857 21.610008974654924,19.76634830555772C20.830277910320273,19.91787274286277 20.032030416727686,18.947888334561274 19.758374200722486,17.516348305557717C19.292822172312945,15.080970173166218 19.449858678996616,14.999999999999993 24.63867187148241,14.999999999999996L30.0,15.0L30.158443750407848,22.25C30.24558781313217,26.2375 30.261661932498253,30.22672281305262 30.19416401566582,31.11493958456138C30.101293010679832,32.33704521517238 31.319415885841963,32.877683389167174 35.20186467437094,33.33750201667604C38.02359795349118,33.67169458283034 42.2825238341251,33.45405002646891 44.66614440911297,32.85384744698398L49.0,31.76257002973864L48.968196628129526,26.63128501486932C48.95011686985557,23.714223481851462 48.30284523845082,20.662374569545022 47.468196628129526,19.558870364895075C46.66068848265829,18.491249065587365 46.0,17.00287504189746 46.0,16.251372534473063C46.0,15.262312252857352 47.17359189033137,14.969916565056627 50.25,15.192502169577988C52.729608684600464,15.371907885062747 54.55207033280587,16.020703328058687 54.625,16.75C54.69375,17.4375 54.80625,25.875 54.875,35.5C54.98095238095238,50.333333333333336 55.22857142857143,53.0 56.5,53.0C57.325,53.0 58.0,53.360000000000014 58.0,53.800000000000026C58.0,54.240000000000045 57.45999999999999,55.14000000000004 56.799999999999976,55.800000000000026C56.139999999999965,56.460000000000015 53.43999999999996,57.0 50.799999999999976,57.0C47.10303030303034,57.0 46.0,56.638888888888886 46.0,55.42857142857145C45.99999999999999,54.56428571428575 46.675,53.182142857142885 47.5,52.35714285714286C48.3326214314986,51.52452142564423 49.0,49.0799969812916 49.0,46.86282997448207C49.0,44.665957889018664 48.538710758442356,42.006590259697575 47.97491279653857,40.95312413154632C47.12582484750784,39.36658878632289 46.05274995546203,39.09418413843322 41.72491279653857,39.36653491775477C38.851210758442356,39.54737697832068 35.2625,39.345300011956994 33.75,38.917474992502136C31.54719777442076,38.2943914189394 30.98055109111029,38.47393808557795 30.902257461658508,39.81980566038302C30.848499065570685,40.74391254717236 30.735999065570688,43.86210130565609 30.652257461658508,46.749114012569095C30.568515857746327,49.6361267194821 30.8375,51.9986267194821 31.25,51.999114012569095C31.6625,51.99960130565609 32.0,52.9 32.0,54.0C32.0,55.5430993052013 31.333333333333336,56.0 29.081787468235788,56.0C27.476770575765475,56.0 25.455563806876828,56.271689362529365 24.59021687070546,56.60375413895414z"/></svg>