<svg version="1.1" xmlns="http://www.w3.org/2000/svg" xmlns:xlink="http://www.w3.org/1999/xlink" width="80" height="80" viewBox="0 0 80 80"><path stroke="none" fill="black" fill-rule="evenodd" d="M51.13975740138463,57.0C46.89930144887719,57.0 46.005564624196964,56.6938031481581 46.03180337187046,55.25C46.04929522639921,54.2875 46.724295226399214,52.6264916642028 47.53180337187046,51.558870364895114C48.339311517341706,50.491249065587425 49.0,48.09916541124723 49.0,46.24312891080578C49.0,44.38709241036433 48.51944562110449,41.97059302130548 47.9321013802322,40.873130268452776C47.04550331798305,39.21650663556457 46.11485421845451,38.95582895417536 42.45038139835964,39.33768360480333C40.02277964920202,39.59065069264884 36.45333402809754,39.440548336487694 34.51828001812744,39.00412281333411C32.097209658465296,38.458082809870064 30.962174903723955,38.567604221678074 30.878711165742107,39.35531093107289C30.812002306900265,39.9848899189828 30.699502306900268,43.08645339556979 30.628711165742107,46.247674212377305C30.557920024583947,49.40889502918482 30.8375,51.996395029184825 31.25,51.997674212377305C31.6625,51.998953395569785 32.0,52.9 32.0,54.0C32.0,55.733333333333334 31.333333333333336,56.0 27.0,56.0C23.674833479742432,56.0 21.994870730514215,55.58129163006439 21.984687225482936,54.75C21.974478709138232,53.916666666666664 21.646249633977252,54.0 21.0,55.0C20.223933619139217,56.200877091542154 20.027571947934053,56.22286114936468 20.015312774517056,55.110242598615386C20.006890748532673,54.345876027853855 20.7743795421085,53.15424505121094 21.720843426907784,52.46217376163114C23.241270354014777,51.350410448678176 23.414837592517483,49.35768125627336 23.211150072322635,35.35193116301575C23.025095495584644,22.558639247014323 22.716373589332743,19.551341723986333 21.611144968354516,19.76608743584794C20.85793739099317,19.912435525564305 19.98014782019054,19.032087105930295 19.660501477681997,17.809757614439025C19.34085513517346,16.587428122947756 19.322806025736465,15.343860640930199 19.62039234559979,15.04627432106668C19.917978665463114,14.74868800120316 22.19240298678914,14.583809161797188 24.674668615213186,14.679876900164523C27.156934243637227,14.775944638531858 29.343558384331047,15.01022505099754 29.53383337231056,15.200500038977154C29.724108360290078,15.390775026956767 30.01110066300043,19.423170009460595 30.171594045000234,24.161377777874552L30.46340019409079,32.776300993172654L35.06251177244331,33.320997726833745C37.592023140537194,33.620580930347344 41.31275809686676,33.4933031258663 43.33081167539791,33.03815816132031C45.34886525392906,32.583013196774324 47.006890748532676,32.50073194316298 47.015312774517064,32.85531093107289C47.02373480050145,33.2098899189828 47.46684405196877,32.825 48.0,32.0C48.53315594803123,31.175 48.97626519949855,28.448508335797214 48.984687225482936,25.941129635104918C48.993109251467324,23.433750934412622 48.33931151734171,20.508750934412625 47.53180337187047,19.441129635104918C46.72429522639923,18.37350833579721 46.04929522639923,16.911625976310102 46.03180337187047,16.192502169578002C46.0093440314563,15.269155457039648 47.24867683373406,14.975349143219871 50.25,15.192502169578002C52.72960868460048,15.371907885062754 54.55207033280587,16.020703328058683 54.625,16.75C54.69375,17.4375 54.80625,25.927484113782445 54.875,35.61663136396099C54.99629518291978,52.71113155373688 55.05927707328352,53.21776142503958 57.0,52.71025097907092C58.1,52.42259451720284 58.98568848265829,52.482610403420395 58.96819662812954,52.84361961510993C58.95070477360079,53.20462882679947 58.33859560422387,54.2875 57.607954029514175,55.25C56.645883871222296,56.517369062216105 54.8620256972767,57.0 51.13975740138463,57.0z"/></svg>