<svg version="1.1" xmlns="http://www.w3.org/2000/svg" xmlns:xlink="http://www.w3.org/1999/xlink" width="80" height="80" viewBox="0 0 80 80"><path stroke="none" fill="black" fill-rule="evenodd" d="M51.58144760547299,57.0C47.07303748931654,57.0 46.15108249044274,56.68574228911771 45.709890124308444,54.99862008926846C45.422035192321,53.89786113836611 45.52874852426246,53.20875057074566 45.94703086195614,53.46726327233411C46.36531319964982,53.725775973922566 47.223346757493466,52.805223074245134 47.85377210160868,51.42159016193982C48.48419744572391,50.0379572496345 49.0,47.547484162914756 49.0,45.88720552478483C49.0,44.22692688665491 48.51003007268101,41.95299990814735 47.911177939291136,40.8340344614347C46.99319708588402,39.11877154687877 46.169447852009895,38.89183525654496 42.661177939291136,39.387701675607104C40.37253007268101,39.71118409011458 36.8125,39.578674847111564 34.75,39.093236691155965C32.097235905208635,38.468871643708326 30.968901135197004,38.54555358127289 30.893714065992892,39.35531093107289C30.83525680228898,39.9848899189828 30.722756802288984,42.975 30.643714065992892,46.0C30.559069328696243,49.23939102213274 31.017552542022425,52.046911100176544 31.759191221919714,52.83061979334828C32.451746393975554,53.56246067968984 32.76268874650683,54.57496067968984 32.450174227544764,55.08061979334828C32.1376597085827,55.58627890700673 29.658523658718835,56.0 26.940983005625053,56.0C23.663030080867443,56.0 21.994846044883293,55.57927651264582 21.984687225482936,54.75C21.974478709138232,53.916666666666664 21.646249633977252,54.0 21.0,55.0C20.223933619139217,56.200877091542154 20.027571947934053,56.22286114936468 20.015312774517056,55.110242598615386C20.006890748532673,54.345876027853855 20.7743795421085,53.15424505121094 21.720843426907784,52.46217376163114C23.241270354014777,51.350410448678176 23.414837592517483,49.35768125627336 23.211150072322635,35.35193116301575C23.025095495584644,22.558639247014323 22.716373589332743,19.551341723986333 21.611144968354516,19.76608743584794C20.85793739099317,19.912435525564305 19.98014782019054,19.032087105930295 19.660501477681997,17.809757614439025C19.34085513517346,16.587428122947756 19.234968097619813,15.431698569046915 19.425196949785004,15.241469716881603C19.61542580195019,15.051240864716291 21.87329196384603,14.72429604894748 24.442677309553524,14.514925681839799C27.45140146872276,14.26975510717944 29.25494614092582,14.55530284004821 29.509446196911107,15.317126143549281C29.726783739250276,15.967706764597176 30.089084105562936,20.1 30.314558122050347,24.5L30.724510879300187,32.5L35.01585939451046,33.08763737357063C37.37610107787611,33.41083792903447 41.03808613003356,33.35876130041058 43.153603954860365,32.97191153218421C45.26912177968717,32.58506176395783 47.006890748532676,32.545624945851046 47.015312774517064,32.88427415861358C47.02373480050145,33.22292337137611 47.46684405196877,32.825 48.0,32.0C48.53315594803123,31.175 48.97626519949855,28.394642857142873 48.984687225482936,25.821428571428605C48.993109251467324,23.248214285714337 48.41232075111748,20.548214285714337 47.69404611359439,19.821428571428605C46.9757714760713,19.094642857142873 46.08050744836557,17.68803738525909 45.70457049647055,16.69563863390909C45.097656834679235,15.093507326776667 45.54209205985442,14.925389623672153 49.669963940778665,15.195638633909091C53.410045043880956,15.440499241378564 54.38535551466224,15.890987590742139 54.658922638572804,17.5C54.84594657609509,18.6 55.025570256176195,27.083087816547756 55.05808637208637,36.35130625899501C55.11483348259978,52.526196816921015 55.19513473840103,53.182233847525616 57.05860329141608,52.694925874104946C58.126371481137234,52.41569821996815 59.0,52.3996940577606 59.0,52.65936106919927C59.0,52.91902808063794 58.5341673086804,54.001899253838474 57.964816241512004,55.065741454089334C57.1394584276091,56.607936636235195 55.84558539037357,57.0 51.58144760547299,57.0z"/></svg>