<svg version="1.1" xmlns="http://www.w3.org/2000/svg" xmlns:xlink="http://www.w3.org/1999/xlink" width="80" height="80" viewBox="0 0 80 80"><path stroke="none" fill="black" fill-rule="evenodd" d="M51.04520279253242,57.0C47.07316073261285,57.0 46.14191088239136,56.65067000605131 45.709890124308444,54.99862008926846C45.422035192321,53.89786113836611 45.52874852426246,53.20875057074566 45.94703086195614,53.46726327233411C46.36531319964982,53.725775973922566 47.223346757493466,52.805223074245134 47.85377210160868,51.42159016193982C48.48419744572391,50.0379572496345 49.0,47.547484162914756 49.0,45.88720552478483C49.0,44.22692688665491 48.555170531735065,42.03734562742251 48.01149007052237,41.02146939315728C47.16161080291427,39.43345545564695 45.87324384017538,39.19725157947305 38.824752314938785,39.33721084724662L30.62652448883283,39.5L30.563262244416414,45.61954565750404C30.52828062894169,49.00342169676892 31.011163172596497,52.21757541770761 31.643444497933306,52.80943449290406C32.27233897179662,53.39812324074685 33.1575035249502,53.56932769487003 33.61047683827459,53.18988883540002C34.06345015159898,52.810449975930005 33.83130000558001,53.2875 33.094587624899106,54.25C32.087117083393224,55.56624012522117 30.298283343838246,56.0 25.877555284557825,56.0C20.940716813734348,56.0 20.002450846271234,55.719908304672124 20.015312774517064,54.25C20.027138798776498,52.89847859994578 20.224725713388185,52.8062640525502 20.883055987370902,53.845021017529604C21.507453334932823,54.83023637117083 21.94561846632447,54.42897238436425 22.520999382984648,52.345021017529604C22.95303150948698,50.78025945788832 23.350047063702753,42.86408934933277 23.40325617013081,34.753531887406155C23.48863808053844,21.73893838908274 23.30817171576931,20.006648978123884 21.86663136396099,20.003531887406158C20.96827861413954,20.00158934933277 19.996367252712982,19.094110311175953 19.70682833856864,17.986911802613225C19.370807344477527,16.70196554727851 19.807627423403307,15.638138437061027 20.914501313413126,15.045757508433343C21.868260363721934,14.535321155197135 24.30065390570148,14.203710844021185 26.3198202955899,14.308845705820119L29.991031913568836,14.5L30.197526852430048,20.0C30.311099068803713,23.025 30.401848151770302,26.85 30.39919148124469,28.5C30.396534810719075,30.15 30.86812990767854,31.84617109572008 31.447180585599057,32.26926910160018C32.02623126351958,32.69236710748028 36.00215321508999,32.93732485125513 40.28256270019999,32.81361964332207C47.53562358715034,32.60400385579228 48.10533557418376,32.42849099012636 48.65613036171965,30.23394975823938C48.98118309044546,28.93883652937696 49.00065156528956,26.041524797203685 48.69939363915097,23.79547924229877C48.39813571301237,21.549433687393858 47.74720658351989,19.439114039960987 47.25288446250101,19.105880025781282C46.758562341482126,18.772646011601577 46.06356380990047,17.712500000000002 45.708443281208446,16.750000000000004C45.155116167211474,15.250291297763965 45.69344619748887,15.000000000000005 49.4723678019638,15.0C51.89764681707127,14.999999999999996 54.18544673564191,15.491042126996366 54.55636762100967,16.0912047266586C54.92728850637742,16.691367326320833 55.230769230769226,25.280273250469644 55.230769230769226,35.17766233587818C55.23076923076923,52.31333574256174 55.32079167808411,53.14937381963616 57.11538461538461,52.680077224329516C58.151923076923076,52.409016327569205 59.0,52.562967546277534 59.0,53.02219104368136C59.0,53.48141454108518 58.292857142857144,54.56428571428571 57.42857142857143,55.42857142857142C56.43542481142847,56.42171804571439 54.08636042702677,57.0 51.04520279253242,57.0z"/></svg>