<svg version="1.1" xmlns="http://www.w3.org/2000/svg" xmlns:xlink="http://www.w3.org/1999/xlink" width="80" height="80" viewBox="0 0 80 80"><path stroke="none" fill="black" fill-rule="evenodd" d="M51.59203900522047,56.7839248887629C48.51641755234921,57.03897934638125 45.9655699272493,57.07943670634437 45.92348872722066,56.873830133125395C45.88140752719202,56.66822355990643 45.69591068422346,55.71035664623963 45.511273520623874,54.74523699164363C45.326636357024285,53.78011733704763 45.52026387549889,53.20350676942717 45.9415568950119,53.46388017470928C46.362849914524915,53.72425357999139 47.223346757493466,52.805223074245134 47.85377210160868,51.42159016193982C48.48419744572391,50.0379572496345 49.0,47.43807615305216 49.0,45.64407661397905C49.0,43.850077074905954 48.4375,41.64420653228785 47.75,40.742142074827726C46.82502489705615,39.52848801751694 44.6131613142334,39.047118258970166 39.24348402669975,38.89086174635642C35.25240024138461,38.77472202315733 31.67880356576843,38.98786310089824 31.302158080886013,39.364508585780655C30.925512596003596,39.74115407066307 30.656475461508304,42.705195098741754 30.704297782007586,45.951266425955495C30.75212010250687,49.19733775316923 31.094311013376178,52.34358143078116 31.46472202838383,52.942919042870884C31.83513304339148,53.54225665496061 32.55194788712572,53.77691143448751 33.05764390334882,53.46437410848622C33.56333991957191,53.15183678248493 33.70910072243583,53.594496429256814 33.38155679860198,54.44806221242375C32.92831907850112,55.62918077811245 31.241412457123463,56.0 26.32158262438712,56.0C20.444819199619637,56.0 20.000000000000043,55.85714285714286 21.428571428571452,54.42857142857141C22.29285714285715,53.56428571428568 23.049605894209428,52.10178571428568 23.1102353204654,51.17857142857141C23.170864746721374,50.255357142857136 23.283364746721375,42.86408934933277 23.360235320465403,34.753531887406155C23.43710589420943,26.642974425479544 23.248508335797162,20.005474425479544 22.9411296351048,20.003531887406158C22.633750934412443,20.00158934933277 21.525737020808982,19.373695639932187 20.478876493763774,18.608212533182634C18.8616864802733,17.42569432397559 18.776178977303665,16.97461412114362 19.910191574101148,15.60821253318263C20.751646252516156,14.594321671625645 22.808406397515633,13.999999999999995 25.475708702041487,13.999999999999996L29.70652797319862,14.0L30.33714691554005,21.460212945693616C30.683987333827837,25.563330065825106 30.717473876620247,29.572676339220283 30.41156145507874,30.369871331016235C30.068777709636073,31.26315145268947 30.64974990583126,32.071447267942325 31.9256571261672,32.47640448845169C33.06432216680736,32.83780273324523 37.16320876530642,33.00418580653654 41.03429401172067,32.846144651321254C47.4672420750409,32.58351273322831 48.12314217485669,32.35754384200373 48.65988307321113,30.218997764709673C48.98287181061663,28.93210813228859 49.00065156528956,26.041524797203685 48.69939363915097,23.79547924229877C48.39813571301237,21.549433687393858 47.74720658351989,19.439114039960987 47.25288446250101,19.105880025781282C46.758562341482126,18.772646011601577 46.0747203351621,17.741573438795314 45.73323555956761,16.814607641767363C45.39175078397312,15.887641844739413 45.564813396884254,14.97839553437192 46.11781914381456,14.794060285395155C46.67082489074486,14.60972503641839 48.8955452071308,14.627917560963317 51.061642069116644,14.834488117717214L55.0,15.210070948178846L55.23201301005012,22.855035474089423C55.35962016557768,27.05976596334024 55.31213572024483,35.3375 55.126492020421566,41.25C54.800896063426904,51.61978953534971 54.86342696156128,52.0 56.89447901037145,52.0C58.05251555466715,52.0 58.993109251467324,52.3375 58.984687225482936,52.75C58.97626519949855,53.1625 58.56768275184776,54.13454264003688 58.0767262307034,54.9100947556375C57.55229077804986,55.738532727809456 54.8773908833621,56.51147795268676 51.59203900522047,56.7839248887629z"/></svg>