<svg version="1.1" xmlns="http://www.w3.org/2000/svg" xmlns:xlink="http://www.w3.org/1999/xlink" width="80" height="80" viewBox="0 0 80 80"><path stroke="none" fill="black" fill-rule="evenodd" d="M51.84203900522047,56.75657452283694C48.90391755234921,56.996586279196016 46.1625,56.84954363915914 45.75,56.429813100532776C45.3375,56.010082561906415 45.0,55.04010901919794 45.0,54.274316338958386C45.0,53.50852365871883 45.384197445723906,53.11941309109837 45.85377210160868,53.40962618869071C46.32334675749347,53.69983928628304 47.223346757493466,52.805223074245134 47.85377210160868,51.42159016193982C48.48419744572391,50.0379572496345 49.0,47.43807615305216 49.0,45.64407661397905C49.0,43.850077074905954 48.4375,41.64420653228785 47.75,40.742142074827726C46.8206014220311,39.5226840035554 44.704632036625824,39.06948049089838 39.5,38.97513684062662C35.65,38.90534841927613 32.00195136694757,38.88239282140085 31.39322525988349,38.92412440090378C30.676260248229013,38.97327636274254 30.368279531584413,41.37737235206664 30.518785109377028,45.75C30.698034481947595,50.95771903521579 31.10961759720577,52.571436194627076 32.3201339501062,52.81265011028664C33.219741299939514,52.991910647238065 33.653828468022766,53.7385336153944 33.33758529642832,54.56265011028664C32.93670140971653,55.607336773116415 31.020030828152763,56.0 26.32158262438712,56.0C20.444819199619637,56.0 20.000000000000043,55.85714285714286 21.428571428571452,54.42857142857141C22.29285714285715,53.56428571428568 23.049605894209428,52.10178571428568 23.1102353204654,51.17857142857141C23.170864746721374,50.255357142857136 23.283364746721375,42.86408934933277 23.360235320465403,34.753531887406155C23.43710589420943,26.642974425479544 23.248508335797162,20.005474425479544 22.9411296351048,20.003531887406158C22.633750934412443,20.00158934933277 21.59675934149766,19.425628428765847 20.63670387307195,18.72361873059077C19.54284615251614,17.923770436915554 19.138085546374985,16.80372977080351 19.55256304215145,15.723618730590772C20.04071957611257,14.451503194629929 21.372951393760733,14.000000000000005 24.638373600523032,14.0C27.718185417262468,13.999999999999995 29.24410668307434,14.472556882662102 29.65946492098094,15.554963100075106C29.98764735154786,16.41019280511642 30.311024193195433,20.46368137314574 30.378080124642214,24.5627154734736C30.476516165436678,30.57997120629407 30.822148452236217,32.11856100880474 32.17248236387614,32.550536901999116C33.09234766400802,32.844804587360294 37.04403264871074,32.975639341564715 40.95400455210441,32.84128080023116C47.48343408630584,32.61690971787272 48.11104487749198,32.405743313861535 48.65178042764208,30.251281276084555C48.97558525579413,28.961140079137472 48.94024932766674,26.027802402441893 48.57325614291456,23.732753105649927C48.20626295816237,21.43770380885796 47.52212407730099,19.32145055685365 47.052947518778154,19.029968101195905C46.58377096025532,18.73848564553816 46.04242190367999,17.6 45.84994961527741,16.5C45.53730655576756,14.713211011750852 45.97527221023597,14.531082602421694 49.958233243518904,14.791566576852198C52.4102615274543,14.951928194120907 54.61122306591584,15.277889732582512 54.84925888454454,15.515925551211321C55.08729470317325,15.75396136984013 55.28205128205128,24.060256410256642 55.282051282051285,33.97435897435912C55.282051282051285,50.87751252578838 55.39781279254964,52.0 57.14102564102564,52.0C58.16346153846154,52.0 58.993109251467324,52.3375 58.984687225482936,52.75C58.97626519949855,53.1625 58.56768275184776,54.13454264003688 58.0767262307034,54.9100947556375C57.55976525106339,55.726725483972196 54.935783724278906,56.50385008116277 51.84203900522047,56.75657452283694z"/></svg>