<svg version="1.1" xmlns="http://www.w3.org/2000/svg" xmlns:xlink="http://www.w3.org/1999/xlink" width="80" height="80" viewBox="0 0 80 80"><path stroke="none" fill="black" fill-rule="evenodd" d="M50.91666666666667,56.984687225482936C48.395833333333336,56.993109251467324 46.03333333333334,56.7 45.66666666666667,56.33333333333333C45.3,55.96666666666666 45.0,55.04010901919794 45.0,54.274316338958386C45.0,53.50852365871883 45.384197445723906,53.11941309109837 45.85377210160868,53.40962618869071C46.32334675749347,53.69983928628304 47.223346757493466,52.805223074245134 47.85377210160868,51.42159016193982C48.48419744572391,50.0379572496345 49.0,47.43807615305216 49.0,45.64407661397905C49.0,43.850077074905954 48.4375,41.64420653228785 47.75,40.742142074827726C46.8206014220311,39.5226840035554 44.704632036625824,39.06948049089838 39.5,38.97513684062662C35.65,38.90534841927613 31.992859099198512,38.88239282140085 31.373020220441138,38.92412440090378C30.629676403921497,38.97417113504747 30.351784415213814,41.127566805088264 30.55667690973088,45.25C30.727526967597612,48.6875 30.897167868399098,51.8375 30.93365668928974,52.25C30.970145510180384,52.6625 31.660876841647582,53.0 32.468615203661294,53.0C33.36320827706939,53.0 33.71225014159872,53.58628917447758 33.36162639947696,54.5C32.940083316674546,55.59852366485469 31.208752699720428,56.0 26.893011195815667,56.0C23.65185503811705,56.0 21.0,55.639999999999986 21.0,55.199999999999974C21.0,54.75999999999996 21.551460846847917,53.84853915315205 22.22546854855093,53.17453145144907C23.087937399823534,52.31206260017651 23.45820363157175,47.23204332301067 23.47546854855093,36.024644283841035C23.499429404956537,20.47062341124229 23.447665597754753,20.076298979871154 21.25,19.071551623541747C20.0125,18.50578090085858 19.00689074853268,17.695730126282207 19.015312774517064,17.271438791149812C19.023734800501447,16.847147456017417 19.40583399541573,15.908308163023452 19.8644220965488,15.185129251163225C20.401932982451715,14.337491607229888 22.247987405008903,13.982146334459326 25.059522648087967,14.185129251163225C29.260192422737756,14.488402775856635 29.45249826863473,14.64732678962666 30.2807277360233,18.5C30.75367333217426,20.7 30.952156566142616,24.615514026383075 30.721801589286315,27.201142280851276C30.458424073306627,30.157433289634458 30.726368903781257,32.064756293091975 31.44372373339366,32.34003116974016C32.071135889508994,32.580791804160846 35.68510951595818,32.77777777777777 39.474776236614076,32.77777777777778C44.15960776854262,32.777777777777786 46.82906107055172,32.31379607230541 47.81464443850278,31.328212704354378C48.884007906238786,30.258849236618403 49.105349206210974,28.537320932595634 48.658535187374554,24.764675714790016C48.325414308871125,21.951991160912495 47.67064348687909,19.39179544395303 47.20348891628113,19.075351899324534C46.73633434568318,18.75890835469604 46.06356380990047,17.712500000000002 45.708443281208446,16.750000000000004C45.14989700831553,15.23614556404407 45.71288399653532,15.000000000000007 49.880561581939254,15.000000000000004L54.69835357120101,15.0L55.33002108073649,24.616242316665403C55.67743821098101,29.905175590831377 55.67792443760279,38.23017559083137 55.33110158434046,43.11624231666541C54.74504402056295,51.37266583334375 54.834666538966566,52.00836240417797 56.60025728920447,52.118421052631575C57.645115780142014,52.18355263157895 58.91367269628964,52.15816173281573 59.419272658421406,52.061996833157764C59.92487262055318,51.96583193349979 59.69987262055319,52.700042459815585 58.919272658421406,53.69357578052618C58.13867269628963,54.68710910123678 57.05,55.83060925146732 56.5,56.234687225482936C55.95,56.63876519949855 53.4375,56.97626519949855 50.91666666666667,56.984687225482936z"/></svg>