<svg version="1.1" xmlns="http://www.w3.org/2000/svg" xmlns:xlink="http://www.w3.org/1999/xlink" width="80" height="80" viewBox="0 0 80 80"><path stroke="none" fill="black" fill-rule="evenodd" d="M48.93401699437494,57.0C47.38522634128117,57.0 45.808824458559315,56.49968847050626 45.4309016994375,55.88819660112501C45.052978940315676,55.27670473174376 45.22326878268447,54.48004629242408 45.809323571368154,54.117844513747926C46.39537836005183,53.755642735071774 47.353030242773684,52.201659417036986 47.9374388663056,50.664548251448394C48.52184748983752,49.1274370858598 49.0,46.795269384686115 49.0,45.48195335995131C49.0,44.16863733521651 48.52926485695344,42.06043218274504 47.95392190434099,40.79705302112583C46.9813875841278,38.66149267657347 46.366225066318236,38.51432053884133 39.20392190434099,38.70369367644157C34.966764856953446,38.81572519848443 31.275,38.92942108114431 31.0,38.95635119346353C30.725,38.983281305782754 30.399584385124193,41.14161915138405 30.276854189164872,43.752657517021966C30.15412399320555,46.36369588265988 30.27519740590226,49.5125 30.545906217379788,50.75C30.816615028857317,51.9875 31.690407485380707,53.0 32.487667231876216,53.0C33.36532516909327,53.0 33.710133753096855,53.59180439450651 33.36162639947696,54.5C32.940083316674546,55.59852366485469 31.208752699720428,56.0 26.893011195815667,56.0C23.65185503811705,56.0 21.0,55.639999999999986 21.0,55.199999999999974C21.0,54.75999999999996 21.551460846847917,53.84853915315205 22.22546854855093,53.17453145144907C23.087937399823534,52.31206260017651 23.45820363157175,47.23204332301067 23.47546854855093,36.024644283841035C23.499449351299077,20.457675383719067 23.44935579683529,20.077071936352617 21.243795982758655,19.068724884115785C20.00288377327591,18.501399454748338 19.102883773275913,17.466348680171965 19.243795982758655,16.76861205172385C19.384708192241394,16.070875423275734 19.95,15.169390748532678 20.5,14.76531277451706C21.05,14.361234800501443 23.368315896156616,14.023734800501444 25.651813102570266,14.01531277451706L29.803626205140528,14.0L30.49352385528345,19.94420113366395C30.87296756286206,23.21351175717912 30.89392851164137,27.206455234543046 30.540103741459696,28.81740886113934C30.09337040629594,30.85137241330671 30.31756477748962,31.907883430747116 31.27377437065703,32.27481548019216C32.03111798689723,32.56543549407491 35.7668411419613,32.76642237370533 39.57538138191052,32.72145299048198C43.97941901700219,32.66945226483252 46.99517465637923,32.14509215713338 47.86035924570515,31.280914563488665C48.860411903850924,30.282025875113224 49.0399994684195,28.47571245234636 48.538402923811034,24.461069325723447C48.16312936163144,21.457481196575547 47.49095181484656,18.999999999999993 47.04467504206686,18.999999999999996C46.59839826928716,19.0 46.00550738767918,18.12906224097984 45.72713974960469,17.06458275773298C45.420163844556065,15.890705093519871 45.820569147794465,14.899095681578721 46.74475111231693,14.544453786406827C47.58280499988316,14.222862335424304 49.717913359813835,14.231656371661265 51.48943635660732,14.563996089155626L54.710387259868206,15.168250120963556L55.36830037400962,25.20753309464458C55.730152586787405,30.729138730169147 55.73464454813065,38.74297967856422 55.37828251032796,43.01606853552252C54.78527167174329,50.126781062693055 54.900159410671115,50.87619942117731 56.73369285807378,51.857476742871725C57.83553058713668,52.44716239995549 59.08027701944685,52.60796517434362 59.49979604098526,52.21481624151201C59.91931506252367,51.821667308680404 59.66992903871503,52.47296066649781 58.945604876966044,53.662134814439575C58.22128071521706,54.85130896238134 56.3059551880933,56.08880896238134 54.68932592780213,56.412134814439575C53.07269666751096,56.73546066649781 50.482807647468725,57.0 48.93401699437494,57.0z"/></svg>