<svg version="1.1" xmlns="http://www.w3.org/2000/svg" xmlns:xlink="http://www.w3.org/1999/xlink" width="80" height="80" viewBox="0 0 80 80"><path stroke="none" fill="black" fill-rule="evenodd" d="M51.59733839738531,56.70487229368951C47.90892592769228,57.05483889146899 46.00799969810921,56.82196077781539 45.47185027572908,55.95445278935572C45.01106961579094,55.208894020217194 45.351834939638536,54.215900372022254 46.30853532738459,53.51634396873773C47.1962824317055,52.867207437301694 48.221731788109935,50.46555944297244 48.58731167495,48.17934842578383C48.97546875034954,45.75194742774593 48.77730102332367,42.87380746768491 48.110985353136684,41.26130056090227C46.978737877234856,38.521222611712574 46.90667645970162,38.50245334130037 38.7349841639889,38.81920730589297L30.5,39.13841461178593L30.214352804568037,44.78801716326355C29.970359760431332,49.61377336441569 30.246523784918963,50.67735041373321 32.10817314710553,52.081595157683786C33.31171595342327,52.9894291967996 33.97292329311047,54.234794037675734 33.58480334816255,54.862785300313206C33.18732196373747,55.505923690208355 30.300836026945,56.0 26.940983005625053,56.0C22.482095706654416,56.0 21.0,55.64658448232572 21.0,54.58333333333333C21.000000000000004,53.80416666666667 21.55260564802147,52.982464783992846 22.228012551158812,52.757329149613724C23.12975372581491,52.4567487580617 23.46186696052374,48.06402768548412 23.478012551158812,36.22410864867233C23.499263660678817,20.640199589769676 23.42732831569994,20.066996835760957 21.329988301884985,19.10799673285691C20.065639253860475,18.52987832612483 19.26889616944005,17.361240566918568 19.4209531733945,16.307883900464976C19.62613374905802,14.886520059397245 20.75602288098972,14.43637984072733 24.705823444073708,14.202427186124723L29.729717145128376,13.904854372249446L30.389042507620413,18.87509222979735C30.751671456991033,21.6087230514487 30.762955939866465,25.63019824572639 30.414119136232486,27.81170377263667L29.77987040235252,31.778077457928084L35.63993520117626,32.307225547514406C38.862970840529314,32.59825699678689 42.56839910405423,32.849433321841694 43.87422023123162,32.865395158747305C45.180041358409,32.881356995652915 46.92248988159838,32.220367261258744 47.746328060541344,31.39652908231581C48.884484007816425,30.258373135040767 49.083033716462104,28.683592532024495 48.57306973178011,24.83929585113817C48.20393947201847,22.05665575293341 47.20024020063111,18.709045677993 46.342626906474855,17.400162351270602C44.957129635655185,15.285626243502595 44.951984814871736,14.95565556265416 46.29646856195228,14.439728740452182C47.12869476662111,14.12037358122445 49.3149455148191,14.003289322211364 51.1548035579478,14.17954149820088L54.5,14.5L55.25075950492408,22.5C55.66367723263233,26.9 55.76245175689743,35.0 55.470258447735404,40.5C55.17806513857339,46.0 55.357307211720396,51.128072773717655 55.86857416583987,51.895717274928124C56.37984111995934,52.66336177613859 57.51856659569424,53.01498493449101 58.39907522302855,52.67710207126684C59.27958385036285,52.339219208042664 60.0,52.30578929146786 60.0,52.60281336776728C60.0,52.89983744406671 59.31272083345738,53.83013630939977 58.47271296323861,54.67014417961853C57.63270509301984,55.5101520498373 54.53878653838586,56.42577970116924 51.59733839738531,56.70487229368951z"/></svg>