<svg version="1.1" xmlns="http://www.w3.org/2000/svg" xmlns:xlink="http://www.w3.org/1999/xlink" width="80" height="80" viewBox="0 0 80 80"><path stroke="none" fill="black" fill-rule="evenodd" d="M52.44162108574667,56.398550213349466C49.55525416190209,56.771747898268146 46.87613969396698,56.605879812038374 46.0,55.99973957106525C44.68405350502085,55.08932753167594 44.70998179539389,54.8008917791891 46.211310485802215,53.649044708279256C47.15253125299343,52.92692277009538 48.221731788109935,50.46555944297244 48.58731167495,48.17934842578383C48.99930849969339,45.60286182550449 48.769599763978505,42.857978187796036 47.98308152124959,40.95915517914604C47.155443607710595,38.96106050354602 46.213776566389555,38.08772463126354 45.275292863866014,38.44785461824378C44.48391557368033,38.75153457820971 40.835729424234515,39.00137247344957 37.168212531764205,39.003049940999034L30.5,39.006099881998054L30.214352804568037,44.72185979836961C29.969807692891035,49.61517284124499 30.242311549328758,50.674173118476666 32.10817314710553,52.08159515768379C33.31171595342326,52.9894291967996 33.97292329311047,54.23479403767574 33.58480334816255,54.862785300313206C33.18732196373747,55.505923690208355 30.30083602694499,56.0 26.940983005625053,56.0C21.752767869646743,56.0 21.0,55.75714371138185 21.0,54.083333333333336C21.0,53.02916666666667 21.554854624052354,51.98171512531589 22.2330102756719,51.755663241442704C23.153393771496177,51.448868742834605 23.413232796552478,47.30759149241162 23.257823914705458,35.42232990810936C23.089983144352715,22.586310264670622 22.773956857980178,19.441159267421167 21.627438645648528,19.196439607229507C20.845234897818305,19.029481391205735 19.983011669385128,18.043038482073875 19.71138702690814,17.00434425360315C19.439762384431152,15.965650025132426 19.468581131454307,14.864752201879147 19.775428686959597,14.557904646373643C20.082276242464886,14.251057090868139 22.45723863455469,14.0 25.053122891603604,14.0L29.772912449874354,14.0L30.455106405188424,18.549195232352616C30.83031308061116,21.051252610146555 30.847873888160823,24.416140561772732 30.49413042196545,26.026724013744122C30.140386955770083,27.637307465715512 30.1080943473169,29.765214628547955 30.42236906984727,30.75540659781622C30.908216916782127,32.286177613848814 32.079833361718286,32.538507477420296 38.24688882813306,32.44056560326892C42.23609997265988,32.37721108699964 46.337986002021665,31.95964781098973 47.3621911156037,31.512647212135782C48.99782349032016,30.798797377461426 49.14198093002154,29.971587628225777 48.5470878113074,24.713427549566738C48.1745758803624,21.420857334007714 47.224089878340735,18.081232735483635 46.4348966957037,17.292039552846564C45.645703513066664,16.502846370209493 45.0,15.409874597211202 45.0,14.86321339062814C45.0,14.28859953755021 47.0039139908074,14.03623030995061 49.75,14.26500716191914L54.5,14.660730399724798L55.29502875508042,23.0803651998624C55.732294570374656,27.71116433993808 55.86964237548649,35.788646945748056 55.600246099773386,41.030326546106785C55.33084982406028,46.272006146465515 55.49017073463693,51.175078920183175 55.95429256772151,51.92604382103491C56.41841440080608,52.677008721886644 57.51856659569424,53.01498493449101 58.39907522302855,52.67710207126684C59.27958385036285,52.339219208042664 60.0,52.30578929146786 60.0,52.60281336776728C60.0,52.899837444066705 59.411229488586,53.73162765427114 58.69162108574667,54.45123605711048C57.972012682907334,55.17084445994981 55.159512682907334,56.04713583025736 52.44162108574667,56.398550213349466z"/></svg>