<svg version="1.1" xmlns="http://www.w3.org/2000/svg" xmlns:xlink="http://www.w3.org/1999/xlink" width="80" height="80" viewBox="0 0 80 80"><path stroke="none" fill="black" fill-rule="evenodd" d="M26.25,60.000553901516106C25.0125,60.00024925568225 23.991754366374217,59.4375 23.981676369720482,58.75C23.971598373066744,58.0625 23.74741146014478,48.35768840379584 23.483483229893892,37.1837520084352L23.00361372034682,16.8675040168704L25.75180686017341,17.1837520084352L28.5,17.5L28.5,26.781670268501852L28.5,36.063340537003704L39.0,35.781670268501856L49.5,35.5L49.65320284546836,27.0C49.73746441047596,22.325 49.849964410475955,18.1625 49.90320284546836,17.75C49.956441280460766,17.3375 51.125,17.0 52.5,17.0L55.0,17.0L55.15,37.0C55.232499999999995,48.0 55.345,57.55633723063553 55.4,58.23630495696784C55.455,58.91627268330015 54.66470110041474,59.633473783714884 53.64378022314387,59.830085180111695C52.622859345873,60.0266965765085 51.311837256843425,59.71183725684341 50.73039780307815,59.130397803078154C50.14895834931287,58.5489583493129 49.63425724889813,54.44753601834128 49.58661757993428,50.01612595647455L49.5,41.959016753080505L38.820220476560124,41.71062462595097L28.14044095312024,41.462232498821436L28.32022047656012,50.731670150926824C28.49476458652753,59.73116972645108 28.43447707454296,60.00109167269988 26.25,60.000553901516106z"/></svg>