<svg version="1.1" xmlns="http://www.w3.org/2000/svg" xmlns:xlink="http://www.w3.org/1999/xlink" width="80" height="80" viewBox="0 0 80 80"><path stroke="none" fill="black" fill-rule="evenodd" d="M51.010226275659065,56.48594008358795C46.40095245711731,56.76473734491537 45.0,56.52895912092506 45.0,55.474427901389674C45.0,54.71815168055371 45.748948828601115,53.68024739001923 46.664330730224705,53.16797392242417C47.90682491289628,52.472639218630114 48.31474583673298,50.875937625669295 48.27375820392544,46.86828380885293C48.24356141283725,43.91572771398382 48.09473591223647,40.825 47.94303486925703,40.0C47.72125050888195,38.793863946378735 45.99537955266604,38.5237253369085 39.133494038455765,38.62110368012576L30.59977328579891,38.74220736025153L30.207129174564233,44.54683517796263C29.862697261382337,49.638721207467206 30.089111192419264,50.558613872825354 32.05106287420227,52.03851679815007C33.29069406418802,52.97357235605068 33.97435343673434,54.23248001668351 33.584803348162545,54.862785300313206C33.18732196373746,55.505923690208355 30.300836026944992,56.0 26.94098300562505,56.0C21.75276786964674,56.0 21.0,55.75714371138185 21.0,54.08333333333333C21.000000000000004,53.02916666666666 21.554854624052357,51.98171512531588 22.2330102756719,51.7556632414427C23.15359355446011,51.448802148513295 23.412374785340553,47.31017136568962 23.25430459405437,35.42232990810936C23.06447411724838,21.14592147382823 22.85948657997294,19.448314050665726 21.271294318382473,19.0C20.29708244327211,18.725 19.5,17.6 19.5,16.5C19.5,14.798688630369664 20.266023941789626,14.455484667364392 24.629247409528613,14.20192817463112L29.758494819057226,13.903856349262242L30.42472902160492,18.346624324925283C30.791157833006153,20.790146711539958 30.7967128852747,23.961779032955953 30.43707358220169,25.394696150294166C30.077434279128678,26.827613267632376 30.0440336278035,29.039307937572005 30.362849912590185,30.309573194604454C30.90639840645512,32.47524289284752 31.396035363610345,32.610271688119866 38.2212579424648,32.476712242272626C42.22456607410916,32.39837346145767 46.2875,31.985920562002722 47.25,31.560150243483847C48.2125,31.134379924964975 49.0,29.99697442298367 49.0,29.032582461303168C49.0,28.068190499622666 48.71383420815165,25.19133546150561 48.36407601811479,22.63957126548749C48.01431782807793,20.087807069469363 47.21007976291878,17.999999999999993 46.57688031776114,17.999999999999996C45.943680872603494,18.0 45.35781366271239,17.1 45.27495318466979,16.0C45.14929580599674,14.331857119273547 45.73621759370982,14.002540826619658 48.81214888502345,14.01531277451706C50.84046699826055,14.023734800501444 53.13013426105843,14.42959272010826 53.90029835790762,14.91721926253221C54.994820740894745,15.610212051218568 55.369571183008695,19.701209672441692 55.61646467494333,33.65190648801515C55.79019205246377,43.46835791960682 55.94755779140534,51.88998411378245 55.9661663170357,52.36663136396099C55.98477484266607,52.843278614139535 56.9,52.997907440939 58.0,52.71025097907092C59.1,52.42259451720284 60.0,52.40225326056325 60.0,52.6650481865385C60.00000000000001,52.927843112513756 59.329601824046584,53.81325531881056 58.510226275659065,54.632630867198074C57.62814339588378,55.514713746973364 54.568832267102366,56.27069368174332 51.010226275659065,56.48594008358795zM19.604166666666664,55.72916666666667C19.271875,56.061458333333334 19.035526315789475,55.47083333333334 19.078947368421055,54.41666666666667C19.12693129003894,53.2517236807213 19.36388766765761,53.01476730310263 19.68311403508772,53.8125C19.971984649122806,54.534375 19.93645833333333,55.396875 19.604166666666664,55.72916666666667z"/></svg>