<svg version="1.1" xmlns="http://www.w3.org/2000/svg" xmlns:xlink="http://www.w3.org/1999/xlink" width="80" height="80" viewBox="0 0 80 80"><path stroke="none" fill="black" fill-rule="evenodd" d="M51.05046687081533,56.36819260391255C46.417933975080615,56.618000238030646 45.0,56.371381607858034 45.0,55.31584610696059C45.0,54.55760747215968 45.64140178288672,53.691101449409956 46.42533729530382,53.390277167516764C47.20927280772093,53.08945288562357 48.13974649909273,51.1323220684899 48.49305660946339,49.04109757388639C48.846366719834045,46.94987307928288 48.85102688557591,43.72262519554791 48.5034125333342,41.86943561003091L47.87138643834926,38.5L39.68569321917463,38.5C32.38343999154979,38.5 31.42981429214045,38.71584976810037 30.84968002535062,40.5C30.49200403929346,41.6 30.15450403929346,44.312491612921804 30.09968002535062,46.52775913982622C30.027834356301835,49.430818696144584 30.57035554636264,51.043871922337466 32.042549671484466,52.304403827966745C33.16595199080092,53.26629087953961 33.8143943433322,54.49129926661781 33.483532677109515,55.02664468814052C33.152671010886834,55.561990109663235 29.75852365871883,56.0 25.94098300562505,56.0C20.256660941042,56.0 19.0,55.71147609444309 19.0,54.406380384890056C19.0,53.529889596579594 19.858395664382975,52.58828526096257 20.907545920851057,52.313926305741134C21.956696177319134,52.03956735051969 23.0033212260558,51.06919617731916 23.233379362488087,50.15754592085107C23.463437498920378,49.245895664382985 23.499140676098772,41.975 23.312719756217856,34.0C23.015036831657618,21.265263335872405 22.76232009607833,19.439128850487158 21.236886314580822,19.0C20.28159884156137,18.725 19.5,17.6 19.5,16.5C19.5,14.799430213313634 20.265864801359605,14.455445622052869 24.61548111918424,14.202405595921192C29.637357816551514,13.910256652685803 29.742489749300525,13.962448746502615 30.360940645151235,17.054703225756178C30.70742876888175,18.787143844408764 30.713846057512626,21.937314578248525 30.375201286553178,24.055082634288976C30.03655651559373,26.172850690329426 30.02862150942328,28.977901166808206 30.35756793950774,30.288528137575152C30.92474052259612,32.54832370454432 31.331512741683824,32.662071209781764 38.22782617892156,32.48932307464221C42.2275217805147,32.38913331926214 46.2875,31.964903947474674 47.25,31.54659113733672C48.2125,31.128278327198768 49.0,29.99697442298367 49.0,29.032582461303168C49.0,28.068190499622666 48.71383420815165,25.19133546150561 48.36407601811479,22.63957126548749C47.94292221792721,19.566919304936228 47.24269983296423,17.999999999999993 46.290751854904244,17.99999999999999C45.46212661000985,17.999999999999986 44.993809855238496,17.25883122000732 45.184992488113366,16.249999999999993C45.41932938726314,15.01345264050876 46.65311287456603,14.406633352744315 49.39009522288683,14.181778571562997C51.52049927901828,14.006756785922645 53.711358124499895,14.311358124499984 54.2586704350682,14.858670435068191C54.816405923307855,15.416405923307746 55.40640355822916,23.68749668715 55.601021335718414,33.67689186350519C55.79200202050773,43.47960133857734 55.95990068193035,51.88998411378245 55.97412947221313,52.36663136396099C55.98835826249591,52.843278614139535 56.9,52.997907440939 58.0,52.71025097907092C59.1,52.42259451720284 60.0,52.40225326056325 60.0,52.6650481865385C60.00000000000001,52.927843112513756 59.3477100918669,53.795147050990245 58.550466870815335,54.59239027204181C57.69805908566965,55.44479805718749 54.60848493926058,56.176327787011594 51.05046687081533,56.36819260391255z"/></svg>