<svg version="1.1" xmlns="http://www.w3.org/2000/svg" xmlns:xlink="http://www.w3.org/1999/xlink" width="80" height="80" viewBox="0 0 80 80"><path stroke="none" fill="black" fill-rule="evenodd" d="M51.30608032533363,56.33083022728559C47.91532611062811,56.593130233173156 44.90016400454993,56.56683067121659 44.60572008960433,56.272386756271004C44.311276174658744,55.977942841325415 44.527112806156204,54.883597804200555 45.08535704848758,53.84050889599354C45.64360129081896,52.79741998778651 46.48789150355195,52.1834995432675 46.961557521227576,52.47624124150684C47.435223538903195,52.76898293974619 48.118119249775184,51.26033265238261 48.47910354538755,49.123685047365555C48.84008784099992,46.9870374423485 48.85095808861981,43.72262519554791 48.50325965120953,41.86943561003091L47.87108067409994,38.5L39.510486087757684,38.5L31.14989150141543,38.5L30.574945750707712,41.37499999999999C30.25872558781847,42.95624999999999 30.0,45.54374999999999 30.0,47.12499999999999C30.000000000000004,48.70625 30.916413528796912,50.91641352879691 32.03647450843758,52.03647450843758C33.15653548807825,53.15653548807825 33.80497784060952,54.50653548807825 33.47745751406263,55.03647450843758C33.14993718751574,55.56641352879691 29.75852365871883,56.0 25.94098300562505,56.0C21.428758858529378,56.0 19.0,55.60273046590733 19.0,54.86467070408979C18.999999999999996,54.240239591339176 20.085691835927264,52.72315617307327 21.412648524282808,51.49337421905443C23.789103547240842,49.29095003489136 23.819962749622483,49.03420320642998 23.46971419523051,34.37870351496464C23.149998457719974,21.000792789319224 22.930164158316195,19.449565740462205 21.290299830684873,19.0C20.287192499519087,18.725 19.474012947592627,17.6 19.48323415973718,16.5C19.497470084758483,14.801794029032646 20.272724525184174,14.455065673518856 24.620873515364234,14.202218585137864C29.070693784697788,13.943459259856988 29.811788191324002,14.172274979844659 30.27623803632393,15.948333915500623C30.57020808940144,17.072477125374316 30.572886940596064,19.76547593693704 30.28219103897866,21.932775718973346C29.99149513736125,24.100075501009652 30.045992225403044,27.43162262789627 30.403295679071533,29.33621377872139L31.05293832210515,32.79910678022161L37.776469161052574,32.547551473951195C41.47441112247366,32.40919605550247 45.5125,31.974072578201927 46.75,31.580610413283324C47.9875,31.187148248364725 49.0,30.058356180105918 49.0,29.072183594930426C49.0,28.086011009754934 48.71383420815165,25.19133546150561 48.36407601811479,22.63957126548749C47.94292221792721,19.566919304936228 47.24269983296423,17.999999999999993 46.290751854904244,17.99999999999999C45.461868400930925,17.999999999999986 44.994037223553974,17.259145583323797 45.18567028694552,16.249999999999993C45.436069560280544,14.93138975455808 46.686686740601104,14.424866401697011 50.258994450156074,14.195208809108312L55.0,13.890417618216624L55.09385935155213,19.195208809108312C55.14548199490581,22.11284396409874 55.29774813964984,30.38778532632867 55.43222856209444,37.5839673918415C55.566708984539034,44.78014945735433 55.98888353137984,51.17299618156277 56.37039422174069,51.790293445638056C56.75190491210154,52.40759070971334 57.7246387673575,52.65916042150172 58.532025011198385,52.34933724961223C59.33941125503927,52.03951407772274 60.0,52.22906723156531 60.0,52.770566480373496C60.0,53.31206572918168 59.43099479739778,54.22734294434079 58.735543994217295,54.804515847393745C58.0400931910368,55.38168875044669 54.696834540039156,56.06853022139802 51.30608032533363,56.33083022728559z"/></svg>