<svg version="1.1" xmlns="http://www.w3.org/2000/svg" xmlns:xlink="http://www.w3.org/1999/xlink" width="80" height="80" viewBox="0 0 80 80"><path stroke="none" fill="black" fill-rule="evenodd" d="M51.871636436960515,56.279424950525495C48.7760364772888,56.548352919092146 45.6260364772888,56.361356515216414 44.871636436960515,55.86387738635719C43.76288560172993,55.132726312462204 43.906503960026996,54.617162878315845 45.62098205330618,53.17386474516985C46.78752218262458,52.19183692137603 48.0694522588599,50.35653581118769 48.46971555605133,49.09541783364021C48.86997885324276,47.83429985609273 48.91680932622088,44.93441894361789 48.573783273780464,42.651238028140575L47.95009954207063,38.5L39.54981352777912,38.5L31.149527513487605,38.5L30.5747637567438,41.375C30.258643690534704,42.956250000000004 29.999999999999993,45.56256604911917 29.999999999999996,47.16681344248704C30.0,48.77106083585491 30.884438823522245,51.032960524566484 31.965419607827215,52.19325719517943C33.046400392132185,53.35355386579238 33.694842744663454,54.68473781667321 33.40640261345227,55.151443752692394C33.11796248224108,55.618149688711576 29.758523658718833,56.0 25.940983005625053,56.0C21.42875885852937,56.0 19.0,55.60273046590733 19.0,54.86467070408979C19.0,54.240239591339176 20.11354742878715,52.69734048088211 21.47454984174922,51.4360060141852C23.93115051140276,49.15930535147222 23.946248837183415,49.03520244814899 23.556069784398318,34.326647535582275C23.202699661957137,21.005676526794485 22.978225264226957,19.45963451343532 21.3315199426491,19.00531222548686C20.324183974192096,18.72739050146909 19.35921378750424,17.4875 19.187141750009424,16.25C18.895667718218053,14.15379006610717 19.246539319057575,14.0 24.32051038604847,14.000000000000004C28.92220036149964,14.000000000000007 29.847682264126878,14.309534125099928 30.288733156998745,15.996115330362763C30.575830893705103,17.093978762062278 30.57288694059606,19.76547593693704 30.282191038978652,21.932775718973346C29.991495137361248,24.100075501009652 30.041969208792235,27.410178105718018 30.39435564215863,29.28855928499194L31.03505824827935,32.70379779276271L37.26752912413967,32.425163525791476C40.695388105862854,32.2719146789573 44.175,32.10666942705301 45.0,32.05795185489306C45.825,32.00923428273311 47.113033948242396,31.5809758544303 47.862297662760874,31.1062664586646C48.90401140708255,30.446270128206272 49.05739990962795,28.802592346891196 48.51411076533114,24.121579233181663C48.00253276967099,19.713791351703023 47.390648214924106,18.0 46.32848893935972,18.000000000000004C45.46366540495262,18.000000000000007 44.990843022779806,17.275966342468713 45.18567028694553,16.250000000000004C45.436069560280544,14.931389754558078 46.68668674060109,14.42486640169701 50.258994450156074,14.195208809108305L55.0,13.89041761821661L55.06897636118187,19.195208809108305C55.10691335983189,22.112843964098737 55.2194133598319,30.686280821200718 55.31897636118187,38.24729071377937C55.49720808963993,51.782558270709 55.53470153594946,51.99462321262238 57.75,51.99729071377937C58.9875,51.99878082120072 60.0,52.39489987805102 60.0,52.87755528455783C60.0,53.36021069106463 59.4375,54.21306531779196 58.75,54.77278778839634C58.0625,55.33251025900072 54.96723639663223,56.01049698195884 51.871636436960515,56.279424950525495z"/></svg>