<svg version="1.1" xmlns="http://www.w3.org/2000/svg" xmlns:xlink="http://www.w3.org/1999/xlink" width="80" height="80" viewBox="0 0 80 80"><path stroke="none" fill="black" fill-rule="evenodd" d="M52.5,56.20694634117275C49.75,56.47194689430181 46.7125,56.500797411282356 45.75,56.27105860112954C44.7875,56.041319790976715 44.0,55.61380770603538 44.0,55.321031745704346C44.0,55.02825578537331 45.125,53.45172528194348 46.5,51.817630626971386C48.10280340882041,49.912807002735406 48.96422696841869,47.70772893214635 48.90031997464938,45.67327471805652C48.84549596070654,43.92797362312543 48.50799596070654,41.6 48.15031997464938,40.5C47.56997843277307,38.715212312402976 46.61656000845021,38.5 39.29006087815648,38.5L31.080121756312963,38.5L30.431872644010053,43.69369313618278C29.89258900171316,48.01436816418692 30.13302676402548,49.37807786422837 31.86226674935789,51.80657148601178C33.0055205190658,53.4121233535172 33.6542052244317,55.01246144223495 33.30378831683767,55.362878349829C32.95337140924364,55.71329525742305 29.591666666666693,56.0 25.83333333333335,56.0C22.075000000000006,56.0 19.0,55.5675298163388 19.0,55.03895514741955C19.0,54.5103804785003 20.0125,53.13410474461743 21.25,51.98056462767984C23.393923323597654,49.982098719471296 23.49908397120506,49.16891694705729 23.48057004745514,34.732107662534844C23.462302947780614,20.48776714646177 23.342606014126225,19.548648377017095 21.48057004745514,19.040498182274558C20.391256521354812,18.74322418202355 19.35921378750424,17.4875 19.187141750009424,16.25C18.895609445151038,14.153370980464405 19.246182187213996,14.0 24.330152945825105,14.0C28.294773970775047,14.0 29.945819741659644,14.416425219031327 30.370655687698452,15.523529947928843C30.692204000535348,16.361471419289707 30.683862906150555,19.027329025940283 30.352119922398913,21.447657962707904C30.02037693864727,23.867986899475525 30.038856605768437,27.39358650517709 30.393185849334834,29.282323753155833L31.03742083763738,32.71639147675354L36.76871041881869,32.445576755650904C39.92091968846841,32.29662865904445 43.4,32.12854982824222 44.5,32.07206824275707C45.6,32.01558665727191 47.092472903843294,31.59368327871314 47.81660645298509,31.13450517929313C48.802799692245436,30.509153215140795 48.958603019658625,28.756288531999104 48.437440177993565,24.149817953810192C47.96181974318338,19.94588903911876 47.30791634714151,18.0 46.37083372500847,18.0C45.616875176253814,18.0 45.0,17.1 45.0,16.0C45.0,14.300233829232063 45.666666666666664,14.0 49.44098300562506,14.000000000000004C51.88352365871883,14.000000000000005 54.1429951631487,14.422354039826482 54.46203079324697,14.93856453294773C54.781066423345244,15.454775026068978 55.14512407081397,24.00350358381606 55.27104778762192,33.93573910571902C55.47644063169836,50.13610352946051 55.6740035224274,51.99463988429546 57.19098300562506,51.9971745727713C58.12102365871883,51.998728557747086 59.1285689436435,52.399011926337906 59.42997252767987,52.886693169639784C59.731376111716244,53.37437441294167 59.42043375918497,54.21252802251638 58.73898952205482,54.74925674647248C58.05754528492467,55.28598547042858 55.25,55.9419457880437 52.5,56.20694634117275z"/></svg>