<svg version="1.1" xmlns="http://www.w3.org/2000/svg" xmlns:xlink="http://www.w3.org/1999/xlink" width="80" height="80" viewBox="0 0 80 80"><path stroke="none" fill="black" fill-rule="evenodd" d="M26.333333333333353,56.0C20.606156514050294,56.0 20.0,55.80293370047148 20.0,53.94098300562506C20.0,52.80852365871883 20.41373392567899,52.13766763961864 20.919408723731088,52.45019185206908C21.425083521783183,52.762716064519516 22.325335399585367,51.544253818382074 22.919968452180377,49.74249797176366C23.54852882705046,47.837941328919 23.875812336036308,40.83626718366972 23.70178511216401,33.01685997217457C23.426871433046752,20.664413284835682 23.243263479108172,19.523611255377627 21.451225383714718,19.03357084685494C20.37805142267162,18.740106881084724 19.373170383438158,17.736001669368854 19.21815640764035,16.80222593193079C19.063142431842543,15.868450194492722 19.82020643419692,14.631406354786439 20.900520857316746,14.053239621472382C21.980835280436573,13.475072888158326 24.153017288472316,13.1430632172696 25.72759198628507,13.31544035283077C27.302166684097827,13.48781748839194 29.123514417484483,13.95830211935617 29.775031393810977,14.360961754973502C30.57074989317784,14.852742833059281 30.78558214621953,16.96533193563762 30.42947419002404,20.796535091684326C30.137900751614733,23.933440791257947 30.28345874610382,27.81856763045741 30.75293639999979,29.430150289905356C31.533389677047456,32.109223420142214 31.98756150663807,32.35801574985908 36.05326606717805,32.333635887753516C38.49896973023012,32.318970307122065 41.85,32.23101192813198 43.5,32.138172823331104C45.15,32.04533371853023 47.092472903843294,31.59368327871314 47.8166064529851,31.13450517929313C48.80279969224545,30.50915321514079 48.95860301965864,28.756288531999132 48.43744017799355,24.14981795381019C47.96181974318336,19.945889039118807 47.307916347141465,17.999999999999993 46.37083372500845,17.999999999999996C45.61687517625381,18.0 45.0,17.1 45.0,16.0C45.0,14.300233829232065 45.66666666666667,14.0 49.44098300562506,13.999999999999996C51.883523658718836,13.999999999999995 54.14768837453088,14.429947815359213 54.47246015187403,14.955439589687149C54.79723192921719,15.480931364015085 55.16128957668592,24.030081120294252 55.281477146248974,33.95355015919641C55.47163156290617,49.653938087567475 55.705546885802626,51.99646642315746 57.08333333333318,51.998110569509265C57.95416666666643,51.99914975627917 58.93566121578381,52.26899454911732 59.26443233137181,52.597765664705165C59.5932034469598,52.92653678029301 59.620058485076925,53.82653678029301 59.3241101938543,54.597765664705165C58.92962571586595,55.6257757357213 56.81299683811241,56.0 51.393011195815674,56.0C47.32685503811705,56.0 44.0,55.7274601590117 44.0,55.39435590891489C43.99999999999999,55.06125165881808 45.12499999999999,53.45172528194351 46.49999999999999,51.8176306269714C48.102803408820385,49.91280700273541 48.964226968418686,47.70772893214633 48.90031997464938,45.67327471805651C48.84549596070654,43.92797362312543 48.507995960706545,41.6 48.150319974649385,40.5C47.569630332466055,38.71414176153391 46.61656000845021,38.5 39.249017237724644,38.5C31.39585503617231,38.5 30.992054992947327,38.60848359370223 30.87401723772464,40.75C30.805807756976087,41.9875 30.668606606237354,44.4625 30.569125791638562,46.25C30.46964497703977,48.0375 31.187599719616713,50.67579525742305 32.16458077514288,52.112878349828996C33.14156183066905,53.549961442234945 33.6542052244317,55.012461442234944 33.30378831683767,55.362878349828996C32.953371409243644,55.71329525742305 29.8166666666667,56.0 26.333333333333353,56.0z"/></svg>