<svg version="1.1" xmlns="http://www.w3.org/2000/svg" xmlns:xlink="http://www.w3.org/1999/xlink" width="80" height="80" viewBox="0 0 80 80"><path stroke="none" fill="black" fill-rule="evenodd" d="M26.333333333333353,56.0C20.606156514050294,56.0 20.0,55.80293370047148 20.0,53.94098300562506C20.0,52.80852365871883 20.41373392567899,52.13766763961864 20.919408723731088,52.45019185206908C21.425083521783183,52.762716064519516 22.325335399585367,51.544253818382074 22.919968452180377,49.74249797176366C23.548172444737325,47.83902117793433 23.87705706493246,40.817769252851065 23.704991706586437,32.98328912531964C23.418786844656125,19.951808967141815 23.334996064996467,19.48929222797817 21.204431978137144,19.18044904692416C19.830983114351568,18.981356084303243 19.0,18.155442697289043 19.0,16.989466041299103C19.0,15.960178412397033 19.524017792747117,14.794173182122469 20.164483983882484,14.398343307355624C20.80495017501785,14.00251343258878 22.717450175017852,13.551236591021386 24.414483983882484,13.395505881650305C26.11151779274712,13.239775172279224 28.32396461558639,13.35397620258732 29.33103247908087,13.649285949001634C30.88731911411957,14.105647062488583 31.071105162105848,14.884978174586408 30.555867104834597,18.84310638033201C30.22245828550467,21.404397871149406 30.31105198486223,25.525 30.75274199229585,28.0L31.555814733084247,32.5L38.9545376757977,32.28765540503014C43.58780232397709,32.154679929029264 46.85924852515923,31.569322903412196 47.70698355877462,30.721587869796807C48.7013488585508,29.727222570020626 48.883370832879706,27.859015150545304 48.39267183841428,23.683932464766677C47.945645100567184,19.880432530354234 47.27393720780587,18.000000000000007 46.36231858889524,18.000000000000004C45.61304336500286,18.0 45.0,17.1 45.0,16.0C45.0,14.300233829232065 45.66666666666667,14.0 49.44098300562506,13.999999999999996C51.883523658718836,13.999999999999995 54.17251695858662,14.470121308253956 54.52763478310902,15.044714018342134C54.882752607631424,15.619306728430312 55.23737612323506,24.169306728430314 55.31568704000598,34.044714018342134C55.440608389074,49.797935307533145 55.65482417973575,52.0 57.062368595855204,52.0C57.94473253480134,52.0 58.93566121578381,52.26899454911732 59.26443233137181,52.597765664705165C59.5932034469598,52.92653678029301 59.620058485076925,53.82653678029301 59.3241101938543,54.597765664705165C58.92962571586595,55.6257757357213 56.81299683811241,56.0 51.393011195815674,56.0C47.32685503811705,56.0 44.0,55.615710227075816 44.0,55.14602272683514C44.0,54.676335226594475 45.125,53.078150364771375 46.5,51.59450081167269C48.160363814507164,49.802938607036495 48.966522017497915,47.822732994260924 48.900319974649385,45.69847808483755C48.84549596070654,43.939315138176894 48.507995960706545,41.6 48.150319974649385,40.5C47.569639365340436,38.714169541318434 46.61656000845021,38.5 39.25008746704768,38.5C31.143888616183162,38.5 30.998408466202807,38.54355006235332 30.898770493028028,41.0C30.842998050440993,42.375 30.877945976165133,45.075 30.976432550192783,47.0C31.074919124220436,48.925 31.7720901475867,51.46092161494257 32.52570149100671,52.63538136653905C33.27931283442671,53.80984111813553 33.61932554853112,55.04734111813553 33.28128530012762,55.38538136653905C32.94324505172412,55.72342161494257 29.8166666666667,56.0 26.333333333333353,56.0z"/></svg>