<svg version="1.1" xmlns="http://www.w3.org/2000/svg" xmlns:xlink="http://www.w3.org/1999/xlink" width="80" height="80" viewBox="0 0 80 80"><path stroke="none" fill="black" fill-rule="evenodd" d="M26.616631363960987,56.0C21.401847929328998,56.0 20.0,55.68219902570865 20.0,54.5C20.0,53.675 20.415101562707598,53.0 20.922447917127997,53.0C21.4297942715484,53.0 22.324974247060755,51.5375 22.911736751599904,49.75C23.511406203574396,47.923180567755786 23.87227627575817,40.58832687239905 23.735825950939308,33.0C23.499405697621793,19.852107799594474 23.43447991880246,19.49166545311512 21.2465371164674,19.18044904692416C19.820452054636256,18.977600477303397 19.0,18.16873312199895 19.0,16.965632805412156C19.0,15.923236896772266 19.8110673923539,14.63629742154897 20.802371983008662,14.105767304915943C21.793676573663426,13.575237188282916 24.381176573663424,13.241158540231524 26.552371983008662,13.363370309246182L30.5,13.58557352563647L30.69258077382925,21.9219630124741C30.79850019943534,26.5069772302348 31.078694723924357,30.762723186966593 31.315235272693734,31.379176249655867C31.55177582146311,31.99562931234514 33.49011447323995,32.43968896483132 35.622654498864485,32.36597547740294C37.75519452448901,32.292261989974556 41.397782315770286,32.09265190075275 43.71729403504507,31.92239750135448C46.151345366004875,31.743735783884617 48.15955387004977,31.026592570602904 48.46662273036681,30.226383947665273C48.75924179351897,29.463830892534475 48.71200284275154,26.40094098175628 48.36164728421697,23.419961923713732C47.939020013964864,19.82406338210427 47.26615509106374,18.000000000000007 46.36231858889524,18.000000000000004C45.61304336500286,18.0 45.0,17.1 45.0,16.0C45.0,14.266666666666666 45.666666666666664,14.0 50.0,14.0L55.0,14.0L55.152693244847086,18.25C55.236674529512975,20.5875 55.18829765806872,26.40137485314499 55.04518908608206,31.169721895877757C54.90208051409541,35.93806893861053 55.09765356928535,42.53335808712453 55.47979587539304,45.82592000368667C56.02739811307675,50.54409499871982 56.580700929135325,51.91859397633131 58.09142637940728,52.31365755622154C59.353879496518445,52.64379646253291 59.79962796017704,53.35858622925649 59.39713754106491,54.40745944841264C58.91364666306121,55.66741647984472 57.22676533290862,56.0 51.319687032605145,56.0C44.729762186588026,56.0 43.89827529945813,55.79458217130419 44.23606599680838,54.25C44.446558874584575,53.2875 45.10658397502012,52.59650974233026 45.70278844222071,52.71446609406725C46.29899290942129,52.83242244580424 47.33679220472724,51.60112525401907 48.00900909845615,49.97825011232242C48.744891514683765,48.20167280275381 48.97607594703544,45.32613470238474 48.59000645095767,42.75163884642944L47.94879126940663,38.475709656348535L39.517103379447406,38.487854828174264C31.272005226504923,38.499731232411996 31.078918528916418,38.555323957507646 30.791828368082747,41.0C30.630355451309757,42.375 30.797188140503994,45.3 31.162567677403278,47.5C31.52794721430256,49.7 32.14332704758261,52.5125 32.53007841802561,53.75C33.21059895836335,55.92748205443546 33.02000738877871,56.0 26.616631363960987,56.0z"/></svg>