<svg version="1.1" xmlns="http://www.w3.org/2000/svg" xmlns:xlink="http://www.w3.org/1999/xlink" width="80" height="80" viewBox="0 0 80 80"><path stroke="none" fill="black" fill-rule="evenodd" d="M26.383368636039016,56.0C22.27263580147701,56.0 20.0,55.5942184098908 20.0,54.86024259861537C20.0,54.23337602785383 20.7875,53.14470612983081 21.75,52.44097615856421C23.289087443328967,51.315675418542746 23.5,49.253523983265254 23.5,35.33073355994884C23.5,19.675024965357704 23.475123946684874,19.496467037090838 21.25,19.18044904692416C19.64530915925209,18.952546608011687 19.0,18.186623507051962 19.0,16.509904312743245C19.0,14.72969438230663 19.667656206474717,14.040891723430713 21.75,13.672804479716373C23.2625,13.405446151159383 25.85,13.30100003306897 27.5,13.44070199507101C30.175733776892656,13.667250636541937 30.50947157640202,14.06249341641928 30.587627779834015,17.097352781173722C30.635823058742723,18.968808751528176 30.74832305874272,23.110623608534965 30.837627779834012,26.301385796744366L30.999999999999996,32.10277159348873L39.44471541271738,31.9166467673153C46.07408553159378,31.770532860485826 48.01881120059305,31.393362088027256 48.49128902393241,30.162104617007213C48.82231103310612,29.29947508873315 48.7953386068288,26.21010765197623 48.431350298871706,23.29684364643628C47.99066192117745,19.7696930200821 47.30689489375383,18.0 46.384776687656675,18.0C45.623149509445504,18.0 45.0,17.1 45.0,16.0C45.0,14.266666666666666 45.666666666666664,14.0 50.0,14.0L55.0,14.0L55.144301985401874,18.25C55.223668077372906,20.5875 55.1757827330626,26.846359254594656 55.037890109156734,32.15857612132146C54.89999748525088,37.47079298804826 55.10228863747042,44.10829298804826 55.487426002977934,46.90857612132146C55.95175080857797,50.284620717173006 56.6614334788312,52.0 57.593837879223074,52.0C58.36722704565038,52.0 59.0,52.91971429872427 59.0,54.04380955272061C59.0,55.94130274945154 58.48097239318942,56.06658527523341 51.75,55.79380955272061C46.1028042456536,55.56495437220885 44.5,55.16838532848546 44.5,54.0C44.5,53.175 45.01452922699081,52.59650974233026 45.643398282201794,52.71446609406725C46.27226733741278,52.83242244580424 47.33679220472724,51.60112525401907 48.00900909845615,49.97825011232242C48.7500204867628,48.189290368799576 48.97602663184407,45.325805845126915 48.583046682807804,42.70522778717134L47.93487173310691,38.38288753783233L39.428741364867264,38.441443768916166L30.92261099662762,38.5L31.21130549831381,45.5C31.40077411343053,50.09406153588162 31.89438157262796,52.42582372493636 32.64744040613164,52.28418653128945C33.327277648254345,52.15632103814742 33.58538706867674,52.86947836870927 33.28080904217066,54.03418653128945C32.83744582597359,55.72961007453125 31.888729975246214,56.0 26.383368636039016,56.0z"/></svg>