<svg version="1.1" xmlns="http://www.w3.org/2000/svg" xmlns:xlink="http://www.w3.org/1999/xlink" width="80" height="80" viewBox="0 0 80 80"><path stroke="none" fill="black" fill-rule="evenodd" d="M26.616631363960987,56.0C21.22522066032535,56.0 20.157372127243885,55.7097938971933 19.74489758227012,54.132488814162635C19.416082519608278,52.87509808294414 19.763922248890555,52.30336881905527 20.80959649605933,52.382488814162635C21.83973608482882,52.46043339340805 22.640514852728153,51.20142323044156 23.18787633136855,48.64328067945218C23.641745008096038,46.52208505315088 23.897646383108448,39.097085053150884 23.756546053618354,32.14328067945218C23.505767444259433,19.784235191095878 23.448091857963135,19.4926424221375 21.191034643561895,19.17272200997396C19.339476329896193,18.910277932316895 18.94327545880299,18.31597662567709 19.191034643561895,16.17272200997396C19.485427199548624,13.626062821289645 19.759415500192556,13.503676132512007 25.0,13.57793955565889C30.374457778384375,13.654100074050662 30.501883001826663,13.722577649477367 30.582494239096338,16.57793955565889C30.627866070599325,18.185072800046502 30.740366070599325,22.343206510503272 30.832494239096338,25.818236690007275L31.0,32.13647338001455L39.4685696140734,31.871334608295193C45.91375043404226,31.66954523842619 48.075241276551814,31.246307667306752 48.515143225288426,30.099941564724197C48.83304542371633,29.271501715205794 48.7953386068288,26.21010765197623 48.431350298871706,23.29684364643628C47.99066192117745,19.7696930200821 47.30689489375383,18.0 46.384776687656675,18.0C45.623149509445504,18.0 45.0,17.1 45.0,16.0C45.0,14.266666666666666 45.666666666666664,14.0 50.0,14.0L55.0,14.0L55.12544596030942,17.75C55.1944412384796,19.8125 55.306941238479595,27.8 55.37544596030942,35.5C55.44395068213924,43.2 55.883017785970715,50.09317814852761 56.35115063549047,50.8181736633947C56.81928348501023,51.54316917826179 57.761527658744455,51.9217520267296 58.44502657712208,51.65946888221206C59.29519123391575,51.33323009302597 59.53980702395443,51.95651398038301 59.2194043275871,53.63259242634762C58.76801510078819,55.99388264754754 58.4930495455927,56.07204687662151 51.62552838595549,55.79129720753026C46.08785746845295,55.564912862803 44.5,55.16573900577339 44.5,54.0C44.5,53.175 45.01452922699081,52.59650974233026 45.643398282201794,52.71446609406725C46.27226733741278,52.83242244580424 47.33679220472724,51.60112525401907 48.00900909845615,49.97825011232242C48.74353089649817,48.2049576256307 48.97608885218094,45.326220760060785 48.59182773194971,42.763784018255166L47.95243383139071,38.5L39.47621691569535,38.5L31.0,38.5L31.0,45.25C31.0,50.78306491311613 31.2897186755617,52.0 32.60698880418433,52.0C33.6615097543188,52.0 34.005300484292356,52.5438038683678 33.60698880418433,53.581787468235774C33.27314496188295,54.45177057576546 33.0,55.35177057576546 33.0,55.581787468235774C33.0,55.8118043607061 30.127484113782444,56.0 26.616631363960987,56.0z"/></svg>